<svg width="33" height="33" viewBox="0 0 33 33" fill="none" xmlns="http://www.w3.org/2000/svg">
<path fill-rule="evenodd" clip-rule="evenodd" d="M20.7334 0.93038C20.7222 0.939789 16.7887 0.945243 11.9922 0.942516C3.16212 0.937334 2.42458 0.942516 2.45502 1.0096C2.46603 1.0336 2.4466 1.04615 2.39705 1.04683C2.26881 1.04874 1.98513 1.1675 1.93153 1.24182C1.90368 1.28054 1.86563 1.31204 1.84701 1.31218C1.82839 1.31218 1.7586 1.35404 1.69222 1.40531C1.62567 1.45658 1.56155 1.49858 1.54957 1.49858C1.5154 1.49858 1.34263 1.65825 1.37583 1.65921C1.39202 1.65961 1.3802 1.6723 1.34943 1.68743C1.31851 1.70257 1.3007 1.72479 1.3096 1.73706C1.31867 1.74934 1.30377 1.76638 1.27673 1.77524C1.24953 1.78397 1.23544 1.80197 1.245 1.8152C1.25471 1.82842 1.24046 1.84629 1.21342 1.85515C1.18638 1.86388 1.17213 1.88187 1.18185 1.8951C1.19156 1.90819 1.17731 1.92619 1.15027 1.93492C1.12307 1.94378 1.10882 1.96178 1.11854 1.97487C1.12825 1.9881 1.11287 2.00651 1.08437 2.01564C1.05587 2.02491 1.04163 2.04005 1.05264 2.04932C1.06381 2.05859 1.0596 2.07946 1.04373 2.09582C1.0277 2.11204 1.00487 2.191 0.993049 2.27131C0.981067 2.35162 0.96698 2.44135 0.961475 2.47066C0.955969 2.49984 0.942531 2.58316 0.93152 2.65556C0.920348 2.72797 0.904318 2.79683 0.895574 2.80869C0.886992 2.82042 0.895412 2.8301 0.914518 2.8301C0.937834 2.8301 0.939292 2.84551 0.91889 2.87769C0.899945 2.90728 0.894278 3.91331 0.903507 5.56077C0.911603 7.01051 0.917433 8.2324 0.916623 8.27644C0.904641 8.89782 0.876791 11.0701 0.876791 11.3923C0.875819 17.8776 0.909498 31.5108 0.926338 31.5416C0.938967 31.5648 0.93492 31.6156 0.91727 31.6548C0.894116 31.7062 0.89525 31.7259 0.921319 31.7259C0.941073 31.7259 0.949007 31.733 0.938644 31.7418C0.909985 31.7659 1.16225 32.1538 1.25779 32.2328C1.30426 32.2711 1.41291 32.3495 1.49937 32.407C1.71359 32.5497 1.7633 32.5835 1.84296 32.6412C2.02026 32.7696 2.11078 32.8135 2.22768 32.8277C2.29715 32.836 2.47509 32.8618 2.62293 32.8847C2.85528 32.921 3.10561 32.9241 4.46508 32.9083C5.8673 32.8921 6.13949 32.8794 5.99894 32.8371C5.80351 32.7783 6.19988 32.7741 17.8503 32.7099C20.7376 32.6941 23.1747 32.6747 23.266 32.6671C23.431 32.653 23.4971 32.6076 23.3609 32.6018C23.3074 32.5994 23.3034 32.5956 23.3452 32.5865C23.384 32.5779 23.4004 32.5476 23.4004 32.4846C23.4004 32.4353 23.4146 32.3875 23.4321 32.3785C23.4495 32.3694 23.4637 32.2855 23.4637 32.192C23.4637 32.0986 23.476 32.0157 23.4909 32.0079C23.506 32.0001 23.528 31.8825 23.54 31.7467C23.5518 31.6107 23.5745 31.4037 23.5903 31.2866C23.6062 31.1693 23.6234 31.0376 23.6284 30.9936L23.6376 30.9137L23.3847 30.8931C23.0346 30.8644 16.3117 30.8301 9.95997 30.8243C4.22463 30.8193 4.52386 30.8268 4.16084 30.6765C3.77984 30.5188 3.49502 30.2071 3.42864 29.875C3.41698 29.8164 3.4186 27.923 3.4322 25.6672C3.45713 21.5761 3.48077 20.8304 3.52028 22.8974C3.56481 25.2261 3.67994 28.2606 3.75895 29.1826C3.82113 29.9087 4.11485 30.2486 4.72593 30.302C5.06823 30.3318 7.09902 30.2619 7.8568 30.1941C7.94375 30.1863 8.15311 30.1727 8.32183 30.1638C8.55937 30.1513 8.64292 30.1364 8.69214 30.098C8.74412 30.0571 8.80581 30.0482 9.0367 30.0482C9.30614 30.0482 9.32217 30.0448 9.41738 29.9683C9.47195 29.9243 9.53801 29.8884 9.56424 29.8884C9.59047 29.8884 9.612 29.8764 9.612 29.8618C9.612 29.8471 9.68325 29.8351 9.7702 29.8351C9.85715 29.8351 9.92823 29.8231 9.92823 29.8085C9.92823 29.7936 10.0126 29.7819 10.118 29.7819H10.3078V29.702C10.3078 29.6209 10.3505 29.5947 10.3842 29.6554C10.3989 29.682 10.4064 29.682 10.4211 29.6554C10.4313 29.6371 10.4799 29.6221 10.5291 29.6221C10.5785 29.6221 10.6271 29.6071 10.6373 29.5888C10.652 29.5621 10.6593 29.5621 10.674 29.5888C10.7016 29.6383 10.7409 29.629 10.7597 29.5688C10.7717 29.53 10.8028 29.5155 10.874 29.5155C10.9713 29.5155 11.0079 29.4776 10.9323 29.4548C10.8517 29.4305 10.9475 29.3983 11.1005 29.3983C11.2574 29.3983 11.2586 29.3976 11.2393 29.3237C11.2192 29.247 11.2435 29.2343 11.3908 29.2447C11.4213 29.2468 11.4462 29.2307 11.4462 29.2089C11.4462 29.1871 11.4605 29.1693 11.478 29.1693C11.4953 29.1693 11.5095 29.1872 11.5095 29.2092C11.5095 29.2312 11.5238 29.2492 11.5411 29.2492C11.5586 29.2492 11.5728 29.232 11.5728 29.2108C11.5728 29.1572 11.6345 29.1308 11.6768 29.1663C11.7325 29.2133 11.7942 29.2009 11.7942 29.1427C11.7942 29.0848 11.8207 29.0793 12.0526 29.0883C12.1935 29.0937 12.2011 29.0904 12.2108 29.0184C12.22 28.9505 12.2343 28.9421 12.3535 28.9349C12.4621 28.9282 12.4877 28.9162 12.4958 28.8682C12.5036 28.8224 12.524 28.8113 12.5903 28.8172C12.6567 28.8229 12.6773 28.8119 12.6852 28.7659C12.697 28.6977 12.7744 28.665 12.7744 28.7281C12.7744 28.7801 12.9331 28.757 12.9738 28.6992C12.9877 28.6795 13.0164 28.6632 13.0374 28.6632C13.0585 28.6632 13.0899 28.637 13.107 28.6051C13.1451 28.5341 13.2173 28.5098 13.2173 28.5679C13.2173 28.6293 13.3334 28.6199 13.353 28.5567C13.371 28.4986 13.6053 28.4771 13.6441 28.5301C13.6801 28.579 13.7189 28.5576 13.7291 28.4835C13.7382 28.4172 13.7526 28.4095 13.8813 28.402C13.9597 28.3973 14.0373 28.3823 14.0538 28.3687C14.0703 28.3549 14.1236 28.3437 14.1723 28.3437C14.2411 28.3437 14.2609 28.3312 14.2609 28.288C14.2609 28.2543 14.2863 28.2266 14.3251 28.218C14.3844 28.2049 14.5139 28.0165 14.5139 27.9431C14.5139 27.9262 14.5458 27.8748 14.585 27.8289C14.6679 27.7312 14.7342 27.4576 14.8277 26.8257C14.8439 26.7158 14.8732 26.5541 14.8927 26.4661C14.9531 26.1937 14.9885 25.996 15.0208 25.7509C15.0378 25.6213 15.0739 25.3575 15.1011 25.165C15.1712 24.6672 15.2006 24.443 15.2878 23.7461C15.33 23.4072 15.3726 23.1017 15.3823 23.067C15.4003 23.0027 15.5363 21.8661 15.5923 21.3128C15.6294 20.9459 15.6997 20.3407 15.7623 19.8481C15.7874 19.6503 15.8509 19.0331 15.9034 18.4765C15.9558 17.9198 16.014 17.3114 16.0324 17.1243C16.1378 16.0569 16.1071 15.4583 15.9337 15.1959C15.8187 15.0216 15.8294 14.9913 15.9612 15.1177C16.291 15.4341 16.3049 15.905 16.0967 19.6883C16.0794 20.0032 16.0504 20.5305 16.0324 20.8601C15.9842 21.7457 15.9413 22.4876 15.9053 23.0572C15.8386 24.1177 15.8077 24.6179 15.779 25.0946C15.7628 25.3656 15.7345 25.827 15.7162 26.1199C15.5348 29.0232 15.5292 29.3123 15.6508 29.5129C15.8158 29.7852 15.9573 29.8127 17.1388 29.8029C18.5179 29.7914 18.6264 29.7208 18.582 28.8641C18.5051 27.3819 18.4758 26.8723 18.4159 25.9801C18.399 25.7267 18.3404 25.5885 18.3404 25.8019C18.3404 25.854 18.3246 25.9499 18.3051 26.0149L18.2697 26.1333H18.1153C17.9821 26.1333 17.961 26.1405 17.961 26.1865C17.961 26.2158 17.9468 26.2398 17.9293 26.2398C17.912 26.2398 17.8977 26.2278 17.8977 26.2132C17.8977 26.1719 17.274 26.1783 17.2562 26.2199C17.2447 26.2464 17.2285 26.2464 17.1749 26.2199C17.1382 26.2015 17.0438 26.1865 16.9652 26.1865C16.8867 26.1865 16.8224 26.1745 16.8224 26.1599C16.8224 26.1213 16.7042 26.1271 16.6853 26.1665C16.6731 26.1916 16.6608 26.19 16.6351 26.1599C16.605 26.1244 16.5975 26.1244 16.5695 26.1599C16.5413 26.1953 16.534 26.1953 16.5038 26.1599C16.4782 26.1297 16.4659 26.1281 16.4537 26.1532C16.4348 26.1927 16.3164 26.1985 16.3164 26.1599C16.3164 26.1453 16.3022 26.1333 16.2849 26.1333C16.2675 26.1333 16.2533 26.158 16.2533 26.1881C16.2533 26.2182 16.239 26.2355 16.2215 26.2264C16.2042 26.2174 16.19 26.1867 16.19 26.1584C16.19 26.0701 16.064 26.0911 16.0612 26.1799C16.0601 26.2201 16.0459 26.277 16.0297 26.3063C15.9816 26.3932 16.0212 25.2821 16.1263 23.6032C16.1432 23.3322 16.1718 22.8168 16.1898 22.4581C16.2572 21.1188 16.2868 20.5679 16.3161 20.1144C16.3328 19.858 16.3613 19.3487 16.3796 18.9825C16.3979 18.6164 16.4277 18.0711 16.4456 17.7708C16.5854 15.4427 16.5077 15.1256 15.6783 14.6403C15.3326 14.438 14.8111 13.9921 14.6878 13.7936L14.593 13.6408L14.665 13.5952C14.8841 13.4565 16.6709 12.7252 16.7909 12.7252C16.9549 12.7252 16.9505 12.7114 16.7564 12.6164C16.4123 12.4479 16.1649 11.9837 16.1605 11.499C16.159 11.3327 16.1906 11.3679 16.3025 11.6566C16.6035 12.434 17.6612 12.5104 17.9081 11.7726C18.0197 11.4392 18.1014 10.9552 18.1343 10.4336C18.1455 10.2578 18.167 10.0181 18.1825 9.901C18.1979 9.78373 18.2261 9.44229 18.2449 9.1419C18.2638 8.84164 18.3003 8.34435 18.3257 8.03673C18.3511 7.72911 18.3869 7.23182 18.4052 6.93143C18.4233 6.63117 18.4585 6.24774 18.4832 6.0792L18.5281 5.77294L18.5132 6.13251C18.5051 6.33023 18.4845 6.6898 18.4677 6.93143C18.451 7.17319 18.4154 7.71248 18.3887 8.13C18.3621 8.54739 18.3262 9.10468 18.3088 9.36839C18.2915 9.63197 18.2561 10.2073 18.23 10.6467C18.1283 12.3547 18.0138 12.6067 17.287 12.7213C17.1354 12.7453 17.1487 12.8009 17.3087 12.8122C17.4788 12.8242 17.7852 12.717 17.9636 12.5829C18.3258 12.3107 18.4466 11.8428 18.5294 10.3937C18.5482 10.0641 18.577 9.58465 18.5933 9.32844C18.6099 9.07209 18.6379 8.61665 18.6558 8.3164C18.7224 7.20523 18.7836 6.31482 18.8461 5.54659C18.9298 4.51928 18.9494 4.30411 18.9913 3.95313C19.1534 2.59216 19.3759 2.90441 19.5098 4.68114C19.5284 4.93012 19.5577 5.2717 19.5747 5.4401C19.5916 5.6085 19.6338 6.18378 19.6683 6.71844C19.703 7.25309 19.746 7.91824 19.764 8.19654C19.7821 8.47484 19.8102 8.86428 19.8263 9.06199C19.8542 9.3992 19.9091 10.3297 19.9352 10.8997C20.0313 13.0126 20.0302 12.9205 19.959 13.1579C19.7808 13.7498 19.459 14.123 18.6568 14.6677C17.9504 15.1472 17.9761 15.0909 17.9823 16.1463C17.9848 16.593 17.9989 17.1562 18.0135 17.3979C18.0373 17.7932 18.0417 17.7163 18.0559 16.6336C18.0673 15.767 18.082 15.421 18.1085 15.3986C18.1367 15.375 18.1461 15.4427 18.1482 15.6836C18.1497 15.8575 18.1654 16.1855 18.1832 16.4126C18.287 17.7441 18.3109 18.0162 18.3407 18.1969C18.3751 18.4046 18.4691 19.369 18.5448 20.2875C18.6124 21.1095 18.7282 22.1819 18.799 22.6445C18.8224 22.7983 18.8508 23.02 18.8618 23.1371C18.9005 23.5485 19.0069 24.3364 19.0344 24.4155C19.0595 24.4872 19.0864 24.6662 19.1184 24.9748C19.1246 25.0333 19.1448 25.1471 19.1635 25.2277C19.1819 25.3083 19.217 25.47 19.2413 25.5873C19.2655 25.7044 19.3004 25.8422 19.3189 25.8934C19.3374 25.9446 19.3524 26.0247 19.3524 26.0715C19.3524 26.1184 19.3667 26.1641 19.3841 26.1732C19.4015 26.1822 19.4157 26.2182 19.4157 26.2531C19.4157 26.288 19.43 26.3239 19.4473 26.333C19.4648 26.342 19.479 26.3727 19.479 26.4011C19.479 26.4296 19.4933 26.4529 19.5106 26.4529C19.5279 26.4529 19.5422 26.4289 19.5422 26.3996C19.5422 26.3703 19.5564 26.3463 19.5739 26.3463C19.5912 26.3463 19.6055 26.3703 19.6055 26.3996C19.6055 26.4289 19.6197 26.4529 19.6371 26.4529C19.6546 26.4529 19.6688 26.4289 19.6688 26.3996C19.6688 26.3703 19.6829 26.3463 19.7004 26.3463C19.7177 26.3463 19.732 26.3643 19.732 26.3862C19.732 26.4082 19.7462 26.4262 19.7635 26.4262C19.781 26.4262 19.7953 26.4082 19.7953 26.3862C19.7953 26.3643 19.8095 26.3463 19.8268 26.3463C19.8442 26.3463 19.8584 26.3274 19.8584 26.3044C19.8584 26.2437 19.9405 26.184 19.9985 26.2027C20.0336 26.2141 20.0482 26.2031 20.0482 26.1653C20.0482 26.1181 20.0634 26.1134 20.1748 26.1259C20.288 26.1387 20.3013 26.1344 20.3013 26.0835C20.3013 26.0381 20.3204 26.0268 20.3961 26.0268C20.4698 26.0268 20.491 26.0149 20.491 25.9735C20.491 25.9143 20.5388 25.9017 20.5675 25.9534C20.5822 25.9801 20.5895 25.9801 20.6042 25.9534C20.6154 25.9335 20.6847 25.9201 20.7783 25.9201C20.9225 25.9201 20.9859 25.887 20.8942 25.8595C20.8712 25.8525 20.8664 25.8377 20.8827 25.824C20.8991 25.8102 20.9167 25.8142 20.9248 25.8336C20.957 25.9092 21.1235 25.8383 21.1235 25.749C21.1235 25.7144 21.1675 25.7072 21.3764 25.7072H21.6295V25.6273C21.6295 25.5833 21.6437 25.5473 21.6611 25.5473C21.6785 25.5473 21.6928 25.5833 21.6928 25.6273C21.6928 25.6712 21.7069 25.7072 21.7244 25.7072C21.7417 25.7072 21.7559 25.6712 21.7559 25.6273C21.7559 25.5461 21.7988 25.5199 21.8324 25.5806C21.8471 25.6072 21.8545 25.6072 21.8693 25.5806C21.8795 25.5623 21.9193 25.5473 21.9579 25.5473C22.0565 25.5473 22.1981 25.4875 22.1985 25.4456C22.1986 25.4235 22.2205 25.4164 22.2581 25.4264C22.3003 25.4377 22.3222 25.4268 22.3342 25.3882C22.352 25.331 22.5782 25.3056 22.5782 25.3609C22.5782 25.3755 22.5995 25.3875 22.6256 25.3875C22.6831 25.3875 22.6888 25.3435 22.6335 25.3269C22.5542 25.303 22.6421 25.2749 22.7963 25.2749C22.9433 25.2749 22.9548 25.27 22.9639 25.2047C22.9749 25.1252 23.1148 25.0919 23.1969 25.1492C23.2488 25.1856 23.3372 25.1417 23.3372 25.0796C23.3372 25.0317 23.3918 25.007 23.4401 25.0329C23.5396 25.0867 23.7168 25.0419 23.7168 24.9628C23.7168 24.9452 23.7477 24.9403 23.7958 24.9505C23.8614 24.9643 23.8748 24.9576 23.8748 24.9111C23.8748 24.8513 23.9119 24.8438 24.1831 24.8489C24.3102 24.8513 24.3643 24.8202 24.278 24.7941C24.1836 24.7658 24.3049 24.7392 24.5235 24.7404C24.6536 24.7411 24.7603 24.7313 24.7603 24.7184C24.7603 24.7056 24.739 24.6951 24.7129 24.6951C24.6868 24.6951 24.6655 24.6763 24.6655 24.6534C24.6655 24.6244 24.6839 24.6166 24.726 24.6278C24.7594 24.6368 24.7958 24.6316 24.807 24.6163C24.8182 24.601 24.8603 24.5886 24.9006 24.5886C24.9409 24.5886 24.9916 24.5708 25.0131 24.5489C25.0379 24.5237 25.0798 24.515 25.1276 24.5251C25.1893 24.5382 25.203 24.5308 25.203 24.485C25.203 24.4363 25.2218 24.4288 25.3431 24.4288C25.4334 24.4288 25.5024 24.4125 25.5376 24.383C25.6109 24.3212 25.7346 24.269 25.8075 24.269C25.8404 24.269 25.8672 24.2539 25.8672 24.2353C25.8672 24.1954 26.1035 24.1002 26.2129 24.0961C26.2552 24.0946 26.2955 24.0789 26.3025 24.0613C26.3104 24.0416 26.382 24.0293 26.4895 24.0293C26.6372 24.0293 26.6663 24.0211 26.6802 23.976C26.6907 23.942 26.7235 23.9228 26.7702 23.9228C26.8107 23.9228 26.8527 23.9108 26.8634 23.8962C26.874 23.8815 26.9331 23.8695 26.9947 23.8695C27.0798 23.8695 27.1104 23.8568 27.1231 23.8163C27.1364 23.7734 27.1661 23.763 27.2762 23.763C27.3515 23.763 27.4218 23.751 27.4327 23.7364C27.4433 23.7217 27.4882 23.7097 27.5322 23.7097C27.5858 23.7097 27.6179 23.6921 27.6291 23.6565C27.6381 23.6272 27.672 23.6032 27.7042 23.6032C27.7591 23.6032 27.983 23.5107 28.0177 23.4736C28.0366 23.4535 28.1681 23.3902 28.1913 23.3902C28.2002 23.3902 28.2074 23.4201 28.2074 23.4567C28.2074 23.4933 28.2217 23.5233 28.239 23.5233C28.2565 23.5233 28.2708 23.5045 28.2708 23.4816C28.2708 23.452 28.2891 23.4447 28.3339 23.4567C28.3773 23.4683 28.3972 23.4615 28.3972 23.4349C28.3972 23.3841 28.5033 23.3547 28.6976 23.3523C28.83 23.3505 28.8608 23.3404 28.887 23.2902C28.9283 23.2109 28.9664 23.2142 28.9664 23.2969C28.9664 23.3336 28.9806 23.3635 28.9981 23.3635C29.0154 23.3635 29.0297 23.32 29.0297 23.2668V23.1701L29.1561 23.1843C29.2518 23.1952 29.2827 23.1895 29.2827 23.1612C29.2827 23.1149 29.3576 23.113 29.4422 23.1572C29.4947 23.1846 29.5119 23.1833 29.5391 23.1505C29.5638 23.1203 29.5761 23.1187 29.5881 23.1438C29.597 23.1621 29.6531 23.1771 29.7126 23.1771C29.9133 23.1771 29.9178 23.1627 30.1217 21.8721C30.1668 21.5852 30.2371 20.5277 30.3427 18.5431C30.3885 17.6822 30.4554 14.3387 30.4835 11.499C30.5156 8.26636 30.5339 7.54408 30.5836 7.54408C30.5987 7.54408 30.6115 7.52308 30.6121 7.49744C30.6139 7.43063 30.7774 7.16337 30.8244 7.15069C30.8527 7.14305 30.8639 7.18191 30.8639 7.28882C30.8639 7.37063 30.8781 7.43744 30.8955 7.43744C30.913 7.43744 30.9272 7.42545 30.9272 7.41086C30.9272 7.39627 30.984 7.38427 31.0537 7.38427C31.1675 7.38427 31.1801 7.37758 31.1801 7.31759C31.1801 7.22746 31.2366 7.23277 31.2493 7.32413C31.2658 7.44508 31.4963 7.41031 31.4963 7.28691C31.4963 7.26714 31.5106 7.25105 31.5281 7.25105C31.5454 7.25105 31.5597 7.27014 31.5597 7.29345C31.5597 7.31691 31.5882 7.34227 31.623 7.3499C31.6576 7.35754 31.6861 7.37895 31.6861 7.39749C31.6861 7.46172 31.99 7.49049 32.0585 7.43281C32.087 7.40881 32.1097 7.41208 32.1552 7.44672C32.1887 7.47235 32.2373 7.48476 32.2666 7.47522C32.3077 7.46199 32.3187 7.47508 32.3187 7.53712C32.3187 7.58035 32.343 7.65657 32.3727 7.70634C32.4692 7.86819 32.4743 8.38894 32.4962 20.1033L32.5177 31.6107L32.4465 31.8082C32.4073 31.9168 32.3539 32.0405 32.3276 32.0832C32.3014 32.126 32.2745 32.2085 32.2679 32.2666C32.2613 32.3248 32.2336 32.386 32.2062 32.4029C32.1628 32.4297 32.1647 32.434 32.2217 32.4376C32.2577 32.4399 32.287 32.4288 32.287 32.4132C32.287 32.3975 32.3176 32.3623 32.3552 32.335C32.3926 32.3076 32.4107 32.2853 32.3955 32.2853C32.3803 32.2853 32.3995 32.2666 32.4381 32.2438C32.4768 32.221 32.5083 32.185 32.5083 32.1639C32.5083 32.1428 32.5223 32.1255 32.5393 32.1255C32.5953 32.1255 32.6652 32.0052 32.726 31.8042C32.7841 31.6115 32.7864 31.2046 32.8085 16.9403L32.8312 2.27431L32.746 2.05914C32.6992 1.94078 32.6422 1.82801 32.6193 1.80879C32.5963 1.78943 32.527 1.70707 32.4653 1.6258C32.325 1.44131 31.831 1.08255 31.6843 1.05883C31.6469 1.05269 31.598 1.03497 31.5757 1.01928C31.5532 1.0036 31.491 0.986013 31.4374 0.980286C31.3838 0.974696 31.3278 0.963515 31.3127 0.955742C31.2731 0.935152 20.7577 0.909927 20.7334 0.93038ZM31.5376 1.1581C31.9361 1.31545 31.9552 1.37708 31.5716 1.26786L31.3224 1.19696L29.0297 1.17759C27.7686 1.16709 26.6516 1.14814 26.5471 1.1356L26.3574 1.11282L26.5471 1.09674C26.6516 1.08787 27.7758 1.08187 29.0455 1.08324L31.354 1.08569L31.5376 1.1581ZM15.6524 1.18414C20.8785 1.19246 23.0425 1.22641 23.0092 1.29963C23.0003 1.319 23.0136 1.34913 23.0387 1.36672C23.0908 1.40313 23.0999 1.47185 23.0526 1.47185C23.0353 1.47185 23.021 1.4949 23.021 1.52299C23.021 1.55107 23.0032 1.58094 22.9813 1.58953C22.9498 1.60194 22.9498 1.60821 22.9813 1.62062C23.0288 1.63916 23.0362 1.89797 22.9893 1.89797C22.97 1.89797 22.9577 2.01864 22.9577 2.20681C22.9577 2.49316 22.9532 2.51661 22.8944 2.52943C22.8248 2.54484 22.8081 2.63143 22.8708 2.65283C22.9007 2.66306 22.8989 2.67288 22.8638 2.69347C22.8251 2.7161 22.8233 2.73997 22.8534 2.83514C22.9009 2.98459 22.9472 2.97245 22.2364 2.99713C20.8999 3.04363 19.7004 3.00736 19.7004 2.9205C19.7004 2.83787 19.457 2.67479 19.3053 2.6557C19.0797 2.6272 18.7515 2.78605 18.7515 2.92364C18.7515 3.07977 15.6403 3.09708 15.3299 2.94259C15.0858 2.82123 14.9685 3.25703 14.8616 4.68114C14.8451 4.90081 14.8171 5.26038 14.7991 5.48005C14.7652 5.8958 14.7215 6.53504 14.6725 7.33095C14.6323 7.98383 14.5831 8.75206 14.5457 9.31507C14.3689 11.9752 14.3472 13.093 14.4665 13.3923C14.5099 13.5014 14.5455 13.6078 14.5455 13.6288C14.5455 13.8203 15.0209 14.2654 15.6681 14.6799C16.4934 15.2085 16.5358 15.412 16.3818 18.1037C16.3642 18.4113 16.3352 18.9386 16.3176 19.2755C16.2998 19.6123 16.2706 20.1097 16.2528 20.3807C16.235 20.6517 16.2066 21.143 16.19 21.4726C16.1433 22.3896 16.085 23.3617 16.001 24.6286C15.9835 24.8922 15.9549 25.3566 15.9372 25.6605C15.9069 26.1873 15.8768 26.7097 15.8103 27.8643C15.718 29.4677 15.7164 29.4536 16.018 29.614C16.1715 29.6957 16.1932 29.7286 16.0935 29.7286C15.9375 29.7286 15.7521 29.5956 15.666 29.4222C15.6152 29.3196 15.5928 28.3373 15.6375 28.1719C15.6456 28.1419 15.6668 27.8357 15.6848 27.4915C15.7026 27.1472 15.7313 26.6439 15.7483 26.373C15.7653 26.1019 15.7938 25.6346 15.8116 25.3342C15.8292 25.034 15.8574 24.5725 15.8742 24.309C15.8909 24.0452 15.9188 23.6018 15.9361 23.3235C15.9534 23.0452 15.9824 22.5838 16.0004 22.2982C16.0183 22.0126 16.0473 21.5093 16.0646 21.1797C16.0821 20.8501 16.1095 20.3467 16.1259 20.0612C16.142 19.7755 16.1702 19.2362 16.1882 18.8626C16.2062 18.4891 16.2348 17.9438 16.252 17.6509C16.3815 15.4292 16.3402 15.2298 15.6668 14.8278C14.6132 14.1988 14.1896 13.6291 14.1948 12.8475C14.1971 12.4961 14.2803 10.9526 14.3557 9.86104C14.3736 9.60469 14.4022 9.15526 14.4195 8.86237C14.4369 8.56934 14.465 8.12591 14.4822 7.87692C14.4994 7.62793 14.5277 7.1845 14.545 6.89147C14.5774 6.34264 14.6164 5.8099 14.6715 5.16043C14.7806 3.87391 14.8402 3.43552 14.9374 3.20303C15.03 2.98091 15.028 2.97914 14.7115 3.00245C14.1895 3.04104 12.3742 3.05904 8.42481 3.06477C4.65744 3.07009 4.46281 3.07268 4.30932 3.11986C3.91132 3.24244 3.5708 3.53983 3.45163 3.86886C3.38848 4.04312 3.31934 29.5794 3.38119 29.8618C3.48061 30.3152 3.8778 30.6757 4.42331 30.808C4.53713 30.8355 5.3226 30.8463 8.12559 30.8586C10.0824 30.8672 12.0706 30.8815 12.5439 30.8903L13.4042 30.9064L13.4061 31.0432C13.4072 31.1185 13.4079 31.2269 13.4079 31.2841C13.4077 31.3414 13.4237 31.4045 13.4433 31.4244C13.4655 31.4469 13.4723 31.5157 13.4611 31.6063C13.4467 31.7235 13.4534 31.7569 13.4942 31.7761C13.535 31.7953 13.5447 31.8444 13.5429 32.0228C13.5416 32.1451 13.5544 32.2598 13.5713 32.2774C13.5883 32.2949 13.5928 32.3339 13.5815 32.3639C13.5695 32.3956 13.575 32.4185 13.5946 32.4185C13.6132 32.4185 13.6284 32.443 13.6284 32.4733C13.6284 32.5063 13.6145 32.5209 13.5938 32.51C13.5722 32.4988 13.5633 32.5108 13.5704 32.5418C13.579 32.5797 13.627 32.5983 13.7711 32.6197C14.0672 32.6641 12.6109 32.6822 7.25592 32.7013L2.54391 32.7181L2.34346 32.6604C1.82596 32.5115 1.46423 32.213 1.29114 31.7926C1.2539 31.7023 1.24726 29.8142 1.24726 19.4619C1.24726 12.7386 1.23447 6.14124 1.21909 4.80086C1.18557 1.91678 1.17084 2.03773 1.60802 1.62771C2.14041 1.12851 1.80102 1.1536 7.82523 1.16791C10.469 1.17419 13.9913 1.18141 15.6524 1.18414ZM19.1133 3.11031C19.0027 3.41807 18.9476 3.76591 18.8773 4.60123C18.8589 4.8209 18.8305 5.15047 18.8145 5.3336C18.7757 5.77581 18.6811 7.09396 18.6254 7.97019C18.6071 8.25572 18.5786 8.69315 18.5619 8.94227C18.5451 9.19126 18.5167 9.62869 18.4988 9.91422C18.3629 12.0756 18.2854 12.3879 17.8254 12.6273C17.6524 12.7173 17.6213 12.6932 17.7794 12.5916C18.1259 12.3688 18.2109 12.029 18.3088 10.4736C18.327 10.1879 18.3553 9.75046 18.3722 9.50147C18.3888 9.25249 18.4172 8.81505 18.4351 8.52939C18.4657 8.0381 18.4865 7.72107 18.5626 6.57867C18.5804 6.31128 18.609 5.93084 18.6264 5.73299C18.7781 4.00276 18.8432 3.53179 18.9764 3.20126C19.0093 3.11972 19.0362 3.03381 19.0362 3.01036C19.0362 2.96427 19.1011 2.93264 19.138 2.96059C19.1507 2.97 19.1395 3.03736 19.1133 3.11031ZM19.6652 3.09504L19.7409 3.11208L19.6558 3.15899C19.6091 3.18476 19.5446 3.2423 19.5124 3.28676L19.4539 3.36775L19.3906 3.2254C19.304 3.03054 19.3276 3.01936 19.6652 3.09504ZM14.8933 3.10472C14.8933 3.18612 14.8148 3.23835 14.7664 3.18926C14.7275 3.14972 14.7295 3.13922 14.7821 3.1069C14.8574 3.06054 14.8933 3.05972 14.8933 3.10472ZM15.5502 3.0964C15.5836 3.0964 15.5727 3.11645 15.5146 3.16172C15.4686 3.19771 15.4311 3.23958 15.4311 3.25498C15.4311 3.3068 15.3781 3.28335 15.3412 3.21503C15.2764 3.09545 15.2923 3.06109 15.4034 3.07977C15.4576 3.08904 15.5238 3.0964 15.5502 3.0964ZM18.9413 3.1039C18.9413 3.14563 18.8521 3.25621 18.8184 3.25621C18.7782 3.25621 18.7107 3.13063 18.7339 3.09899C18.7642 3.05781 18.9413 3.0619 18.9413 3.1039ZM15.2095 3.13363C15.2095 3.13949 15.2434 3.28021 15.2845 3.44657C15.3906 3.87377 15.4286 4.17784 15.5261 5.37355C15.5439 5.59322 15.5722 5.9348 15.5888 6.13251C15.6053 6.33023 15.6336 6.6718 15.6516 6.89147C15.6696 7.11128 15.6981 7.45885 15.7149 7.66393C15.7933 8.61734 15.8009 8.8381 15.7622 9.02832C15.7468 9.10372 15.7374 9.11067 15.687 9.08408C15.642 9.06036 15.6134 9.06336 15.5549 9.09786C15.5138 9.12213 15.4506 9.1419 15.4145 9.1419C15.3783 9.1419 15.3352 9.15226 15.3187 9.16494C15.2505 9.21717 15.0724 9.2503 15.0467 9.21553C15.0267 9.18853 15.0091 9.18853 14.9581 9.21512C14.923 9.23353 14.8661 9.24853 14.8316 9.24853C14.7973 9.24853 14.7539 9.27239 14.7353 9.30171C14.666 9.4108 14.6404 9.35121 14.6409 9.08204C14.6417 8.71947 14.7552 6.6988 14.8307 5.7064C14.849 5.46478 14.8773 5.08721 14.8936 4.86754C14.9707 3.82632 15.048 3.26235 15.1283 3.15285C15.1488 3.1249 15.2095 3.11058 15.2095 3.13363ZM13.7662 3.29671C13.9882 3.31184 14.1796 3.39502 14.2307 3.49893C14.2735 3.58592 14.2633 3.69923 14.1338 4.57451C14.084 4.91144 14.0271 5.32487 14.0075 5.49341C13.9879 5.66181 13.9519 5.92553 13.9275 6.0792C13.903 6.23301 13.8606 6.58058 13.8329 6.85166C13.8054 7.1226 13.7343 7.74575 13.675 8.23649C13.6158 8.7271 13.5515 9.26053 13.5322 9.42157C13.5128 9.58274 13.4688 9.92431 13.4343 10.1807C13.3999 10.4369 13.3509 10.8144 13.3255 11.0195C13.3 11.2246 13.2654 11.4271 13.2482 11.4696C13.2312 11.512 13.2173 11.598 13.2173 11.6604C13.2173 11.7246 13.2009 11.7786 13.1796 11.7846C13.159 11.7905 13.1388 11.8471 13.135 11.9103C13.1308 11.9778 13.1004 12.0569 13.0612 12.1014C13.0183 12.1503 13.001 12.199 13.0126 12.2383C13.0334 12.3078 12.9096 12.4177 12.8107 12.4177C12.7788 12.4177 12.727 12.4417 12.6954 12.4709C12.664 12.5002 12.6119 12.5242 12.5798 12.5242C12.5478 12.5242 12.5215 12.5362 12.5215 12.5508C12.5215 12.5655 12.493 12.5775 12.4582 12.5775C12.4234 12.5775 12.3951 12.5655 12.3951 12.5508C12.3951 12.4999 12.3089 12.5248 12.2102 12.6041C12.1556 12.648 12.0811 12.684 12.0445 12.684C12.0045 12.684 11.9713 12.7053 11.9615 12.7373C11.9417 12.8009 11.9108 12.8047 11.857 12.7502C11.8266 12.7193 11.7809 12.7139 11.6634 12.727C11.534 12.7414 11.5095 12.7372 11.5095 12.7008C11.5095 12.6769 11.4953 12.6574 11.478 12.6574C11.4605 12.6574 11.4462 12.6703 11.4462 12.6859C11.4462 12.7228 11.5267 12.7905 11.5706 12.7905C11.5892 12.7905 11.6044 12.8025 11.6044 12.8173C11.6044 12.8318 11.5782 12.8438 11.546 12.8438C11.5139 12.8438 11.4619 12.8678 11.4305 12.897C11.3625 12.9604 11.3198 12.9655 11.3198 12.9104C11.3198 12.8884 11.3055 12.8704 11.2882 12.8704C11.2707 12.8704 11.2565 12.8944 11.2565 12.9237C11.2565 12.9531 11.2422 12.9769 11.2249 12.9769C11.2076 12.9769 11.1933 12.9949 11.1933 13.0169C11.1933 13.0388 11.1723 13.0568 11.1467 13.0568C11.1117 13.0568 11.1047 13.0369 11.119 12.9769C11.1407 12.8856 11.1008 12.8718 11.0426 12.9503C10.9992 13.0087 10.9095 13.0203 10.8549 12.9743C10.8055 12.9327 10.7082 12.9657 10.6708 13.0366C10.6518 13.0728 10.6144 13.095 10.5775 13.0921C10.4915 13.0857 10.4027 13.1306 10.4027 13.1805C10.4027 13.2119 10.3829 13.2183 10.3236 13.2057C10.2652 13.1935 10.2445 13.1996 10.2445 13.2295C10.2445 13.2552 10.2148 13.27 10.1625 13.27C10.1072 13.27 10.0751 13.2871 10.0639 13.3231C10.0448 13.3848 10.0202 13.3898 9.96402 13.3432C9.93196 13.3165 9.91657 13.3181 9.88662 13.3511C9.82412 13.4199 9.69701 13.4829 9.62075 13.4829C9.58124 13.4829 9.54886 13.4949 9.54886 13.5097C9.54886 13.5243 9.50611 13.5363 9.45397 13.5363C9.38014 13.5363 9.35909 13.5481 9.35909 13.5896C9.35909 13.6308 9.33787 13.6428 9.26598 13.6428C9.21482 13.6428 9.16414 13.6548 9.15345 13.6695C9.11912 13.7162 9.04286 13.698 9.04286 13.6428C9.04286 13.5784 9.02278 13.5759 8.95639 13.6318C8.91381 13.6677 8.91284 13.6778 8.95056 13.6974C9.03768 13.7428 8.88369 13.8008 8.67384 13.8017C8.54819 13.8023 8.47306 13.8144 8.4627 13.8358C8.45056 13.8611 8.4389 13.8596 8.41445 13.83C8.39664 13.8084 8.37187 13.7994 8.35956 13.8098C8.34709 13.8203 8.36992 13.853 8.41024 13.8825C8.45072 13.9119 8.47225 13.9449 8.45849 13.9558C8.44457 13.9667 8.42692 13.9607 8.41915 13.9423C8.39453 13.8845 8.34709 13.9065 8.34709 13.9757C8.34709 14.0123 8.33284 14.0423 8.31536 14.0423C8.29803 14.0423 8.28378 14.0243 8.28378 14.0023C8.28378 13.9757 8.25221 13.9624 8.1889 13.9624C8.11506 13.9624 8.09401 13.9742 8.09401 14.0157C8.09401 14.0449 8.10826 14.0689 8.12559 14.0689C8.14307 14.0689 8.15732 14.0809 8.15732 14.0956C8.15732 14.1102 8.11458 14.1222 8.06244 14.1222C7.96755 14.1222 7.93258 14.0839 8.00706 14.0615C8.03005 14.0545 8.03491 14.0397 8.01856 14.0259C8.0022 14.0121 7.98456 14.0162 7.97646 14.0356C7.96869 14.0539 7.92076 14.0689 7.87008 14.0689C7.81924 14.0689 7.77778 14.0809 7.77778 14.0956C7.77778 14.1102 7.80628 14.1222 7.8411 14.1222C7.87575 14.1222 7.90424 14.1342 7.90424 14.1488C7.90424 14.1635 7.86166 14.1754 7.80936 14.1754C7.71448 14.1754 7.6795 14.2137 7.75414 14.2362C7.77584 14.2427 7.78361 14.257 7.77131 14.2682C7.74168 14.2951 7.65132 14.2167 7.65132 14.164C7.65132 14.141 7.63708 14.1222 7.61959 14.1222C7.60226 14.1222 7.58802 14.1462 7.58802 14.1754C7.58802 14.2047 7.57377 14.2287 7.55644 14.2287C7.53895 14.2287 7.52487 14.2167 7.52487 14.2021C7.52487 14.1874 7.49637 14.1754 7.46156 14.1754C7.42674 14.1754 7.39825 14.1874 7.39825 14.2021C7.39825 14.2167 7.4125 14.2287 7.42998 14.2287C7.44731 14.2287 7.46156 14.2407 7.46156 14.2553C7.46156 14.27 7.41881 14.282 7.36667 14.282C7.29267 14.282 7.27179 14.2701 7.27179 14.2284C7.27179 14.1816 7.26385 14.1792 7.20848 14.2082C7.17382 14.2265 7.14533 14.2574 7.14533 14.2769C7.14533 14.3428 7.04947 14.4028 7.01353 14.3594C6.98956 14.3307 6.97855 14.3297 6.96625 14.3552C6.9575 14.3735 6.90877 14.3885 6.85808 14.3885C6.80724 14.3885 6.76579 14.4005 6.76579 14.4151C6.76579 14.4298 6.79429 14.4418 6.8291 14.4418C6.8712 14.4418 6.89225 14.4595 6.89225 14.495C6.89225 14.5563 6.71819 14.5738 6.69422 14.515C6.68564 14.4939 6.64516 14.5135 6.58412 14.5682C6.53085 14.6158 6.46462 14.6548 6.43693 14.6548C6.40908 14.6548 6.38625 14.6676 6.38625 14.6833C6.38625 14.6995 6.35937 14.7044 6.32343 14.6949C6.28732 14.6852 6.23032 14.6958 6.18984 14.7197C6.09042 14.7783 6.00688 14.773 6.00688 14.7081C6.00688 14.6788 5.99085 14.6548 5.97125 14.6548C5.94858 14.6548 5.94259 14.6838 5.95458 14.7347C5.97158 14.8063 5.96542 14.8146 5.89531 14.8146C5.8469 14.8146 5.81711 14.8297 5.81711 14.8546C5.81711 14.8765 5.80286 14.8945 5.78537 14.8945C5.76805 14.8945 5.7538 14.8765 5.7538 14.8546C5.7538 14.8326 5.73955 14.8146 5.72222 14.8146C5.70473 14.8146 5.69049 14.8318 5.69049 14.8529C5.69049 14.8817 5.66344 14.8874 5.58151 14.8762C5.46833 14.8608 5.40615 14.891 5.36567 14.9811C5.35402 15.0067 5.32293 15.0276 5.29621 15.0276C5.26966 15.0276 5.2478 15.047 5.2478 15.0704C5.2478 15.0985 5.23063 15.1076 5.19809 15.0971C5.17056 15.0883 5.12684 15.099 5.10094 15.121C5.04038 15.172 4.99488 15.1719 4.99488 15.1209C4.99488 15.0989 4.98063 15.0809 4.96314 15.0809C4.94582 15.0809 4.93157 15.0992 4.93157 15.1214C4.93157 15.1513 4.91084 15.1574 4.85255 15.1451C4.80382 15.1348 4.77338 15.1397 4.77338 15.1579C4.77338 15.1742 4.78762 15.1874 4.80511 15.1874C4.82244 15.1874 4.83669 15.1994 4.83669 15.2141C4.83669 15.2287 4.80106 15.2407 4.75767 15.2407C4.6997 15.2407 4.67849 15.2549 4.67849 15.294C4.67849 15.3232 4.66424 15.3472 4.64692 15.3472C4.62959 15.3472 4.61534 15.3352 4.61534 15.3206C4.61534 15.3059 4.58684 15.294 4.55203 15.294C4.5054 15.294 4.48888 15.3118 4.48888 15.3614C4.48888 15.4335 4.46379 15.4476 4.31482 15.4594C4.25297 15.4645 4.21281 15.4856 4.19937 15.5204C4.18593 15.5554 4.17784 15.535 4.17573 15.4604C4.17249 15.3442 4.10934 15.2968 4.10934 15.4106C4.10934 15.4454 4.08911 15.4879 4.06449 15.5052C4.00264 15.5485 3.97771 15.4372 3.87262 14.6491C3.84687 14.4561 3.76219 12.7094 3.73078 11.7253C3.60464 7.76797 3.57874 4.2583 3.67378 3.9999C3.83068 3.5731 4.27887 3.32903 4.98905 3.28362C5.31143 3.26303 13.4474 3.27516 13.7662 3.29671ZM17.9683 3.33243C18.0368 3.35139 18.1222 3.40457 18.1717 3.45925L18.257 3.55347L18.2225 3.82427C18.2038 3.97331 18.1587 4.28693 18.1226 4.52133C18.0865 4.75559 18.0284 5.13316 17.9934 5.36019C17.9583 5.58722 17.9157 5.8928 17.8985 6.03925C17.8814 6.18583 17.8603 6.35355 17.8516 6.41218C17.8428 6.47081 17.8208 6.66253 17.8027 6.83829C17.7685 7.17046 17.7156 7.56057 17.6092 8.26308C17.5749 8.49012 17.5409 8.7526 17.5337 8.84642C17.5266 8.94023 17.5043 9.08381 17.484 9.16563C17.464 9.2473 17.4355 9.40425 17.4209 9.51429C17.3712 9.88954 17.2656 10.3752 17.205 10.5075C17.137 10.6565 17.002 10.6253 16.9707 10.4532C16.9609 10.3984 16.9377 10.2848 16.9193 10.2006C16.8158 9.72714 16.8046 9.6621 16.712 8.98223C16.6871 8.7991 16.6375 8.47784 16.6021 8.2684C16.547 7.9436 16.3218 6.21719 16.2695 5.71976C16.2602 5.63181 16.2165 5.32024 16.1722 5.02734C16.128 4.73431 16.0782 4.4027 16.0619 4.29034C16.0454 4.17798 16.0107 4.00045 15.9845 3.89572C15.8888 3.51243 15.943 3.38957 16.2385 3.32112C16.4409 3.27421 17.7892 3.28307 17.9683 3.33243ZM26.2625 3.3653C29.2125 3.39393 29.3019 3.39857 29.6349 3.53861C30.1126 3.73959 30.199 4.11308 30.075 5.4401C29.9879 6.37223 29.9578 6.5619 29.8896 6.60826C29.8508 6.63471 29.8469 6.64808 29.8757 6.65708C29.9225 6.67194 29.9291 6.74503 29.8835 6.74503C29.8661 6.74503 29.8519 6.76303 29.8519 6.78498C29.8519 6.80693 29.8376 6.82493 29.8203 6.82493C29.8028 6.82493 29.7887 6.84825 29.7887 6.87675C29.7887 6.91847 29.7628 6.92993 29.6542 6.93661C29.534 6.94397 29.5188 6.95256 29.5099 7.01801C29.5009 7.08414 29.4876 7.09124 29.3754 7.09124C29.2586 7.09124 29.2057 7.05524 29.2884 7.03192C29.3321 7.01965 29.3002 6.93143 29.252 6.93143C29.2342 6.93143 29.2194 6.95338 29.2194 6.98024C29.2194 7.03151 29.1356 7.07651 28.9902 7.10296C28.9133 7.11714 28.9032 7.11114 28.9032 7.05183C28.9032 6.9767 28.8812 6.97015 28.8004 7.02183C28.7319 7.0656 28.7296 7.09124 28.7944 7.09124C28.8214 7.09124 28.8349 7.10323 28.824 7.11796C28.8133 7.13255 28.7555 7.14455 28.6958 7.14455C28.6202 7.14455 28.587 7.15669 28.587 7.1845C28.587 7.20673 28.5588 7.22446 28.5237 7.22446C28.4889 7.22446 28.4604 7.23496 28.4604 7.24777C28.4604 7.26059 28.3964 7.26509 28.318 7.25759C28.224 7.24873 28.1759 7.25432 28.1759 7.27423C28.1759 7.29073 28.2113 7.30436 28.2549 7.30436C28.2983 7.30436 28.3339 7.31636 28.3339 7.33095C28.3339 7.36859 28.133 7.36422 28.0873 7.32563C28.0577 7.30082 28.0408 7.30082 28.0114 7.32563C27.9905 7.34322 27.9406 7.35754 27.9006 7.35754C27.8433 7.35754 27.8279 7.3724 27.8279 7.42708C27.8279 7.47958 27.8158 7.49253 27.7776 7.48012C27.603 7.42381 27.575 7.42858 27.575 7.51449C27.575 7.56003 27.5607 7.59726 27.5433 7.59726C27.5259 7.59726 27.5117 7.57326 27.5117 7.54408C27.5117 7.48272 27.4634 7.47262 27.438 7.52867C27.4285 7.54953 27.3883 7.57039 27.3489 7.5753C27.3031 7.58075 27.2701 7.60803 27.2578 7.65057C27.238 7.71888 27.212 7.72366 27.0293 7.69311C26.9697 7.68302 26.9424 7.68957 26.9424 7.7137C26.9424 7.73306 26.914 7.77056 26.8792 7.79702C26.8433 7.82442 26.8159 7.83192 26.8159 7.81447C26.8159 7.79756 26.7945 7.78365 26.7685 7.78365C26.7424 7.78365 26.721 7.79484 26.721 7.80847C26.721 7.82211 26.7424 7.85115 26.7685 7.8731C26.7945 7.89506 26.8159 7.91756 26.8159 7.92301C26.8159 7.94551 26.5771 7.93201 26.5583 7.90828C26.5468 7.89397 26.4905 7.91974 26.4317 7.9661C26.3734 8.01219 26.302 8.04982 26.273 8.04996C26.244 8.04996 26.1975 8.05732 26.17 8.06632C26.1321 8.07846 26.1218 8.06782 26.1279 8.02255C26.1371 7.9541 26.0944 7.93242 26.0253 7.9706C25.9856 7.99255 25.9849 8.0006 26.0215 8.02037C26.0829 8.05378 26.0416 8.09605 25.9271 8.11718C25.8515 8.13123 25.8334 8.1465 25.8455 8.18591C25.862 8.23881 25.8217 8.25572 25.788 8.20977C25.755 8.16477 25.709 8.18031 25.709 8.23649C25.709 8.3089 25.6273 8.30399 25.5981 8.22981L25.5745 8.16981L25.5606 8.22981C25.5432 8.30399 25.4877 8.30903 25.4877 8.23649C25.4877 8.18113 25.438 8.16832 25.3679 8.20581C25.3369 8.22231 25.3352 8.24536 25.3607 8.30195C25.3998 8.38839 25.3261 8.45848 25.2236 8.43244C25.176 8.4203 25.169 8.42794 25.1862 8.47348C25.2087 8.5332 25.1015 8.55829 25.0607 8.5028C25.05 8.48807 25.0563 8.47621 25.0746 8.47621C25.0931 8.47621 25.1082 8.45821 25.1082 8.43626C25.1082 8.38076 25.086 8.38594 24.9946 8.46284C24.9124 8.53211 24.8552 8.54848 24.8552 8.5028C24.8552 8.48807 24.839 8.47621 24.8194 8.47621C24.7963 8.47621 24.79 8.50893 24.8016 8.56934C24.8193 8.66097 24.7625 8.70351 24.7129 8.63588C24.6844 8.59716 24.4061 8.60493 24.3413 8.64638C24.2686 8.69288 24.2714 8.71579 24.3492 8.71579C24.384 8.71579 24.4124 8.70379 24.4124 8.6892C24.4124 8.67461 24.4338 8.66261 24.4598 8.66261C24.4859 8.66261 24.5073 8.67461 24.5073 8.6892C24.5073 8.70379 24.4859 8.71579 24.4598 8.71579C24.4338 8.71579 24.4124 8.72642 24.4124 8.73938C24.4124 8.75233 24.3876 8.77033 24.3572 8.77933C24.3267 8.78833 24.284 8.80278 24.2623 8.81124C24.2374 8.82105 24.2228 8.80619 24.2228 8.77128C24.2228 8.74074 24.2025 8.71579 24.1779 8.71579C24.1532 8.71579 24.1123 8.7091 24.0871 8.70092C24.017 8.67829 23.987 8.77428 24.0518 8.81423C24.096 8.84151 24.0984 8.8546 24.0654 8.88814C24.0099 8.94446 23.9381 8.93927 23.9381 8.87873C23.9381 8.84001 23.9177 8.82992 23.8484 8.83455C23.7299 8.84232 23.6839 8.86864 23.7056 8.91623C23.7161 8.93955 23.6998 8.96123 23.6646 8.9705C23.6324 8.97909 23.5813 8.99709 23.5511 9.01073C23.4765 9.04427 23.4637 9.04209 23.4637 8.99545C23.4637 8.9735 23.4495 8.9555 23.4321 8.9555C23.4146 8.9555 23.4004 8.97146 23.4004 8.99082C23.4004 9.04891 23.2516 9.14858 23.165 9.14858C23.0762 9.14858 23.0642 9.16767 23.1222 9.21649C23.1517 9.24144 23.1457 9.24853 23.0955 9.24853C23.0599 9.24853 23.005 9.22453 22.9736 9.19522C22.942 9.1659 22.9043 9.1419 22.8895 9.1419C22.8748 9.1419 22.8628 9.1659 22.8628 9.19522C22.8628 9.23149 22.8418 9.24853 22.7966 9.24853C22.7571 9.24853 22.7237 9.26994 22.7139 9.30171C22.6952 9.36157 22.6535 9.37207 22.6337 9.32189C22.6243 9.29844 22.6039 9.3028 22.5631 9.3373C22.5217 9.37221 22.4993 9.37684 22.4826 9.35407C22.4692 9.33566 22.4318 9.33007 22.3924 9.34057C22.3434 9.3538 22.3252 9.34725 22.3252 9.31684C22.3252 9.29394 22.311 9.27512 22.2935 9.27512C22.2762 9.27512 22.2619 9.29312 22.2619 9.31507C22.2619 9.33703 22.2477 9.35502 22.2304 9.35502C22.2129 9.35502 22.1988 9.39102 22.1988 9.43493C22.1988 9.47884 22.1845 9.51483 22.1671 9.51483C22.1497 9.51483 22.1355 9.49206 22.1355 9.46438C22.1355 9.4367 22.1141 9.40711 22.088 9.39866C22.0591 9.38925 22.0406 9.39866 22.0406 9.42239C22.0406 9.44393 22.0254 9.46152 22.0068 9.46152C21.9875 9.46152 21.9817 9.48429 21.9932 9.51483C22.0046 9.54538 21.9988 9.56801 21.9794 9.56801C21.9609 9.56801 21.9457 9.55015 21.9457 9.52806C21.9457 9.50611 21.9315 9.48811 21.9141 9.48811C21.8966 9.48811 21.8824 9.50611 21.8824 9.52806C21.8824 9.55029 21.8544 9.56801 21.8192 9.56801C21.7495 9.56801 21.7331 9.52615 21.7954 9.50734C21.8173 9.50079 21.8251 9.48634 21.8128 9.47529C21.7838 9.44897 21.6928 9.52629 21.6928 9.57729C21.6928 9.5991 21.7104 9.62228 21.7323 9.62883C21.7553 9.63565 21.76 9.65051 21.7438 9.66428C21.7274 9.67805 21.7098 9.67396 21.7015 9.6546C21.6938 9.63633 21.6614 9.62133 21.6295 9.62133C21.5976 9.62133 21.5652 9.63633 21.5574 9.6546C21.5497 9.67287 21.531 9.67833 21.5161 9.66646C21.5012 9.65474 21.5095 9.63442 21.5346 9.62133C21.6011 9.58669 21.5506 9.55888 21.457 9.57865C21.39 9.59283 21.3764 9.61124 21.3764 9.68842C21.3764 9.73941 21.3622 9.78114 21.3448 9.78114C21.3275 9.78114 21.3133 9.75714 21.3133 9.72782C21.3133 9.67574 21.2308 9.65746 21.0522 9.67001C21.0166 9.6726 20.997 9.65515 20.997 9.62106C20.997 9.59188 20.9844 9.56801 20.9689 9.56801C20.9535 9.56801 20.9318 9.52915 20.9206 9.48156C20.8766 9.29462 20.8066 8.90041 20.7634 8.59593C20.7384 8.42016 20.6889 8.12659 20.6533 7.94346C20.579 7.56112 20.5033 7.0821 20.4745 6.8117C20.4452 6.53599 20.3738 5.9783 20.3194 5.59991C20.293 5.41678 20.2358 5.00335 20.1921 4.68114C20.1484 4.35879 20.0888 3.97822 20.0597 3.83518C19.9986 3.5352 20.0163 3.47193 20.1813 3.39952C20.406 3.30094 19.9178 3.3038 26.2625 3.3653ZM14.4362 7.51735C14.4089 7.89097 14.3651 8.55611 14.3392 8.99545C14.3133 9.43493 14.2714 10.1181 14.246 10.5135C14.2207 10.9089 14.1852 11.5202 14.1673 11.8718C14.1219 12.756 14.0986 12.9775 14.0675 12.8173C14.0083 12.5125 14.0692 11.3404 14.2756 8.80905C14.3018 8.48684 14.3378 7.99542 14.3554 7.71711C14.3731 7.43881 14.4053 7.03737 14.427 6.82493C14.4905 6.20328 14.4969 6.68939 14.4362 7.51735ZM29.0685 6.96306C29.0881 7.01256 29.1561 7.02074 29.1561 6.9737C29.1561 6.95052 29.1336 6.93143 29.1061 6.93143C29.0786 6.93143 29.0617 6.94574 29.0685 6.96306ZM28.3023 7.17114C28.3023 7.18587 28.3308 7.19787 28.3655 7.19787C28.4003 7.19787 28.4288 7.18587 28.4288 7.17114C28.4288 7.15655 28.4003 7.14455 28.3655 7.14455C28.3308 7.14455 28.3023 7.15655 28.3023 7.17114ZM28.8399 7.22446C28.8399 7.23905 28.7972 7.25105 28.745 7.25105C28.6929 7.25105 28.6501 7.23905 28.6501 7.22446C28.6501 7.20973 28.6929 7.19787 28.745 7.19787C28.7972 7.19787 28.8399 7.20973 28.8399 7.22446ZM31.8395 7.31622C31.8464 7.34663 31.8349 7.35945 31.8077 7.35181C31.7844 7.34527 31.7603 7.31854 31.7543 7.29236C31.7473 7.26209 31.7587 7.24927 31.7859 7.25691C31.8093 7.26345 31.8335 7.29018 31.8395 7.31622ZM1.1642 8.70924C1.16177 9.17176 1.15076 9.40343 1.13489 9.32844C1.08356 9.08531 1.10072 7.97019 1.15578 7.97019C1.16258 7.97019 1.16646 8.30276 1.1642 8.70924ZM24.9079 8.38744C24.8716 8.41798 24.8849 8.44948 24.9343 8.44948C24.9603 8.44948 24.9817 8.43148 24.9817 8.40953C24.9817 8.36794 24.9443 8.35676 24.9079 8.38744ZM22.3568 9.42157C22.3351 9.44352 22.3032 9.46152 22.2859 9.46152C22.2683 9.46152 22.2717 9.44393 22.2935 9.42157C22.3152 9.39961 22.3471 9.38162 22.3646 9.38162C22.3822 9.38162 22.3788 9.39934 22.3568 9.42157ZM21.2499 9.75455C21.2499 9.76914 21.2206 9.78114 21.1849 9.78114C21.1491 9.78114 21.1285 9.76914 21.1394 9.75455C21.15 9.73982 21.1793 9.72782 21.2044 9.72782C21.2294 9.72782 21.2499 9.73982 21.2499 9.75455ZM1.16501 11.1727C1.15432 11.2853 1.11109 11.3357 1.10817 11.2392C1.10639 11.1842 1.11918 11.1394 1.13651 11.1394C1.154 11.1394 1.16679 11.1544 1.16501 11.1727ZM1.14606 11.4414C1.15497 11.4611 1.14963 11.494 1.13408 11.5146C1.11352 11.5419 1.10574 11.5322 1.10542 11.4789C1.10494 11.3994 1.12048 11.3851 1.14606 11.4414ZM1.14542 13.2222C1.13845 13.9736 1.12825 14.6062 1.12258 14.6282C1.11692 14.6502 1.1106 14.0292 1.10866 13.2484C1.10655 12.4675 1.11692 11.8348 1.13149 11.8424C1.1459 11.8499 1.15222 12.4709 1.14542 13.2222ZM6.38625 14.5749C6.38625 14.5896 6.41475 14.6015 6.44956 14.6015C6.48437 14.6015 6.51287 14.5896 6.51287 14.5749C6.51287 14.5603 6.48437 14.5483 6.44956 14.5483C6.41475 14.5483 6.38625 14.5603 6.38625 14.5749ZM4.80511 15.3872C4.80511 15.4091 4.79086 15.4271 4.77338 15.4271C4.75605 15.4271 4.7418 15.4091 4.7418 15.3872C4.7418 15.3652 4.75605 15.3472 4.77338 15.3472C4.79086 15.3472 4.80511 15.3652 4.80511 15.3872ZM18.0668 18.37C18.0668 18.4872 18.0724 18.5318 18.0791 18.4691C18.0857 18.4065 18.0857 18.3106 18.0789 18.2561C18.0721 18.2016 18.0666 18.2528 18.0668 18.37ZM23.6535 24.9748C23.6535 24.9967 23.6392 25.0147 23.6219 25.0147C23.6044 25.0147 23.5902 24.9967 23.5902 24.9748C23.5902 24.9528 23.6044 24.9348 23.6219 24.9348C23.6392 24.9348 23.6535 24.9528 23.6535 24.9748ZM12.142 28.9962C12.142 29.0182 12.1277 29.0362 12.1104 29.0362C12.0929 29.0362 12.0788 29.0182 12.0788 28.9962C12.0788 28.9743 12.0929 28.9563 12.1104 28.9563C12.1277 28.9563 12.142 28.9743 12.142 28.9962Z" fill="#B5975E"/>
<path fill-rule="evenodd" clip-rule="evenodd" d="M17.7949 0.932552C18.3384 0.936643 19.2278 0.936643 19.7714 0.932552C20.315 0.928462 19.8703 0.925189 18.7832 0.925189C17.6961 0.925189 17.2513 0.928462 17.7949 0.932552ZM21.8445 0.932416C21.9887 0.937461 22.2164 0.937325 22.3505 0.932416C22.4844 0.927371 22.3663 0.923416 22.088 0.923416C21.8096 0.923416 21.7 0.927507 21.8445 0.932416ZM26.5471 1.09673L26.3573 1.11282L26.5471 1.13559C26.6515 1.14813 27.7686 1.16708 29.0296 1.17758L31.3224 1.19695L31.5716 1.26785C31.9552 1.37707 31.9361 1.31544 31.5376 1.15809L31.354 1.08568L29.0455 1.08323C27.7757 1.08186 26.6515 1.08786 26.5471 1.09673ZM32.8396 3.98857C32.8396 4.94075 32.8435 5.32636 32.8483 4.84557C32.8532 4.36478 32.8532 3.58578 32.8483 3.11453C32.8435 2.64314 32.8396 3.03653 32.8396 3.98857ZM19.3423 3.0623C19.3341 3.07376 19.3559 3.14712 19.3906 3.22539L19.4539 3.36774L19.5123 3.28675C19.5446 3.24229 19.609 3.18475 19.6558 3.15898L19.7408 3.11207L19.6652 3.09503C19.4945 3.05685 19.3564 3.0428 19.3423 3.0623ZM14.782 3.10689C14.7294 3.13921 14.7275 3.14971 14.7663 3.18925C14.8083 3.23166 14.8134 3.23152 14.8521 3.18693C14.937 3.08916 14.8928 3.03871 14.782 3.10689ZM15.3044 3.10512C15.3044 3.16293 15.3719 3.28293 15.4045 3.28293C15.419 3.28293 15.431 3.27038 15.431 3.25497C15.431 3.23957 15.4686 3.1977 15.5146 3.16171C15.5727 3.11644 15.5835 3.09639 15.5502 3.09639C15.5238 3.09639 15.4576 3.08903 15.4033 3.07976C15.3259 3.0668 15.3044 3.07226 15.3044 3.10512ZM18.7338 3.09898C18.7107 3.13062 18.7782 3.2562 18.8184 3.2562C18.852 3.2562 18.9413 3.14562 18.9413 3.10389C18.9413 3.06189 18.7641 3.0578 18.7338 3.09898ZM19.167 3.11616C19.1137 3.2003 19.0381 3.55973 18.9913 3.95312C18.9493 4.3041 18.9298 4.51927 18.846 5.54658C18.7835 6.31481 18.7223 7.20522 18.6558 8.31639C18.6378 8.61664 18.6098 9.07208 18.5933 9.32843C18.5769 9.58464 18.5481 10.0641 18.5293 10.3936C18.4466 11.8428 18.3258 12.3107 17.9636 12.5828C17.7851 12.717 17.4788 12.8242 17.3086 12.8122C17.1486 12.8009 17.1354 12.7452 17.2869 12.7212C18.0138 12.6067 18.1283 12.3547 18.2299 10.6467C18.256 10.2072 18.2915 9.63196 18.3088 9.36838C18.3261 9.10467 18.3621 8.54738 18.3886 8.12999C18.4153 7.71247 18.451 7.17318 18.4676 6.93142C18.4845 6.68979 18.505 6.33022 18.5131 6.1325L18.528 5.77293L18.4832 6.07919C18.4584 6.24773 18.4233 6.63116 18.4051 6.93142C18.3868 7.23181 18.3511 7.7291 18.3256 8.03672C18.3002 8.34434 18.2638 8.84163 18.2448 9.14189C18.2261 9.44228 18.1979 9.78372 18.1825 9.90099C18.167 10.0181 18.1454 10.2578 18.1342 10.4336C18.0596 11.6187 17.8397 12.1485 17.3769 12.2576C16.8965 12.3709 16.4912 12.1442 16.3025 11.6566C16.1906 11.3679 16.159 11.3327 16.1604 11.4989C16.1648 11.9837 16.4122 12.4479 16.7563 12.6164C16.9505 12.7114 16.9548 12.7252 16.7908 12.7252C16.6708 12.7252 14.884 13.4565 14.665 13.5952L14.5929 13.6408L14.6878 13.7936C14.811 13.9921 15.3326 14.438 15.6783 14.6403C16.5076 15.1256 16.5853 15.4426 16.4456 17.7708C16.4276 18.0711 16.3978 18.6163 16.3795 18.9825C16.3612 19.3487 16.3327 19.858 16.3161 20.1144C16.2867 20.5679 16.2571 21.1188 16.1898 22.4581C16.1718 22.8168 16.1431 23.3322 16.1263 23.6032C16.0212 25.2821 15.9815 26.3932 16.0296 26.3063C16.0458 26.277 16.0601 26.2201 16.0612 26.1799C16.0639 26.0911 16.1899 26.0701 16.1899 26.1584C16.1899 26.1867 16.2042 26.2174 16.2215 26.2264C16.239 26.2355 16.2532 26.2182 16.2532 26.1881C16.2532 26.1579 16.2675 26.1333 16.2848 26.1333C16.3021 26.1333 16.3164 26.1453 16.3164 26.1599C16.3164 26.1984 16.4347 26.1927 16.4537 26.1532C16.4658 26.1281 16.4781 26.1297 16.5037 26.1599C16.534 26.1953 16.5413 26.1953 16.5695 26.1599C16.5975 26.1244 16.6049 26.1244 16.635 26.1599C16.6608 26.19 16.6731 26.1916 16.6852 26.1665C16.7042 26.1271 16.8224 26.1213 16.8224 26.1599C16.8224 26.1744 16.8867 26.1864 16.9652 26.1864C17.0437 26.1864 17.1381 26.2014 17.1749 26.2198C17.2285 26.2464 17.2447 26.2464 17.2562 26.2198C17.274 26.1783 17.8977 26.1718 17.8977 26.2132C17.8977 26.2278 17.9119 26.2398 17.9293 26.2398C17.9467 26.2398 17.961 26.2158 17.961 26.1864C17.961 26.1405 17.982 26.1333 18.1153 26.1333H18.2696L18.3051 26.0149C18.3245 25.9499 18.3404 25.854 18.3404 25.8019C18.3404 25.5885 18.399 25.7266 18.4158 25.9801C18.4757 26.8723 18.505 27.3819 18.5819 28.8641C18.6263 29.7208 18.5178 29.7914 17.1388 29.8029C15.9572 29.8127 15.8157 29.7852 15.6507 29.5129C15.5291 29.3123 15.5348 29.0232 15.7161 26.1199C15.7344 25.827 15.7628 25.3656 15.779 25.0946C15.8076 24.6179 15.8386 24.1176 15.9053 23.0572C15.9412 22.4876 15.9841 21.7457 16.0324 20.8601C16.0503 20.5305 16.0793 20.0032 16.0967 19.6882C16.3049 15.905 16.291 15.4341 15.9611 15.1177C15.8293 14.9913 15.8186 15.0216 15.9336 15.1958C16.107 15.4583 16.1378 16.0569 16.0324 17.1243C16.0139 17.3114 15.9558 17.9198 15.9033 18.4764C15.8509 19.033 15.7874 19.6503 15.7623 19.848C15.6996 20.3407 15.6294 20.9459 15.5923 21.3128C15.5363 21.8661 15.4002 23.0027 15.3823 23.067C15.3726 23.1016 15.33 23.4072 15.2877 23.7461C15.2006 24.443 15.1711 24.6672 15.101 25.165C15.0738 25.3575 15.0377 25.6212 15.0207 25.7509C14.9885 25.996 14.953 26.1937 14.8926 26.4661C14.8732 26.5541 14.8439 26.7158 14.8277 26.8257C14.7341 27.4576 14.6679 27.7312 14.585 27.8289C14.5458 27.8748 14.5139 27.9262 14.5139 27.9431C14.5139 28.0165 14.3844 28.2049 14.3251 28.218C14.2862 28.2266 14.2608 28.2543 14.2608 28.288C14.2608 28.3312 14.2411 28.3437 14.1722 28.3437C14.1235 28.3437 14.0702 28.3549 14.0537 28.3687C14.0372 28.3823 13.9596 28.3973 13.8813 28.402C13.7526 28.4095 13.7381 28.4172 13.7291 28.4835C13.7189 28.5575 13.68 28.579 13.6441 28.5301C13.6052 28.4771 13.3709 28.4986 13.3529 28.5567C13.3333 28.6199 13.2172 28.6293 13.2172 28.5679C13.2172 28.5098 13.145 28.5341 13.107 28.6051C13.0898 28.637 13.0584 28.6632 13.0374 28.6632C13.0163 28.6632 12.9876 28.6794 12.9737 28.6992C12.9331 28.757 12.7744 28.7801 12.7744 28.7281C12.7744 28.665 12.697 28.6977 12.6852 28.7659C12.6772 28.8118 12.6567 28.8229 12.5903 28.8172C12.5239 28.8113 12.5035 28.8223 12.4957 28.8682C12.4876 28.9162 12.4621 28.9282 12.3534 28.9348C12.2342 28.9421 12.22 28.9505 12.2108 29.0184C12.201 29.0904 12.1934 29.0937 12.0526 29.0882C11.8207 29.0792 11.7941 29.0848 11.7941 29.1426C11.7941 29.2009 11.7324 29.2133 11.6767 29.1662C11.6345 29.1308 11.5728 29.1572 11.5728 29.2108C11.5728 29.232 11.5585 29.2491 11.5411 29.2491C11.5237 29.2491 11.5095 29.2311 11.5095 29.2092C11.5095 29.1872 11.4952 29.1692 11.4779 29.1692C11.4604 29.1692 11.4462 29.1871 11.4462 29.2089C11.4462 29.2307 11.4212 29.2468 11.3908 29.2446C11.2435 29.2343 11.2192 29.247 11.2392 29.3237C11.2585 29.3976 11.2574 29.3983 11.1005 29.3983C10.9475 29.3983 10.8516 29.4305 10.9322 29.4548C11.0079 29.4775 10.9713 29.5154 10.874 29.5154C10.8027 29.5154 10.7716 29.53 10.7596 29.5688C10.7409 29.629 10.7015 29.6383 10.674 29.5888C10.6592 29.5621 10.652 29.5621 10.6372 29.5888C10.627 29.6071 10.5785 29.6221 10.5291 29.6221C10.4798 29.6221 10.4313 29.6371 10.4211 29.6553C10.4063 29.6819 10.3989 29.6819 10.3841 29.6553C10.3505 29.5947 10.3077 29.6208 10.3077 29.702V29.7819H10.118C10.0125 29.7819 9.92818 29.7936 9.92818 29.8085C9.92818 29.8231 9.8571 29.8351 9.77015 29.8351C9.6832 29.8351 9.61195 29.8471 9.61195 29.8618C9.61195 29.8764 9.59042 29.8884 9.56419 29.8884C9.53796 29.8884 9.4719 29.9242 9.41733 29.9683C9.32212 30.0448 9.30609 30.0482 9.03665 30.0482C8.80576 30.0482 8.74407 30.0571 8.69209 30.098C8.64287 30.1364 8.55932 30.1513 8.32178 30.1638C8.15306 30.1727 7.9437 30.1863 7.85675 30.1941C7.09897 30.2619 5.06818 30.3318 4.72588 30.3019C4.1148 30.2486 3.82108 29.9087 3.7589 29.1826C3.67988 28.2606 3.56476 25.2261 3.52023 22.8974C3.48072 20.8304 3.45708 21.5761 3.43215 25.6672C3.41855 27.9229 3.41693 29.8164 3.42859 29.875C3.49497 30.207 3.77979 30.5188 4.16079 30.6765C4.52381 30.8268 4.22458 30.8193 9.95992 30.8243C16.3117 30.8301 23.0346 30.8644 23.3846 30.8931L23.6376 30.9136L23.6283 30.9936C23.6233 31.0376 23.6061 31.1693 23.5903 31.2866C23.5744 31.4037 23.5517 31.6107 23.5399 31.7466C23.5279 31.8825 23.5059 32.0001 23.4909 32.0079C23.476 32.0157 23.4637 32.0986 23.4637 32.192C23.4637 32.2855 23.4494 32.3694 23.4321 32.3785C23.4146 32.3875 23.4003 32.4352 23.4003 32.4846C23.4003 32.5476 23.384 32.5779 23.3451 32.5865C23.3034 32.5956 23.3074 32.5994 23.3608 32.6017C23.497 32.6076 23.4309 32.653 23.2659 32.6671C23.1746 32.6747 20.7376 32.6941 17.8502 32.7099C6.19983 32.7741 5.80346 32.7783 5.99889 32.8371C6.14543 32.8811 5.9338 32.8978 5.14493 32.9045C4.65367 32.9085 8.51382 32.9132 13.7232 32.9145C24.8506 32.9177 31.4568 32.8965 31.4897 32.8578C31.502 32.8432 31.5407 32.827 31.5755 32.8218C31.6103 32.8168 31.6488 32.7988 31.6613 32.782C31.6738 32.7651 31.7023 32.7508 31.7246 32.7501C31.7847 32.7482 31.9196 32.6823 31.949 32.6403C31.9631 32.6201 31.988 32.6107 32.0046 32.6193C32.0209 32.6278 32.0429 32.6162 32.0533 32.5934C32.0637 32.5705 32.086 32.5591 32.1027 32.5676C32.1194 32.5764 32.1409 32.5584 32.1504 32.5276C32.16 32.4969 32.1883 32.4717 32.2134 32.4717C32.2385 32.4717 32.2502 32.4595 32.2392 32.4447C32.2283 32.4297 32.2026 32.4246 32.182 32.4332C32.1615 32.4419 32.1697 32.4317 32.2002 32.4107C32.2308 32.3896 32.2612 32.3248 32.2678 32.2666C32.2745 32.2085 32.3014 32.126 32.3276 32.0832C32.3538 32.0405 32.4073 31.9168 32.4464 31.8081L32.5177 31.6107L32.4961 20.1033C32.4743 8.38893 32.4691 7.86818 32.3726 7.70633C32.343 7.65656 32.3187 7.58034 32.3187 7.53711C32.3187 7.47507 32.3077 7.46198 32.2665 7.47521C32.2372 7.48475 32.1887 7.47234 32.1551 7.44671C32.1096 7.41207 32.087 7.4088 32.0585 7.4328C31.9879 7.49239 31.6861 7.4613 31.6861 7.39448C31.6861 7.37417 31.6634 7.35753 31.6357 7.35753C31.608 7.35753 31.5779 7.33367 31.5688 7.30435C31.5502 7.24449 31.4963 7.23154 31.4963 7.2869C31.4963 7.4103 31.2657 7.44507 31.2492 7.32412C31.2366 7.23276 31.1801 7.22745 31.1801 7.31758C31.1801 7.37757 31.1674 7.38426 31.0536 7.38426C30.984 7.38426 30.9271 7.39626 30.9271 7.41085C30.9271 7.42544 30.9129 7.43744 30.8954 7.43744C30.8781 7.43744 30.8638 7.37062 30.8638 7.28881C30.8638 7.1819 30.8527 7.14304 30.8243 7.15068C30.7774 7.16336 30.6138 7.43062 30.6121 7.49743C30.6114 7.52307 30.5986 7.54407 30.5836 7.54407C30.5338 7.54407 30.5156 8.26635 30.4835 11.4989C30.4553 14.3387 30.3884 17.6822 30.3426 18.5431C30.2371 20.5276 30.1668 21.5852 30.1216 21.8721C29.9177 23.1627 29.9132 23.1771 29.7126 23.1771C29.653 23.1771 29.597 23.1621 29.5881 23.1438C29.5761 23.1187 29.5638 23.1203 29.539 23.1505C29.5118 23.1833 29.4947 23.1846 29.4422 23.1571C29.3575 23.113 29.2827 23.1149 29.2827 23.1612C29.2827 23.1895 29.2518 23.1952 29.1561 23.1843L29.0296 23.1701V23.2668C29.0296 23.32 29.0154 23.3635 28.998 23.3635C28.9806 23.3635 28.9663 23.3336 28.9663 23.2969C28.9663 23.2141 28.9283 23.2109 28.887 23.2902C28.8607 23.3404 28.83 23.3505 28.6975 23.3523C28.5032 23.3547 28.3972 23.384 28.3972 23.4349C28.3972 23.4615 28.3772 23.4683 28.3339 23.4567C28.289 23.4447 28.2707 23.4519 28.2707 23.4815C28.2707 23.5044 28.2565 23.5233 28.239 23.5233C28.2216 23.5233 28.2074 23.4933 28.2074 23.4567C28.2074 23.42 28.2001 23.3902 28.1912 23.3902C28.168 23.3902 28.0366 23.4535 28.0176 23.4736C27.983 23.5107 27.759 23.6032 27.7041 23.6032C27.6719 23.6032 27.6381 23.6272 27.629 23.6565C27.6178 23.6921 27.5858 23.7097 27.5322 23.7097C27.4882 23.7097 27.4433 23.7217 27.4326 23.7364C27.4218 23.751 27.3515 23.763 27.2762 23.763C27.1661 23.763 27.1363 23.7733 27.123 23.8163C27.1104 23.8568 27.0798 23.8695 26.9946 23.8695C26.9331 23.8695 26.874 23.8815 26.8633 23.8962C26.8526 23.9108 26.8107 23.9228 26.7702 23.9228C26.7234 23.9228 26.6907 23.942 26.6802 23.976C26.6662 24.0211 26.6371 24.0293 26.4894 24.0293C26.3819 24.0293 26.3104 24.0416 26.3024 24.0613C26.2955 24.0789 26.2551 24.0946 26.2129 24.0961C26.1034 24.1002 25.8672 24.1954 25.8672 24.2353C25.8672 24.2539 25.8403 24.269 25.8074 24.269C25.7346 24.269 25.6109 24.3212 25.5375 24.383C25.5024 24.4124 25.4334 24.4288 25.343 24.4288C25.2218 24.4288 25.203 24.4363 25.203 24.485C25.203 24.5308 25.1892 24.5382 25.1275 24.5251C25.0798 24.515 25.0378 24.5237 25.0131 24.5489C24.9915 24.5708 24.9408 24.5886 24.9005 24.5886C24.8602 24.5886 24.8181 24.601 24.8069 24.6163C24.7958 24.6316 24.7593 24.6368 24.726 24.6278C24.6839 24.6166 24.6654 24.6243 24.6654 24.6534C24.6654 24.6763 24.6868 24.6951 24.7129 24.6951C24.7389 24.6951 24.7603 24.7056 24.7603 24.7184C24.7603 24.7312 24.6536 24.7411 24.5234 24.7404C24.3048 24.7392 24.1835 24.7657 24.2779 24.7941C24.3642 24.8202 24.3102 24.8512 24.1831 24.8489C23.9118 24.8437 23.8748 24.8512 23.8748 24.9111C23.8748 24.9576 23.8613 24.9643 23.7957 24.9505C23.7477 24.9403 23.7167 24.9452 23.7167 24.9628C23.7167 25.0419 23.5396 25.0867 23.44 25.0329C23.3918 25.007 23.3372 25.0316 23.3372 25.0796C23.3372 25.1417 23.2488 25.1856 23.1968 25.1492C23.1147 25.0919 22.9748 25.1252 22.9638 25.2047C22.9547 25.27 22.9432 25.2749 22.7962 25.2749C22.6421 25.2749 22.5542 25.303 22.6335 25.3268C22.6887 25.3435 22.683 25.3875 22.6256 25.3875C22.5995 25.3875 22.5781 25.3755 22.5781 25.3609C22.5781 25.3056 22.3519 25.3309 22.3341 25.3882C22.3221 25.4268 22.3003 25.4377 22.258 25.4264C22.2204 25.4164 22.1986 25.4235 22.1984 25.4456C22.1981 25.4875 22.0564 25.5473 21.9578 25.5473C21.9193 25.5473 21.8794 25.5623 21.8692 25.5806C21.8545 25.6072 21.8471 25.6072 21.8323 25.5806C21.7988 25.5199 21.7559 25.5461 21.7559 25.6272C21.7559 25.6711 21.7416 25.7071 21.7243 25.7071C21.7068 25.7071 21.6927 25.6711 21.6927 25.6272C21.6927 25.5833 21.6785 25.5473 21.661 25.5473C21.6437 25.5473 21.6294 25.5833 21.6294 25.6272V25.7071H21.3763C21.1675 25.7071 21.1234 25.7144 21.1234 25.749C21.1234 25.8383 20.957 25.9092 20.9248 25.8335C20.9167 25.8142 20.899 25.8102 20.8827 25.824C20.8663 25.8376 20.8712 25.8525 20.8942 25.8595C20.9858 25.887 20.9225 25.9201 20.7782 25.9201C20.6846 25.9201 20.6153 25.9335 20.6042 25.9534C20.5894 25.9801 20.5821 25.9801 20.5674 25.9534C20.5387 25.9017 20.491 25.9143 20.491 25.9735C20.491 26.0149 20.4698 26.0268 20.3961 26.0268C20.3203 26.0268 20.3012 26.0381 20.3012 26.0835C20.3012 26.1344 20.2879 26.1387 20.1747 26.1259C20.0633 26.1134 20.0481 26.1181 20.0481 26.1653C20.0481 26.2031 20.0336 26.2141 19.9984 26.2027C19.9405 26.184 19.8584 26.2437 19.8584 26.3044C19.8584 26.3274 19.8441 26.3463 19.8268 26.3463C19.8095 26.3463 19.7952 26.3643 19.7952 26.3862C19.7952 26.4082 19.781 26.4262 19.7635 26.4262C19.7461 26.4262 19.7319 26.4082 19.7319 26.3862C19.7319 26.3643 19.7177 26.3463 19.7003 26.3463C19.6828 26.3463 19.6688 26.3702 19.6688 26.3996C19.6688 26.4289 19.6545 26.4529 19.637 26.4529C19.6197 26.4529 19.6054 26.4289 19.6054 26.3996C19.6054 26.3702 19.5912 26.3463 19.5739 26.3463C19.5564 26.3463 19.5421 26.3702 19.5421 26.3996C19.5421 26.4289 19.5279 26.4529 19.5106 26.4529C19.4932 26.4529 19.479 26.4296 19.479 26.4011C19.479 26.3727 19.4647 26.342 19.4472 26.333C19.4299 26.3239 19.4157 26.288 19.4157 26.2531C19.4157 26.2182 19.4014 26.1822 19.3841 26.1732C19.3666 26.1641 19.3524 26.1184 19.3524 26.0715C19.3524 26.0247 19.3373 25.9445 19.3188 25.8934C19.3004 25.8421 19.2654 25.7044 19.2413 25.5873C19.217 25.47 19.1819 25.3083 19.1634 25.2277C19.1448 25.1471 19.1245 25.0333 19.1184 24.9748C19.0863 24.6662 19.0595 24.4872 19.0344 24.4154C19.0068 24.3364 18.9004 23.5485 18.8617 23.1371C18.8507 23.02 18.8224 22.7983 18.7989 22.6444C18.7282 22.1819 18.6124 21.1095 18.5447 20.2875C18.4691 19.369 18.375 18.4046 18.3407 18.1969C18.3109 18.0162 18.2869 17.7441 18.1831 16.4125C18.1653 16.1855 18.1496 15.8574 18.1482 15.6836C18.1461 15.4426 18.1367 15.375 18.1085 15.3986C18.0819 15.421 18.0672 15.767 18.0559 16.6336C18.0416 17.7163 18.0373 17.7932 18.0135 17.3979C17.9989 17.1562 17.9848 16.593 17.9822 16.1462C17.976 15.0908 17.9503 15.1472 18.6568 14.6677C19.4589 14.123 19.7808 13.7498 19.9589 13.1579C20.0302 12.9205 20.0313 13.0126 19.9351 10.8997C19.909 10.3297 19.8541 9.39919 19.8263 9.06198C19.8101 8.86427 19.7821 8.47483 19.764 8.19653C19.746 7.91823 19.7029 7.25308 19.6683 6.71843C19.6338 6.18377 19.5915 5.60849 19.5747 5.44009C19.5577 5.27169 19.5284 4.93011 19.5097 4.68113C19.4262 3.57405 19.2853 2.93017 19.167 3.11616ZM15.1282 3.15284C15.0479 3.26234 14.9707 3.82631 14.8936 4.86753C14.8772 5.0872 14.8489 5.46477 14.8306 5.70639C14.7552 6.69879 14.6416 8.71946 14.6408 9.08203C14.6404 9.3512 14.6659 9.41079 14.7352 9.3017C14.7539 9.27238 14.7973 9.24852 14.8316 9.24852C14.8661 9.24852 14.9229 9.23352 14.958 9.21511C15.009 9.18852 15.0267 9.18852 15.0466 9.21552C15.0724 9.25029 15.2505 9.21716 15.3186 9.16493C15.3351 9.15225 15.3782 9.14189 15.4145 9.14189C15.4506 9.14189 15.5137 9.12212 15.5549 9.09785C15.6133 9.06335 15.642 9.06035 15.687 9.08407C15.7374 9.11066 15.7467 9.10371 15.7621 9.02831C15.8008 8.83809 15.7932 8.61733 15.7148 7.66392C15.698 7.45884 15.6695 7.11127 15.6515 6.89146C15.6336 6.67179 15.6052 6.33022 15.5887 6.1325C15.5722 5.93479 15.5439 5.59321 15.526 5.37354C15.4286 4.17783 15.3905 3.87376 15.2845 3.44656C15.2433 3.2802 15.2095 3.13948 15.2095 3.13362C15.2095 3.11057 15.1488 3.12489 15.1282 3.15284ZM14.4269 6.82492C14.4052 7.03736 14.373 7.4388 14.3554 7.7171C14.3377 7.99541 14.3018 8.48683 14.2755 8.80904C14.0691 11.3404 14.0082 12.5125 14.0675 12.8172C14.0986 12.9775 14.1219 12.756 14.1672 11.8717C14.1852 11.5202 14.2207 10.9089 14.2459 10.5135C14.2713 10.1181 14.3133 9.43492 14.3392 8.99544C14.3651 8.5561 14.4088 7.89096 14.4362 7.51734C14.4969 6.68938 14.4904 6.20327 14.4269 6.82492ZM31.7542 7.29235C31.7602 7.31853 31.7844 7.34526 31.8077 7.3518C31.8349 7.35944 31.8464 7.34662 31.8394 7.31621C31.8334 7.29017 31.8093 7.26344 31.7858 7.2569C31.7586 7.24926 31.7473 7.26208 31.7542 7.29235ZM1.12415 8.01231C1.09598 8.07381 1.10521 9.18771 1.13484 9.32843C1.15071 9.40342 1.16172 9.17175 1.16415 8.70923C1.16803 7.99022 1.16431 7.92409 1.12415 8.01231ZM1.10812 11.2392C1.11088 11.3284 1.11395 11.3319 1.13646 11.2725C1.17273 11.1773 1.17273 11.1394 1.13646 11.1394C1.11913 11.1394 1.10634 11.1842 1.10812 11.2392ZM32.8033 11.3391C32.8035 11.4417 32.8091 11.4803 32.8161 11.425C32.8229 11.3698 32.8227 11.286 32.8158 11.2386C32.8088 11.1913 32.8031 11.2366 32.8033 11.3391ZM1.10537 11.4789C1.10569 11.5322 1.11347 11.5419 1.13403 11.5146C1.14957 11.494 1.15492 11.461 1.14601 11.4414C1.12043 11.3851 1.10488 11.3994 1.10537 11.4789ZM0.867188 14.4684C0.867188 15.9551 0.870912 16.5634 0.875608 15.8199C0.880303 15.0765 0.880303 13.8601 0.875608 13.1168C0.870912 12.3734 0.867188 12.9817 0.867188 14.4684ZM1.10861 13.2484C1.11055 14.0292 1.11687 14.6501 1.12253 14.6282C1.14682 14.5338 1.1554 11.8548 1.13144 11.8424C1.11687 11.8348 1.1065 12.4675 1.10861 13.2484ZM32.802 14.5615C32.8023 14.6349 32.8083 14.6616 32.8156 14.6211C32.8229 14.5806 32.8227 14.5207 32.8153 14.488C32.8077 14.4552 32.8019 14.4883 32.802 14.5615ZM32.804 16.013C32.804 16.1375 32.8095 16.1885 32.8161 16.1262C32.8227 16.064 32.8227 15.962 32.8161 15.8999C32.8095 15.8375 32.804 15.8885 32.804 16.013ZM32.8085 22.8442C32.8085 25.8616 32.8122 27.092 32.8167 25.5784C32.8213 24.065 32.8213 21.5961 32.8167 20.0923C32.8122 18.5884 32.8085 19.8268 32.8085 22.8442ZM18.079 18.4691C18.0724 18.5318 18.0667 18.4872 18.0667 18.3699C18.0666 18.2528 18.0721 18.2015 18.0789 18.2561C18.0857 18.3106 18.0857 18.4065 18.079 18.4691ZM23.5901 24.9748C23.5901 24.9967 23.6044 25.0147 23.6218 25.0147C23.6392 25.0147 23.6534 24.9967 23.6534 24.9748C23.6534 24.9528 23.6392 24.9348 23.6218 24.9348C23.6044 24.9348 23.5901 24.9528 23.5901 24.9748ZM12.0788 28.9962C12.0788 29.0182 12.0929 29.0362 12.1104 29.0362C12.1277 29.0362 12.1419 29.0182 12.1419 28.9962C12.1419 28.9742 12.1277 28.9562 12.1104 28.9562C12.0929 28.9562 12.0788 28.9742 12.0788 28.9962Z" fill="#664620"/>
<path fill-rule="evenodd" clip-rule="evenodd" d="M28.8873 0.938965C30.2267 0.946464 31.3402 0.962282 31.3619 0.974145C31.3838 0.986008 31.4014 0.984372 31.4014 0.9706C31.4014 0.917693 31.1917 0.913466 28.8557 0.91933L26.4522 0.925329L28.8873 0.938965ZM2.30845 0.983826C2.26684 1.00837 2.2419 1.01601 2.25308 1.00101C2.26554 0.983963 2.24352 0.978372 2.19495 0.986144C2.15204 0.993098 2.1169 1.00892 2.1169 1.02146C2.1169 1.03387 2.09666 1.03755 2.07189 1.02951C2.02671 1.01492 1.94543 1.10737 1.9647 1.15168C1.97004 1.16436 2.05294 1.14623 2.14848 1.11132C2.24417 1.07641 2.35606 1.0475 2.39702 1.04682C2.44916 1.04614 2.46616 1.03401 2.45386 1.00687C2.43945 0.975099 2.48381 0.966373 2.6956 0.959009L2.955 0.950146L2.66953 0.944692C2.44608 0.940465 2.36755 0.948919 2.30845 0.983826ZM17.3363 0.959146C17.593 0.963646 18.0127 0.963646 18.2693 0.959146C18.5258 0.954646 18.3159 0.951101 17.8028 0.951101C17.2897 0.951101 17.0799 0.954646 17.3363 0.959146ZM2.71778 1.17732C1.97798 1.22872 1.42227 1.61297 1.24189 2.19808C1.19558 2.34848 1.19348 2.59283 1.21906 4.80085C1.23444 6.14124 1.24723 12.7386 1.24723 19.4619C1.24723 29.8142 1.25387 31.7023 1.29112 31.7926C1.46421 32.213 1.82593 32.5115 2.34343 32.6604L2.54388 32.7181L7.25589 32.7013C12.6109 32.6822 14.0672 32.6641 13.771 32.6197C13.6269 32.5983 13.579 32.5797 13.5704 32.5417C13.5633 32.5108 13.5722 32.4988 13.5937 32.51C13.6145 32.5209 13.6284 32.5063 13.6284 32.4733C13.6284 32.443 13.6132 32.4185 13.5945 32.4185C13.5749 32.4185 13.5694 32.3956 13.5814 32.3639C13.5928 32.3339 13.5882 32.2949 13.5712 32.2774C13.5544 32.2598 13.5416 32.1451 13.5429 32.0228C13.5447 31.8444 13.535 31.7953 13.4942 31.7761C13.4533 31.7569 13.4467 31.7235 13.4611 31.6063C13.4723 31.5157 13.4655 31.4469 13.4433 31.4244C13.4237 31.4045 13.4077 31.3414 13.4078 31.2841C13.4078 31.2269 13.4072 31.1185 13.4061 31.0432L13.4041 30.9064L12.5438 30.8903C12.0706 30.8815 10.0824 30.8672 8.12556 30.8586C5.32258 30.8463 4.53711 30.8355 4.42328 30.808C3.87777 30.6757 3.48059 30.3152 3.38117 29.8618C3.31931 29.5794 3.38845 4.04312 3.4516 3.86886C3.57077 3.53983 3.91129 3.24243 4.30929 3.11985C4.46279 3.07267 4.65741 3.07008 8.42479 3.06476C12.3742 3.05903 14.1894 3.04104 14.7115 3.00245C15.028 2.97913 15.03 2.9809 14.9373 3.20303C14.8402 3.43551 14.7806 3.8739 14.6715 5.16042C14.6164 5.80989 14.5774 6.34263 14.545 6.89147C14.5277 7.1845 14.4993 7.62793 14.4822 7.87692C14.465 8.1259 14.4368 8.56933 14.4195 8.86236C14.4022 9.15526 14.3735 9.60469 14.3557 9.86104C14.2803 10.9526 14.197 12.4961 14.1948 12.8475C14.1896 13.6291 14.6132 14.1988 15.6668 14.8278C16.3402 15.2298 16.3815 15.4292 16.252 17.6509C16.2348 17.9438 16.2061 18.4891 16.1882 18.8626C16.1702 19.2362 16.142 19.7755 16.1258 20.0612C16.1095 20.3467 16.0821 20.8501 16.0646 21.1797C16.0473 21.5093 16.0183 22.0126 16.0003 22.2982C15.9824 22.5838 15.9534 23.0452 15.9361 23.3235C15.9187 23.6018 15.8909 24.0452 15.8742 24.309C15.8574 24.5725 15.8292 25.034 15.8115 25.3342C15.7937 25.6346 15.7652 26.1019 15.7482 26.373C15.7312 26.6439 15.7026 27.1472 15.6848 27.4915C15.6668 27.8357 15.6456 28.1419 15.6375 28.1719C15.5928 28.3373 15.6151 29.3196 15.666 29.4222C15.7521 29.5956 15.9375 29.7286 16.0934 29.7286C16.1932 29.7286 16.1715 29.6957 16.018 29.614C15.7163 29.4535 15.7179 29.4677 15.8102 27.8643C15.8768 26.7096 15.9069 26.1873 15.9372 25.6605C15.9548 25.3566 15.9835 24.8922 16.001 24.6286C16.085 23.3617 16.1433 22.3896 16.1899 21.4726C16.2066 21.143 16.235 20.6517 16.2528 20.3807C16.2706 20.1097 16.2997 19.6123 16.3175 19.2755C16.3352 18.9386 16.3642 18.4113 16.3818 18.1036C16.5358 15.412 16.4934 15.2085 15.6681 14.6799C15.0209 14.2654 14.5455 13.8203 14.5455 13.6288C14.5455 13.6078 14.5099 13.5013 14.4665 13.3923C14.3526 13.107 14.3548 12.7388 14.4828 10.3671C14.4998 10.0521 14.5282 9.57878 14.5457 9.31507C14.5831 8.75205 14.6323 7.98382 14.6724 7.33094C14.7215 6.53503 14.7652 5.89579 14.7991 5.48004C14.817 5.26037 14.845 4.9008 14.8616 4.68113C14.9684 3.25702 15.0858 2.82123 15.3298 2.94259C15.6402 3.09708 18.7515 3.07976 18.7515 2.92363C18.7515 2.78605 19.0797 2.62719 19.3053 2.65569C19.457 2.67478 19.7003 2.83786 19.7003 2.9205C19.7003 3.00736 20.8998 3.04363 22.2363 2.99713C22.9471 2.97245 22.9008 2.98458 22.8534 2.83514C22.8233 2.73996 22.8251 2.7161 22.8638 2.69346C22.8989 2.67287 22.9007 2.66306 22.8707 2.65283C22.8081 2.63142 22.8247 2.54483 22.8944 2.52943C22.9531 2.51661 22.9577 2.49316 22.9577 2.20681C22.9577 2.01864 22.97 1.89796 22.9893 1.89796C23.0362 1.89796 23.0288 1.63915 22.9813 1.62061C22.9497 1.6082 22.9497 1.60193 22.9813 1.58952C23.0032 1.58093 23.021 1.55107 23.021 1.52298C23.021 1.49489 23.0352 1.47185 23.0526 1.47185C23.0998 1.47185 23.0908 1.40312 23.0386 1.36671C23.0135 1.34912 23.0003 1.31899 23.0092 1.29963C23.0425 1.2264 20.8785 1.19245 15.6524 1.18413C13.9912 1.18141 10.469 1.17418 7.8252 1.16791C5.18138 1.16163 2.8831 1.16586 2.71778 1.17732ZM19.0757 2.95554C19.054 2.96222 19.0362 2.9869 19.0362 3.01036C19.0362 3.03381 19.0093 3.11971 18.9764 3.20125C18.8431 3.53178 18.7781 4.00276 18.6263 5.73298C18.609 5.93084 18.5804 6.31127 18.5625 6.57867C18.4864 7.72106 18.4657 8.03809 18.4351 8.52938C18.4171 8.81505 18.3888 9.25248 18.3721 9.50147C18.3553 9.75045 18.327 10.1879 18.3088 10.4736C18.2109 12.029 18.1258 12.3688 17.7793 12.5916C17.6213 12.6932 17.6524 12.7173 17.8253 12.6273C18.2853 12.3879 18.3629 12.0756 18.4987 9.91422C18.5167 9.62869 18.5451 9.19126 18.5619 8.94227C18.5786 8.69315 18.6071 8.25571 18.6254 7.97018C18.6811 7.09396 18.7756 5.7758 18.8145 5.3336C18.8305 5.15047 18.8589 4.8209 18.8773 4.60123C18.9476 3.76591 19.0026 3.41806 19.1132 3.1103C19.1608 2.97763 19.15 2.93263 19.0757 2.95554ZM0.85199 6.9981C0.85199 9.20748 0.862354 11.0063 0.874983 10.9957C0.887613 10.985 0.901862 10.3868 0.906557 9.66632C0.911253 8.94581 0.915786 8.32035 0.916596 8.27644C0.925987 7.77833 0.884374 3.00845 0.870611 2.99672C0.860249 2.98813 0.85199 4.78872 0.85199 6.9981ZM4.98902 3.28361C4.27885 3.32902 3.83065 3.5731 3.67375 3.99989C3.57871 4.25829 3.60461 7.76797 3.73075 11.7253C3.76216 12.7094 3.84685 14.4561 3.87259 14.6491C3.97768 15.4372 4.00261 15.5485 4.06447 15.5052C4.08908 15.4879 4.10932 15.4454 4.10932 15.4106C4.10932 15.2967 4.17247 15.3442 4.1757 15.4604C4.17781 15.535 4.18591 15.5554 4.19934 15.5204C4.21278 15.4856 4.25294 15.4645 4.31479 15.4594C4.46376 15.4476 4.48886 15.4335 4.48886 15.3614C4.48886 15.3117 4.50537 15.294 4.552 15.294C4.58682 15.294 4.61531 15.3059 4.61531 15.3206C4.61531 15.3352 4.62956 15.3472 4.64689 15.3472C4.66421 15.3472 4.67846 15.3232 4.67846 15.294C4.67846 15.2549 4.69967 15.2407 4.75764 15.2407C4.80104 15.2407 4.83666 15.2287 4.83666 15.2141C4.83666 15.1994 4.82241 15.1874 4.80508 15.1874C4.7876 15.1874 4.77335 15.1742 4.77335 15.1579C4.77335 15.1397 4.80379 15.1348 4.85253 15.1451C4.91082 15.1574 4.93154 15.1513 4.93154 15.1214C4.93154 15.0992 4.94579 15.0809 4.96312 15.0809C4.9806 15.0809 4.99485 15.0989 4.99485 15.1209C4.99485 15.1718 5.04035 15.172 5.10091 15.121C5.12682 15.099 5.17054 15.0883 5.19806 15.0971C5.23061 15.1076 5.24777 15.0985 5.24777 15.0704C5.24777 15.0469 5.26963 15.0276 5.29619 15.0276C5.3229 15.0276 5.35399 15.0067 5.36565 14.9811C5.40613 14.891 5.4683 14.8608 5.58149 14.8762C5.66342 14.8874 5.69046 14.8817 5.69046 14.8529C5.69046 14.8318 5.70471 14.8146 5.72219 14.8146C5.73952 14.8146 5.75377 14.8326 5.75377 14.8545C5.75377 14.8765 5.76802 14.8945 5.78534 14.8945C5.80283 14.8945 5.81708 14.8765 5.81708 14.8545C5.81708 14.8297 5.84687 14.8146 5.89528 14.8146C5.9654 14.8146 5.97155 14.8063 5.95455 14.7347C5.94257 14.6838 5.94856 14.6548 5.97123 14.6548C5.99082 14.6548 6.00685 14.6788 6.00685 14.7081C6.00685 14.773 6.0904 14.7783 6.18982 14.7197C6.23029 14.6958 6.28729 14.6852 6.3234 14.6949C6.35935 14.7044 6.38623 14.6995 6.38623 14.6833C6.38623 14.6676 6.40905 14.6548 6.4369 14.6548C6.46459 14.6548 6.53082 14.6158 6.58409 14.5682C6.64513 14.5135 6.68561 14.4939 6.69419 14.515C6.71816 14.5738 6.89222 14.5563 6.89222 14.495C6.89222 14.4595 6.87117 14.4418 6.82907 14.4418C6.79426 14.4418 6.76576 14.4298 6.76576 14.4151C6.76576 14.4005 6.80722 14.3885 6.85806 14.3885C6.90874 14.3885 6.95748 14.3735 6.96622 14.3552C6.97853 14.3297 6.98953 14.3307 7.0135 14.3594C7.04944 14.4028 7.1453 14.3428 7.1453 14.2769C7.1453 14.2574 7.1738 14.2265 7.20845 14.2082C7.26382 14.1792 7.27176 14.1816 7.27176 14.2284C7.27176 14.2701 7.29265 14.282 7.36664 14.282C7.41878 14.282 7.46153 14.27 7.46153 14.2553C7.46153 14.2407 7.44728 14.2287 7.42996 14.2287C7.41247 14.2287 7.39822 14.2167 7.39822 14.2021C7.39822 14.1874 7.42672 14.1754 7.46153 14.1754C7.49634 14.1754 7.52484 14.1874 7.52484 14.2021C7.52484 14.2167 7.53893 14.2287 7.55641 14.2287C7.57374 14.2287 7.58799 14.2047 7.58799 14.1754C7.58799 14.1462 7.60224 14.1222 7.61956 14.1222C7.63705 14.1222 7.6513 14.141 7.6513 14.164C7.6513 14.2167 7.74165 14.2951 7.77128 14.2682C7.78359 14.257 7.77581 14.2427 7.75412 14.2362C7.67947 14.2137 7.71445 14.1754 7.80933 14.1754C7.86163 14.1754 7.90422 14.1635 7.90422 14.1488C7.90422 14.1342 7.87572 14.1222 7.84107 14.1222C7.80626 14.1222 7.77776 14.1102 7.77776 14.0956C7.77776 14.0809 7.81921 14.0689 7.87005 14.0689C7.92073 14.0689 7.96866 14.0539 7.97643 14.0356C7.98453 14.0162 8.00218 14.0121 8.01853 14.0259C8.03488 14.0397 8.03003 14.0545 8.00703 14.0615C7.93255 14.0839 7.96753 14.1222 8.06241 14.1222C8.11455 14.1222 8.15729 14.1102 8.15729 14.0956C8.15729 14.0809 8.14305 14.0689 8.12556 14.0689C8.10823 14.0689 8.09399 14.0449 8.09399 14.0157C8.09399 13.9742 8.11503 13.9624 8.18887 13.9624C8.25218 13.9624 8.28375 13.9757 8.28375 14.0023C8.28375 14.0243 8.298 14.0423 8.31533 14.0423C8.33282 14.0423 8.34707 14.0123 8.34707 13.9757C8.34707 13.9065 8.39451 13.8845 8.41912 13.9423C8.42689 13.9607 8.44454 13.9667 8.45846 13.9558C8.47223 13.9449 8.45069 13.9119 8.41021 13.8825C8.3699 13.853 8.34707 13.8203 8.35953 13.8098C8.37184 13.7994 8.39661 13.8084 8.41442 13.83C8.43887 13.8596 8.45053 13.8611 8.46267 13.8358C8.47304 13.8144 8.54817 13.8023 8.67382 13.8017C8.88366 13.8008 9.03765 13.7428 8.95054 13.6974C8.91281 13.6778 8.91378 13.6677 8.95637 13.6318C9.02275 13.5759 9.04283 13.5784 9.04283 13.6427C9.04283 13.698 9.1191 13.7162 9.15342 13.6695C9.16411 13.6547 9.21479 13.6427 9.26596 13.6427C9.33785 13.6427 9.35906 13.6307 9.35906 13.5896C9.35906 13.5481 9.38011 13.5363 9.45394 13.5363C9.50608 13.5363 9.54883 13.5243 9.54883 13.5097C9.54883 13.4949 9.58121 13.4829 9.62072 13.4829C9.69699 13.4829 9.82409 13.4199 9.88659 13.3511C9.91655 13.3181 9.93193 13.3164 9.96399 13.3432C10.0202 13.3898 10.0448 13.3848 10.0639 13.3231C10.0751 13.2871 10.1071 13.2699 10.1625 13.2699C10.2148 13.2699 10.2444 13.2552 10.2444 13.2295C10.2444 13.1996 10.2652 13.1935 10.3236 13.2057C10.3829 13.2183 10.4026 13.2119 10.4026 13.1805C10.4026 13.1306 10.4915 13.0857 10.5775 13.0921C10.6144 13.095 10.6518 13.0728 10.6708 13.0366C10.7082 12.9657 10.8055 12.9327 10.8549 12.9743C10.9094 13.0203 10.9991 13.0087 11.0425 12.9503C11.1008 12.8718 11.1407 12.8856 11.119 12.9769C11.1047 13.0369 11.1117 13.0568 11.1466 13.0568C11.1722 13.0568 11.1933 13.0388 11.1933 13.0169C11.1933 12.9949 11.2075 12.9769 11.2249 12.9769C11.2422 12.9769 11.2564 12.9531 11.2564 12.9237C11.2564 12.8944 11.2707 12.8704 11.2882 12.8704C11.3055 12.8704 11.3197 12.8884 11.3197 12.9104C11.3197 12.9655 11.3625 12.9604 11.4305 12.897C11.4619 12.8678 11.5139 12.8438 11.5459 12.8438C11.5782 12.8438 11.6044 12.8318 11.6044 12.8172C11.6044 12.8025 11.5892 12.7905 11.5706 12.7905C11.5267 12.7905 11.4462 12.7228 11.4462 12.6859C11.4462 12.6703 11.4604 12.6574 11.4779 12.6574C11.4953 12.6574 11.5095 12.6769 11.5095 12.7008C11.5095 12.7372 11.534 12.7414 11.6633 12.727C11.7809 12.7139 11.8265 12.7193 11.857 12.7502C11.9107 12.8047 11.9417 12.8009 11.9614 12.7373C11.9713 12.7053 12.0045 12.684 12.0445 12.684C12.0811 12.684 12.1556 12.648 12.2101 12.6041C12.3089 12.5248 12.395 12.4999 12.395 12.5508C12.395 12.5655 12.4234 12.5775 12.4582 12.5775C12.493 12.5775 12.5215 12.5655 12.5215 12.5508C12.5215 12.5362 12.5477 12.5242 12.5798 12.5242C12.6119 12.5242 12.664 12.5002 12.6954 12.4709C12.727 12.4417 12.7788 12.4177 12.8107 12.4177C12.9096 12.4177 13.0333 12.3078 13.0126 12.2383C13.0009 12.199 13.0183 12.1503 13.0612 12.1014C13.1004 12.0569 13.1308 11.9778 13.135 11.9103C13.1387 11.8471 13.159 11.7905 13.1795 11.7846C13.2009 11.7786 13.2173 11.7246 13.2173 11.6604C13.2173 11.5979 13.2312 11.512 13.2482 11.4696C13.2654 11.4271 13.3 11.2246 13.3254 11.0195C13.3509 10.8144 13.3999 10.4369 13.4342 10.1807C13.4687 9.92431 13.5128 9.58273 13.5322 9.42156C13.5515 9.26052 13.6158 8.7271 13.675 8.23649C13.7343 7.74574 13.8054 7.12259 13.8329 6.85165C13.8606 6.58058 13.903 6.233 13.9274 6.07919C13.9519 5.92552 13.9878 5.66181 14.0074 5.49341C14.027 5.32487 14.084 4.91144 14.1337 4.5745C14.2633 3.69923 14.2735 3.58592 14.2307 3.49892C14.1796 3.39502 13.9882 3.31184 13.7662 3.2967C13.4474 3.27516 5.31141 3.26302 4.98902 3.28361ZM16.2385 3.32111C15.943 3.38956 15.8888 3.51242 15.9845 3.89572C16.0107 4.00044 16.0453 4.17798 16.0619 4.29033C16.0782 4.40269 16.1279 4.73431 16.1721 5.02734C16.2165 5.32023 16.2602 5.63181 16.2694 5.71976C16.3217 6.21719 16.547 7.94359 16.602 8.2684C16.6375 8.47784 16.687 8.79909 16.712 8.98222C16.8046 9.66209 16.8158 9.72714 16.9192 10.2006C16.9377 10.2848 16.9608 10.3984 16.9707 10.4532C17.002 10.6253 17.137 10.6565 17.205 10.5075C17.2656 10.3752 17.3711 9.88954 17.4208 9.51428C17.4354 9.40424 17.4639 9.2473 17.484 9.16562C17.5042 9.08381 17.5266 8.94022 17.5337 8.84641C17.5408 8.7526 17.5748 8.49011 17.6092 8.26308C17.7155 7.56057 17.7685 7.17045 17.8027 6.83829C17.8208 6.66252 17.8428 6.47081 17.8516 6.41217C17.8603 6.35354 17.8813 6.18582 17.8985 6.03924C17.9157 5.89279 17.9583 5.58722 17.9934 5.36019C18.0284 5.13315 18.0865 4.75558 18.1226 4.52132C18.1587 4.28692 18.2037 3.9733 18.2225 3.82427L18.257 3.55346L18.1717 3.45924C18.1221 3.40456 18.0368 3.35138 17.9683 3.33243C17.7892 3.28307 16.4409 3.2742 16.2385 3.32111ZM20.3802 3.3327C20.0391 3.40865 19.9889 3.48733 20.0596 3.83518C20.0888 3.97821 20.1484 4.35878 20.1921 4.68113C20.2358 5.00334 20.293 5.41677 20.3194 5.5999C20.3738 5.97829 20.4452 6.53599 20.4745 6.8117C20.5033 7.08209 20.5789 7.56112 20.6532 7.94346C20.6889 8.12659 20.7384 8.42016 20.7633 8.59592C20.8066 8.90041 20.8765 9.29461 20.9206 9.48156C20.9317 9.52915 20.9534 9.56801 20.9688 9.56801C20.9844 9.56801 20.997 9.59187 20.997 9.62105C20.997 9.65514 21.0166 9.67259 21.0522 9.67C21.2308 9.65746 21.3132 9.67573 21.3132 9.72782C21.3132 9.75713 21.3275 9.78113 21.3448 9.78113C21.3621 9.78113 21.3764 9.73941 21.3764 9.68841C21.3764 9.61123 21.39 9.59282 21.457 9.57864C21.5506 9.55887 21.6011 9.58669 21.5346 9.62132C21.5095 9.63441 21.5012 9.65473 21.5161 9.66646C21.531 9.67832 21.5496 9.67287 21.5574 9.65459C21.5652 9.63632 21.5976 9.62132 21.6295 9.62132C21.6614 9.62132 21.6937 9.63632 21.7015 9.65459C21.7098 9.67396 21.7274 9.67805 21.7438 9.66428C21.76 9.6505 21.7553 9.63564 21.7323 9.62882C21.7104 9.62228 21.6928 9.5991 21.6928 9.57728C21.6928 9.52628 21.7838 9.44897 21.8127 9.47529C21.8251 9.48633 21.8173 9.50078 21.7954 9.50733C21.7331 9.52615 21.7494 9.56801 21.8192 9.56801C21.8544 9.56801 21.8824 9.55028 21.8824 9.52805C21.8824 9.5061 21.8966 9.4881 21.9141 9.4881C21.9314 9.4881 21.9457 9.5061 21.9457 9.52805C21.9457 9.55014 21.9609 9.56801 21.9794 9.56801C21.9988 9.56801 22.0046 9.54537 21.9931 9.51483C21.9816 9.48428 21.9875 9.46151 22.0067 9.46151C22.0253 9.46151 22.0406 9.44392 22.0406 9.42238C22.0406 9.39865 22.059 9.38925 22.088 9.39865C22.1141 9.40711 22.1355 9.4367 22.1355 9.46438C22.1355 9.49206 22.1497 9.51483 22.167 9.51483C22.1845 9.51483 22.1988 9.47883 22.1988 9.43492C22.1988 9.39102 22.2128 9.35502 22.2303 9.35502C22.2477 9.35502 22.2619 9.33702 22.2619 9.31507C22.2619 9.29311 22.2762 9.27511 22.2935 9.27511C22.311 9.27511 22.3252 9.29393 22.3252 9.31684C22.3252 9.34725 22.3434 9.35379 22.3924 9.34056C22.4318 9.33007 22.4692 9.33566 22.4826 9.35406C22.4993 9.37684 22.5216 9.3722 22.5631 9.33729C22.6039 9.3028 22.6243 9.29843 22.6337 9.32188C22.6534 9.37206 22.6952 9.36156 22.7138 9.3017C22.7237 9.26993 22.7571 9.24853 22.7966 9.24853C22.8417 9.24853 22.8628 9.23148 22.8628 9.19521C22.8628 9.16589 22.8748 9.14189 22.8895 9.14189C22.9042 9.14189 22.942 9.16589 22.9735 9.19521C23.005 9.22453 23.0598 9.24853 23.0955 9.24853C23.1457 9.24853 23.1517 9.24143 23.1222 9.21648C23.0642 9.16767 23.0762 9.14858 23.1649 9.14858C23.2516 9.14858 23.4004 9.0489 23.4004 8.99081C23.4004 8.97145 23.4146 8.9555 23.4321 8.9555C23.4494 8.9555 23.4637 8.97349 23.4637 8.99545C23.4637 9.04208 23.4765 9.04426 23.5511 9.01072C23.5812 8.99708 23.6324 8.97909 23.6646 8.97049C23.6998 8.96122 23.7161 8.93954 23.7056 8.91622C23.6839 8.86864 23.7299 8.84232 23.8484 8.83455C23.9177 8.82991 23.9381 8.84 23.9381 8.87873C23.9381 8.93927 24.0098 8.94445 24.0654 8.88813C24.0984 8.85459 24.096 8.8415 24.0518 8.81423C23.987 8.77428 24.017 8.67828 24.0871 8.70092C24.1123 8.7091 24.1531 8.71578 24.1779 8.71578C24.2025 8.71578 24.2227 8.74073 24.2227 8.77128C24.2227 8.80619 24.2373 8.82105 24.2623 8.81123C24.284 8.80278 24.3267 8.78832 24.3571 8.77932C24.3876 8.77032 24.4124 8.75232 24.4124 8.73937C24.4124 8.72642 24.4337 8.71578 24.4598 8.71578C24.4859 8.71578 24.5072 8.70378 24.5072 8.68919C24.5072 8.6746 24.4859 8.6626 24.4598 8.6626C24.4337 8.6626 24.4124 8.6746 24.4124 8.68919C24.4124 8.70378 24.384 8.71578 24.3492 8.71578C24.2713 8.71578 24.2686 8.69287 24.3413 8.64638C24.406 8.60492 24.6844 8.59715 24.7129 8.63587C24.7624 8.70351 24.8193 8.66097 24.8016 8.56933C24.79 8.50893 24.7963 8.4762 24.8194 8.4762C24.839 8.4762 24.8552 8.48806 24.8552 8.50279C24.8552 8.54847 24.9124 8.53211 24.9946 8.46284C25.0859 8.38593 25.1081 8.38075 25.1081 8.43625C25.1081 8.4582 25.0931 8.4762 25.0746 8.4762C25.0563 8.4762 25.05 8.48806 25.0607 8.50279C25.1015 8.55829 25.2087 8.5332 25.1862 8.47347C25.169 8.42793 25.176 8.4203 25.2236 8.43243C25.3261 8.45848 25.3997 8.38839 25.3607 8.30194C25.3351 8.24535 25.3369 8.22231 25.3678 8.20581C25.438 8.16831 25.4877 8.18113 25.4877 8.23649C25.4877 8.30903 25.5432 8.30398 25.5605 8.22981L25.5744 8.16981L25.5981 8.22981C25.6272 8.30398 25.709 8.30889 25.709 8.23649C25.709 8.18031 25.755 8.16476 25.788 8.20976C25.8217 8.25571 25.862 8.23881 25.8455 8.1859C25.8334 8.14649 25.8515 8.13122 25.9271 8.11717C26.0416 8.09604 26.0829 8.05377 26.0215 8.02036C25.9849 8.00059 25.9856 7.99255 26.0252 7.97059C26.0944 7.93241 26.1371 7.95409 26.1279 8.02254C26.1217 8.06781 26.1321 8.07845 26.17 8.06631C26.1975 8.05731 26.244 8.04995 26.273 8.04995C26.302 8.04982 26.3734 8.01218 26.4316 7.96609C26.4904 7.91973 26.5468 7.89396 26.5583 7.90828C26.5771 7.932 26.8159 7.9455 26.8159 7.923C26.8159 7.91755 26.7945 7.89505 26.7684 7.8731C26.7424 7.85114 26.721 7.8221 26.721 7.80846C26.721 7.79483 26.7424 7.78365 26.7684 7.78365C26.7945 7.78365 26.8159 7.79756 26.8159 7.81446C26.8159 7.83192 26.8432 7.82442 26.8792 7.79701C26.914 7.77056 26.9423 7.73306 26.9423 7.7137C26.9423 7.68956 26.9697 7.68302 27.0293 7.69311C27.2119 7.72365 27.238 7.71888 27.2578 7.65056C27.2701 7.60802 27.3031 7.58075 27.3489 7.57529C27.3883 7.57039 27.4284 7.54952 27.438 7.52866C27.4634 7.47262 27.5117 7.48271 27.5117 7.54407C27.5117 7.57325 27.5259 7.59725 27.5432 7.59725C27.5607 7.59725 27.575 7.56002 27.575 7.51448C27.575 7.42858 27.603 7.4238 27.7775 7.48012C27.8157 7.49253 27.8279 7.47957 27.8279 7.42708C27.8279 7.3724 27.8433 7.35753 27.9006 7.35753C27.9406 7.35753 27.9904 7.34322 28.0113 7.32563C28.0408 7.30081 28.0576 7.30081 28.0873 7.32563C28.1329 7.36422 28.3339 7.36858 28.3339 7.33094C28.3339 7.31635 28.2983 7.30436 28.2549 7.30436C28.2113 7.30436 28.1758 7.29072 28.1758 7.27422C28.1758 7.25431 28.2239 7.24872 28.318 7.25758C28.3964 7.26508 28.4603 7.26058 28.4603 7.24777C28.4603 7.23495 28.4888 7.22445 28.5236 7.22445C28.5588 7.22445 28.587 7.20672 28.587 7.1845C28.587 7.15668 28.6201 7.14455 28.6958 7.14455C28.7555 7.14455 28.8133 7.13255 28.824 7.11796C28.8349 7.10323 28.8214 7.09123 28.7944 7.09123C28.7296 7.09123 28.7319 7.06559 28.8004 7.02182C28.8812 6.97014 28.9032 6.97669 28.9032 7.05182C28.9032 7.11114 28.9132 7.11714 28.9901 7.10296C29.1355 7.0765 29.2194 7.03151 29.2194 6.98024C29.2194 6.95337 29.2341 6.93142 29.252 6.93142C29.3002 6.93142 29.3321 7.01964 29.2884 7.03192C29.2056 7.05523 29.2586 7.09123 29.3753 7.09123C29.4876 7.09123 29.5008 7.08414 29.5099 7.01801C29.5188 6.95256 29.534 6.94396 29.6542 6.9366C29.7628 6.92992 29.7887 6.91847 29.7887 6.87674C29.7887 6.84824 29.8028 6.82493 29.8203 6.82493C29.8376 6.82493 29.8519 6.80693 29.8519 6.78497C29.8519 6.76302 29.8661 6.74502 29.8834 6.74502C29.9291 6.74502 29.9225 6.67193 29.8757 6.65707C29.8469 6.64807 29.8507 6.63471 29.8896 6.60826C29.9578 6.56189 29.9879 6.37222 30.075 5.44009C30.199 4.11307 30.1126 3.73959 29.6349 3.5386C29.2652 3.38315 29.6179 3.39311 22.0406 3.32561C21.1796 3.31798 20.4324 3.32111 20.3802 3.3327ZM29.1561 6.97369C29.1561 6.99687 29.1393 7.01105 29.1185 7.00533C29.0599 6.98883 29.0502 6.93142 29.1061 6.93142C29.1336 6.93142 29.1561 6.95051 29.1561 6.97369ZM28.4288 7.17113C28.4288 7.18586 28.4003 7.19786 28.3655 7.19786C28.3308 7.19786 28.3023 7.18586 28.3023 7.17113C28.3023 7.15654 28.3308 7.14455 28.3655 7.14455C28.4003 7.14455 28.4288 7.15654 28.4288 7.17113ZM28.6501 7.22445C28.6501 7.23904 28.6929 7.25104 28.745 7.25104C28.7971 7.25104 28.8399 7.23904 28.8399 7.22445C28.8399 7.20972 28.7971 7.19786 28.745 7.19786C28.6929 7.19786 28.6501 7.20972 28.6501 7.22445ZM24.9817 8.40952C24.9817 8.43148 24.9603 8.44948 24.9342 8.44948C24.8848 8.44948 24.8716 8.41798 24.9078 8.38743C24.9443 8.35675 24.9817 8.36794 24.9817 8.40952ZM22.2935 9.42156C22.2716 9.44392 22.2682 9.46151 22.2859 9.46151C22.3032 9.46151 22.3351 9.44351 22.3568 9.42156C22.3788 9.39934 22.3822 9.38161 22.3646 9.38161C22.3471 9.38161 22.3152 9.39961 22.2935 9.42156ZM21.1393 9.75454C21.1285 9.76913 21.149 9.78113 21.1848 9.78113C21.2206 9.78113 21.2499 9.76913 21.2499 9.75454C21.2499 9.73982 21.2294 9.72782 21.2044 9.72782C21.1793 9.72782 21.15 9.73982 21.1393 9.75454ZM0.896518 12.5775C0.896518 12.8339 0.901214 12.9387 0.907043 12.8106C0.912872 12.6824 0.912872 12.4727 0.907043 12.3445C0.901214 12.2163 0.896518 12.3212 0.896518 12.5775ZM0.896841 14.7613C0.896841 15.0469 0.901376 15.1638 0.907043 15.021C0.912872 14.8781 0.912872 14.6444 0.907043 14.5017C0.901376 14.3589 0.896841 14.4757 0.896841 14.7613ZM6.51285 14.5749C6.51285 14.5896 6.48435 14.6015 6.44953 14.6015C6.41472 14.6015 6.38623 14.5896 6.38623 14.5749C6.38623 14.5603 6.41472 14.5483 6.44953 14.5483C6.48435 14.5483 6.51285 14.5603 6.51285 14.5749ZM4.74177 15.3872C4.74177 15.4091 4.75602 15.4271 4.77335 15.4271C4.79083 15.4271 4.80508 15.4091 4.80508 15.3872C4.80508 15.3652 4.79083 15.3472 4.77335 15.3472C4.75602 15.3472 4.74177 15.3652 4.74177 15.3872ZM0.897328 16.9186C0.897328 17.2921 0.901699 17.4448 0.907205 17.2581C0.912548 17.0713 0.912548 16.7657 0.907205 16.5789C0.901699 16.3922 0.897328 16.545 0.897328 16.9186ZM0.892146 18.5963C0.892146 18.6623 0.898299 18.6892 0.905909 18.6563C0.913357 18.6233 0.913357 18.5694 0.905909 18.5364C0.898299 18.5034 0.892146 18.5304 0.892146 18.5963ZM0.895385 20.7668C0.895385 20.928 0.900728 20.9904 0.906881 20.9058C0.913196 20.821 0.913196 20.6891 0.906881 20.6127C0.900404 20.5364 0.895223 20.6058 0.895385 20.7668ZM0.897165 23.2304C0.897165 23.5745 0.901699 23.7154 0.907205 23.5433C0.91271 23.3711 0.91271 23.0895 0.907205 22.9174C0.901699 22.7454 0.897165 22.8861 0.897165 23.2304ZM0.89749 25.3609C0.89749 25.7637 0.901861 25.9285 0.907205 25.7271C0.912548 25.5257 0.912548 25.1961 0.907205 24.9947C0.901861 24.7933 0.89749 24.9581 0.89749 25.3609ZM0.892631 26.7591C0.892793 26.8324 0.898946 26.8591 0.906233 26.8186C0.913519 26.7781 0.913357 26.7182 0.905747 26.6855C0.898299 26.6528 0.892308 26.6858 0.892631 26.7591ZM0.896194 29.1692C0.896194 29.3963 0.901052 29.4893 0.907043 29.3757C0.913034 29.2622 0.913034 29.0764 0.907043 28.9629C0.901052 28.8494 0.896194 28.9422 0.896194 29.1692ZM0.891499 31.2466C0.889394 31.503 0.897651 31.6887 0.909957 31.6594C0.922425 31.6301 0.924206 31.4204 0.914005 31.1933L0.895385 30.7806L0.891499 31.2466Z" fill="#F3EBD4"/>
</svg>
