<svg id="visual" viewBox="0 0 180 1080" width="180" height="1080" xmlns="http://www.w3.org/2000/svg" xmlns:xlink="http://www.w3.org/1999/xlink" version="1.1"><rect width="180" height="1080" fill="#1c011e"></rect><g><g transform="translate(85 260)"><path d="M0 -53.3L46.1 -26.6L46.1 26.6L0 53.3L-46.1 26.6L-46.1 -26.6Z" fill="#0e0238"></path></g><g transform="translate(105 459)"><path d="M0 -45L39 -22.5L39 22.5L0 45L-39 22.5L-39 -22.5Z" fill="#0e0238"></path></g><g transform="translate(109 911)"><path d="M0 -38L32.9 -19L32.9 19L0 38L-32.9 19L-32.9 -19Z" fill="#0e0238"></path></g><g transform="translate(102 664)"><path d="M0 -35L30.3 -17.5L30.3 17.5L0 35L-30.3 17.5L-30.3 -17.5Z" fill="#0e0238"></path></g><g transform="translate(112 121)"><path d="M0 -38L32.9 -19L32.9 19L0 38L-32.9 19L-32.9 -19Z" fill="#0e0238"></path></g><g transform="translate(123 1020)"><path d="M0 -34L29.4 -17L29.4 17L0 34L-29.4 17L-29.4 -17Z" fill="#0e0238"></path></g><g transform="translate(59 813)"><path d="M0 -26L22.5 -13L22.5 13L0 26L-22.5 13L-22.5 -13Z" fill="#0e0238"></path></g></g></svg>