<svg width="32" height="32" viewBox="0 0 32 32" fill="none" xmlns="http://www.w3.org/2000/svg">
<path fill-rule="evenodd" clip-rule="evenodd" d="M26.4769 2.01168C26.5771 2.01727 26.7333 2.01727 26.8243 2.01153C26.9152 2.0058 26.8333 2.00125 26.6423 2.00125C26.4513 2.0014 26.3768 2.00595 26.4769 2.01168ZM27.1706 2.01153C27.2701 2.01727 27.433 2.01727 27.5324 2.01153C27.6321 2.00595 27.5506 2.0014 27.3515 2.0014C27.1525 2.0014 27.0711 2.00595 27.1706 2.01153ZM28.2128 2.01139C28.2805 2.01741 28.3912 2.01741 28.4588 2.01139C28.5266 2.00536 28.4711 2.00037 28.3358 2.00037C28.2005 2.00037 28.1452 2.00536 28.2128 2.01139ZM30.6456 3.23879C30.7116 3.3609 30.767 3.41953 30.749 3.34826C30.7402 3.31373 30.7064 3.26215 30.6738 3.23351C30.6161 3.18281 30.6154 3.18296 30.6456 3.23879ZM14.5391 6.8346C14.2505 6.99419 14.2081 7.07633 14.2075 7.47645C14.2066 8.12917 14.0757 8.29609 13.4696 8.41731C13.3742 8.43642 13.2504 8.46302 13.1946 8.47639C13.139 8.48991 13.0151 8.51606 12.9195 8.53472C12.8241 8.55338 12.7134 8.57866 12.6735 8.59101C12.6338 8.6032 12.5426 8.62965 12.4708 8.64978C10.0011 9.34084 8.02791 10.8933 7.11008 12.8674C7.00262 13.0988 6.91842 13.2939 6.85661 13.4558C6.82044 13.5506 6.78101 13.6538 6.76886 13.6855C6.55882 14.2305 6.39725 15.1822 6.48604 15.3515C6.68689 15.7344 6.70675 15.7375 8.97315 15.7375C11.2571 15.7375 11.0976 15.7077 11.4658 16.2031C11.8043 16.6583 12.3646 16.6724 12.7168 16.2343C13.1292 15.7213 13.0701 15.7373 14.5492 15.7378C15.9727 15.7384 15.9318 15.7293 16.3242 16.1305C17.0216 16.8437 17.5146 16.8453 18.4075 16.1372C18.9269 15.7255 18.8808 15.7373 19.963 15.7378C21.1015 15.7384 21.1436 15.7515 21.4469 16.1986C21.8372 16.774 22.3452 16.7879 22.922 16.2388C23.4074 15.7768 23.5246 15.7287 24.1235 15.7458C24.3464 15.7521 24.5615 15.7663 24.6012 15.7772C24.7374 15.8143 25.0722 15.5074 25.0727 15.3449C25.0731 15.21 24.9891 14.6365 24.9242 14.3312C24.8737 14.0929 24.7281 13.5968 24.6589 13.4271C24.646 13.3955 24.5876 13.247 24.5291 13.0971C23.9228 11.5407 22.5723 10.0882 20.9958 9.29706C20.6418 9.11926 20.5323 9.07106 20.1172 8.91002C20.0315 8.8768 19.9396 8.84962 19.9131 8.84962C19.8865 8.84962 19.8525 8.8389 19.8373 8.82582C19.8222 8.81274 19.7512 8.78511 19.6796 8.76424C19.608 8.74353 19.4972 8.71032 19.4336 8.69049C19.2831 8.6439 18.8394 8.53957 18.5215 8.47624C18.4341 8.45876 18.3068 8.43231 18.2388 8.41747C18.1709 8.40248 18.0771 8.39042 18.0304 8.39042C17.8982 8.39042 17.6326 8.27699 17.557 8.18853C17.4239 8.03248 17.3899 7.92873 17.3753 7.63367C17.3486 7.09322 17.2895 6.95142 17.0399 6.82799C16.8974 6.75746 14.6678 6.76349 14.5391 6.8346ZM15.8827 7.52773C16.1785 7.635 16.2658 7.80369 16.3061 8.34605C16.3405 8.80906 16.3192 8.78423 16.6858 8.78923C16.7988 8.79084 17.0007 8.80524 17.1345 8.82111C17.2685 8.83713 17.4953 8.86388 17.6386 8.88063C18.0236 8.92559 18.4066 9.00582 19.0281 9.17127C20.5794 9.58433 21.9327 10.4866 22.7214 11.6335C22.7919 11.736 22.8569 11.8264 22.8656 11.8343C22.8743 11.8423 22.9158 11.9079 22.9581 11.9802C23.681 13.2215 23.9295 14.5222 23.4996 14.8151L23.3998 14.883L22.7195 14.8644C22.3452 14.8541 21.4983 14.8337 20.8376 14.8188C19.0526 14.779 16.6726 14.7188 14.0487 14.6472C11.6509 14.5818 10.8039 14.5596 9.70168 14.5334C8.34184 14.5009 8.1868 14.4887 8.06184 14.4052C7.84662 14.2615 7.79607 14.0783 7.90606 13.8402C7.93081 13.7866 7.98551 13.6395 8.0276 13.5132C8.88481 10.9463 11.5542 9.10016 14.8014 8.82831L15.0621 8.80657L15.0764 8.36162C15.1006 7.62031 15.3698 7.342 15.8827 7.52773ZM8.41492 18.0049C7.86025 18.0215 7.89257 18.007 7.7107 18.3195C7.41217 18.8329 7.19398 18.9179 6.16854 18.9217C5.80967 18.9231 5.78166 18.9272 5.70695 18.991L5.62736 19.0588L5.62573 20.2036C5.62409 21.3478 5.6241 21.3484 5.69525 21.5491C6.04151 22.5266 6.77153 23.1466 7.86766 23.3943C8.16546 23.4616 23.2482 23.471 23.5445 23.404C24.8414 23.1114 25.6291 22.3952 25.8061 21.3482C25.87 20.9697 25.8618 19.1982 25.7954 19.0671C25.7242 18.9266 25.6059 18.8992 25.058 18.8966C24.4235 18.8935 24.2282 18.803 23.9651 18.3901C23.8006 18.1319 23.7004 18.0445 23.5362 18.0158C23.3915 17.9906 9.23283 17.9803 8.41492 18.0049ZM24.1669 19.5865C25.0997 20.0262 24.8322 21.3481 23.7905 21.4459C23.4539 21.4776 7.64755 21.4663 7.46242 21.4343C6.66866 21.2972 6.38035 20.2144 7.00691 19.7233C7.30544 19.4894 6.66865 19.505 15.8582 19.5084L24.0077 19.5114L24.1669 19.5865ZM14.1389 26.8676C14.1263 26.8878 14.204 27.0337 14.4391 27.4325C14.4672 27.48 14.5545 27.6283 14.6334 27.7625C14.7565 27.9721 15.2702 28.8173 15.6668 29.4629C15.7321 29.5695 15.7922 29.6562 15.8002 29.6556C15.8173 29.6545 16.0887 29.2202 16.2924 28.8675C16.3198 28.8202 16.383 28.713 16.4331 28.6295C16.4831 28.5459 16.524 28.4705 16.524 28.4617C16.524 28.453 16.5494 28.4105 16.5803 28.3673C16.6115 28.3241 16.7043 28.1737 16.7868 28.0329C17.0141 27.6449 17.0232 27.6295 17.2463 27.2645C17.3607 27.0775 17.4473 26.9063 17.4387 26.8842C17.4212 26.8388 14.167 26.8225 14.1389 26.8676ZM0.000499486 30.8478C0.000796213 30.9109 0.00672591 30.9334 0.0136922 30.8977C0.0205111 30.862 0.0203618 30.8104 0.0130987 30.7829C0.00583571 30.7554 0.000202759 30.7847 0.000499486 30.8478Z" fill="#717171"/>
<path fill-rule="evenodd" clip-rule="evenodd" d="M27.7931 2.01132C27.8528 2.01749 27.9505 2.01749 28.0102 2.01132C28.07 2.00514 28.0211 2 27.9017 2C27.7822 2 27.7334 2.00514 27.7931 2.01132ZM28.6399 2.04776C28.6877 2.05981 28.7594 2.0698 28.7991 2.0698C28.8638 2.0698 28.8621 2.0673 28.7847 2.04776C28.7368 2.03571 28.6653 2.02586 28.6255 2.02586C28.5609 2.02586 28.5624 2.02821 28.6399 2.04776ZM0.354116 3.28912L0.308162 3.38229L0.367158 3.31058C0.42408 3.24151 0.44261 3.19581 0.413704 3.19581C0.406295 3.19581 0.379318 3.23784 0.354116 3.28912ZM0 4.45863C0 4.51388 0.00592877 4.53636 0.0131918 4.50874C0.0204558 4.48112 0.0204558 4.43601 0.0131918 4.40838C0.00592877 4.38075 0 4.40339 0 4.45863ZM15.5532 7.81434C15.429 7.86578 15.4144 7.91617 15.4198 8.27735C15.4264 8.70614 15.3172 8.91626 15.1423 8.81178C15.13 8.80443 14.9376 8.8159 14.7147 8.83735C13.4406 8.9599 12.4265 9.241 11.4352 9.74589C9.85633 10.55 8.5167 12.0316 8.02873 13.5133C7.98723 13.6396 7.94039 13.7655 7.92468 13.7931C7.90911 13.8207 7.90675 13.8434 7.91964 13.8434C7.93254 13.8434 7.95952 13.8885 7.97968 13.9438C7.99983 13.9989 8.06268 14.0792 8.1193 14.1221L8.22247 14.2L9.38409 14.2216C10.023 14.2335 11.0799 14.2566 11.7328 14.2731C13.8351 14.3258 17.3921 14.3898 17.9137 14.3843L18.4204 14.379L18.044 14.3584C17.8369 14.3471 17.5927 14.3364 17.5012 14.3345C17.3334 14.3313 17.2227 14.1878 17.3878 14.1878C17.5192 14.1878 17.4721 14.0598 17.3293 14.0287C17.2428 14.0099 17.2402 14.0059 17.2906 13.9695C17.3426 13.9316 17.3422 13.9283 17.2786 13.8737C17.2191 13.8225 17.217 13.8124 17.2571 13.7727C17.3164 13.7139 17.3347 13.717 17.3347 13.7859C17.3347 13.8175 17.3478 13.8434 17.3636 13.8434C17.3795 13.8434 17.3925 13.8203 17.3925 13.7922C17.3925 13.7642 17.4186 13.7226 17.4505 13.6998C17.4824 13.677 17.5085 13.6484 17.5085 13.6362C17.5085 13.5991 17.3983 13.6109 17.3854 13.6494C17.372 13.6894 17.2767 13.6114 17.2767 13.5605C17.2767 13.5126 17.4525 13.4417 17.5708 13.4417C17.6745 13.4417 17.6821 13.4357 17.6821 13.3579C17.6821 13.3119 17.6984 13.2666 17.7183 13.2574C17.7472 13.244 17.7472 13.2373 17.7183 13.2239C17.6776 13.205 17.6679 13.0397 17.7077 13.0397C17.7217 13.0397 17.7399 13.0149 17.7478 12.9846C17.7569 12.9499 17.7928 12.9259 17.8443 12.92C17.9101 12.9125 17.932 12.8908 17.9548 12.8102C17.9705 12.755 18.0004 12.6926 18.0212 12.6715C18.0419 12.6505 18.0515 12.6214 18.0425 12.607C18.0335 12.5925 18.0366 12.5806 18.0495 12.5806C18.0624 12.5806 18.0764 12.5333 18.0805 12.4759C18.0846 12.4184 18.1115 12.3507 18.1403 12.3253C18.1811 12.2892 18.1878 12.2576 18.171 12.1788C18.1401 12.0331 18.1706 11.927 18.2621 11.8624C18.4657 11.7187 18.7452 11.8569 18.7567 12.107C18.7613 12.2062 18.7637 12.2101 18.7746 12.1358C18.7817 12.0884 18.8018 12.0411 18.8191 12.0304C18.8417 12.0165 18.8409 11.9991 18.8161 11.9696C18.7889 11.9368 18.7909 11.9203 18.8266 11.8909C18.8514 11.8705 18.865 11.8366 18.8569 11.8155C18.8381 11.7671 18.8742 11.7657 18.9254 11.8129C18.9483 11.8339 18.9568 11.8353 18.946 11.8161C18.9359 11.7982 18.947 11.7676 18.9707 11.748C18.9945 11.7286 19.0139 11.6818 19.0139 11.6444C19.0139 11.6068 19.027 11.5761 19.0428 11.5761C19.0587 11.5761 19.0717 11.5954 19.0717 11.6191C19.0717 11.6428 19.0792 11.6622 19.0882 11.6622C19.1175 11.6622 19.1876 11.5812 19.1876 11.5474C19.1876 11.5011 19.2621 11.4326 19.3125 11.4326C19.3385 11.4326 19.3627 11.391 19.3751 11.3255C19.4098 11.142 19.4398 11.1089 19.5522 11.1299C19.6597 11.1499 19.7194 11.0875 19.6546 11.0231C19.5656 10.9348 19.6272 10.5761 19.7482 10.479C19.8562 10.3923 20.0823 10.4809 20.0859 10.6114C20.0864 10.629 20.0993 10.6221 20.1146 10.5959C20.1336 10.5639 20.13 10.5248 20.1038 10.4746C20.0825 10.4337 20.0687 10.3517 20.0733 10.2922C20.0778 10.2329 20.0823 10.1609 20.0833 10.1322C20.0842 10.1031 20.0986 10.0886 20.1158 10.0991C20.1517 10.1212 20.2587 10.0338 20.2587 9.98232C20.2587 9.96308 20.2784 9.93104 20.3026 9.91121C20.3362 9.88343 20.3386 9.86594 20.3128 9.83523C20.2586 9.77044 20.3071 9.75706 20.414 9.80731C20.4687 9.83303 20.529 9.85404 20.548 9.85404C20.567 9.85404 20.6156 9.87991 20.656 9.9115C20.6966 9.94309 20.7487 9.96895 20.772 9.96895C20.7951 9.96895 20.8473 9.99467 20.8878 10.0263C20.9282 10.0579 20.979 10.0837 21.0009 10.0837C21.0227 10.0837 21.0404 10.0966 21.0404 10.1124C21.0404 10.1282 21.0598 10.1412 21.0839 10.1412C21.1077 10.1412 21.1273 10.154 21.1273 10.1698C21.1273 10.1855 21.1467 10.1985 21.1708 10.1985C21.1946 10.1985 21.2142 10.2114 21.2142 10.2273C21.2142 10.243 21.2303 10.2561 21.2504 10.2562C21.2874 10.2565 21.5497 10.4433 21.7022 10.5779C21.7493 10.6195 21.7955 10.6458 21.8048 10.6364C21.8143 10.6271 21.822 10.6431 21.822 10.6721C21.822 10.701 21.8311 10.7157 21.8422 10.7047C21.8533 10.6937 21.9611 10.7786 22.0817 10.8937C22.2024 11.0086 22.1705 10.9727 22.0109 10.8142C21.2626 10.0705 20.1935 9.48169 19.0282 9.17135C18.4067 9.0059 18.0237 8.92566 17.6386 8.8807C17.4954 8.86395 17.2686 8.83721 17.1347 8.82119C17.0008 8.80532 16.7989 8.79092 16.686 8.7893C16.3456 8.7846 16.3387 8.78005 16.3193 8.54714L16.3027 8.34744L16.2976 8.56978L16.2924 8.79224H16.1802C16.0213 8.79224 16.01 8.76579 15.9794 8.32232C15.9464 7.84491 15.8263 7.70164 15.5532 7.81434ZM15.0243 9.82539C15.1562 10.0937 14.9877 10.4445 14.7734 10.3476C14.6976 10.3134 14.6133 10.1506 14.6133 10.0385C14.6133 9.74618 14.9099 9.59249 15.0243 9.82539ZM20.195 9.88857C20.2535 9.94662 20.2381 10.0232 20.1714 10.0058C20.0998 9.98717 20.0747 9.95073 20.096 9.89578C20.1156 9.84508 20.1487 9.84273 20.195 9.88857ZM11.7322 10.5526C11.8576 10.6769 11.85 10.9701 11.7179 11.1107C11.5093 11.3328 11.2931 10.8697 11.4823 10.6064C11.5537 10.5071 11.6625 10.4835 11.7322 10.5526ZM14.4253 11.239C14.6056 11.3927 14.5079 11.7197 14.2817 11.7197C14.0906 11.7197 13.9368 11.5108 14.0059 11.3454C14.0793 11.1698 14.2835 11.1179 14.4253 11.239ZM18.9008 11.8896C18.8349 11.9065 18.8338 11.91 18.881 11.957C18.9264 12.002 18.9353 12.0025 18.9763 11.9616C19.0335 11.9051 18.9926 11.8661 18.9008 11.8896ZM10.2982 12.3274C10.4126 12.4492 10.4042 12.6676 10.2777 12.8603C10.1919 12.9906 10.0095 12.899 9.96814 12.705C9.90666 12.4164 10.1356 12.1543 10.2982 12.3274ZM12.9344 12.3869C13.0831 12.6286 12.9246 13.0239 12.7165 12.9299C12.5572 12.858 12.5022 12.4913 12.6299 12.3514C12.7166 12.2563 12.8648 12.2736 12.9344 12.3869ZM18.2812 12.3981C18.271 12.4081 18.2693 12.427 18.2773 12.4398C18.2954 12.4688 18.377 12.4405 18.377 12.4052C18.377 12.3759 18.3088 12.3707 18.2812 12.3981ZM16.4105 12.5209C16.5125 12.6222 16.5328 12.8987 16.4477 13.0276C16.2455 13.3334 15.9231 12.9889 16.075 12.629C16.1577 12.4329 16.2814 12.3929 16.4105 12.5209ZM17.6242 13.2857C17.6242 13.3071 17.5464 13.3841 17.5249 13.3841C17.5159 13.3841 17.5085 13.3584 17.5085 13.3267C17.5085 13.2885 17.5277 13.2694 17.5663 13.2694C17.5981 13.2694 17.6242 13.2768 17.6242 13.2857ZM23.5326 13.3411C23.5317 13.3727 23.5437 13.4178 23.5591 13.4417C23.5964 13.4987 23.5964 13.4269 23.5591 13.3411L23.5342 13.2837L23.5326 13.3411ZM23.5885 13.6017C23.5888 13.6321 23.6021 13.6761 23.6183 13.6998C23.6397 13.7313 23.6424 13.7197 23.6284 13.6567C23.6045 13.5512 23.5878 13.5283 23.5885 13.6017ZM9.04799 14.5237C9.08397 14.5306 9.13604 14.5303 9.16368 14.5232C9.19141 14.5159 9.16193 14.5104 9.09822 14.5106C9.03461 14.5109 9.01192 14.5169 9.04799 14.5237ZM10.524 14.5523C10.5598 14.5592 10.6186 14.5592 10.6543 14.5523C10.6902 14.5456 10.6608 14.54 10.5892 14.54C10.5175 14.54 10.4883 14.5456 10.524 14.5523ZM12.6809 14.6101C12.7247 14.6167 12.7964 14.6167 12.8401 14.6101C12.8839 14.6035 12.848 14.5982 12.7605 14.5982C12.6728 14.5982 12.6371 14.6035 12.6809 14.6101ZM13.434 14.6387C13.4781 14.6453 13.5431 14.6452 13.5788 14.6384C13.6144 14.6316 13.5783 14.6262 13.4988 14.6264C13.4192 14.6267 13.39 14.6323 13.434 14.6387ZM14.8381 14.6672C14.874 14.674 14.9262 14.6738 14.9537 14.6667C14.9815 14.6595 14.952 14.6539 14.8884 14.6542C14.8247 14.6544 14.802 14.6604 14.8381 14.6672ZM15.4456 14.696C15.4814 14.7026 15.5401 14.7026 15.5759 14.696C15.6118 14.689 15.5824 14.6834 15.5108 14.6834C15.4392 14.6834 15.4099 14.689 15.4456 14.696ZM17.01 14.7254C17.0941 14.7313 17.2243 14.7313 17.2994 14.7254C17.3746 14.7194 17.3057 14.7148 17.1465 14.7149C16.9873 14.7149 16.9258 14.7197 17.01 14.7254ZM17.7915 14.7541C17.8594 14.7601 17.9637 14.7601 18.0229 14.7539C18.0823 14.7478 18.0267 14.7428 17.8992 14.743C17.7719 14.743 17.7234 14.7481 17.7915 14.7541ZM19.3244 14.7824C19.3758 14.7888 19.467 14.7889 19.527 14.7826C19.587 14.7764 19.5452 14.7713 19.4336 14.7712C19.3222 14.771 19.273 14.7761 19.3244 14.7824ZM20.0199 14.8107C20.0558 14.8176 20.1143 14.8176 20.1502 14.8107C20.1859 14.8038 20.1567 14.7982 20.085 14.7982C20.0133 14.7982 19.984 14.8038 20.0199 14.8107ZM21.8154 14.84C21.8674 14.8464 21.9455 14.8463 21.9891 14.8397C22.0325 14.8331 21.99 14.8278 21.8943 14.828C21.7989 14.8282 21.7633 14.8337 21.8154 14.84ZM22.4663 14.8685C22.51 14.8749 22.5817 14.8749 22.6254 14.8685C22.6691 14.8619 22.6334 14.8563 22.5458 14.8563C22.4582 14.8563 22.4223 14.8619 22.4663 14.8685ZM7.1284 16.1249C7.03369 16.3469 6.99352 17.3125 7.07133 17.4974C7.16946 17.7299 7.50135 17.8702 7.74503 17.7818C7.99569 17.6912 8.08669 17.6872 10.1983 17.6762C11.3766 17.67 13.0291 17.664 13.8702 17.6626C15.0802 17.6609 15.3973 17.6528 15.388 17.6244C15.3804 17.602 15.2739 17.5781 15.1032 17.5604C14.9138 17.5408 14.8659 17.5294 14.9462 17.5228C15.023 17.5166 15.0845 17.4897 15.1284 17.4434C15.1993 17.3686 15.2957 17.3507 15.3151 17.4086C15.3239 17.4345 15.3477 17.4305 15.4044 17.3937C15.4951 17.3349 15.5027 17.2994 15.4288 17.2802C15.3771 17.2668 15.3518 17.1725 15.3998 17.1725C15.4131 17.1725 15.4239 17.156 15.4239 17.1359C15.4239 17.1109 15.4631 17.1014 15.547 17.1057C15.6147 17.1093 15.6439 17.1051 15.6122 17.0962C15.5181 17.0703 15.4892 17.033 15.5037 16.9571C15.5185 16.8807 15.5403 16.8688 15.5851 16.9132C15.602 16.93 15.6948 16.9323 15.8222 16.9187C15.9414 16.9061 16.0426 16.9077 16.0574 16.9224C16.0731 16.9377 16.1126 16.9295 16.155 16.9018C16.1945 16.8762 16.2509 16.8634 16.2812 16.8731C16.324 16.887 16.3209 16.8786 16.2666 16.8348C16.2106 16.7894 16.1827 16.7843 16.1199 16.8078C15.9584 16.8682 15.8434 16.7958 15.9436 16.6971C16.0748 16.5681 16.0848 16.5643 16.1911 16.6024C16.2461 16.6221 16.2991 16.6301 16.3092 16.6203C16.333 16.5967 15.9171 16.168 15.8703 16.168C15.8504 16.168 15.8291 16.1531 15.823 16.1351C15.8154 16.1126 15.7013 16.1021 15.4659 16.1026C15.2465 16.1029 15.157 16.0952 15.2213 16.0818C15.3951 16.0456 13.6738 16.0501 13.4514 16.0866L13.2479 16.1198L13.0701 16.3401C12.7549 16.7307 12.5184 16.8583 12.1037 16.8625C11.6661 16.8671 11.5509 16.7988 11.1305 16.2848C10.9255 16.0342 11.0424 16.0473 8.98583 16.0428L7.16532 16.0388L7.1284 16.1249ZM15.6628 16.2971C15.6587 16.313 15.6426 16.3247 15.6266 16.323C15.6107 16.3214 15.5781 16.3182 15.5543 16.3158C15.476 16.308 15.5087 16.2626 15.5904 16.2656C15.6342 16.2672 15.6668 16.2814 15.6628 16.2971ZM15.7845 16.4162C15.7049 16.5014 15.697 16.5309 15.7495 16.5482C15.7825 16.5591 15.7156 16.656 15.675 16.656C15.6298 16.656 15.6797 16.4608 15.7394 16.4051C15.8359 16.315 15.871 16.3236 15.7845 16.4162ZM22.0754 16.6475C22.1113 16.6544 22.1697 16.6544 22.2056 16.6475C22.2415 16.6406 22.2122 16.635 22.1405 16.635C22.0688 16.635 22.0395 16.6406 22.0754 16.6475ZM16.4083 16.7869C16.4083 16.8149 16.4411 16.828 16.5117 16.828C16.5964 16.828 16.6081 16.8214 16.5768 16.7912C16.5228 16.7391 16.4083 16.7361 16.4083 16.7869ZM15.3082 17.2012C15.3082 17.217 15.2894 17.23 15.2664 17.23C15.2436 17.23 15.2167 17.217 15.2068 17.2012C15.197 17.1855 15.2157 17.1725 15.2486 17.1725C15.2814 17.1725 15.3082 17.1855 15.3082 17.2012ZM14.7512 17.5366C14.7235 17.5438 14.6714 17.544 14.6354 17.5372C14.5993 17.5303 14.622 17.5244 14.6858 17.5241C14.7493 17.5238 14.7789 17.5294 14.7512 17.5366ZM16.0537 17.6529C16.1531 17.6586 16.316 17.6586 16.4155 17.6529C16.515 17.6474 16.4337 17.6427 16.2346 17.6427C16.0355 17.6427 15.9542 17.6474 16.0537 17.6529ZM16.6471 17.6515C16.6749 17.6587 16.7206 17.6587 16.7486 17.6515C16.7764 17.6443 16.7536 17.6383 16.6978 17.6383C16.6421 17.6383 16.6193 17.6443 16.6471 17.6515ZM8.33943 17.9974C8.44762 18.003 8.61705 18.0028 8.71577 17.9973C8.81468 17.9917 8.72615 17.9871 8.51922 17.9873C8.31215 17.9873 8.23136 17.9919 8.33943 17.9974ZM9.29488 17.9974C9.403 18.003 9.5724 18.0028 9.67122 17.9973C9.77013 17.9917 9.68159 17.9871 9.47456 17.9873C9.26763 17.9873 9.18666 17.9919 9.29488 17.9974ZM10.2211 17.9973C10.3133 18.003 10.4566 18.003 10.5396 17.9973C10.6226 17.9914 10.5472 17.9867 10.372 17.9868C10.1969 17.9868 10.129 17.9917 10.2211 17.9973ZM11.5518 17.9976C11.7707 18.0024 12.129 18.0024 12.348 17.9976C12.5668 17.9927 12.3878 17.9888 11.9499 17.9888C11.5119 17.9888 11.3329 17.9927 11.5518 17.9976ZM13.9236 17.9976C14.5235 18.0019 15.5136 18.0019 16.1239 17.9976C16.7341 17.9933 16.2432 17.9898 15.0331 17.9898C13.823 17.9898 13.3237 17.9933 13.9236 17.9976ZM19.4264 17.9976C19.693 18.0022 20.1296 18.0022 20.3963 17.9976C20.6629 17.9928 20.4447 17.9889 19.9112 17.9889C19.3779 17.9889 19.1597 17.9928 19.4264 17.9976ZM6.0499 18.9158C6.15663 18.9212 6.3391 18.9212 6.45516 18.9158C6.57137 18.9104 6.48406 18.9058 6.26112 18.9058C6.03819 18.9058 5.94318 18.9103 6.0499 18.9158ZM5.61989 19.4829C5.61989 19.6249 5.62479 19.6867 5.63087 19.62C5.63694 19.5534 5.63694 19.4372 5.63101 19.3617C5.62493 19.2862 5.62005 19.3408 5.61989 19.4829ZM11.6966 19.5187C13.9058 19.5228 17.5211 19.5228 19.7304 19.5187C21.9397 19.5146 20.1321 19.5114 15.7134 19.5114C11.295 19.5114 9.48726 19.5146 11.6966 19.5187ZM7.80728 19.8416C7.16502 19.8619 6.97039 20.0079 6.97039 20.4692C6.97039 20.7791 7.05622 20.9248 7.32584 21.0729C7.44576 21.1387 10.2371 21.1527 13.9186 21.1058C15.1556 21.0901 15.2666 21.0857 14.5698 21.0802C12.6273 21.0651 11.7961 21.0386 11.9209 20.9958C11.9818 20.9749 12.0068 20.9302 12.0073 20.8412C12.0079 20.7349 12.0356 20.6738 12.0832 20.6738C12.1054 20.6738 12.1235 20.6609 12.1235 20.6451C12.1235 20.6294 12.1105 20.6165 12.0946 20.6165C12.0788 20.6165 12.0657 20.6035 12.0657 20.5877C12.0657 20.572 12.104 20.559 12.1508 20.559C12.1977 20.559 12.244 20.572 12.2538 20.5877C12.2967 20.6565 12.32 20.6057 12.3068 20.4729C12.2937 20.3422 12.2978 20.3295 12.3528 20.3295C12.4187 20.3295 12.4349 20.285 12.3769 20.2634C12.3127 20.2396 12.4493 20.159 12.5558 20.1582C12.6837 20.157 12.8491 20.0997 12.9081 20.0363C12.9398 20.002 13.0065 19.9842 13.1202 19.9793C13.2796 19.9728 13.3558 19.9411 13.2762 19.9146C13.194 19.8871 12.4956 19.8712 10.7195 19.8564C9.7004 19.8479 8.72985 19.8377 8.56265 19.8341C8.39545 19.8302 8.05557 19.8336 7.80728 19.8416ZM8.34002 21.4703C8.55984 21.4751 8.91156 21.4751 9.12159 21.4703C9.33163 21.4652 9.15185 21.4612 8.72184 21.4612C8.29199 21.4612 8.12004 21.4654 8.34002 21.4703ZM9.97396 21.47C10.0575 21.4757 10.1944 21.4757 10.278 21.47C10.3615 21.464 10.2932 21.4594 10.126 21.4594C9.95883 21.4594 9.89037 21.464 9.97396 21.47ZM12.4348 21.4691C12.4706 21.4758 12.5292 21.4758 12.5651 21.4691C12.601 21.4621 12.5716 21.4566 12.4998 21.4566C12.4283 21.4566 12.3989 21.4621 12.4348 21.4691ZM15.3154 21.4703C15.8686 21.4746 16.7742 21.4746 17.3275 21.4703C17.8808 21.4658 17.4281 21.4623 16.3215 21.4623C15.2148 21.4623 14.7621 21.4658 15.3154 21.4703ZM19.5712 21.4701C19.7264 21.4752 19.9805 21.4752 20.1356 21.4701C20.2909 21.4649 20.1639 21.4607 19.8534 21.4607C19.5429 21.4607 19.4159 21.4649 19.5712 21.4701ZM21.6702 21.4691C21.7058 21.4758 21.7645 21.4758 21.8004 21.4691C21.8362 21.4621 21.8069 21.4566 21.7352 21.4566C21.6636 21.4566 21.6343 21.4621 21.6702 21.4691ZM22.4097 21.4701C22.5499 21.4754 22.7712 21.4754 22.9019 21.4701C23.0325 21.4648 22.9179 21.4604 22.647 21.4606C22.3764 21.4606 22.2697 21.4648 22.4097 21.4701ZM23.3788 21.4695C23.4307 21.476 23.5089 21.4758 23.5523 21.4692C23.5959 21.4628 23.5533 21.4575 23.4577 21.4577C23.3623 21.4577 23.3267 21.4632 23.3788 21.4695ZM7.82433 23.4003C7.8562 23.4138 7.90838 23.4246 7.94024 23.4241C7.98678 23.4234 7.98397 23.4189 7.92571 23.4003C7.8267 23.3688 7.75066 23.3688 7.82433 23.4003ZM8.19356 23.4488C8.22143 23.456 8.26694 23.456 8.29481 23.4488C8.32267 23.4417 8.29984 23.4357 8.24426 23.4357C8.18853 23.4357 8.16569 23.4417 8.19356 23.4488ZM11.9983 23.4793C14.0072 23.4833 17.3032 23.4833 19.3228 23.4793C21.3422 23.4751 19.6986 23.4719 15.6701 23.4719C11.6414 23.4719 9.98918 23.4751 11.9983 23.4793ZM15.5885 26.8369C15.894 26.8417 16.4021 26.8417 16.7175 26.8369C17.0331 26.8325 16.7832 26.8286 16.1621 26.8286C15.5412 26.8286 15.2829 26.8325 15.5885 26.8369Z" fill="#FBDD7E"/>
<path fill-rule="evenodd" clip-rule="evenodd" d="M15.4032 8.28997C15.4034 8.36888 15.409 8.39783 15.4157 8.35418C15.4224 8.31054 15.4222 8.24589 15.4152 8.21063C15.4084 8.17536 15.4029 8.21106 15.4032 8.28997ZM15.9811 8.37608C15.9815 8.43926 15.9874 8.4616 15.9944 8.42589C16.0013 8.39018 16.001 8.33861 15.9937 8.31114C15.9865 8.28365 15.9808 8.31289 15.9811 8.37608ZM20.2876 9.79098C20.2876 9.80361 20.3011 9.82742 20.3177 9.84388C20.3386 9.8646 20.3342 9.88502 20.3031 9.91045C20.2787 9.93072 20.2585 9.96305 20.2585 9.9823C20.2585 10.0337 20.1516 10.1212 20.1157 10.0991C20.0984 10.0885 20.0841 10.1031 20.0832 10.1322C20.0822 10.1608 20.0777 10.2328 20.0731 10.2922C20.0685 10.3517 20.0823 10.4337 20.1037 10.4746C20.1299 10.5248 20.1335 10.5639 20.1144 10.5959C20.0992 10.6221 20.0863 10.629 20.0857 10.6114C20.0822 10.4809 19.8561 10.3923 19.7481 10.479C19.6271 10.5761 19.5654 10.9348 19.6545 11.0231C19.7193 11.0875 19.6596 11.1499 19.5521 11.1299C19.4396 11.1089 19.4097 11.142 19.375 11.3255C19.3625 11.391 19.3384 11.4326 19.3124 11.4326C19.262 11.4326 19.1875 11.5011 19.1875 11.5474C19.1875 11.5812 19.1173 11.6621 19.0881 11.6621C19.0791 11.6621 19.0715 11.6427 19.0715 11.6191C19.0715 11.5954 19.0585 11.576 19.0426 11.576C19.0268 11.576 19.0137 11.6068 19.0137 11.6444C19.0137 11.6818 18.9943 11.7286 18.9706 11.748C18.9469 11.7675 18.9358 11.7982 18.9459 11.8161C18.9567 11.8352 18.9482 11.8339 18.9252 11.8129C18.8741 11.7657 18.8379 11.7671 18.8567 11.8154C18.8649 11.8366 18.8513 11.8705 18.8265 11.8909C18.7908 11.9203 18.7888 11.9368 18.816 11.9695C18.8407 11.9991 18.8416 12.0165 18.8189 12.0303C18.8017 12.0411 18.7816 12.0884 18.7745 12.1357C18.7636 12.2101 18.7611 12.2061 18.7566 12.1069C18.745 11.8569 18.4656 11.7187 18.2619 11.8624C18.1705 11.927 18.1399 12.033 18.1709 12.1788C18.1877 12.2575 18.181 12.2891 18.14 12.3253C18.1113 12.3507 18.0845 12.4184 18.0803 12.4759C18.0762 12.5333 18.0623 12.5805 18.0494 12.5805C18.0365 12.5805 18.0334 12.5925 18.0424 12.607C18.0514 12.6214 18.0418 12.6505 18.0211 12.6715C18.0003 12.6925 17.9703 12.755 17.9546 12.8102C17.9319 12.8907 17.91 12.9125 17.8442 12.9199C17.7926 12.9258 17.7568 12.9499 17.7477 12.9846C17.7398 13.0149 17.7216 13.0397 17.7076 13.0397C17.6678 13.0397 17.6775 13.205 17.7182 13.2238C17.7471 13.2373 17.7471 13.244 17.7182 13.2574C17.6983 13.2666 17.682 13.3119 17.682 13.3578C17.682 13.4357 17.6744 13.4416 17.5706 13.4416C17.4523 13.4416 17.2766 13.5126 17.2766 13.5605C17.2766 13.6115 17.3719 13.6894 17.3853 13.6493C17.3982 13.6108 17.5084 13.5991 17.5084 13.6361C17.5084 13.6484 17.4823 13.677 17.4504 13.6998C17.4185 13.7225 17.3924 13.7641 17.3924 13.7922C17.3924 13.8203 17.3794 13.8434 17.3635 13.8434C17.3477 13.8434 17.3346 13.8175 17.3346 13.7859C17.3346 13.717 17.3163 13.7139 17.2569 13.7727C17.2169 13.8123 17.219 13.8225 17.2785 13.8736C17.3421 13.9283 17.3425 13.9316 17.2905 13.9694C17.2401 14.0059 17.2427 14.0099 17.3292 14.0287C17.472 14.0598 17.5191 14.1878 17.3877 14.1878C17.2225 14.1878 17.3333 14.3312 17.5011 14.3344C17.5926 14.3364 17.8368 14.3481 18.0439 14.3607C18.2721 14.3746 17.8738 14.3785 17.0318 14.3706C16.2681 14.3633 15.6501 14.3641 15.658 14.3721C15.6662 14.3801 16.317 14.4006 17.1044 14.4174C18.4622 14.4467 19.1133 14.4617 21.9927 14.5304C23.2833 14.5613 23.3324 14.5591 23.4352 14.4667C23.6657 14.2592 23.6221 13.5241 23.3409 12.8737C23.2676 12.7041 23.1794 12.5136 23.1454 12.4514C23.1283 12.4198 23.0621 12.2971 22.9985 12.1788C22.9351 12.0604 22.8723 11.9593 22.8591 11.9539C22.846 11.9487 22.8352 11.9316 22.8352 11.9161C22.8352 11.8857 22.6741 11.6436 22.6123 11.5812C22.5915 11.5603 22.5746 11.5343 22.5746 11.5235C22.5746 11.5125 22.5453 11.4716 22.5095 11.4322C22.4736 11.3928 22.3875 11.2867 22.3182 11.1963C22.0938 10.9038 21.359 10.2569 21.2502 10.2562C21.2302 10.2561 21.214 10.243 21.214 10.2273C21.214 10.2114 21.1945 10.1985 21.1706 10.1985C21.1466 10.1985 21.1272 10.1855 21.1272 10.1698C21.1272 10.1539 21.1076 10.1411 21.0838 10.1411C21.0597 10.1411 21.0403 10.1282 21.0403 10.1123C21.0403 10.0966 21.0226 10.0837 21.0007 10.0837C20.9789 10.0837 20.9281 10.0578 20.8877 10.0262C20.8471 9.99465 20.795 9.96893 20.7719 9.96893C20.7486 9.96893 20.6985 9.94469 20.6606 9.9153C20.6226 9.88576 20.5494 9.8524 20.4978 9.84124C20.4462 9.83007 20.3965 9.80906 20.3875 9.79451C20.3672 9.76203 20.2876 9.75924 20.2876 9.79098ZM20.0959 9.89576C20.0746 9.95071 20.0997 9.98715 20.1713 10.0058C20.238 10.0232 20.2534 9.9466 20.1949 9.88855C20.1486 9.8427 20.1155 9.84506 20.0959 9.89576ZM19.9719 10.5161C20.1435 10.6374 20.0509 11.1483 19.8579 11.1446C19.6163 11.1401 19.5689 10.6231 19.7986 10.4969C19.8867 10.4484 19.8739 10.4471 19.9719 10.5161ZM18.6128 11.9159C18.7192 12.0103 18.7345 12.1295 18.6551 12.2495C18.5073 12.4733 18.2031 12.3658 18.2031 12.0898C18.2031 11.8478 18.4281 11.7525 18.6128 11.9159ZM18.9762 11.9616C18.9352 12.0025 18.9263 12.002 18.8809 11.957C18.8337 11.91 18.8346 11.9065 18.9007 11.8896C18.9925 11.8661 19.0334 11.905 18.9762 11.9616ZM21.7332 12.3769C21.8892 12.5943 21.7398 12.992 21.5222 12.9378C21.2958 12.8814 21.3581 12.2935 21.5904 12.2935C21.6488 12.2935 21.6909 12.3181 21.7332 12.3769ZM18.3768 12.4052C18.3768 12.4405 18.2953 12.4687 18.2772 12.4397C18.2692 12.4269 18.2709 12.4081 18.281 12.398C18.3086 12.3707 18.3768 12.3758 18.3768 12.4052ZM16.1431 12.5161C15.9246 12.7755 16.0874 13.2652 16.3467 13.1277C16.5127 13.0396 16.557 12.6789 16.4198 12.5319L16.3447 12.4514L16.4054 12.5343C16.5029 12.6673 16.4912 12.9208 16.3821 13.0367C16.1358 13.298 15.9343 12.7981 16.1722 12.5161C16.1955 12.4884 16.2079 12.4657 16.2 12.4657C16.1921 12.4657 16.1664 12.4884 16.1431 12.5161ZM17.5084 13.3267C17.5084 13.3947 17.5266 13.3987 17.5828 13.3432C17.6388 13.2874 17.6348 13.2694 17.5662 13.2694C17.5276 13.2694 17.5084 13.2885 17.5084 13.3267ZM13.6081 14.3237C13.6842 14.3296 13.8015 14.3296 13.8686 14.3236C13.9357 14.3176 13.8735 14.3127 13.7302 14.3127C13.5868 14.3128 13.532 14.3177 13.6081 14.3237ZM14.4758 14.3527C14.631 14.3578 14.8851 14.3578 15.0402 14.3527C15.1954 14.3475 15.0685 14.3433 14.758 14.3433C14.4474 14.3433 14.3204 14.3475 14.4758 14.3527ZM9.00443 16.0452C9.04846 16.0518 9.11352 16.0515 9.14921 16.0447C9.1848 16.0379 9.14872 16.0325 9.06921 16.0327C8.9896 16.0329 8.96041 16.0385 9.00443 16.0452ZM9.36662 16.0456C9.43469 16.0516 9.53903 16.0516 9.59837 16.0455C9.65762 16.0393 9.60186 16.0342 9.47444 16.0344C9.34712 16.0344 9.29864 16.0395 9.36662 16.0456ZM10.6398 16.0447C10.6755 16.0516 10.7342 16.0516 10.7701 16.0447C10.8058 16.0379 10.7765 16.0324 10.7049 16.0324C10.6332 16.0324 10.6039 16.0379 10.6398 16.0447ZM13.3973 16.0445C13.2279 16.1054 13.1506 16.1644 13.0513 16.3095C12.7915 16.6888 12.5313 16.8249 12.054 16.8319C11.8194 16.8354 11.8064 16.8382 11.9352 16.8573C12.3782 16.9232 12.7277 16.764 13.07 16.3401L13.2478 16.1197L13.4512 16.0866C13.6737 16.0501 15.395 16.0456 15.2212 16.0818C15.1569 16.0952 15.2464 16.1029 15.4658 16.1026C15.7012 16.1021 15.8153 16.1126 15.8229 16.1351C15.829 16.1531 15.8503 16.1679 15.8702 16.1679C15.917 16.1679 16.3329 16.5966 16.3091 16.6203C16.299 16.6301 16.2459 16.622 16.1909 16.6024C16.0846 16.5642 16.0747 16.5681 15.9435 16.6971C15.8433 16.7958 15.9583 16.8681 16.1198 16.8077C16.1826 16.7843 16.2104 16.7894 16.2665 16.8348C16.3208 16.8786 16.3239 16.887 16.281 16.8731C16.2508 16.8634 16.1943 16.8762 16.1549 16.9018C16.1125 16.9294 16.0729 16.9377 16.0573 16.9224C16.0425 16.9077 15.9413 16.9061 15.8221 16.9187C15.6947 16.9322 15.6019 16.93 15.585 16.9131C15.5402 16.8687 15.5184 16.8807 15.5035 16.9571C15.4891 17.033 15.518 17.0702 15.612 17.0962C15.6438 17.105 15.6146 17.1093 15.5469 17.1057C15.463 17.1014 15.4238 17.1109 15.4238 17.1359C15.4238 17.156 15.413 17.1724 15.3997 17.1724C15.3517 17.1724 15.377 17.2668 15.4287 17.2802C15.5026 17.2994 15.495 17.3349 15.4042 17.3936C15.3476 17.4305 15.3238 17.4345 15.315 17.4086C15.2956 17.3507 15.1991 17.3686 15.1283 17.4434C15.0843 17.4897 15.0229 17.5166 14.9461 17.5228C14.8658 17.5294 14.9137 17.5408 15.1031 17.5604C15.2727 17.5781 15.3803 17.6021 15.3877 17.6243C15.397 17.6523 15.0226 17.6617 13.6241 17.6687C12.6474 17.6736 14.4996 17.6788 17.7399 17.6806C21.4623 17.6825 23.6633 17.6939 23.7182 17.7114C23.8959 17.7686 24.0119 17.84 24.0754 17.932C24.1378 18.0225 24.3801 18.1473 24.4188 18.1091C24.45 18.078 24.4901 16.9887 24.4726 16.6511C24.4465 16.1507 24.4233 16.1025 24.1931 16.0707C23.7729 16.0128 23.5638 16.0934 23.15 16.4727C22.7582 16.832 22.5884 16.9198 22.2523 16.9369C21.7887 16.9605 21.3791 16.7338 21.1968 16.3529C21.0551 16.0569 20.8923 16.017 19.8746 16.0296C18.9916 16.0404 19.0025 16.0376 18.6374 16.3459C17.6403 17.1878 16.9805 17.1861 16.121 16.3393C15.9165 16.138 15.8481 16.0883 15.7346 16.0595C15.5951 16.0241 13.492 16.0105 13.3973 16.0445ZM10.9655 16.0908C10.9655 16.0958 11.0078 16.1379 11.0596 16.1841L11.1536 16.2685L11.0686 16.1752C10.9893 16.0882 10.9655 16.0686 10.9655 16.0908ZM15.5107 16.2871C15.5107 16.3005 15.5303 16.3135 15.5542 16.3158C15.578 16.3181 15.6106 16.3213 15.6265 16.323C15.6425 16.3246 15.6586 16.313 15.6627 16.2971C15.6666 16.2814 15.6341 16.2671 15.5903 16.2656C15.5466 16.2639 15.5107 16.2736 15.5107 16.2871ZM15.7393 16.4051C15.6796 16.4608 15.6297 16.656 15.6749 16.656C15.7155 16.656 15.7824 16.5591 15.7494 16.5481C15.6969 16.5309 15.7047 16.5014 15.7844 16.4162C15.8709 16.3236 15.8358 16.3149 15.7393 16.4051ZM16.5767 16.7912C16.608 16.8214 16.5963 16.828 16.5115 16.828C16.4409 16.828 16.4082 16.8149 16.4082 16.7869C16.4082 16.7361 16.5226 16.7391 16.5767 16.7912ZM15.2067 17.2011C15.2166 17.2169 15.2435 17.2299 15.2663 17.2299C15.2892 17.2299 15.308 17.2169 15.308 17.2011C15.308 17.1854 15.2812 17.1724 15.2485 17.1724C15.2155 17.1724 15.1969 17.1854 15.2067 17.2011ZM14.6353 17.5371C14.6712 17.5441 14.7234 17.5437 14.7511 17.5366C14.7788 17.5294 14.7492 17.5238 14.6857 17.5241C14.6219 17.5243 14.5992 17.5303 14.6353 17.5371ZM16.4153 17.6529C16.3159 17.6585 16.1529 17.6585 16.0535 17.6529C15.9541 17.6474 16.0354 17.6426 16.2345 17.6426C16.4336 17.6426 16.5149 17.6474 16.4153 17.6529ZM16.7484 17.6515C16.7205 17.6586 16.6748 17.6586 16.647 17.6515C16.6192 17.6443 16.642 17.6383 16.6977 17.6383C16.7534 17.6383 16.7763 17.6443 16.7484 17.6515ZM10.1766 17.6816C10.2919 17.6872 10.4809 17.6872 10.5964 17.6816C10.7117 17.6762 10.6172 17.6717 10.3864 17.6717C10.1556 17.6717 10.0611 17.6762 10.1766 17.6816ZM7.64204 19.8342C7.74891 19.8396 7.93123 19.8396 8.04744 19.8342C8.1635 19.8287 8.07619 19.8242 7.85326 19.8242C7.63032 19.8242 7.53531 19.8285 7.64204 19.8342ZM10.343 19.8405C12.1973 19.8612 13.2386 19.8889 13.2892 19.9185C13.3411 19.9491 13.2748 19.973 13.1201 19.9793C13.0064 19.9842 12.9397 20.002 12.9079 20.0362C12.849 20.0997 12.6836 20.157 12.5557 20.1581C12.4492 20.159 12.3126 20.2396 12.3767 20.2633C12.4348 20.285 12.4185 20.3295 12.3527 20.3295C12.2977 20.3295 12.2935 20.3422 12.3066 20.4729C12.3199 20.6057 12.2966 20.6565 12.2537 20.5877C12.2439 20.572 12.1975 20.559 12.1507 20.559C12.1039 20.559 12.0656 20.572 12.0656 20.5877C12.0656 20.6035 12.0787 20.6165 12.0945 20.6165C12.1104 20.6165 12.1234 20.6294 12.1234 20.6451C12.1234 20.6608 12.1053 20.6738 12.0831 20.6738C12.0369 20.6738 12.0076 20.7348 12.0076 20.8316C12.0076 20.932 11.9781 20.9893 11.925 20.9919C11.8988 20.9934 11.9164 21.0061 11.9642 21.0203C12.0119 21.0345 12.8002 21.0545 13.7158 21.0646C14.6313 21.0748 15.3859 21.0879 15.3924 21.0938C15.3991 21.0996 14.8389 21.1061 14.1476 21.1081C13.4562 21.1104 12.63 21.1201 12.3117 21.1298C11.9931 21.1395 14.4555 21.1437 17.7833 21.1393C24.5166 21.1304 24.0075 21.148 24.2216 20.9158C24.5641 20.5444 24.4468 20.0083 23.9934 19.8737C23.9048 19.8473 22.0492 19.8368 16.1258 19.8289C11.5253 19.8228 9.17452 19.8276 10.343 19.8405ZM6.94922 20.4729C6.94922 20.5439 6.95485 20.573 6.96167 20.5376C6.96864 20.502 6.96864 20.4438 6.96167 20.4084C6.95485 20.3728 6.94922 20.4019 6.94922 20.4729ZM8.35352 21.1541C8.43772 21.16 8.56801 21.16 8.64316 21.1541C8.71817 21.1481 8.64939 21.1434 8.49019 21.1435C8.33085 21.1435 8.26948 21.1484 8.35352 21.1541Z" fill="#F7C555"/>
<path fill-rule="evenodd" clip-rule="evenodd" d="M14.5409 6.7875C14.2064 6.9678 14.174 7.03187 14.1509 7.56071C14.1227 8.20387 14.0878 8.23768 13.2651 8.41826C9.79862 9.17898 7.47533 11.1293 6.64022 13.98C6.34288 14.9947 6.34895 15.4031 6.66453 15.6175C6.859 15.7495 6.86107 15.7496 8.90998 15.7666C11.2618 15.7858 11.0777 15.7473 11.4966 16.3077C11.8113 16.7287 12.3994 16.6739 12.8141 16.1849C13.1747 15.7595 13.1437 15.7669 14.5497 15.7666C15.8797 15.7661 15.9431 15.7789 16.2401 16.1048C16.9347 16.867 17.5555 16.894 18.3914 16.1984C18.904 15.7717 18.921 15.7669 19.946 15.7666C21.017 15.7661 21.1241 15.7963 21.3761 16.1723C21.8255 16.8424 22.3138 16.8596 22.9909 16.2288C23.4644 15.7877 23.958 15.6496 24.5246 15.7999C24.718 15.8512 25.0555 15.6244 25.1108 15.4059C25.1464 15.2654 25.0092 14.4669 24.857 13.9295C24.0477 11.0692 21.7466 9.06481 18.565 8.44809C18.4695 8.42958 18.3367 8.40269 18.27 8.38815C18.2032 8.37359 18.1205 8.36169 18.0862 8.36169C17.6562 8.36169 17.4215 8.09543 17.4215 7.60759C17.4215 7.13869 17.3303 6.93886 17.0538 6.80088C16.9395 6.74371 14.6447 6.73151 14.5409 6.7875ZM17.0659 6.84349C17.3095 6.9778 17.3542 7.08388 17.373 7.57349C17.3956 8.15303 17.5535 8.32599 18.1308 8.40313C18.3168 8.42796 18.8428 8.53567 19.173 8.61649C19.5566 8.71053 20.1353 8.90156 20.3234 8.99648C20.3511 9.01044 20.3886 9.02175 20.407 9.02175C20.4617 9.02175 21.1485 9.36472 21.4601 9.54751C22.3616 10.0766 23.227 10.8984 23.8379 11.8057C24.4828 12.7635 24.8828 13.8205 25.0326 14.9626C25.0482 15.0811 25.0698 15.2321 25.0806 15.2982C25.1147 15.5071 24.7278 15.8415 24.5331 15.7717C24.479 15.7521 24.2838 15.7376 24.08 15.7376C23.5228 15.7376 23.3966 15.7934 22.9129 16.2539C22.5977 16.554 22.288 16.698 22.071 16.6454C22.0295 16.6354 21.9598 16.6188 21.916 16.6086C21.7687 16.5743 21.5873 16.4233 21.46 16.2294C21.1512 15.7586 21.0872 15.7376 19.9716 15.7376C19.415 15.7376 19.0833 15.7489 19.0159 15.7701C18.9088 15.8039 18.6918 15.9072 18.6663 15.9364C18.6583 15.9457 18.6063 15.987 18.5506 16.0284C18.4949 16.0698 18.4037 16.1441 18.3479 16.1934C18.0184 16.4851 17.6208 16.656 17.2709 16.656C16.9405 16.656 16.7252 16.5365 16.2931 16.1145C15.8927 15.7232 15.9591 15.7376 14.5503 15.7376C13.0949 15.7376 13.1383 15.7255 12.7024 16.2513C12.3363 16.6931 11.7654 16.6548 11.428 16.1659C11.1223 15.7227 11.2086 15.7376 8.93452 15.7372C6.94171 15.7369 6.92689 15.736 6.69195 15.592C6.45331 15.4458 6.41995 15.2867 6.50637 14.7043C6.5495 14.4135 6.67297 13.9345 6.76887 13.6856C6.78103 13.654 6.82046 13.5506 6.85663 13.4559C6.93697 13.2456 7.06696 12.9503 7.14745 12.7958C7.18036 12.7327 7.25121 12.597 7.30502 12.4944C7.68715 11.7652 8.41879 10.9001 9.14155 10.3231C9.30872 10.1896 9.46688 10.0633 9.49287 10.0421C9.57597 9.97482 9.97782 9.71062 9.99711 9.71062C10.0074 9.71062 10.0502 9.68623 10.0924 9.65655C10.2678 9.53326 11.1706 9.07921 11.2405 9.07921C11.2488 9.07921 11.3109 9.05481 11.3783 9.02498C11.5298 8.95813 11.7203 8.88612 11.8919 8.83117C11.9635 8.8081 12.0483 8.77856 12.08 8.76534C12.1119 8.75212 12.1967 8.72552 12.2682 8.70613C12.3399 8.68658 12.4311 8.66086 12.4709 8.64867C12.5108 8.63662 12.6019 8.61135 12.6735 8.59268C12.7452 8.57403 12.8439 8.54669 12.8927 8.532C12.9417 8.51731 13.0124 8.50526 13.0499 8.50526C13.0875 8.50526 13.1582 8.4932 13.2071 8.47851C13.3063 8.44854 13.4498 8.41312 13.6868 8.35993C14.0794 8.27162 14.2068 8.05605 14.2075 7.47784C14.2081 7.06008 14.2505 6.97221 14.5145 6.84158C14.6964 6.7515 16.9021 6.75327 17.0659 6.84349ZM15.4879 7.50811C15.3651 7.54719 15.1769 7.72852 15.1206 7.86224C15.0739 7.97318 15.0542 8.79224 15.0982 8.79208C15.11 8.79208 15.1198 8.59298 15.1198 8.34965V7.90735L15.2067 7.78568C15.3336 7.60788 15.4261 7.55072 15.6116 7.53544C16.0743 7.49738 16.2742 7.77422 16.258 8.43061C16.253 8.62957 16.2587 8.79223 16.2707 8.79223C16.3256 8.79208 16.2936 7.99052 16.2336 7.86635C16.0845 7.55807 15.7844 7.41392 15.4879 7.50811ZM15.9818 8.16082C15.9818 8.23179 15.9874 8.26089 15.9944 8.22533C16.0012 8.18992 16.0012 8.13173 15.9944 8.09631C15.9874 8.06076 15.9818 8.08985 15.9818 8.16082ZM15.4016 8.50526C15.4016 8.5605 15.4075 8.58313 15.4148 8.5555C15.4221 8.52789 15.4221 8.48262 15.4148 8.455C15.4075 8.42738 15.4016 8.45 15.4016 8.50526ZM14.6313 9.92692C14.6214 9.95264 14.6147 10.008 14.6167 10.0502C14.6192 10.1075 14.6255 10.098 14.6424 10.012C14.6664 9.88989 14.6613 9.84977 14.6313 9.92692ZM11.7896 10.8299C11.7896 10.9873 11.7932 10.9997 11.816 10.9211C11.8319 10.8662 11.8319 10.7936 11.816 10.7386C11.7932 10.66 11.7896 10.6725 11.7896 10.8299ZM22.0708 10.916C22.5889 11.4659 23.066 12.1947 23.3178 12.8209C23.3616 12.9295 23.4027 13.0025 23.4092 12.9831C23.4157 12.9637 23.4081 12.9203 23.3926 12.8862C23.3769 12.8522 23.3509 12.7923 23.3348 12.7527C23.2611 12.5729 23.0474 12.153 22.9742 12.0445C22.9295 11.9785 22.8932 11.9162 22.8932 11.9061C22.8932 11.8862 22.7201 11.6282 22.691 11.6048C22.6812 11.597 22.6415 11.5452 22.6028 11.4899C22.4934 11.3341 22.4079 11.2387 22.1137 10.9446C21.8467 10.6778 21.8458 10.6772 22.0708 10.916ZM11.4071 10.8729C11.4073 10.9361 11.4133 10.9586 11.4202 10.9229C11.427 10.8872 11.4269 10.8355 11.4197 10.808C11.4124 10.7806 11.4068 10.8097 11.4071 10.8729ZM10.3622 12.5423C10.3596 12.5923 10.3501 12.6569 10.3409 12.6859C10.3252 12.7354 10.326 12.7356 10.3572 12.6875C10.3753 12.6596 10.3847 12.5951 10.3784 12.5441L10.3668 12.4514L10.3622 12.5423ZM12.566 12.595C12.5662 12.6738 12.5719 12.7026 12.5785 12.6592C12.5851 12.6155 12.585 12.5509 12.5783 12.5156C12.5713 12.4804 12.5657 12.516 12.566 12.595ZM9.95891 12.6092C9.95891 12.6644 9.96482 12.6871 9.97219 12.6595C9.97946 12.6318 9.97946 12.5867 9.97219 12.5591C9.96482 12.5315 9.95891 12.554 9.95891 12.6092ZM12.9698 12.6092C12.9698 12.6644 12.9757 12.6871 12.983 12.6595C12.9903 12.6318 12.9903 12.5867 12.983 12.5591C12.9757 12.5315 12.9698 12.554 12.9698 12.6092ZM23.4151 13.0565C23.4168 13.1173 23.5261 13.3934 23.5276 13.3412C23.5285 13.3095 23.5122 13.2355 23.4916 13.1767C23.4541 13.0701 23.4135 13.0062 23.4151 13.0565ZM23.5402 13.5134C23.5503 13.5764 23.5798 13.7185 23.606 13.8289C23.8267 14.7616 23.7061 14.8652 22.4512 14.8213C21.4483 14.786 19.4935 14.7621 19.9402 14.7904C20.1233 14.802 20.5923 14.8131 20.9824 14.8149C21.3725 14.8167 22.0537 14.8337 22.4962 14.8527C23.7357 14.9058 23.861 14.7951 23.6472 13.8362C23.6307 13.7612 23.6058 13.6416 23.5926 13.5705C23.5618 13.4082 23.5156 13.3575 23.5402 13.5134ZM7.87362 13.9387C7.81611 14.0963 7.83434 14.1706 7.96863 14.3259C8.10589 14.4846 8.18727 14.4934 9.89423 14.534C11.6431 14.5754 13.1791 14.6152 14.2659 14.6474C14.7992 14.6631 15.6852 14.6812 16.2345 14.6876L17.2333 14.6991L16.4806 14.6757C15.8006 14.6543 14.6894 14.6238 11.2261 14.5314C7.88814 14.4423 8.13302 14.4618 7.97248 14.2725C7.89037 14.1759 7.87717 14.0299 7.93824 13.8936C7.95069 13.866 7.94906 13.8434 7.93454 13.8434C7.92016 13.8434 7.89274 13.8862 7.87362 13.9387ZM8.71614 14.2379C8.90426 14.2429 9.2038 14.2429 9.38213 14.2379C9.56026 14.2328 9.40647 14.2288 9.04031 14.2288C8.67405 14.2288 8.52819 14.2329 8.71614 14.2379ZM10.7135 14.2665C10.8375 14.2719 11.033 14.2719 11.1479 14.2664C11.2624 14.261 11.1608 14.2565 10.9221 14.2565C10.6833 14.2567 10.5893 14.2611 10.7135 14.2665ZM11.5517 14.295C11.6592 14.3007 11.8352 14.3007 11.9426 14.295C12.0501 14.2896 11.9622 14.2851 11.7471 14.2851C11.5321 14.2851 11.4443 14.2896 11.5517 14.295ZM13.1294 14.3236C13.1972 14.3296 13.3079 14.3296 13.3756 14.3236C13.4432 14.3175 13.3879 14.3125 13.2527 14.3125C13.1172 14.3125 13.0618 14.3175 13.1294 14.3236ZM13.9835 14.3518C14.0275 14.3584 14.099 14.3584 14.1428 14.3518C14.1866 14.3452 14.1507 14.3398 14.0631 14.3398C13.9756 14.3398 13.9398 14.3452 13.9835 14.3518ZM17.8123 14.7335C18.2374 14.7557 19.5823 14.7694 19.5613 14.7512C19.5548 14.7455 19.0673 14.7342 18.4781 14.7265C17.8623 14.7184 17.5793 14.7213 17.8123 14.7335ZM7.11588 16.0666C7.09646 16.0898 7.08564 16.1234 7.09172 16.1415C7.0978 16.1598 7.11825 16.1408 7.13722 16.0995C7.17591 16.0155 7.16835 16.0038 7.11588 16.0666ZM7.6289 16.046C7.87169 16.0507 8.26909 16.0507 8.51189 16.046C8.75468 16.0412 8.55606 16.0372 8.07046 16.0372C7.58472 16.0372 7.3861 16.0412 7.6289 16.046ZM7.04858 16.394C7.03732 16.4473 7.02961 16.5248 7.03139 16.5662C7.03347 16.6158 7.0434 16.5975 7.06059 16.5125C7.07482 16.4415 7.08252 16.3639 7.07778 16.3402C7.07304 16.3166 7.05985 16.3408 7.04858 16.394ZM7.0059 17.1152C7.0059 17.1703 7.01197 17.1929 7.01923 17.1653C7.02649 17.1376 7.02649 17.0925 7.01923 17.0649C7.01197 17.0373 7.0059 17.0599 7.0059 17.1152ZM7.99502 17.9801C7.85509 18.0112 7.79268 18.0733 7.66684 18.3061C7.41589 18.7702 7.24291 18.8469 6.40572 18.8658C5.69764 18.8817 5.6591 18.8911 5.60855 19.0599C5.55149 19.2507 5.58691 21.4317 5.64976 21.5922C5.89612 22.222 6.35191 22.7847 6.83277 23.0528C6.8925 23.086 6.98529 23.138 7.03895 23.1682C7.26708 23.2963 7.78838 23.4423 8.17171 23.4855C8.52967 23.526 22.8022 23.5263 23.2157 23.4858C24.3391 23.3764 25.2233 22.8352 25.6301 22.0083C25.8566 21.5477 25.8563 21.55 25.8671 20.2577C25.8797 18.7745 25.929 18.8663 25.1197 18.866C24.4779 18.8657 24.2244 18.7589 24.0126 18.399C23.8548 18.1309 23.7286 18.0147 23.5544 17.9779C23.3708 17.9388 8.17051 17.9408 7.99502 17.9801ZM23.5502 18.012C23.7058 18.0528 23.8721 18.1972 23.9493 18.3583C24.1408 18.7585 24.3903 18.8754 25.0934 18.8951C25.671 18.9111 25.7288 18.9251 25.8025 19.0661C25.8932 19.2402 25.8481 21.5138 25.7519 21.6091C25.74 21.6208 25.7303 21.6581 25.7303 21.6917C25.7303 21.7253 25.7193 21.7651 25.706 21.7802C25.6926 21.7953 25.6638 21.8528 25.6422 21.9079C25.4332 22.4399 24.8298 22.9842 24.1742 23.2323C24.1385 23.2457 24.0797 23.2682 24.0439 23.2822C23.8494 23.3581 23.5254 23.4225 23.1599 23.4576C22.7273 23.4993 8.55473 23.4967 8.20402 23.455C7.97085 23.4272 7.85731 23.4046 7.50542 23.3164C6.74442 23.1258 5.98002 22.3906 5.68281 21.5635C5.62916 21.4141 5.58455 19.7089 5.62263 19.2593C5.65287 18.9023 5.6299 18.9125 6.43329 18.8945C7.28515 18.8752 7.44717 18.7997 7.72213 18.2935C7.8499 18.0581 7.88296 18.032 8.09937 17.9959C8.30348 17.962 23.4194 17.9778 23.5502 18.012ZM7.31776 19.56C7.16213 19.6249 7.09913 19.6567 7.04458 19.6981C6.46517 20.1367 6.57633 21.0619 7.24529 21.3681L7.3901 21.4343L15.3081 21.4488C23.6699 21.4639 23.9637 21.4611 24.1719 21.3641C24.9503 21.0014 24.892 19.8557 24.08 19.5632C23.9465 19.5152 7.43294 19.5119 7.31776 19.56ZM24.0791 19.6C24.8385 19.8236 24.8864 20.9738 24.1512 21.3351L24.0077 21.4057H15.7134H7.41901L7.25536 21.3296C6.49941 20.9783 6.52653 19.87 7.29746 19.6095C7.51758 19.535 23.8273 19.5259 24.0791 19.6ZM7.59925 21.1537C7.65069 21.16 7.74184 21.1602 7.80202 21.154C7.86205 21.1478 7.81996 21.1426 7.70849 21.1424C7.59703 21.1423 7.54796 21.1474 7.59925 21.1537ZM9.40938 21.1546C9.77166 21.1591 10.3644 21.1591 10.7267 21.1546C11.0888 21.15 10.7926 21.1462 10.068 21.1462C9.34344 21.1462 9.0471 21.15 9.40938 21.1546ZM14.0993 26.8059C14.0366 26.831 14.0578 26.8843 14.2763 27.249C14.3935 27.4447 14.6234 27.8308 14.7872 28.107C14.951 28.3833 15.1332 28.6868 15.1922 28.7814C15.3484 29.0323 15.5384 29.3381 15.664 29.5407C15.8133 29.7817 15.7896 29.8039 16.297 28.9465C16.5499 28.5191 16.7332 28.2089 16.7846 28.1214C16.8123 28.0741 16.9024 27.9201 16.985 27.7794C17.0675 27.6386 17.1604 27.4881 17.1913 27.4449C17.2223 27.4017 17.2478 27.3591 17.2478 27.3501C17.2478 27.3412 17.3129 27.2351 17.3925 27.1141C17.556 26.8658 17.5585 26.8576 17.4812 26.8165C17.4245 26.7864 14.1737 26.7761 14.0993 26.8059ZM17.2695 26.8291C17.5128 26.8535 17.5167 26.8618 17.3781 27.066C17.3224 27.1479 17.2767 27.223 17.2767 27.2326C17.2767 27.2422 17.2375 27.3063 17.1898 27.3752C17.1421 27.444 17.103 27.5086 17.103 27.5186C17.103 27.5288 17.0639 27.5933 17.0162 27.6622C16.9684 27.731 16.9293 27.7934 16.9293 27.8008C16.9293 27.8082 16.8772 27.8992 16.8135 28.0032C16.7498 28.107 16.6977 28.2053 16.6977 28.2213C16.6977 28.2373 16.6862 28.2505 16.6721 28.2505C16.6581 28.2505 16.6391 28.2732 16.63 28.3009C16.6133 28.3514 16.5685 28.4288 16.3522 28.7819C16.2874 28.8874 16.2345 28.9799 16.2345 28.9873C16.2345 28.9947 16.1954 29.0569 16.1477 29.1259C16.0999 29.1946 16.0608 29.2593 16.0608 29.2693C16.0608 29.2795 16.0245 29.3417 15.9803 29.4078C15.936 29.4737 15.8817 29.5632 15.8597 29.6066C15.8374 29.65 15.8107 29.6855 15.8003 29.6855C15.7897 29.6855 15.7625 29.65 15.74 29.6066C15.7174 29.5632 15.6349 29.4244 15.5567 29.2981C15.2227 28.7591 14.9607 28.3297 14.9607 28.3214C14.9607 28.3166 14.8946 28.2068 14.8136 28.0776C14.7328 27.9483 14.6417 27.7989 14.611 27.7452C14.5805 27.6916 14.5278 27.5995 14.4941 27.5402C14.4604 27.4811 14.4083 27.3983 14.3783 27.3565C14.3483 27.3146 14.3237 27.2739 14.3237 27.2661C14.3237 27.2582 14.2712 27.1661 14.207 27.0614C14.1428 26.9565 14.0959 26.8615 14.1029 26.8504C14.1206 26.8223 17.009 26.8028 17.2695 26.8291Z" fill="#CAB28B"/>
</svg>
