<svg width="32" height="32" viewBox="0 0 32 32" fill="none" xmlns="http://www.w3.org/2000/svg">
<g clip-path="url(#clip0_16_13)">
<path fill-rule="evenodd" clip-rule="evenodd" d="M8.04153 7.65105C8.03577 7.65681 8.03113 7.68257 8.03113 7.70841C8.03113 7.73425 8.01961 7.76809 8.00553 7.78361C7.94193 7.85385 8.11953 8.22249 8.40049 8.60353C8.44569 8.66481 8.49193 8.72457 8.50329 8.73633C8.51465 8.74817 8.56689 8.81057 8.61937 8.87505C8.79393 9.08937 9.36473 9.64833 9.64049 9.87473C9.70489 9.92761 9.78849 9.99681 9.82609 10.0284C9.86377 10.0601 9.90769 10.0923 9.92377 10.1001C9.93985 10.1079 9.95297 10.1201 9.95297 10.1274C9.95297 10.1347 9.96353 10.1407 9.97641 10.1407C9.98929 10.1407 9.99985 10.1467 9.99985 10.1542C9.99985 10.1616 10.0508 10.2017 10.1131 10.2431C10.213 10.3095 10.2551 10.3447 10.2451 10.3533C10.2402 10.3575 9.99985 10.3295 9.90609 10.3138C9.85881 10.3059 9.77449 10.2918 9.71857 10.2825C9.66273 10.2731 9.57657 10.2586 9.52721 10.25C9.47777 10.2414 9.40041 10.2283 9.35529 10.2207C9.24089 10.2016 9.01841 10.1575 8.95297 10.1409C8.92289 10.1332 8.86665 10.1199 8.82801 10.1111C8.78929 10.1024 8.71193 10.0837 8.65609 10.0697C8.60025 10.0556 8.52993 10.0382 8.49985 10.0309C8.46977 10.0236 8.41881 10.0103 8.38657 10.0011C8.31601 9.98097 8.23649 9.95825 8.16785 9.93857C8.13985 9.93057 8.09945 9.91945 8.07801 9.91385C8.05649 9.90825 8.02489 9.89817 8.00769 9.89153C7.99049 9.88481 7.94825 9.87089 7.91393 9.86049C7.87953 9.85017 7.83737 9.83585 7.82017 9.82865C7.80297 9.82145 7.74673 9.79937 7.69513 9.77953C7.57577 9.73369 7.36441 9.63081 7.31017 9.59217C7.08825 9.43417 7.23873 9.89665 7.56745 10.3828C7.81121 10.7435 8.26545 11.2244 8.59641 11.4724C8.62777 11.4959 8.66281 11.5243 8.67425 11.5355C8.68577 11.5466 8.71977 11.573 8.74985 11.5941C8.77993 11.6151 8.81505 11.6408 8.82801 11.6511C8.93953 11.7403 9.27145 11.9687 9.28937 11.9687C9.29465 11.9687 9.32849 11.9891 9.36465 12.014C9.49521 12.1039 9.67337 12.2039 9.95297 12.3443C10.1531 12.4449 10.4128 12.5625 10.4347 12.5625C10.4657 12.5625 10.5013 12.62 10.4807 12.6368C10.3781 12.7205 9.76465 12.7302 9.26545 12.6559C8.99001 12.6149 8.68089 12.5483 8.39825 12.4689C8.36393 12.4593 8.31473 12.4455 8.28889 12.4384C8.23689 12.4241 8.19705 12.4105 8.14441 12.3892C8.12505 12.3814 8.09337 12.3687 8.07409 12.361C8.01361 12.3368 7.91577 12.2944 7.86857 12.2718C7.65457 12.1693 7.79633 12.5684 8.13553 13.0235C8.17393 13.0751 8.22065 13.1378 8.23937 13.1628C8.66089 13.7299 9.31249 14.2741 10.1092 14.7247C10.3004 14.8329 10.7238 15.0329 10.9217 15.1085C10.9948 15.1364 11.0686 15.1652 11.0858 15.1726C11.133 15.1927 11.5229 15.3184 11.6249 15.3464C11.6766 15.3607 11.7027 15.3673 11.8631 15.4071C11.9735 15.4345 12.141 15.4683 12.3162 15.4986C12.4705 15.5251 12.4781 15.5363 12.41 15.637C12.3288 15.7571 12.0719 15.9303 11.9163 15.9699C11.885 15.9779 11.8329 15.992 11.8006 16.0013C11.5233 16.0815 11.0743 16.0723 10.9024 15.9829C10.8874 15.9751 10.8625 15.9687 10.847 15.9687C10.8314 15.9687 10.8119 15.9624 10.8038 15.9546C10.7865 15.9381 10.6686 15.9043 10.6596 15.9131C10.6464 15.9264 10.7021 16.0092 10.8278 16.1633C11.1211 16.5229 11.6874 16.9235 12.1639 17.1087C12.1811 17.1154 12.2127 17.1284 12.2342 17.1378C12.2921 17.1628 12.4218 17.2054 12.4842 17.2197C12.5143 17.2267 12.567 17.2403 12.6014 17.2502C12.6608 17.2671 12.6999 17.2762 12.871 17.3127C13.1256 17.3672 13.672 17.3839 14.1596 17.3522C14.3896 17.3372 14.3938 17.3397 14.3603 17.4703C14.3406 17.5473 14.2018 17.7058 14.0623 17.8103C14.0322 17.8329 14.0042 17.855 13.9998 17.8594C13.9426 17.9179 13.709 18.0625 13.6718 18.0625C13.4726 18.0625 13.8718 18.3552 14.1561 18.4177C14.4533 18.4831 14.5812 18.4795 14.8826 18.3976C15.2325 18.3026 15.2202 18.304 15.3057 18.3467C15.4125 18.3999 15.4418 18.4565 15.4491 18.6237C15.4534 18.7204 15.4504 18.7513 15.4386 18.7344C15.4263 18.7169 15.4222 18.7339 15.4219 18.8017C15.4218 18.8582 15.4158 18.8888 15.4061 18.8828C15.3968 18.8771 15.3905 18.896 15.3905 18.9297C15.3905 18.9634 15.3842 18.9823 15.3749 18.9766C15.366 18.9711 15.3592 18.9843 15.3592 19.0069C15.3592 19.0289 15.3522 19.0469 15.3436 19.0469C15.335 19.0469 15.328 19.061 15.328 19.0782C15.328 19.0953 15.3222 19.1094 15.315 19.1094C15.3078 19.1094 15.2921 19.1287 15.2801 19.1523C15.16 19.3874 14.6341 19.8808 14.2517 20.1172C14.2378 20.1258 14.1369 20.1961 14.0274 20.2735C13.7334 20.4811 13.717 20.4922 13.6405 20.5347C13.6018 20.5561 13.5156 20.6059 13.4489 20.6455C13.3379 20.7113 13.173 20.7942 12.8826 20.9298C12.7476 20.9928 12.4434 21.112 12.328 21.1471C12.2807 21.1614 12.228 21.1789 12.2108 21.1859C12.1475 21.2119 12.0671 21.2344 12.037 21.2344C12.02 21.2344 11.9977 21.2428 11.9874 21.2531C11.977 21.2635 11.9686 21.2671 11.9686 21.2614C11.9686 21.2555 11.9493 21.2582 11.9256 21.2672C11.902 21.2763 11.851 21.2871 11.8123 21.2913C11.7737 21.2955 11.7245 21.3047 11.703 21.3117C11.6815 21.3187 11.6358 21.3318 11.6014 21.3407C11.567 21.3495 11.5108 21.3641 11.4764 21.373C11.3178 21.414 11.1395 21.4532 11.0467 21.4674C10.9909 21.4759 10.903 21.4907 10.8514 21.5003C10.6783 21.5323 10.3191 21.5845 10.1092 21.6081C9.79745 21.6431 9.21513 21.6555 7.48305 21.6637C5.56329 21.6728 5.60985 21.6708 5.44857 21.7517C5.30153 21.8255 5.24153 21.9235 5.25977 22.0599C5.26625 22.1086 5.27017 22.1539 5.26833 22.1607C5.26657 22.1674 5.28281 22.1919 5.30441 22.2152C5.32593 22.2385 5.34361 22.2627 5.34361 22.2691C5.34361 22.2984 5.47953 22.3664 5.57489 22.3848C5.65937 22.4012 6.72769 22.4052 11.117 22.4056C16.4157 22.4062 16.7104 22.4038 17.0233 22.3587C17.2498 22.3261 17.5953 22.2536 17.7733 22.2015C17.799 22.1939 17.8729 22.1735 17.9374 22.156C18.7271 21.9427 19.4571 21.6462 20.1482 21.2581C20.1826 21.2387 20.2706 21.1859 20.3436 21.1406C20.4166 21.0952 20.5115 21.0372 20.5546 21.0118C20.5975 20.9863 20.6783 20.9321 20.7342 20.8915C20.7901 20.8507 20.871 20.7939 20.9139 20.7651C20.9846 20.7176 21.3767 20.406 21.492 20.3056C21.7191 20.1078 21.9186 19.9086 22.3046 19.4945C22.3218 19.4761 22.3602 19.4293 22.3901 19.3907C22.4199 19.3519 22.4487 19.3168 22.4541 19.3125C22.503 19.2731 22.9435 18.6472 23.0313 18.4923C23.0484 18.4622 23.0774 18.4111 23.0959 18.3789C23.2206 18.1618 23.2643 18.0766 23.3746 17.8359C23.4614 17.6467 23.5859 17.3259 23.6355 17.1641C23.6487 17.1211 23.665 17.0719 23.6716 17.0547C23.6783 17.0375 23.6924 16.9918 23.703 16.9531C23.7136 16.9145 23.7278 16.8652 23.7346 16.8438C23.7413 16.8223 23.755 16.7695 23.765 16.7266C23.7749 16.6836 23.7891 16.6239 23.7966 16.5938C23.8256 16.4759 23.8579 16.2837 23.8899 16.0391C23.899 15.9703 23.9062 15.7151 23.9062 15.4718C23.9059 14.4649 24.0528 14.1892 24.8123 13.7704C24.8596 13.7443 24.9405 13.7 24.992 13.6718C25.0436 13.6436 25.0928 13.6152 25.1014 13.6088C25.1286 13.5885 25.2614 13.5148 25.5194 13.3771C25.586 13.3416 25.695 13.2835 25.7615 13.2479C26.2366 12.9943 26.4697 12.8751 26.4906 12.8751C26.5292 12.8751 26.58 12.826 26.5629 12.8054C26.5343 12.7709 26.1896 12.7371 25.7498 12.7257C25.6166 12.7222 25.4479 12.7125 25.3749 12.704C25.3018 12.6956 25.1647 12.6811 25.0702 12.6719C24.9756 12.6626 24.849 12.6485 24.7889 12.6405C24.7287 12.6325 24.6198 12.6182 24.5467 12.6086C24.0501 12.5436 23.77 12.4385 23.5384 12.2302C23.4638 12.1631 23.4083 12.0945 23.1946 11.8047C22.6077 11.0092 21.4847 10.3853 20.4374 10.2727C19.9386 10.2191 19.2875 10.2891 18.9764 10.4298C18.9506 10.4415 18.9119 10.4559 18.8905 10.4618C18.869 10.4677 18.8444 10.4782 18.8358 10.485C18.8272 10.4918 18.7728 10.5224 18.715 10.5531C18.657 10.5838 18.5973 10.6197 18.5822 10.6329C18.567 10.6461 18.4913 10.7082 18.4139 10.771C18.0127 11.0964 17.6517 11.6787 17.55 12.1641C17.4871 12.4642 17.4791 13.1489 17.5333 13.5938C17.5422 13.6668 17.5554 13.7828 17.5628 13.8516C17.5701 13.9203 17.585 14.0293 17.5958 14.0938C17.6179 14.2252 17.6156 14.6299 17.5927 14.638C17.5846 14.6409 17.578 14.6588 17.578 14.6779C17.578 14.6969 17.5721 14.7192 17.565 14.7274C17.5578 14.7355 17.5375 14.7782 17.5198 14.8221C17.2849 15.4064 16.3442 15.1866 16.1419 14.5C16.1306 14.4614 16.1158 14.4121 16.109 14.3907C16.1024 14.3691 16.0886 14.3094 16.0785 14.2579C16.0683 14.2063 16.0535 14.1377 16.0455 14.1055C16.0127 13.9723 16.0018 13.9257 15.9856 13.8477C15.9762 13.8026 15.9609 13.7287 15.9515 13.6836C15.9422 13.6385 15.9284 13.577 15.921 13.5469C15.9135 13.5168 15.8992 13.4535 15.8892 13.4063C15.8791 13.359 15.8654 13.3027 15.8588 13.2813C15.8521 13.2598 15.8393 13.2106 15.8304 13.1719C15.8042 13.0579 15.69 12.6127 15.654 12.4844C15.6456 12.4543 15.6328 12.4086 15.6256 12.3828C15.611 12.3304 15.5858 12.2506 15.4975 11.9766C15.4643 11.8735 15.4297 11.7645 15.4205 11.7344C15.205 11.0279 14.4676 10.1147 13.6405 9.52977C13.5932 9.49633 13.5158 9.44057 13.4686 9.40585C13.2834 9.26977 13.1723 9.19969 12.8482 9.01393C12.6149 8.88033 12.1675 8.65625 12.1339 8.65625C12.1293 8.65625 12.0744 8.63249 12.0119 8.60345C11.9494 8.57441 11.8139 8.51761 11.7108 8.47713C11.6077 8.43673 11.4811 8.38705 11.4295 8.36681C10.7266 8.09081 9.29313 7.75121 8.43409 7.65721C8.26337 7.63857 8.05729 7.63529 8.04153 7.65105ZM11.5046 11.1871C11.5929 11.2467 11.7819 11.3486 12.0467 11.4794C12.1627 11.5367 12.2787 11.5987 12.3046 11.6174C12.3303 11.6359 12.3795 11.6636 12.4139 11.6789C12.5038 11.7187 12.5464 11.7402 12.617 11.7814C12.7514 11.8597 12.839 11.8971 12.9139 11.9081C12.9743 11.917 12.9602 11.9187 12.8514 11.9155C12.7014 11.9113 12.6327 11.884 12.2577 11.6802C12.1975 11.6475 12.1098 11.6002 12.0627 11.575C12.0156 11.5498 11.9699 11.5234 11.9611 11.5163C11.9523 11.5091 11.9206 11.4895 11.8905 11.4725C11.728 11.381 11.3592 11.143 11.3592 11.1297C11.3592 11.1117 11.4404 11.1438 11.5046 11.1871ZM11.9217 11.2845C12.0119 11.3335 12.0596 11.3743 12.0272 11.3747C12.0122 11.3749 11.9998 11.3693 11.9998 11.3623C11.9998 11.3553 11.9752 11.3399 11.9451 11.3282C11.915 11.3163 11.8905 11.301 11.8905 11.2939C11.8905 11.287 11.8799 11.2813 11.867 11.2813C11.8542 11.2813 11.8436 11.2759 11.8436 11.2695C11.8436 11.263 11.8225 11.2483 11.7967 11.2369C11.771 11.2255 11.7498 11.2099 11.7498 11.2021C11.7498 11.1943 11.7762 11.2031 11.8084 11.2215C11.8406 11.2398 11.8916 11.2682 11.9217 11.2845ZM12.1361 11.409C12.1686 11.4276 12.2444 11.4688 12.3046 11.5005C12.3647 11.5322 12.4403 11.5731 12.4726 11.5914C12.5048 11.6096 12.567 11.6427 12.6108 11.6649C12.6546 11.6871 12.6866 11.7091 12.682 11.7137C12.6711 11.7246 12.578 11.6837 12.578 11.6681C12.578 11.6616 12.5639 11.6563 12.5467 11.6563C12.5295 11.6563 12.5154 11.6492 12.5154 11.6407C12.5154 11.632 12.5014 11.6251 12.4842 11.6251C12.467 11.6251 12.453 11.6198 12.4529 11.6133C12.4529 11.6068 12.4142 11.584 12.367 11.5625C12.3198 11.5411 12.2812 11.5195 12.2811 11.5147C12.2811 11.5098 12.2565 11.4962 12.2264 11.4844C12.1963 11.4726 12.1717 11.4572 12.1717 11.4503C12.1717 11.4432 12.1594 11.4373 12.1444 11.4371C12.116 11.4365 12.0623 11.4025 12.0623 11.385C12.0623 11.3692 12.073 11.3727 12.1361 11.409ZM12.8662 11.798C12.8902 11.8214 12.8521 11.8152 12.8024 11.7877L12.7577 11.7629L12.8046 11.7732C12.8303 11.7788 12.8581 11.79 12.8662 11.798ZM12.9708 11.8435C13.0189 11.8652 13.0288 11.8744 13.0046 11.8747C12.9858 11.8749 12.9661 11.868 12.9608 11.8594C12.9554 11.8508 12.9374 11.8438 12.9208 11.8438C12.9041 11.8438 12.8905 11.8367 12.8905 11.8282C12.8905 11.8074 12.892 11.8077 12.9708 11.8435ZM12.7501 15.5584C12.7089 15.5747 12.6942 15.5999 12.6723 15.6919C12.6601 15.7433 12.645 15.7764 12.6372 15.7687C12.5977 15.7291 12.6834 15.5459 12.7406 15.5481C12.7634 15.549 12.7662 15.5521 12.7501 15.5584ZM14.4738 17.0886C14.5142 17.0974 14.5451 17.1319 14.528 17.149C14.5198 17.1571 14.3592 17.0793 14.3592 17.0671C14.3592 17.0626 14.375 17.0634 14.3944 17.0689C14.4137 17.0744 14.4494 17.0832 14.4738 17.0886ZM14.634 17.1367C14.6172 17.1535 14.6083 17.1299 14.6201 17.0999C14.6312 17.0718 14.632 17.0717 14.6374 17.0989C14.6406 17.1146 14.6391 17.1316 14.634 17.1367ZM17.2696 22.2298C17.2504 22.2335 17.2152 22.2335 17.1914 22.23C17.1677 22.2264 17.1834 22.2234 17.2264 22.2232C17.2694 22.2231 17.2888 22.2261 17.2696 22.2298ZM17.0821 22.261C17.0629 22.2647 17.0277 22.2648 17.004 22.2612C16.9802 22.2576 16.9959 22.2546 17.0389 22.2545C17.0818 22.2543 17.1013 22.2573 17.0821 22.261ZM14.9256 22.2919C15.029 22.297 15.1092 22.3076 15.1092 22.3163C15.1092 22.3247 15.0922 22.3273 15.0715 22.3221C15.0507 22.3169 14.9049 22.313 14.7473 22.3134C14.224 22.3147 14.1801 22.3146 14.0936 22.3105C14.0314 22.3076 14.0509 22.3039 14.1639 22.2972C14.3889 22.2838 14.7136 22.2815 14.9256 22.2919ZM16.4998 22.2966C16.4998 22.3236 15.2189 22.3452 15.1513 22.3193C15.083 22.2931 15.1707 22.2888 15.8123 22.2869C16.1905 22.2857 16.4998 22.2901 16.4998 22.2966ZM16.7708 22.2969C16.7006 22.3031 16.6162 22.3028 16.5833 22.2964C16.5436 22.2888 16.5869 22.285 16.7108 22.2853C16.8957 22.2858 16.8965 22.2859 16.7708 22.2969Z" fill="#F0DBA1"/>
</g>
<defs>
<clipPath id="clip0_16_13">
<rect width="32" height="32" fill="white"/>
</clipPath>
</defs>
</svg>
