<svg width="286" height="1036" viewBox="0 0 286 1036" fill="none" xmlns="http://www.w3.org/2000/svg">
<g clip-path="url(#clip0_1_7)">
<rect width="286" height="1036" fill="#95663A"/>
<path d="M0 61.2714L34.9703 0M0 84.0448L47.9681 0M0 100.312L57.2522 0M0 118.205L67.4648 0M0 144.232L82.3194 0M16.0925 0L0 28.1957M0 175.681L100.269 0M0 205.503L115.433 3.25335M0 232.614L132.763 0M0 257.015L146.689 0M0 278.704L159.068 0M0 305.273L174.232 0M0 331.299L189.087 0M0 358.411L204.561 0M0 389.317L222.2 0M0 425.104L242.626 0M0 457.096L260.884 0M0 492.34L281 0M0 527.585L281 35.2446M0 569.878L281 77.5381M0 602.412L278.524 114.409M0 638.199L278.524 150.196M0 675.07L278.524 187.068M0 709.772L278.524 221.77M0 748.812L278.524 260.81M0 786.768L281 294.428M0 826.893L281 334.553M0 863.764L278.524 375.762M0 897.924L281 405.584M0 931L281 438.66" stroke="url(#paint0_linear_1_7)" stroke-opacity="0.2"/>
<path d="M0 957.935L281 466M0 998.027L281 506.092M0 1034.87L278.524 547.267M0 1069L281 577.065" stroke="url(#paint1_linear_1_7)" stroke-opacity="0.2"/>
<path d="M285.921 971.47L251.091 1032.84M285.891 948.713L238.116 1032.89M285.87 932.459L228.848 1032.92M285.847 914.578L218.654 1032.97M285.813 888.571L203.825 1033.02M269.936 1032.76L285.963 1004.52M285.772 857.145L185.908 1033.1M285.734 827.344L170.766 1029.91M285.698 800.253L153.47 1033.23M285.667 775.871L139.569 1033.28M285.639 754.198L127.211 1033.33M285.604 727.648L112.074 1033.39M285.57 701.641L97.2455 1033.45M285.535 674.549L81.7991 1033.51M285.495 643.665L64.1903 1033.58M285.449 607.905L43.8011 1033.66" stroke="url(#paint2_linear_1_7)" stroke-opacity="0.2"/>
</g>
<defs>
<linearGradient id="paint0_linear_1_7" x1="19.1872" y1="682.119" x2="359.549" y2="503.942" gradientUnits="userSpaceOnUse">
<stop stop-color="#5D5757"/>
<stop offset="1" stop-opacity="0"/>
</linearGradient>
<linearGradient id="paint1_linear_1_7" x1="66.5363" y1="897.256" x2="370.356" y2="692.606" gradientUnits="userSpaceOnUse">
<stop/>
<stop offset="1" stop-opacity="0"/>
</linearGradient>
<linearGradient id="paint2_linear_1_7" x1="116.466" y1="988.268" x2="354.473" y2="837.986" gradientUnits="userSpaceOnUse">
<stop/>
<stop offset="1" stop-opacity="0"/>
</linearGradient>
<clipPath id="clip0_1_7">
<rect width="286" height="1036" fill="white"/>
</clipPath>
</defs>
</svg>
