<?xml version="1.0" standalone="no"?>
<!DOCTYPE svg PUBLIC "-//W3C//DTD SVG 20010904//EN"
 "http://www.w3.org/TR/2001/REC-SVG-20010904/DTD/svg10.dtd">
<svg version="1.0" xmlns="http://www.w3.org/2000/svg"
 width="900.000000pt" height="900.000000pt" viewBox="0 0 900.000000 900.000000"
 preserveAspectRatio="xMidYMid meet">
<metadata>
Created by potrace 1.10, written by Peter Selinger 2001-2011
</metadata>
<g transform="translate(0.000000,900.000000) scale(0.100000,-0.100000)"
fill="#6200a3" stroke="none">
<path d="M4125 8830 c-33 -5 -100 -14 -150 -19 -49 -6 -106 -15 -125 -21 -19
-5 -50 -10 -69 -10 -19 0 -60 -6 -90 -14 -31 -8 -78 -19 -106 -25 -27 -7 -77
-18 -110 -27 -33 -8 -78 -19 -101 -24 -22 -5 -51 -13 -65 -18 -13 -6 -53 -18
-89 -27 -147 -39 -396 -126 -515 -180 -16 -8 -52 -24 -80 -36 -108 -47 -339
-162 -378 -189 -23 -15 -60 -38 -82 -50 -22 -12 -53 -30 -70 -41 -16 -10 -37
-22 -45 -26 -15 -7 -76 -48 -205 -138 -491 -343 -981 -890 -1283 -1433 -23
-42 -51 -96 -62 -120 -11 -23 -35 -75 -53 -115 -33 -69 -83 -189 -114 -272
-14 -37 -20 -54 -53 -145 -6 -19 -14 -46 -17 -60 -3 -14 -11 -39 -19 -57 -8
-17 -14 -39 -14 -48 0 -10 -7 -38 -15 -64 -42 -135 -88 -354 -105 -511 -5 -41
-13 -115 -19 -165 -5 -49 -15 -191 -22 -314 -14 -278 -3 -534 41 -918 29 -250
136 -659 232 -883 10 -25 23 -54 27 -65 24 -57 206 -417 233 -460 154 -246
364 -526 517 -690 384 -413 758 -708 1206 -948 144 -77 378 -190 475 -228 30
-12 69 -28 87 -35 17 -8 36 -14 42 -14 6 0 19 -4 29 -10 21 -12 98 -40 132
-47 14 -3 30 -9 35 -14 6 -4 29 -13 50 -18 22 -6 65 -18 95 -27 30 -9 100 -27
155 -41 55 -13 114 -28 130 -33 30 -10 84 -19 225 -39 41 -6 101 -16 134 -22
162 -29 674 -48 841 -30 60 6 155 16 210 22 139 14 410 55 435 65 8 4 44 12
80 19 85 17 150 33 175 44 11 4 67 23 125 41 58 18 119 39 135 45 17 7 48 19
70 28 76 29 150 58 170 67 11 4 47 19 80 31 61 24 311 148 375 187 19 12 44
26 56 31 11 5 50 27 85 48 35 22 71 42 79 46 22 10 157 101 370 247 242 167
631 549 845 830 27 36 54 70 60 77 23 26 225 330 225 339 0 2 11 22 25 44 44
69 125 225 170 325 7 17 28 62 46 100 18 39 38 84 45 100 6 17 17 41 23 55 10
25 19 50 60 170 12 36 26 74 31 85 5 11 11 31 15 45 3 14 12 48 20 75 21 79
37 146 45 195 4 25 12 70 18 100 23 122 33 190 42 285 5 55 14 150 21 210 13
133 7 741 -9 865 -7 47 -17 128 -23 180 -23 200 -31 246 -65 382 -8 32 -14 67
-14 78 0 10 -6 34 -14 52 -7 18 -30 83 -49 143 -60 182 -73 218 -103 278 -8
16 -14 34 -14 40 0 9 -176 368 -199 407 -28 45 -98 167 -104 180 -13 28 -170
261 -190 282 -7 7 -35 42 -62 78 -27 36 -63 81 -80 101 -16 20 -43 54 -60 75
-16 21 -53 63 -81 93 -28 31 -88 97 -133 146 -46 50 -102 106 -126 125 -24 19
-85 75 -137 123 -116 110 -514 400 -600 437 -13 6 -36 19 -53 30 -48 31 -71
43 -245 131 -161 82 -196 99 -330 155 -128 53 -254 97 -470 164 -58 17 -125
38 -150 46 -25 8 -55 14 -68 14 -13 0 -32 5 -42 10 -10 6 -45 14 -77 19 -32 5
-87 14 -123 21 -36 6 -105 17 -155 25 -49 8 -119 19 -155 26 -80 14 -749 21
-835 9z m715 -436 c202 -19 381 -47 494 -80 26 -8 56 -14 64 -14 9 0 34 -6 57
-14 22 -8 67 -22 100 -32 105 -31 239 -75 272 -90 17 -8 36 -14 41 -14 6 0 23
-6 39 -14 15 -8 69 -31 118 -52 213 -87 381 -171 562 -281 39 -23 74 -43 78
-43 3 0 11 -5 18 -10 7 -6 46 -33 87 -60 41 -27 83 -55 94 -62 40 -28 231
-172 236 -178 3 -3 73 -67 155 -142 83 -75 161 -149 174 -164 13 -16 49 -56
80 -89 139 -149 199 -227 385 -500 102 -151 226 -376 299 -545 9 -19 24 -55
35 -80 60 -140 131 -361 169 -525 28 -127 67 -374 84 -540 14 -142 15 -629 1
-765 -22 -212 -72 -492 -108 -609 -8 -25 -14 -53 -14 -62 0 -10 -6 -33 -14
-51 -8 -18 -22 -60 -32 -93 -9 -33 -23 -74 -31 -92 -7 -17 -13 -35 -13 -41 0
-28 -148 -349 -225 -487 -37 -68 -223 -355 -236 -365 -3 -3 -23 -30 -44 -60
-21 -30 -41 -57 -44 -60 -4 -3 -31 -36 -61 -75 -80 -101 -121 -146 -250 -275
-130 -131 -156 -154 -293 -265 -138 -112 -176 -141 -226 -173 -24 -15 -49 -31
-55 -37 -7 -5 -21 -15 -31 -22 -11 -6 -60 -37 -110 -68 -100 -63 -92 -58 -195
-117 -72 -41 -215 -113 -310 -156 -103 -46 -157 -70 -195 -84 -115 -45 -152
-60 -170 -68 -11 -4 -45 -16 -75 -25 -30 -10 -71 -23 -90 -30 -19 -7 -64 -21
-100 -30 -36 -9 -87 -23 -115 -30 -433 -115 -824 -144 -1350 -100 -164 14
-641 112 -775 160 -19 7 -60 20 -90 29 -53 17 -77 25 -172 62 -85 33 -114 45
-141 59 -16 8 -33 15 -38 15 -23 0 -403 189 -484 241 -16 10 -37 22 -45 26
-15 6 -116 70 -198 124 -24 16 -45 29 -48 29 -3 0 -10 5 -17 10 -7 6 -61 47
-120 91 -60 44 -117 88 -126 97 -10 10 -31 28 -47 41 -178 147 -379 357 -543
566 -86 110 -251 348 -267 385 -4 8 -13 22 -19 30 -31 38 -195 363 -195 386 0
3 -6 20 -14 37 -38 85 -86 223 -120 342 -8 28 -21 75 -29 105 -24 84 -38 142
-43 175 -3 17 -11 59 -19 95 -43 203 -65 451 -65 745 0 276 29 610 66 756 8
30 14 68 14 83 0 15 5 36 10 46 6 10 14 45 19 77 12 72 33 154 81 313 85 284
249 611 472 944 27 38 141 189 157 205 9 10 34 39 56 67 134 165 434 450 599
569 16 11 33 25 40 30 51 45 356 234 491 305 179 94 170 90 420 205 50 23 214
85 225 85 6 0 18 4 28 9 19 11 201 67 247 77 17 4 35 10 40 14 6 4 29 10 53
14 24 3 51 11 60 16 17 9 46 16 187 46 143 30 256 46 470 64 235 20 354 18
625 -6z"/>
<path d="M4586 7801 c-9 -10 -14 -24 -12 -32 3 -8 8 -102 10 -209 3 -107 10
-222 15 -255 7 -35 11 -234 11 -485 -1 -446 -2 -461 -56 -785 -8 -49 -19 -148
-25 -220 -5 -71 -14 -142 -20 -156 -6 -16 -11 -143 -12 -304 -2 -261 -1 -277
17 -290 10 -8 22 -12 26 -10 4 2 8 46 9 97 0 51 8 138 16 193 21 145 45 391
45 456 0 31 5 81 11 110 5 30 14 101 19 159 21 257 81 441 162 499 20 14 42
36 47 49 15 31 31 19 31 -24 0 -50 13 -42 40 24 26 62 58 112 73 112 15 0 1
-150 -23 -260 -12 -52 -25 -120 -30 -150 -5 -30 -14 -71 -19 -90 -13 -42 -14
-90 -2 -108 5 -9 13 6 23 45 9 32 23 83 31 113 17 60 82 378 92 450 7 55 30
89 47 72 12 -12 2 -97 -37 -332 -8 -47 -16 -101 -18 -120 -9 -73 -76 -303 -96
-331 -12 -15 -21 -34 -21 -41 0 -7 -6 -30 -14 -53 -38 -113 -44 -140 -70 -310
-8 -49 -25 -118 -40 -152 -14 -35 -26 -70 -26 -79 0 -9 -18 -49 -40 -89 -22
-40 -40 -79 -40 -87 0 -8 -11 -28 -25 -44 -39 -44 -65 -93 -55 -99 12 -7 79
23 102 45 16 17 35 57 72 150 28 68 33 80 64 150 16 36 39 86 51 112 11 26 21
52 21 58 0 14 58 130 74 150 7 8 21 38 31 65 10 28 24 64 31 82 8 17 14 39 14
50 0 10 12 38 26 63 14 24 29 63 34 85 5 22 14 58 19 80 6 22 20 82 31 134 12
52 29 108 38 125 l17 31 3 -70 c2 -38 -1 -142 -7 -230 -12 -164 -34 -259 -96
-420 -13 -33 -27 -71 -31 -85 -3 -14 -12 -32 -19 -40 -7 -8 -25 -37 -40 -65
-15 -27 -45 -80 -66 -117 -22 -37 -55 -102 -73 -145 -37 -85 -82 -173 -97
-187 -13 -14 -11 -53 3 -62 13 -8 18 -2 93 114 34 53 51 89 48 102 -7 25 40
108 127 224 84 112 110 164 110 215 0 24 13 69 34 113 18 40 47 103 64 141 24
51 36 67 51 67 45 0 17 -102 -64 -236 -53 -89 -63 -131 -19 -78 116 138 180
248 170 288 -7 29 8 83 30 108 24 26 37 3 18 -33 -17 -33 -19 -79 -3 -79 16 0
32 20 70 90 77 139 173 270 198 270 6 0 11 -3 11 -6 0 -15 -24 -89 -31 -94
-13 -10 -21 -50 -9 -50 6 0 15 10 20 23 6 12 19 36 29 52 11 17 20 41 20 54 1
35 40 111 56 111 8 0 17 -15 20 -37 3 -21 8 -46 10 -56 4 -23 -19 -90 -43
-125 -11 -15 -42 -70 -71 -123 -42 -79 -51 -105 -51 -146 0 -41 -6 -58 -32
-93 -67 -88 -85 -117 -110 -170 -15 -30 -38 -71 -52 -89 -17 -23 -23 -38 -16
-45 12 -12 43 15 72 63 12 20 38 56 59 81 38 47 101 157 114 200 11 38 85 181
111 215 12 16 28 41 34 55 6 14 17 36 24 49 19 32 108 121 116 116 9 -5 -100
-224 -130 -262 -11 -14 -20 -31 -20 -37 0 -6 -10 -27 -23 -46 -13 -19 -32 -69
-41 -110 -10 -41 -21 -79 -25 -85 -4 -5 -18 -37 -31 -69 -45 -115 -150 -246
-255 -321 -60 -42 -133 -115 -210 -209 -75 -92 -6 -59 108 51 40 38 104 95
142 127 63 53 178 166 241 239 15 18 24 41 24 61 0 78 49 155 208 323 139 148
141 129 5 -77 -35 -52 -75 -113 -90 -135 -59 -84 -65 -95 -46 -95 20 0 162
144 223 225 48 64 54 74 97 147 26 45 49 65 61 54 11 -12 -34 -139 -91 -256
-57 -116 -68 -132 -162 -226 -55 -56 -145 -138 -200 -184 -55 -45 -102 -86
-105 -90 -3 -3 -48 -43 -100 -86 -127 -107 -205 -183 -196 -191 3 -4 20 8 36
25 16 18 33 32 38 32 13 0 111 71 242 175 63 50 131 102 150 116 19 13 37 26
40 29 3 3 54 50 113 104 69 64 106 104 103 113 -8 19 8 48 62 112 26 30 56 72
68 95 29 55 44 57 44 6 0 -41 -11 -66 -63 -133 -16 -21 -27 -41 -23 -44 7 -7
74 36 124 81 20 18 58 41 84 51 27 10 69 37 95 61 27 24 53 44 59 44 6 0 17 7
24 15 8 9 21 13 32 9 13 -4 26 1 39 15 24 26 31 26 53 2 15 -16 15 -22 5 -39
-10 -17 -90 -70 -190 -127 -166 -95 -339 -230 -339 -265 0 -10 26 -28 68 -47
37 -17 74 -38 81 -47 11 -13 9 -16 -13 -22 -30 -7 -203 0 -212 9 -3 3 -24 -8
-47 -24 -22 -16 -43 -29 -46 -29 -7 0 -392 -251 -448 -292 -18 -13 -55 -39
-84 -58 -104 -71 -201 -154 -245 -209 -24 -31 -58 -73 -74 -93 -17 -20 -30
-39 -30 -42 0 -13 37 -4 70 16 62 39 75 47 95 58 11 6 34 19 50 30 17 11 39
24 50 29 11 5 72 40 135 78 264 159 427 224 650 258 201 31 368 12 605 -67 50
-16 99 -33 110 -38 267 -116 444 -168 540 -156 45 5 54 3 78 -20 16 -14 27
-33 25 -42 -5 -27 -155 -122 -234 -148 -40 -14 -86 -32 -101 -39 -16 -8 -39
-15 -53 -15 -53 0 -212 -71 -356 -160 -68 -42 -34 -52 67 -20 35 11 69 18 76
16 7 -3 32 4 55 14 24 11 59 20 78 20 19 0 53 7 75 15 22 8 59 14 82 15 23 0
44 4 47 9 3 4 28 11 55 14 28 3 63 13 80 21 16 9 43 16 60 16 16 0 33 5 36 10
8 13 62 13 70 0 10 -16 -13 -47 -40 -54 -14 -4 -25 -11 -25 -16 0 -6 -7 -10
-16 -10 -9 0 -28 -6 -42 -14 -39 -21 -88 -36 -167 -52 -38 -8 -99 -21 -135
-29 -36 -9 -96 -20 -135 -25 -38 -5 -83 -13 -98 -19 -15 -6 -95 -13 -177 -16
-132 -4 -160 -9 -237 -35 -143 -48 -177 -60 -203 -71 -37 -16 -91 -39 -125
-54 -111 -46 -292 -147 -407 -226 -29 -20 -98 -66 -153 -102 -118 -78 -345
-265 -464 -383 -46 -46 -88 -84 -93 -84 -19 0 -4 27 79 138 92 125 257 295
376 389 39 31 74 60 77 63 3 4 30 24 60 45 30 21 57 41 60 45 11 14 224 137
290 167 19 8 67 30 106 48 93 43 205 84 274 101 115 27 146 37 167 56 19 18
25 18 56 7 30 -10 40 -9 78 9 24 11 79 36 121 56 81 37 97 51 80 68 -17 17
-139 -19 -197 -58 -28 -19 -55 -34 -62 -34 -6 0 -21 14 -33 30 -18 25 -28 30
-62 30 -41 0 -57 -3 -155 -34 -28 -9 -85 -17 -125 -17 -55 -1 -99 -9 -175 -35
-57 -19 -111 -38 -120 -42 -10 -5 -34 -16 -53 -24 -55 -24 -181 -89 -220 -113
-19 -12 -42 -25 -50 -28 -8 -4 -28 -16 -45 -27 -16 -10 -52 -31 -80 -45 -27
-14 -84 -44 -125 -66 -41 -23 -104 -56 -140 -75 -36 -19 -72 -39 -80 -44 -27
-17 -164 -77 -210 -93 -25 -8 -70 -28 -100 -43 -168 -85 -226 -196 -201 -386
12 -87 20 -123 56 -253 67 -244 77 -335 72 -661 -5 -312 -29 -568 -68 -746 -6
-26 -15 -71 -19 -100 -44 -261 -67 -326 -140 -389 -29 -25 -41 -42 -35 -48 21
-21 536 23 700 60 28 6 82 18 120 26 121 26 311 79 337 94 10 5 26 9 35 9 10
0 31 7 47 15 15 8 34 15 40 15 13 0 311 126 391 166 110 54 296 168 303 186 2
4 8 8 13 8 9 0 68 38 79 51 3 3 16 12 29 18 97 52 455 387 587 549 109 136
222 307 321 486 63 116 143 289 143 310 0 8 4 17 9 20 5 3 12 18 15 33 4 16
13 42 20 58 8 17 22 57 32 90 9 33 23 78 30 100 18 59 39 140 58 225 10 41 22
92 27 113 10 39 22 121 39 282 12 115 12 428 -1 525 -5 41 -13 115 -18 163 -5
49 -14 110 -20 135 -40 184 -44 201 -71 297 -12 44 -26 94 -30 110 -10 36 -34
106 -76 218 -19 50 -28 71 -88 202 -26 55 -51 107 -56 115 -6 8 -14 24 -19 36
-8 19 -76 136 -101 174 -6 8 -13 22 -17 30 -11 24 -157 235 -177 256 -6 6 -36
42 -66 80 -92 113 -235 267 -311 335 -40 35 -84 75 -98 88 -51 47 -230 181
-290 218 -34 21 -74 46 -89 55 -28 18 -40 24 -137 78 -89 49 -223 115 -285
140 -30 12 -69 29 -87 36 -17 8 -36 14 -42 14 -6 0 -19 4 -29 10 -22 13 -96
39 -142 50 -63 16 -140 39 -149 45 -5 3 -29 10 -53 15 -24 5 -72 17 -108 26
-36 9 -87 20 -115 26 -27 5 -75 16 -106 24 -30 8 -69 14 -87 14 -17 0 -57 7
-89 15 -31 8 -73 15 -93 15 -46 0 -178 28 -212 46 -36 19 -62 18 -82 -5z m534
-1662 c0 -85 -19 -139 -49 -139 -11 0 -13 10 -8 48 7 63 38 172 49 172 4 0 8
-36 8 -81z m-70 -181 c0 -39 -79 -250 -104 -274 -13 -14 -27 -21 -29 -16 -9
14 46 231 78 306 16 37 17 38 36 20 10 -9 19 -25 19 -36z m2578 -1441 c4 -19
-52 -57 -83 -57 -11 0 -28 -7 -38 -15 -11 -7 -25 -11 -33 -8 -11 4 -9 9 9 23
12 9 32 20 45 24 12 4 34 19 48 33 26 26 47 26 52 0z m-1158 -37 c0 -6 -7 -13
-15 -16 -20 -8 -48 3 -40 16 8 13 55 13 55 0z m1119 -142 c-7 -13 -18 -27 -25
-31 -22 -13 -16 -25 13 -29 34 -4 43 -28 11 -28 -13 0 -32 9 -42 21 -13 16
-24 19 -44 15 -15 -3 -74 -15 -132 -26 -58 -11 -128 -32 -157 -45 -28 -14 -67
-25 -85 -25 -18 -1 -44 -7 -58 -15 -14 -8 -44 -14 -66 -15 -24 0 -47 -6 -54
-15 -7 -9 -29 -15 -51 -15 -22 0 -56 -9 -76 -20 -21 -11 -49 -20 -63 -20 -14
0 -34 -7 -44 -15 -11 -8 -28 -15 -37 -15 -10 0 -30 -11 -46 -24 -16 -13 -42
-26 -58 -28 -21 -2 -34 -11 -43 -30 -23 -49 -112 -58 -159 -15 -17 15 -30 18
-55 13 -40 -8 -108 -37 -108 -47 0 -4 18 -22 41 -39 31 -26 39 -38 37 -59 -2
-21 -9 -27 -36 -29 -28 -3 -40 3 -69 33 -39 41 -55 41 -118 4 -40 -24 -46 -54
-12 -65 25 -8 37 -22 37 -46 0 -22 -28 -23 -66 -3 -47 24 -77 18 -142 -29 -33
-24 -74 -52 -91 -60 -34 -18 -40 -33 -16 -42 21 -9 39 -44 28 -55 -6 -6 -27
-3 -52 6 -68 24 -92 20 -124 -20 -15 -19 -34 -35 -41 -35 -8 0 -19 -7 -26 -15
-11 -13 -11 -20 0 -40 7 -13 10 -31 6 -40 -5 -15 -8 -15 -28 -1 -28 20 -54 20
-62 1 -3 -8 -11 -15 -18 -15 -8 0 -28 -13 -46 -29 -51 -47 -174 -142 -179
-138 -2 2 1 17 7 33 12 31 388 414 407 414 7 0 28 14 47 30 18 17 50 37 70 45
20 9 39 22 42 30 18 47 351 243 509 300 28 10 55 21 60 25 9 6 63 24 325 105
140 43 396 98 530 113 36 4 72 12 80 17 8 5 29 10 45 12 17 1 53 6 80 11 28 5
76 10 108 11 57 1 58 1 46 -21z m90 -109 c29 -24 17 -42 -25 -37 -32 3 -46 34
-22 49 18 12 19 11 47 -12z m-159 -40 c0 -19 -5 -29 -15 -29 -15 0 -22 50 -9
63 12 12 24 -4 24 -34z"/>
<path d="M4300 7785 c-69 -13 -147 -24 -175 -24 -27 -1 -77 -8 -110 -16 -33
-8 -75 -14 -93 -15 -18 0 -61 -6 -95 -14 -34 -8 -98 -22 -142 -31 -107 -23
-234 -56 -340 -90 -22 -7 -73 -22 -113 -35 -40 -12 -75 -26 -78 -31 -3 -5 -13
-9 -23 -9 -36 0 -372 -156 -496 -230 -27 -16 -57 -33 -65 -37 -46 -22 -302
-202 -330 -233 -3 -3 -54 -49 -115 -101 -60 -53 -130 -119 -155 -145 -84 -91
-176 -199 -225 -264 -27 -36 -53 -69 -57 -75 -61 -77 -231 -351 -270 -435 -9
-19 -30 -64 -47 -100 -68 -146 -91 -201 -91 -213 0 -7 -4 -17 -9 -22 -12 -14
-78 -211 -126 -380 -9 -33 -21 -73 -25 -90 -5 -16 -14 -58 -19 -93 -5 -34 -13
-67 -16 -72 -7 -12 -21 -152 -35 -345 -13 -172 13 -599 40 -670 5 -14 10 -38
10 -53 0 -15 12 -72 26 -127 14 -55 30 -118 35 -140 5 -22 21 -72 34 -112 14
-39 25 -77 25 -83 0 -7 6 -26 14 -43 7 -18 28 -72 46 -122 48 -132 148 -335
245 -496 133 -220 275 -399 475 -600 200 -202 336 -309 598 -473 57 -36 311
-162 407 -202 17 -7 46 -20 67 -28 20 -9 42 -16 50 -16 8 0 18 -4 24 -9 18
-16 293 -97 424 -124 41 -9 107 -23 146 -32 40 -8 89 -15 110 -15 22 0 57 -5
79 -10 22 -6 123 -15 225 -21 102 -6 196 -11 210 -12 30 -2 39 26 17 51 -34
37 -50 130 -43 242 32 517 20 1372 -23 1720 -31 245 -66 293 -371 496 -58 39
-139 93 -180 121 -149 101 -282 186 -310 199 -8 4 -22 13 -30 19 -16 13 -72
44 -210 118 -47 25 -105 57 -130 71 -25 14 -52 29 -60 33 -8 4 -67 37 -130 75
-63 37 -121 68 -127 68 -25 0 -12 -29 27 -63 22 -19 40 -37 40 -40 0 -14 -32
-6 -80 20 -45 24 -52 25 -75 13 -20 -11 -33 -11 -58 -3 -18 6 -52 14 -77 18
-69 9 -253 63 -333 97 -40 17 -53 19 -68 10 -28 -18 -49 -15 -85 13 -45 34
-87 32 -52 -3 9 -9 8 -12 -5 -12 -45 0 -193 39 -255 67 -18 8 -50 17 -70 20
-51 9 -219 99 -285 153 -6 5 -23 18 -36 28 -45 34 -2 71 101 86 26 4 49 13 52
21 4 11 24 15 78 15 40 1 98 7 128 14 49 12 303 94 355 115 35 14 128 40 198
56 82 18 363 21 434 4 63 -15 183 -49 208 -60 77 -31 126 -56 203 -102 48 -29
94 -56 102 -60 8 -4 29 -16 45 -27 17 -11 39 -24 51 -29 19 -8 136 -76 174
-101 8 -6 26 -15 40 -21 13 -5 27 -13 30 -17 13 -17 150 -82 174 -82 48 0 41
26 -25 102 -87 98 -84 96 -178 169 -45 35 -120 93 -165 129 -278 218 -382 283
-441 277 -11 -1 -20 4 -21 13 0 8 -2 23 -2 32 -1 11 -14 19 -39 24 -21 3 -64
15 -95 25 -31 10 -82 21 -113 23 -31 2 -59 7 -63 10 -11 11 12 38 49 58 41 23
144 20 180 -6 25 -17 109 -22 109 -6 0 6 -28 31 -62 58 -34 26 -98 79 -143
117 -44 39 -93 79 -110 90 -69 45 -239 115 -278 115 -36 0 -87 26 -87 45 0 31
91 25 111 -7 4 -6 29 -15 56 -19 217 -33 266 -52 403 -159 41 -32 111 -103
171 -173 13 -16 26 -38 29 -50 6 -21 223 -219 347 -316 61 -47 150 -124 267
-231 104 -94 155 -123 141 -80 -10 30 0 25 51 -30 26 -28 55 -50 66 -50 19 0
19 1 -1 28 -42 56 -121 133 -173 168 -29 19 -74 56 -99 82 -25 26 -90 85 -144
132 -55 47 -126 110 -160 142 -33 31 -73 66 -90 79 -16 12 -68 63 -115 113
-47 50 -115 121 -152 157 -38 37 -68 70 -68 73 0 3 14 6 30 6 17 0 30 5 30 11
0 6 -18 38 -40 71 -22 33 -40 62 -40 64 0 1 -20 46 -45 98 -25 53 -45 103 -45
112 0 8 -5 24 -11 35 -23 43 32 -6 68 -61 20 -30 62 -89 93 -130 31 -41 67
-93 80 -115 13 -22 46 -60 73 -85 82 -75 177 -172 216 -220 49 -61 53 -65 79
-79 30 -16 28 -10 -15 41 -20 23 -51 66 -70 95 -18 29 -62 85 -98 125 -36 40
-65 80 -66 88 -1 25 -52 107 -95 152 -22 24 -46 54 -53 66 -10 19 -9 22 8 22
19 0 162 -125 204 -177 10 -13 25 -23 33 -23 30 0 -3 61 -103 192 -39 52 -54
88 -35 88 14 -1 49 -36 95 -95 25 -33 66 -82 91 -109 41 -46 52 -71 71 -159 3
-15 13 -35 23 -45 37 -37 119 -155 147 -210 30 -60 65 -111 65 -95 0 15 -39
91 -50 98 -5 3 -10 15 -10 27 0 11 -13 39 -29 62 -15 24 -36 61 -46 84 -11 23
-22 42 -26 42 -4 0 -11 10 -15 23 -3 12 -12 29 -19 37 -6 8 -18 31 -25 50 -28
74 -80 181 -116 237 -67 103 -112 207 -94 218 23 14 88 -48 130 -123 23 -42
56 -95 72 -117 16 -22 39 -60 51 -85 13 -25 33 -61 45 -80 12 -19 27 -51 32
-71 6 -21 30 -57 55 -83 25 -25 45 -54 45 -64 0 -11 7 -25 15 -32 9 -7 14 -18
12 -24 -2 -6 9 -27 24 -47 16 -20 29 -40 29 -44 0 -16 35 -82 62 -116 15 -20
28 -40 28 -43 0 -11 100 -140 115 -148 7 -4 18 -2 24 6 8 10 7 19 -7 37 -23
30 -112 178 -112 186 0 3 -20 38 -44 78 -24 39 -47 82 -50 93 -4 12 -12 22
-17 22 -5 0 -9 5 -9 11 0 6 -23 50 -52 97 -28 47 -60 102 -70 121 -19 38 -27
51 -70 119 -16 24 -28 45 -28 47 0 16 -70 101 -129 158 -66 63 -86 99 -65 120
7 6 54 -13 54 -22 0 -3 18 -26 40 -51 l41 -45 -16 35 c-9 19 -22 46 -29 60
-23 43 -29 105 -12 119 24 20 59 6 80 -31 11 -18 32 -49 48 -69 27 -35 62
-103 178 -341 29 -60 56 -108 60 -108 4 0 11 -8 14 -17 3 -10 22 -45 40 -78
93 -164 214 -402 222 -438 4 -20 9 -26 16 -19 10 10 6 28 -39 182 -19 62 -20
65 -91 210 -29 58 -68 123 -87 145 -20 22 -48 58 -63 80 -15 22 -29 42 -32 45
-13 13 -40 70 -40 84 0 9 -4 16 -9 16 -5 0 -11 9 -14 20 -10 37 10 20 53 -46
23 -36 72 -97 109 -137 36 -39 77 -83 91 -98 14 -15 34 -27 44 -26 13 1 22 -7
27 -25 4 -16 28 -72 54 -125 26 -54 59 -125 75 -158 15 -33 62 -130 103 -215
42 -85 83 -178 92 -207 20 -60 34 -76 67 -71 19 2 23 9 21 37 -1 19 -6 44 -11
55 -5 12 -20 55 -32 96 -12 41 -29 95 -37 120 -7 25 -65 149 -128 275 -107
214 -156 326 -174 400 -4 17 -13 40 -19 52 -7 12 -12 34 -12 50 0 15 -6 48
-14 73 -16 50 -36 155 -36 187 0 34 25 48 53 30 17 -11 32 -46 61 -143 61
-204 69 -227 83 -254 7 -14 13 -30 13 -36 0 -15 206 -424 219 -434 4 -3 12
-16 18 -30 10 -22 12 -18 12 37 1 52 -4 71 -28 110 -16 27 -37 73 -47 103 -9
30 -21 59 -25 64 -5 6 -9 16 -9 24 0 8 -6 28 -13 45 -22 52 -45 129 -52 177
-4 25 -11 50 -15 55 -9 11 -22 89 -40 230 -6 44 -15 93 -20 109 -6 16 -10 45
-10 65 0 20 -7 62 -15 94 -22 85 -24 141 -4 145 15 3 39 -36 69 -113 4 -11 15
-37 24 -58 9 -21 16 -43 16 -50 0 -7 7 -25 15 -41 8 -16 18 -46 21 -68 5 -31
10 -37 24 -33 31 10 51 -7 76 -64 14 -31 29 -63 35 -71 5 -8 19 -35 30 -59 15
-31 24 -40 32 -32 8 8 8 32 -2 88 -18 114 -31 229 -35 308 -1 39 -6 96 -11
129 -6 45 -5 58 4 55 19 -7 37 -46 61 -138 13 -46 34 -109 47 -140 l24 -56 -5
65 c-4 36 -11 135 -16 220 -5 85 -14 193 -20 240 -5 47 -10 137 -10 200 0 105
6 167 43 475 17 142 16 209 -3 211 -8 1 -71 -9 -140 -21z m-1565 -1904 c28
-22 58 -46 66 -53 8 -8 22 -17 32 -21 18 -7 24 -27 7 -27 -17 0 -154 98 -168
120 -20 32 5 25 63 -19z m-1295 -872 c39 -21 45 -39 12 -39 -9 0 -26 7 -36 15
-11 8 -32 15 -47 15 -36 0 -60 10 -53 21 10 16 83 9 124 -12z m-71 -353 c6 -8
22 -16 34 -19 12 -3 47 -14 77 -26 58 -22 145 -47 220 -61 56 -11 162 -36 215
-49 54 -14 108 -14 123 1 9 9 15 9 20 2 12 -17 78 -44 110 -44 16 0 43 -7 58
-15 16 -8 40 -15 53 -15 13 0 44 -7 70 -14 49 -16 129 -38 196 -55 79 -19 151
-43 195 -63 25 -11 59 -26 75 -33 97 -43 258 -126 320 -166 17 -10 37 -22 45
-26 31 -14 163 -119 219 -173 38 -37 155 -170 165 -188 9 -16 33 -45 79 -96
15 -17 40 -49 55 -71 15 -22 30 -42 34 -45 10 -8 68 -127 68 -139 0 -30 -30
-3 -79 70 -77 116 -310 353 -446 456 -93 71 -125 93 -170 118 -102 58 -280
146 -364 181 -47 20 -100 43 -118 50 -17 8 -37 14 -44 14 -7 0 -31 6 -54 14
-38 13 -67 22 -200 62 -33 9 -91 28 -130 40 -38 12 -95 25 -125 29 -30 3 -84
13 -120 21 -36 9 -94 22 -130 30 -212 49 -393 118 -452 173 -21 19 -38 38 -38
43 0 13 26 9 39 -6z m155 -267 c332 -61 664 -153 861 -239 11 -5 41 -18 67
-29 26 -12 49 -21 52 -21 15 0 315 -188 399 -251 71 -52 156 -109 162 -109 9
0 170 -119 213 -157 24 -21 67 -56 96 -78 75 -58 178 -173 283 -315 35 -47 67
-90 72 -96 16 -20 33 -56 28 -61 -8 -7 -47 16 -47 28 0 5 -71 79 -157 165
-102 101 -162 153 -171 149 -8 -3 -21 3 -29 15 -19 27 -51 26 -62 -2 -5 -13
-18 -31 -29 -41 -20 -18 -21 -18 -32 3 -11 21 -8 47 13 88 9 19 7 26 -11 44
-19 19 -22 20 -28 5 -8 -21 -53 -22 -61 -1 -3 8 0 26 7 39 11 21 10 26 -16 49
-33 29 -54 33 -54 11 0 -20 -44 -65 -64 -65 -8 0 -24 21 -37 46 -18 38 -20 50
-11 65 18 28 15 38 -14 49 -33 13 -114 81 -114 96 0 13 -68 74 -82 74 -5 0 -8
-10 -8 -22 0 -31 -28 -58 -61 -58 -25 0 -28 4 -31 36 -3 30 -9 38 -43 56 -22
11 -47 25 -55 29 -8 5 -27 14 -42 20 -23 9 -58 47 -58 64 0 14 52 2 91 -20 24
-14 57 -25 73 -25 l29 0 -24 18 c-68 52 -386 181 -449 182 -14 1 -36 7 -50 15
-14 8 -43 15 -65 15 -22 0 -51 7 -65 15 -14 8 -34 14 -44 15 -11 0 -56 13
-100 29 -160 57 -360 111 -438 118 -42 4 -50 2 -72 -24 -21 -22 -25 -25 -26
-10 0 10 7 20 15 23 8 3 23 21 34 40 23 39 48 43 155 23z m-204 -117 c0 -16
-79 -84 -90 -77 -12 8 10 50 38 73 18 13 52 16 52 4z m250 -22 c20 -12 8 -22
-52 -42 -39 -12 -57 -14 -75 -5 -18 8 -33 7 -58 -2 -49 -17 -64 -4 -29 25 25
20 40 23 102 23 41 -1 76 2 79 5 8 8 15 7 33 -4z m105 -20 c3 -5 24 -10 46
-10 65 0 43 -25 -24 -27 -59 -2 -71 4 -61 31 7 18 30 21 39 6z m735 -211 c22
-12 40 -25 40 -29 0 -6 -159 -7 -179 -1 -3 0 6 12 19 26 29 31 66 32 120 4z
m1037 -744 c3 -9 3 -19 -1 -22 -8 -9 -37 18 -30 28 8 14 24 11 31 -6z"/>
<path d="M4503 7784 c-7 -20 -1 -24 25 -17 28 7 28 19 1 26 -12 3 -22 0 -26
-9z"/>
<path d="M4496 7683 c-9 -65 -8 -121 3 -127 14 -9 21 21 21 94 0 80 -14 100
-24 33z"/>
<path d="M4502 7460 c0 -19 2 -27 5 -17 2 9 2 25 0 35 -3 9 -5 1 -5 -18z"/>
<path d="M4503 7350 c0 -25 2 -35 4 -22 2 12 2 32 0 45 -2 12 -4 2 -4 -23z"/>
<path d="M4497 7237 c-10 -26 -9 -95 2 -101 11 -7 19 62 11 95 -5 21 -7 22
-13 6z"/>
<path d="M4504 6940 c0 -63 1 -89 3 -57 2 31 2 83 0 115 -2 31 -3 5 -3 -58z"/>
<path d="M4832 6350 c0 -19 2 -27 5 -17 2 9 2 25 0 35 -3 9 -5 1 -5 -18z"/>
<path d="M4190 6318 c0 -13 12 -59 26 -103 30 -92 52 -176 64 -255 5 -31 16
-73 25 -95 51 -125 56 -131 75 -95 10 20 3 68 -25 155 -7 22 -16 56 -19 77 -4
20 -26 74 -49 120 -54 108 -67 139 -74 182 -6 40 -23 49 -23 14z"/>
<path d="M4473 6245 c0 -33 2 -45 4 -27 2 18 2 45 0 60 -2 15 -4 0 -4 -33z"/>
<path d="M5697 6163 c-4 -3 -7 -17 -7 -30 0 -12 -4 -23 -10 -23 -5 0 -10 -7
-10 -16 0 -10 8 -6 25 14 14 17 25 37 25 46 0 16 -12 21 -23 9z"/>
<path d="M4770 6018 c0 -9 -7 -29 -15 -44 -19 -37 -20 -104 -1 -104 9 0 15 22
20 77 3 42 4 79 1 81 -3 3 -5 -2 -5 -10z"/>
<path d="M5537 5912 c-9 -10 -33 -49 -52 -87 -20 -39 -67 -114 -103 -168 -37
-54 -72 -107 -77 -117 -6 -10 -17 -25 -24 -33 -13 -17 -6 -41 9 -32 20 12 193
249 216 295 27 53 58 149 51 156 -2 2 -11 -4 -20 -14z"/>
<path d="M6620 5920 c0 -5 7 -10 15 -10 8 0 15 5 15 10 0 6 -7 10 -15 10 -8 0
-15 -4 -15 -10z"/>
<path d="M4706 5675 c-4 -14 -3 -33 2 -42 7 -12 10 -8 16 18 8 40 -9 62 -18
24z"/>
<path d="M4366 5664 c-9 -22 -8 -24 9 -24 8 0 15 9 15 20 0 24 -15 27 -24 4z"/>
<path d="M3491 5363 c24 -31 114 -113 123 -113 11 0 -14 30 -74 87 -45 43 -75
58 -49 26z"/>
<path d="M5255 5306 c-16 -19 -40 -56 -54 -83 -41 -76 -79 -122 -176 -213 -51
-47 -90 -88 -88 -92 8 -15 38 -7 64 15 14 12 57 48 96 79 61 50 73 64 93 120
13 35 28 69 34 77 26 34 76 131 68 131 -5 0 -21 -15 -37 -34z"/>
<path d="M3946 5238 l-18 -37 49 -66 c26 -37 54 -78 62 -93 8 -15 17 -29 21
-32 4 -3 11 -18 15 -35 6 -23 9 -26 13 -11 2 10 -1 28 -6 40 -5 11 -20 46 -32
76 -12 29 -33 71 -46 91 -12 20 -27 52 -32 70 l-8 34 -18 -37z"/>
<path d="M3771 5168 c19 -18 41 -44 50 -58 29 -44 169 -189 189 -195 35 -11
43 5 18 34 -13 14 -51 62 -83 106 -80 109 -96 125 -127 125 -15 0 -30 5 -33
10 -3 6 -16 10 -27 10 -18 0 -17 -4 13 -32z"/>
<path d="M5269 5009 c-50 -43 -65 -57 -86 -82 -28 -33 -30 -52 -5 -38 26 14
142 121 142 132 0 16 -26 10 -51 -12z"/>
<path d="M2420 4572 c0 -12 73 -42 101 -41 19 0 13 6 -26 25 -52 25 -75 30
-75 16z"/>
<path d="M2570 4520 c0 -12 42 -31 50 -23 6 5 -30 33 -42 33 -4 0 -8 -5 -8
-10z"/>
<path d="M2632 4478 c2 -6 10 -14 16 -16 7 -2 10 2 6 12 -7 18 -28 22 -22 4z"/>
</g>
</svg>
