<svg id="visual" viewBox="0 0 1920 1080" width="1920" height="1080" xmlns="http://www.w3.org/2000/svg" xmlns:xlink="http://www.w3.org/1999/xlink" version="1.1"><path d="M0 289L45.7 331.2C91.3 373.3 182.7 457.7 274.2 516.7C365.7 575.7 457.3 609.3 548.8 591.3C640.3 573.3 731.7 503.7 823 446.7C914.3 389.7 1005.7 345.3 1097 321.3C1188.3 297.3 1279.7 293.7 1371.2 290.3C1462.7 287 1554.3 284 1645.8 300.7C1737.3 317.3 1828.7 353.7 1874.3 371.8L1920 390L1920 0L1874.3 0C1828.7 0 1737.3 0 1645.8 0C1554.3 0 1462.7 0 1371.2 0C1279.7 0 1188.3 0 1097 0C1005.7 0 914.3 0 823 0C731.7 0 640.3 0 548.8 0C457.3 0 365.7 0 274.2 0C182.7 0 91.3 0 45.7 0L0 0Z" fill="#32028b" stroke-linecap="round" stroke-linejoin="miter"></path></svg>