<svg width="1920" height="1148" viewBox="0 0 1920 1148" fill="none" xmlns="http://www.w3.org/2000/svg">
<g id="Component 1">
<g clip-path="url(#clip0_0_1)">
<g id="homepage-top-blob-2">
<g id="Vector 1" filter="url(#filter0_f_0_1)">
<path d="M244.202 583.491C55.7263 696.865 117.626 640.178 -46.6455 694.615C-63.443 540.451 -90.8479 216.916 -66.0882 156.09C-35.1386 80.0572 -46.6455 -62.5592 -32.3611 -92.7022C-18.0766 -122.845 1107.62 -135.892 1269.9 -114.297C1432.19 -92.7022 1548.85 -90.0028 1815.89 2.22576C2082.93 94.4544 1870.64 232.122 1758.75 326.6C1646.85 421.078 1536.94 345.496 1396.08 294.208C1255.22 242.92 1195.7 226.724 961.995 232.122C728.285 237.521 778.281 226.724 599.725 294.208C421.17 361.692 556.475 323.901 470.769 426.927C385.062 529.953 432.677 470.117 244.202 583.491Z" fill="#531CCA"/>
</g>
<g id="Vector 2" filter="url(#filter1_f_0_1)">
<path d="M34.2998 569.994C-6.17284 629.38 -10.9343 602.386 -70.8496 556.497C-59.6072 458.27 -40.4555 237.971 -53.7876 142.593C-70.4528 23.3709 -70.8496 45.4156 34.2998 -30.1668C139.449 -105.749 189.445 -59.8599 298.959 -59.8599H1019.13C1231.42 -59.8599 1284.19 -51.7618 1489.33 -30.1668C1694.47 -8.57183 1603.6 -30.1668 1651.22 -30.1668C1698.83 -30.1668 1799.22 75.1087 1806.36 142.593C1813.51 210.077 1796.84 167.337 1749.23 245.619C1701.61 323.901 1672.65 275.312 1510.76 275.312C1348.87 275.312 1438.94 242.92 1193.32 142.593C947.71 42.2663 997.706 139.894 806.85 142.593C615.994 145.292 671.148 158.789 532.668 207.828C394.188 256.867 451.723 248.319 423.154 275.312C394.585 302.306 406.489 299.607 329.908 416.13C253.328 532.653 272.771 464.718 160.876 532.203C48.981 599.687 74.7723 510.608 34.2998 569.994Z" fill="#ADC4FF"/>
</g>
</g>
<g id="homepage-top-blob-1">
<g id="Vector 1_2" filter="url(#filter2_f_0_1)">
<path d="M258.778 635.562C61.7228 740.786 126.44 688.174 -45.3092 738.698C-62.8713 595.616 -91.5238 295.338 -65.637 238.884C-33.2785 168.317 -45.3092 35.9523 -30.3745 7.9761C-15.4398 -20.0001 1161.5 -32.1092 1331.17 -12.0666C1500.85 7.97611 1622.81 10.4814 1902.01 96.0803C2181.21 181.679 1959.26 309.451 1842.27 397.138C1725.28 484.824 1610.37 414.675 1463.1 367.074C1315.82 319.473 1253.59 304.441 1009.25 309.451C764.898 314.462 817.17 304.441 630.486 367.074C443.802 429.707 585.267 394.633 495.659 490.253C406.051 585.873 455.833 530.338 258.778 635.562Z" fill="#CA1CC3"/>
</g>
<g id="Vector 2_2" filter="url(#filter3_f_0_1)">
<path d="M39.3207 623.035C-2.99424 678.153 -7.97248 653.099 -70.6152 610.509C-58.8611 519.342 -38.8375 314.879 -52.7766 226.358C-70.2004 115.706 -70.6152 136.166 39.3207 66.0163C149.257 -4.13303 201.528 38.4576 316.027 38.4576H1068.99C1290.93 38.4576 1346.11 45.9736 1560.59 66.0163C1775.06 86.059 1680.06 66.0163 1729.85 66.0163C1779.63 66.0163 1884.59 163.724 1892.05 226.358C1899.52 288.991 1882.1 249.323 1832.31 321.978C1782.53 394.633 1752.25 349.536 1582.99 349.536C1413.73 349.536 1507.9 319.472 1251.11 226.358C994.312 133.243 1046.58 223.852 847.039 226.358C647.495 228.863 705.159 241.39 560.376 286.903C415.592 332.417 475.746 324.483 445.876 349.536C416.007 374.59 428.453 372.085 348.386 480.231C268.319 588.378 288.647 525.327 171.659 587.961C54.6703 650.594 81.6357 567.918 39.3207 623.035Z" fill="#052D92"/>
</g>
</g>
</g>
</g>
<defs>
<filter id="filter0_f_0_1" x="-226" y="-275" width="2321" height="1119.62" filterUnits="userSpaceOnUse" color-interpolation-filters="sRGB">
<feFlood flood-opacity="0" result="BackgroundImageFix"/>
<feBlend mode="normal" in="SourceGraphic" in2="BackgroundImageFix" result="shape"/>
<feGaussianBlur stdDeviation="75" result="effect1_foregroundBlur_0_1"/>
</filter>
<filter id="filter1_f_0_1" x="-220.85" y="-223.66" width="2178.8" height="977.789" filterUnits="userSpaceOnUse" color-interpolation-filters="sRGB">
<feFlood flood-opacity="0" result="BackgroundImageFix"/>
<feBlend mode="normal" in="SourceGraphic" in2="BackgroundImageFix" result="shape"/>
<feGaussianBlur stdDeviation="75" result="effect1_foregroundBlur_0_1"/>
</filter>
<filter id="filter2_f_0_1" x="-226" y="-172" width="2413" height="1060.7" filterUnits="userSpaceOnUse" color-interpolation-filters="sRGB">
<feFlood flood-opacity="0" result="BackgroundImageFix"/>
<feBlend mode="normal" in="SourceGraphic" in2="BackgroundImageFix" result="shape"/>
<feGaussianBlur stdDeviation="75" result="effect1_foregroundBlur_0_1"/>
</filter>
<filter id="filter3_f_0_1" x="-220.615" y="-124.351" width="2264.32" height="929.067" filterUnits="userSpaceOnUse" color-interpolation-filters="sRGB">
<feFlood flood-opacity="0" result="BackgroundImageFix"/>
<feBlend mode="normal" in="SourceGraphic" in2="BackgroundImageFix" result="shape"/>
<feGaussianBlur stdDeviation="75" result="effect1_foregroundBlur_0_1"/>
</filter>
<clipPath id="clip0_0_1">
<rect width="1920" height="1148" rx="5" fill="white"/>
</clipPath>
</defs>
</svg>
