<svg id="visual" viewBox="0 0 400 450" width="400" height="450" xmlns="http://www.w3.org/2000/svg" xmlns:xlink="http://www.w3.org/1999/xlink" version="1.1"><rect x="0" y="0" width="400" height="450" fill="#001220"></rect><defs><linearGradient id="grad1_0" x1="0%" y1="0%" x2="100%" y2="100%"><stop offset="30%" stop-color="#001220" stop-opacity="1"></stop><stop offset="70%" stop-color="#001220" stop-opacity="1"></stop></linearGradient></defs><defs><linearGradient id="grad2_0" x1="0%" y1="0%" x2="100%" y2="100%"><stop offset="30%" stop-color="#001220" stop-opacity="1"></stop><stop offset="70%" stop-color="#001220" stop-opacity="1"></stop></linearGradient></defs><g transform="translate(400, 0)"><path d="M0 270.9C-36 268.2 -72.1 265.5 -103.7 250.3C-135.3 235.2 -162.5 207.6 -178.2 178.2C-193.9 148.8 -198 117.6 -211.6 87.6C-225.1 57.6 -248 28.8 -270.9 0L0 0Z" fill="#1e0397"></path></g><g transform="translate(0, 450)"><path d="M0 -270.9C25.6 -245.5 51.1 -220.2 87.6 -211.6C124.2 -203 171.7 -211.2 191.6 -191.6C211.5 -172 203.9 -124.6 212.5 -88C221.1 -51.5 246 -25.7 270.9 0L0 0Z" fill="#1e0397"></path></g></svg>