<?xml version="1.0" standalone="no"?>
<!DOCTYPE svg PUBLIC "-//W3C//DTD SVG 20010904//EN"
 "http://www.w3.org/TR/2001/REC-SVG-20010904/DTD/svg10.dtd">
<svg version="1.0" xmlns="http://www.w3.org/2000/svg"
 width="300.000000pt" height="300.000000pt" viewBox="0 0 300.000000 300.000000"
 preserveAspectRatio="xMidYMid meet">
<metadata>
Created by potrace 1.10, written by Peter Selinger 2001-2011
</metadata>
<g transform="translate(0.000000,300.000000) scale(0.100000,-0.100000)"
fill="#000000" stroke="none">
<path d="M1474 2671 c-32 -30 -50 -52 -93 -112 l-29 -40 -33 31 c-19 16 -39
30 -45 30 -7 0 -14 4 -16 9 -4 12 -194 43 -219 36 -35 -11 -91 -119 -103 -200
-11 -69 -15 -76 -36 -65 -10 6 -60 13 -110 17 -80 5 -93 4 -111 -13 -18 -16
-20 -26 -14 -79 3 -33 13 -84 22 -113 8 -30 11 -57 7 -61 -5 -4 -46 -13 -92
-19 -103 -14 -129 -32 -134 -90 -2 -24 0 -46 3 -48 4 -2 9 -18 11 -36 6 -40
11 -61 18 -68 33 -33 26 -80 -12 -80 -32 0 -107 -39 -119 -63 -11 -19 -9 -58
7 -145 11 -67 45 -125 109 -189 65 -65 65 -66 48 -87 -10 -11 -21 -23 -24 -26
-31 -25 -71 -193 -63 -264 1 -11 3 -33 3 -48 1 -15 15 -43 32 -63 l31 -35 19
21 c18 21 21 21 98 9 l80 -12 -6 -83 c-8 -113 0 -145 41 -173 36 -25 25 -26
192 13 20 4 22 -1 29 -53 12 -102 33 -164 65 -195 l30 -30 63 18 c67 18 144
59 191 100 l29 25 30 -52 c30 -54 69 -105 130 -171 33 -35 37 -37 64 -25 35
16 104 87 145 150 31 48 53 64 63 48 8 -13 113 -50 159 -57 23 -3 46 -9 52
-14 23 -19 81 21 89 61 8 33 18 108 18 135 1 24 6 35 17 35 24 0 153 -30 172
-41 32 -17 64 -9 93 21 27 29 28 31 28 142 -1 62 -3 120 -4 128 -5 17 97 33
204 32 87 -1 101 15 92 108 -11 121 -62 229 -141 299 l-38 33 24 19 c132 101
184 181 213 325 2 12 -3 30 -12 41 -18 23 -115 60 -171 66 -28 3 -34 7 -32 23
2 10 10 26 17 34 21 24 65 141 65 172 0 16 -7 36 -15 45 -19 18 -132 43 -199
43 -42 0 -47 2 -41 18 25 61 55 156 61 191 9 58 -13 81 -78 81 -59 0 -186 -47
-246 -91 -23 -17 -42 -29 -43 -27 0 1 -2 53 -4 113 -6 181 -31 243 -95 237
-30 -3 -64 -10 -67 -12 -4 -3 -21 -7 -37 -9 -8 0 -38 -17 -66 -36 -49 -33 -53
-34 -66 -18 -7 10 -14 23 -14 28 -1 15 -41 59 -70 76 -14 9 -50 25 -81 37
l-56 21 -29 -28z m103 -26 c91 -41 120 -78 132 -170 l7 -50 16 31 c39 72 108
112 224 130 l41 6 17 -72 c19 -87 20 -240 2 -293 -8 -20 -10 -40 -5 -42 4 -3
32 16 61 42 69 63 111 88 178 107 57 16 145 24 155 14 17 -17 -56 -224 -100
-284 l-16 -21 63 14 c57 13 72 12 153 -4 l90 -19 -3 -40 c-2 -21 -17 -67 -33
-100 -30 -60 -101 -144 -123 -144 -6 0 -20 -12 -30 -27 -10 -14 -15 -24 -10
-21 97 46 109 50 158 46 72 -6 176 -48 176 -71 0 -35 -41 -133 -77 -186 -38
-54 -106 -112 -177 -148 l-38 -20 33 -13 c18 -8 59 -40 90 -71 69 -69 96 -134
105 -254 7 -82 6 -85 -15 -85 -16 0 -21 6 -21 26 0 22 -3 24 -22 18 -151 -48
-267 -43 -330 13 -20 18 -21 18 -12 -7 15 -43 11 -124 -9 -153 l-18 -27 -81
60 c-58 42 -85 57 -96 51 -34 -19 -183 41 -247 100 l-45 42 0 -67 c0 -62 4
-73 44 -139 23 -40 51 -87 61 -106 15 -31 18 -33 27 -16 6 10 9 55 6 105 l-5
87 71 -75 c116 -122 192 -162 312 -162 l51 0 5 43 c5 43 -3 125 -17 181 -13
49 12 21 34 -40 23 -61 26 -127 10 -204 -8 -39 -15 -50 -30 -50 -10 0 -19 6
-19 14 0 9 -20 15 -64 20 -80 8 -139 28 -185 63 -29 22 -33 24 -26 7 14 -33
18 -185 5 -241 -12 -55 -19 -62 -42 -39 -8 7 -45 19 -83 25 -90 16 -125 31
-163 72 -27 29 -32 31 -32 14 0 -41 -49 -122 -108 -180 -34 -33 -65 -60 -70
-60 -16 0 -123 129 -148 178 -13 26 -30 71 -38 99 -12 48 -13 49 -20 24 -9
-36 -81 -113 -128 -137 -20 -10 -61 -24 -90 -29 -29 -6 -63 -13 -74 -15 -19
-4 -24 3 -38 60 -19 78 -20 166 -1 220 8 21 13 40 11 42 -1 2 -17 -8 -36 -22
-33 -24 -138 -52 -215 -57 l-40 -3 -3 82 c-2 68 1 93 20 140 l24 58 -71 1
c-44 0 -92 8 -127 21 l-58 20 0 -29 c0 -21 -5 -28 -20 -28 -19 0 -20 7 -20
121 0 108 3 126 26 174 14 30 44 70 66 90 23 19 40 36 37 38 -2 1 -22 14 -44
28 -97 63 -147 142 -169 271 -8 45 -14 83 -13 83 1 0 18 6 37 14 19 7 67 23
106 35 l71 22 -34 39 c-35 41 -60 110 -65 184 l-3 44 44 13 c69 20 142 26 189
16 23 -6 42 -9 42 -7 0 1 -12 23 -26 49 -32 58 -54 137 -54 198 l0 48 73 -6
c80 -6 128 -18 172 -43 l30 -17 0 80 c0 71 4 90 35 155 l34 74 78 -6 c134 -11
201 -52 234 -146 7 -20 13 -28 14 -19 0 34 42 113 92 175 28 34 55 63 59 63 5
0 34 -11 66 -25z m273 -1735 c12 0 30 -58 23 -76 -8 -21 -24 -13 -44 22 -23
38 -24 68 -3 60 9 -3 19 -6 24 -6z m250 -87 c14 -9 39 -32 55 -50 17 -18 35
-33 41 -33 10 0 57 20 95 40 13 7 16 0 18 -39 3 -66 -13 -78 -82 -62 -76 17
-207 110 -207 147 0 20 50 18 80 -3z"/>
<path d="M1475 2578 c-55 -63 -87 -140 -92 -223 -5 -72 10 -155 28 -155 13 0
16 11 33 107 15 86 50 171 75 181 37 14 120 -129 121 -207 1 -37 13 -12 35 70
29 112 -3 207 -85 249 -56 29 -74 25 -115 -22z m116 -21 c39 -30 78 -137 50
-137 -6 0 -11 4 -11 8 0 4 -18 27 -41 51 -43 45 -81 52 -106 21 -11 -13 -12
-13 -12 0 0 19 17 41 47 62 24 16 46 15 73 -5z"/>
<path d="M1061 2536 c-41 -43 -61 -95 -61 -161 0 -62 9 -86 48 -127 38 -42 47
-35 48 35 1 34 10 84 21 112 l19 50 44 -3 c64 -5 74 -14 116 -92 21 -38 42
-70 47 -70 7 0 5 38 -9 126 -6 42 -58 112 -92 126 -15 6 -55 16 -89 23 l-62
12 -30 -31z m159 -42 c13 -13 9 -14 -33 -13 -62 3 -79 -14 -106 -104 -13 -40
-24 -76 -26 -82 -1 -5 -8 4 -15 20 -17 43 -6 116 25 166 l27 42 56 -7 c32 -4
64 -13 72 -22z"/>
<path d="M1906 2539 c-59 -14 -113 -48 -142 -91 -25 -35 -106 -239 -99 -246 2
-2 52 46 110 107 59 61 111 108 116 105 13 -8 11 -46 -8 -166 -9 -59 -14 -110
-11 -113 11 -11 97 58 110 89 17 40 16 226 0 284 -13 44 -15 45 -76 31z m44
-74 c13 -40 17 -188 6 -223 -4 -12 -16 -26 -26 -32 -16 -9 -18 -6 -14 23 17
147 17 167 -1 187 -29 32 -56 24 -112 -31 -48 -47 -52 -49 -43 -22 15 42 67
102 104 118 54 23 73 19 86 -20z"/>
<path d="M1507 2413 c-8 -22 -23 -81 -32 -133 -10 -64 -22 -101 -36 -116 -38
-41 -53 -161 -24 -200 13 -18 14 -15 15 28 0 31 14 83 40 150 70 178 78 186
108 106 28 -75 47 -77 37 -2 -9 76 -39 155 -69 183 l-23 22 -16 -38z"/>
<path d="M1152 2373 c-10 -24 -16 -66 -17 -113 l0 -74 32 -7 c18 -3 44 -14 57
-23 14 -9 27 -16 28 -16 5 0 -18 240 -23 244 -8 7 -48 26 -54 26 -3 0 -13 -17
-23 -37z m55 -98 c3 -66 -3 -77 -35 -56 -15 9 -7 96 11 119 15 19 20 8 24 -63z"/>
<path d="M729 2314 c-6 -50 22 -157 49 -193 24 -30 99 -41 86 -13 -4 9 -8 31
-8 47 -2 49 38 45 118 -9 l66 -46 0 49 c0 46 -3 52 -42 85 -23 20 -66 45 -96
56 -60 23 -171 38 -173 24z m167 -65 c23 -11 47 -26 54 -34 12 -14 9 -14 -28
0 -39 16 -44 16 -67 1 -14 -9 -28 -30 -32 -46 -8 -41 -18 -38 -37 10 -17 42
-21 82 -9 93 9 10 70 -3 119 -24z"/>
<path d="M2290 2309 c-67 -13 -141 -53 -195 -106 -45 -45 -83 -109 -71 -120 3
-3 22 8 43 24 59 47 147 93 176 93 36 0 51 -30 38 -75 -17 -61 -48 -92 -137
-136 -61 -30 -89 -50 -100 -72 -9 -16 -12 -28 -7 -26 150 66 220 124 267 222
31 65 41 95 60 180 7 30 4 31 -74 16z m20 -64 c0 -28 -13 -31 -49 -11 -23 13
-23 14 -5 24 33 20 54 14 54 -13z"/>
<path d="M1742 2226 l-82 -84 16 -43 c8 -24 21 -71 28 -104 l13 -60 17 36 c9
20 37 60 62 89 l44 52 0 99 c0 54 -4 99 -8 99 -5 0 -45 -38 -90 -84z m56 -65
c3 -33 -2 -50 -23 -77 -14 -19 -30 -34 -35 -34 -18 0 -38 63 -28 84 17 31 61
77 72 73 6 -2 12 -23 14 -46z"/>
<path d="M1273 2278 c4 -14 11 -55 16 -91 7 -52 17 -76 45 -113 l36 -47 0 70
c0 66 -3 75 -41 132 -47 70 -65 86 -56 49z"/>
<path d="M1550 2195 c0 -11 12 -67 26 -125 26 -104 26 -106 10 -205 -8 -55
-16 -134 -18 -175 -2 -52 -8 -79 -18 -87 -13 -11 -13 -12 1 -13 19 0 32 25 89
175 37 97 42 117 37 170 -5 67 -47 177 -82 215 -12 14 -27 34 -33 45 -11 20
-11 20 -12 0z m89 -321 c-6 -21 -15 -43 -20 -48 -5 -6 -5 4 1 22 10 38 10 35
10 70 1 21 3 24 10 11 6 -10 5 -30 -1 -55z"/>
<path d="M1082 2088 c14 -148 71 -288 117 -288 41 0 41 60 -1 126 -40 64 -78
145 -92 202 -21 80 -33 60 -24 -40z"/>
<path d="M2172 2135 c-118 -63 -148 -95 -123 -134 7 -11 17 -9 55 8 90 40 142
94 134 141 -3 18 -8 16 -66 -15z"/>
<path d="M1140 2145 c0 -47 104 -214 209 -335 40 -47 89 -110 109 -140 20 -30
38 -57 39 -59 2 -2 5 -2 8 0 8 8 -99 302 -125 344 -42 68 -122 146 -182 176
-46 23 -58 26 -58 14z m144 -132 c51 -52 100 -130 110 -178 6 -28 3 -27 -45
25 -64 70 -143 200 -121 200 5 0 30 -21 56 -47z"/>
<path d="M1502 2122 c-46 -130 -49 -204 -12 -337 50 -179 44 -176 51 -30 4 72
10 154 14 184 6 38 3 75 -11 130 -10 42 -20 79 -24 83 -3 4 -11 -9 -18 -30z
m23 -143 c3 -13 2 -37 -1 -53 -6 -27 -8 -28 -19 -13 -10 13 -10 28 -3 58 11
43 16 45 23 8z"/>
<path d="M1934 2122 c-32 -21 -74 -54 -93 -73 -47 -48 -107 -141 -131 -205
-11 -30 -31 -77 -46 -105 -14 -28 -23 -53 -21 -55 3 -3 20 14 38 38 18 24 72
84 119 133 61 64 103 120 144 193 32 56 56 105 54 107 -3 3 -31 -12 -64 -33z
m-70 -140 c-18 -32 -60 -80 -87 -102 -17 -12 -16 -9 3 25 34 62 70 105 86 105
13 0 13 -4 -2 -28z"/>
<path d="M890 2138 c0 -7 35 -46 77 -87 69 -66 78 -71 81 -51 7 46 -7 67 -76
109 -74 45 -82 47 -82 29z"/>
<path d="M829 2052 c19 -36 94 -94 169 -130 40 -19 75 -32 79 -29 12 12 -26
53 -100 111 -56 42 -88 59 -118 63 -39 6 -41 5 -30 -15z"/>
<path d="M1960 1997 c-18 -36 -73 -102 -187 -219 -205 -210 -213 -231 -50
-131 124 77 260 211 277 272 11 43 6 131 -8 131 -4 -1 -18 -24 -32 -53z"/>
<path d="M566 2028 c-28 -10 -29 -11 -22 -71 9 -91 67 -177 128 -192 28 -7 28
-7 13 21 -19 37 -19 94 0 121 22 31 87 47 129 33 18 -6 57 -36 88 -68 47 -50
63 -60 109 -70 31 -7 84 -26 118 -43 35 -16 66 -28 68 -26 2 2 -20 28 -49 56
-38 37 -82 66 -154 100 -56 27 -122 67 -146 89 -24 23 -57 46 -72 52 -35 13
-172 12 -210 -2z m172 -27 c23 -2 12 -21 -20 -34 -40 -17 -54 -33 -72 -83 -7
-21 -17 -38 -22 -38 -17 3 -41 64 -40 101 1 34 5 39 36 50 19 7 51 10 70 8 19
-2 41 -4 48 -4z"/>
<path d="M2318 2016 c-21 -8 -56 -30 -79 -51 -23 -20 -87 -58 -143 -85 -59
-27 -120 -65 -146 -89 l-45 -42 55 27 c39 19 76 29 129 32 70 5 75 7 108 43
38 42 106 79 145 79 45 0 67 -29 81 -104 l13 -68 40 58 c44 64 73 126 77 163
2 21 -4 26 -48 37 -63 17 -139 17 -187 0z m175 -38 c19 -10 18 -20 -9 -85 -17
-39 -30 -42 -38 -9 -8 34 -47 68 -92 81 l-39 12 45 10 c47 10 103 7 133 -9z"/>
<path d="M747 1913 c-16 -4 -37 -40 -37 -62 0 -11 119 -41 160 -41 16 0 30 4
30 9 0 11 -87 91 -99 91 -5 0 -15 2 -23 4 -7 2 -21 2 -31 -1z"/>
<path d="M2285 1879 c-26 -15 -75 -61 -75 -70 0 -14 137 -4 155 11 9 8 15 24
13 39 -3 22 -9 26 -38 28 -19 2 -44 -2 -55 -8z"/>
<path d="M1255 1811 c-3 -12 -9 -21 -13 -21 -24 -1 -32 -18 -22 -47 8 -21 26
-39 63 -58 29 -16 83 -46 120 -68 37 -22 70 -37 74 -34 3 4 -6 22 -20 40 -33
43 -177 201 -187 205 -5 2 -11 -6 -15 -17z m55 -76 c17 -18 19 -25 9 -25 -18
0 -59 28 -59 41 0 17 26 9 50 -16z"/>
<path d="M748 1772 c47 -65 187 -178 265 -212 78 -35 227 -48 227 -20 0 13
-62 43 -145 70 -92 30 -137 53 -215 110 -108 79 -168 103 -132 52z"/>
<path d="M2350 1771 c-36 -27 -196 -113 -260 -139 -76 -32 -353 -102 -401
-102 -22 0 -39 -5 -39 -11 0 -12 18 -10 270 21 157 20 206 35 344 111 78 43
108 72 121 117 8 27 -2 28 -35 3z"/>
<path d="M1977 1750 c-26 -11 -89 -46 -140 -79 -50 -32 -116 -70 -144 -85 -29
-14 -53 -31 -53 -36 0 -6 2 -10 4 -10 25 0 162 40 273 79 76 27 149 52 163 56
14 4 60 24 104 43 95 43 86 51 -59 51 -76 0 -111 -5 -148 -19z m123 -24 c0 -2
-28 -14 -62 -26 -35 -12 -70 -25 -78 -28 -29 -10 -50 -12 -50 -4 0 11 90 53
100 47 5 -3 11 -1 15 5 6 9 75 15 75 6z"/>
<path d="M890 1753 c1 -13 109 -64 199 -94 47 -16 112 -47 145 -69 49 -31 77
-42 136 -50 49 -7 77 -7 84 0 13 13 17 9 -99 69 -55 28 -129 67 -165 86 -36
19 -87 41 -114 50 -51 15 -186 21 -186 8z"/>
<path d="M519 1716 c-36 -13 -71 -26 -78 -30 -28 -18 1 -149 49 -218 28 -42
111 -104 149 -113 22 -5 40 1 76 24 27 17 64 36 83 42 l34 11 -98 38 c-55 20
-122 49 -151 63 -29 15 -54 27 -56 27 -3 0 -7 -14 -11 -31 -8 -39 -30 -33 -34
9 -3 25 0 31 12 26 9 -3 16 -1 16 5 0 36 114 88 220 100 l65 7 -65 32 c-78 38
-121 40 -211 8z m61 -36 c0 -5 -4 -10 -8 -10 -5 0 -27 -16 -50 -36 -34 -29
-43 -33 -48 -20 -10 25 3 46 38 61 39 17 68 19 68 5z m49 -211 c39 -18 71 -35
71 -39 0 -4 -9 -15 -19 -24 -28 -26 -75 -12 -122 35 -38 38 -43 59 -15 59 8 0
45 -14 85 -31z"/>
<path d="M2475 1704 c-27 -8 -60 -18 -73 -21 -32 -8 -38 -23 -9 -23 34 0 102
-25 138 -51 16 -11 38 -38 49 -59 19 -38 19 -38 -2 -56 -16 -14 -20 -15 -16
-4 3 8 2 22 -1 31 -5 13 -24 7 -118 -38 l-113 -55 26 -34 c15 -19 35 -34 45
-34 30 0 135 57 179 96 39 35 92 130 106 186 6 25 2 29 -37 46 -65 28 -117 32
-174 16z m119 -38 c44 -18 50 -29 35 -71 l-13 -34 -21 29 c-12 16 -34 39 -49
51 -21 17 -25 24 -14 30 18 12 23 11 62 -5z m-59 -206 c-3 -5 -13 -10 -21 -10
-8 0 -14 -4 -14 -9 0 -10 -89 -45 -96 -38 -9 9 50 44 65 39 8 -3 11 0 7 6 -6
9 12 16 52 21 7 0 10 -3 7 -9z"/>
<path d="M675 1626 c-70 -18 -107 -35 -101 -45 3 -4 26 -14 51 -21 36 -10 57
-10 104 0 33 7 91 11 131 8 69 -4 70 -3 48 14 -72 56 -137 68 -233 44z"/>
<path d="M2300 1626 c-105 -41 -223 -95 -208 -96 9 0 63 11 119 25 105 25 130
25 206 -6 25 -10 39 -10 74 0 l43 13 -25 19 c-53 41 -160 64 -209 45z"/>
<path d="M1497 1550 c-23 -27 -21 -32 8 -18 14 6 25 17 25 25 0 19 -13 16 -33
-7z"/>
<path d="M771 1536 c-53 -19 -49 -33 15 -52 56 -16 60 -16 138 6 45 13 85 26
90 31 21 19 -196 32 -243 15z"/>
<path d="M2225 1531 l-80 -17 50 -17 c117 -42 111 -41 160 -23 54 21 58 42 10
62 -40 17 -37 17 -140 -5z"/>
<path d="M1370 1509 c-36 -4 -123 -10 -195 -14 -98 -5 -149 -13 -208 -32 -42
-13 -75 -28 -72 -32 17 -29 225 -16 330 20 33 12 98 29 144 39 96 19 97 29 1
19z"/>
<path d="M1520 1510 c-13 -9 -13 -11 0 -19 17 -12 30 -5 30 15 0 16 -9 18 -30
4z"/>
<path d="M1741 1490 c38 -23 304 -80 375 -80 76 0 134 8 134 19 0 4 -33 20
-72 36 -71 29 -79 30 -263 32 -130 2 -185 0 -174 -7z"/>
<path d="M1340 1450 c-58 -16 -125 -36 -150 -45 -65 -23 -176 -35 -235 -24
-120 22 -120 22 -164 -1 -24 -12 -39 -25 -35 -29 15 -13 113 -31 171 -31 39 0
63 -6 84 -21 53 -37 88 -36 186 9 48 22 106 48 128 57 67 27 135 75 135 96 0
23 8 24 -120 -11z m-120 -90 c0 -5 -6 -10 -12 -10 -7 0 -26 -7 -41 -15 -40
-21 -92 -29 -113 -17 -15 9 -11 12 25 22 24 6 45 9 48 6 3 -2 21 2 41 9 46 17
52 17 52 5z"/>
<path d="M1620 1446 c0 -17 44 -50 60 -44 5 1 -6 16 -25 31 -26 20 -35 24 -35
13z"/>
<path d="M1720 1437 c0 -24 33 -44 125 -75 50 -17 112 -40 139 -52 36 -16 59
-20 90 -16 22 3 85 10 139 15 110 10 137 23 118 60 -17 30 -56 36 -116 17 -89
-28 -150 -22 -354 35 -117 32 -141 35 -141 16z"/>
<path d="M1550 1373 c1 -84 8 -110 88 -343 6 -19 30 54 31 96 2 50 -84 284
-110 300 -5 3 -9 -21 -9 -53z"/>
<path d="M1497 1366 c-14 -31 -33 -84 -42 -118 -24 -95 -63 -172 -108 -215
-67 -64 -158 -121 -233 -147 -38 -13 -97 -36 -132 -51 -80 -34 -103 -31 -115
15 -9 36 -6 90 7 125 5 11 -12 0 -37 -26 -54 -54 -80 -128 -75 -211 l3 -53 44
4 c66 4 147 28 188 55 21 13 66 50 101 83 34 32 65 57 67 54 3 -2 5 -42 5 -88
0 -47 4 -83 9 -81 9 3 107 126 149 185 12 17 29 51 38 75 19 54 100 214 128
251 15 20 22 51 27 110 4 45 6 83 4 85 -2 2 -14 -22 -28 -52z m-187 -432 c0
-9 -57 -89 -75 -104 -14 -12 -18 -12 -26 1 -18 28 -8 47 39 78 46 30 62 37 62
25z m-402 -198 c-4 -5 -32 -11 -63 -14 l-55 -4 0 46 c0 26 5 57 11 68 11 20
14 18 63 -33 28 -30 48 -58 44 -63z"/>
<path d="M1627 1375 c14 -26 42 -90 63 -144 38 -100 96 -189 147 -227 37 -28
114 -67 119 -61 7 7 -32 99 -78 184 -32 58 -69 105 -150 186 -59 59 -112 107
-117 107 -5 0 2 -20 16 -45z m151 -166 c49 -55 133 -199 116 -199 -30 0 -112
87 -148 157 -15 30 -22 83 -11 83 3 0 22 -19 43 -41z"/>
<path d="M1366 1320 c-25 -27 -46 -54 -46 -61 0 -6 19 10 43 36 74 84 77 105
3 25z"/>
<path d="M1730 1364 c0 -3 23 -26 51 -51 77 -70 128 -155 208 -346 28 -67 45
-57 49 29 2 38 1 78 -2 90 -6 24 -229 256 -263 273 -24 12 -43 14 -43 5z"/>
<path d="M1410 1322 c0 -5 -24 -35 -53 -68 -29 -32 -62 -75 -74 -94 -25 -42
-59 -147 -50 -156 10 -10 74 35 112 78 19 23 43 64 54 92 23 63 36 156 21 156
-5 0 -10 -4 -10 -8z m-50 -142 c0 -21 -31 -71 -40 -65 -14 9 -12 23 8 50 18
26 32 32 32 15z"/>
<path d="M634 1284 c-75 -50 -114 -118 -114 -198 0 -50 3 -57 36 -84 42 -35
94 -52 161 -52 55 0 101 25 186 98 26 23 57 47 68 53 47 25 5 17 -92 -16 -59
-20 -134 -39 -173 -42 l-69 -6 7 42 c13 85 75 169 149 205 21 9 37 19 37 21 0
3 -35 5 -79 5 -68 0 -83 -4 -117 -26z m33 -61 c-32 -47 -44 -79 -48 -125 -3
-28 3 -43 29 -72 29 -34 40 -56 27 -56 -3 0 -21 6 -39 14 -51 21 -86 62 -86
99 0 56 66 158 115 177 30 12 31 4 2 -37z"/>
<path d="M1936 1261 c49 -48 89 -66 218 -97 28 -7 29 -6 22 21 -4 16 -14 44
-21 62 -13 30 -16 32 -40 23 -42 -16 -81 -12 -147 15 -34 14 -66 25 -72 25 -6
0 12 -22 40 -49z"/>
<path d="M2334 1304 c-6 -3 17 -34 52 -69 60 -62 71 -82 89 -167 6 -31 35 -39
35 -10 0 29 -28 122 -41 138 -20 24 -5 25 27 2 37 -26 69 -80 78 -132 9 -48
-13 -72 -85 -91 -57 -15 -72 -5 -39 30 l22 23 -59 12 c-32 7 -87 23 -123 37
-91 35 -244 83 -248 78 -2 -2 18 -15 45 -28 26 -14 82 -51 123 -83 41 -31 93
-65 115 -75 57 -26 163 -24 240 4 59 22 60 23 57 57 -2 19 -10 56 -18 82 -34
105 -198 222 -270 192z"/>
<path d="M1243 1270 c-99 -57 -165 -186 -149 -293 l7 -45 40 16 c25 10 41 23
43 36 21 109 34 149 71 224 24 48 43 88 41 89 -1 1 -25 -11 -53 -27z m-78
-177 c-4 -21 -9 -51 -11 -67 -5 -36 -12 -45 -23 -28 -14 22 17 129 38 132 2 0
0 -17 -4 -37z"/>
<path d="M835 1265 c-32 -13 -75 -41 -95 -61 l-35 -37 40 30 c51 38 105 59
178 68 31 4 57 11 57 16 0 18 -86 8 -145 -16z"/>
<path d="M2174 1271 c3 -4 23 -11 43 -15 51 -8 142 -51 177 -84 l29 -27 -17
27 c-25 39 -81 79 -134 94 -51 16 -106 19 -98 5z"/>
<path d="M883 1231 c-89 -25 -158 -74 -189 -133 -13 -26 -13 -28 3 -28 51 0
189 52 210 79 15 18 53 87 53 96 0 7 -4 6 -77 -14z m-10 -62 c-18 -18 -93 -49
-93 -38 0 13 61 49 85 49 14 0 16 -3 8 -11z"/>
<path d="M980 1197 c-45 -59 -40 -65 43 -47 37 8 63 21 90 47 20 21 37 40 37
43 0 3 -29 6 -65 7 l-66 1 -39 -51z"/>
<path d="M2206 1203 c21 -51 31 -61 78 -85 51 -26 148 -60 154 -53 7 6 -26 54
-57 82 -25 23 -120 73 -168 87 -22 7 -22 7 -7 -31z"/>
<path d="M1506 1189 c-18 -27 -21 -110 -5 -178 14 -64 50 -142 63 -138 6 1 21
23 34 49 l23 45 -36 109 c-43 129 -55 146 -79 113z m69 -201 c8 -40 -8 -60
-24 -29 -6 10 -13 45 -16 77 l-6 59 20 -35 c10 -20 22 -52 26 -72z"/>
<path d="M999 1082 c-70 -49 -99 -99 -99 -174 0 -46 3 -58 15 -58 12 0 112 56
133 75 2 2 4 38 6 81 1 44 6 87 10 97 12 26 -5 21 -65 -21z m15 -58 c14 -37 5
-71 -28 -103 -19 -19 -39 -30 -46 -26 -21 13 0 81 38 126 20 23 28 24 36 3z"/>
<path d="M1697 1073 c-8 -60 -46 -150 -83 -199 -33 -42 -34 -48 -24 -80 6 -19
18 -34 26 -34 16 0 75 78 104 137 24 52 27 141 5 183 -9 17 -17 30 -19 30 -2
0 -6 -17 -9 -37z"/>
<path d="M2069 1092 c6 -11 11 -51 11 -89 l0 -68 61 -48 c34 -27 67 -51 75
-54 22 -8 27 41 10 100 -16 56 -68 117 -136 160 l-33 21 12 -22z m80 -92 c10
-5 26 -28 35 -50 28 -71 19 -78 -36 -27 -29 26 -35 38 -31 60 6 30 7 31 32 17z"/>
<path d="M1436 1065 c-10 -22 -20 -59 -23 -82 -7 -51 13 -161 33 -188 15 -20
15 -20 34 5 24 30 25 64 5 121 -9 24 -19 76 -24 114 l-7 70 -18 -40z"/>
<path d="M1361 893 c-11 -21 -49 -76 -85 -121 -61 -77 -85 -124 -53 -106 43
25 125 84 138 100 11 13 18 43 21 92 2 39 2 72 1 72 -1 0 -11 -17 -22 -37z"/>
<path d="M1736 838 c-12 -46 -6 -74 22 -100 32 -30 73 -58 85 -58 4 0 -13 41
-39 90 -26 50 -50 90 -54 90 -4 0 -10 -10 -14 -22z"/>
<path d="M1092 776 c-57 -79 -77 -222 -44 -307 10 -26 12 -26 68 -17 121 19
213 97 222 189 l5 49 -82 -41 c-47 -24 -86 -38 -90 -33 -14 15 -31 100 -31
153 0 28 -4 51 -8 51 -5 0 -23 -20 -40 -44z m18 -92 c0 -30 33 -85 59 -98 23
-12 31 -12 61 5 42 22 60 24 60 5 0 -18 -90 -96 -111 -96 -10 0 -21 -4 -24
-10 -3 -5 -24 -10 -45 -10 -34 0 -41 4 -46 26 -9 36 2 149 18 173 15 25 28 27
28 5z"/>
<path d="M1509 780 c-34 -65 -33 -164 3 -242 15 -32 32 -58 37 -58 31 0 80
121 81 198 0 29 -3 32 -20 27 -16 -5 -24 4 -48 57 l-29 63 -24 -45z m56 -92
c15 -13 25 -32 25 -47 0 -35 -18 -99 -31 -106 -13 -9 -37 51 -39 100 -4 84 2
91 45 53z"/>
<path d="M1940 739 c0 -58 -14 -129 -26 -129 -2 0 -38 17 -79 37 -88 44 -99
39 -92 -40 4 -49 29 -86 72 -110 26 -14 131 -36 171 -37 27 0 32 4 38 31 17
86 -5 203 -50 266 l-34 48 0 -66z m49 -151 c1 -29 3 -62 4 -73 2 -16 -5 -21
-32 -23 -81 -8 -181 49 -181 104 0 30 5 30 70 0 l51 -24 37 37 c20 21 40 36
43 35 3 -2 7 -27 8 -56z"/>
<path d="M1392 729 c-17 -71 -15 -107 8 -181 22 -71 61 -136 114 -187 l34 -33
50 41 c70 59 103 125 113 225 10 95 -4 194 -25 177 -8 -6 -16 -46 -19 -91 -9
-116 -24 -157 -79 -214 l-48 -50 -21 20 c-33 33 -70 150 -76 239 -8 115 -32
140 -51 54z"/>
<path d="M2966 303 c-7 -23 9 -84 17 -63 15 42 16 80 2 80 -7 0 -16 -8 -19
-17z"/>
<path d="M2939 240 c-3 -27 -9 -36 -27 -38 -15 -2 -32 -19 -50 -53 -15 -27
-30 -49 -34 -49 -5 0 -17 20 -29 45 -12 25 -23 44 -24 43 -1 -2 0 -22 3 -45 3
-36 8 -43 32 -48 41 -9 69 13 77 58 5 34 8 37 39 37 19 0 34 -4 34 -10 0 -5
-13 -10 -30 -10 -16 0 -30 -4 -30 -10 0 -5 12 -10 26 -10 21 0 24 -4 19 -20
-5 -14 -2 -20 9 -20 12 0 16 10 16 35 0 22 6 38 15 41 22 9 18 22 -7 26 -16 2
-25 12 -29 33 l-6 30 -4 -35z"/>
<path d="M2606 181 c-18 -20 -12 -51 9 -51 7 0 15 -5 17 -12 3 -7 9 -8 18 -3
10 6 6 12 -14 22 -33 17 -31 44 4 54 22 6 22 7 4 8 -11 1 -28 -7 -38 -18z"/>
<path d="M2813 160 c11 -28 13 -29 24 -13 16 20 17 37 3 28 -6 -4 -17 -2 -25
5 -12 10 -12 7 -2 -20z"/>
<path d="M2650 170 l-25 -7 28 -12 c43 -17 32 -46 -17 -45 -20 1 -34 -2 -29
-6 13 -12 116 -19 138 -10 16 7 12 9 -17 9 -36 1 -38 2 -38 35 0 40 -6 45 -40
36z"/>
<path d="M2700 161 c0 -4 11 -6 25 -3 15 2 25 0 25 -7 0 -6 -9 -11 -19 -11
-11 0 -23 -4 -26 -10 -4 -6 7 -10 24 -10 26 0 31 4 31 25 0 21 -5 25 -30 25
-16 0 -30 -4 -30 -9z"/>
</g>
</svg>
