<svg width="1920" height="1080" viewBox="0 0 1920 1080" fill="none" xmlns="http://www.w3.org/2000/svg">
<g clip-path="url(#clip0_3_3387)">
<path d="M988 605L907 620L1002 617L988 605Z" fill="#360690" stroke="#360690" stroke-linejoin="bevel"/>
<path d="M907 620L923 718L1002 617L907 620Z" fill="#4C16E7" stroke="#4C16E7" stroke-linejoin="bevel"/>
<path d="M907 620L904 707L923 718L907 620Z" fill="#410CB6" stroke="#410CB6" stroke-linejoin="bevel"/>
<path d="M907 620L875 670L904 707L907 620Z" fill="#4A14DD" stroke="#4A14DD" stroke-linejoin="bevel"/>
<path d="M923 718L1097 661L1002 617L923 718Z" fill="#360690" stroke="#360690" stroke-linejoin="bevel"/>
<path d="M1002 617L1087 604L988 605L1002 617Z" fill="#360690" stroke="#360690" stroke-linejoin="bevel"/>
<path d="M1097 661L1087 604L1002 617L1097 661Z" fill="#4812D3" stroke="#4812D3" stroke-linejoin="bevel"/>
<path d="M928 815L969 804L923 718L928 815Z" fill="#3E0AAC" stroke="#3E0AAC" stroke-linejoin="bevel"/>
<path d="M923 718L969 804L1097 661L923 718Z" fill="#330587" stroke="#330587" stroke-linejoin="bevel"/>
<path d="M928 815L923 718L904 707L928 815Z" fill="#4610C9" stroke="#4610C9" stroke-linejoin="bevel"/>
<path d="M850 493L806 606L907 620L850 493Z" fill="#4A14DD" stroke="#4A14DD" stroke-linejoin="bevel"/>
<path d="M907 620L806 606L875 670L907 620Z" fill="#3C09A3" stroke="#3C09A3" stroke-linejoin="bevel"/>
<path d="M803 857L928 815L904 707L803 857Z" fill="#330587" stroke="#330587" stroke-linejoin="bevel"/>
<path d="M974 470L907 620L988 605L974 470Z" fill="#410CB6" stroke="#410CB6" stroke-linejoin="bevel"/>
<path d="M731 749L904 707L875 670L731 749Z" fill="#430EC0" stroke="#430EC0" stroke-linejoin="bevel"/>
<path d="M1117 829L1124 675L1097 661L1117 829Z" fill="#4C16E7" stroke="#4C16E7" stroke-linejoin="bevel"/>
<path d="M1097 661L1124 675L1087 604L1097 661Z" fill="#4C16E7" stroke="#4C16E7" stroke-linejoin="bevel"/>
<path d="M1131 550L1107 547L1087 604L1131 550Z" fill="#390799" stroke="#390799" stroke-linejoin="bevel"/>
<path d="M1087 604L1107 547L988 605L1087 604Z" fill="#360690" stroke="#360690" stroke-linejoin="bevel"/>
<path d="M1107 547L974 470L988 605L1107 547Z" fill="#390799" stroke="#390799" stroke-linejoin="bevel"/>
<path d="M974 470L850 493L907 620L974 470Z" fill="#360690" stroke="#360690" stroke-linejoin="bevel"/>
<path d="M1124 675L1131 550L1087 604L1124 675Z" fill="#4C16E7" stroke="#4C16E7" stroke-linejoin="bevel"/>
<path d="M1107 547L1054 425L974 470L1107 547Z" fill="#390799" stroke="#390799" stroke-linejoin="bevel"/>
<path d="M715 564L731 688L806 606L715 564Z" fill="#3C09A3" stroke="#3C09A3" stroke-linejoin="bevel"/>
<path d="M806 606L731 688L875 670L806 606Z" fill="#4C16E7" stroke="#4C16E7" stroke-linejoin="bevel"/>
<path d="M1072 901L1117 829L969 804L1072 901Z" fill="#4610C9" stroke="#4610C9" stroke-linejoin="bevel"/>
<path d="M969 804L1117 829L1097 661L969 804Z" fill="#4610C9" stroke="#4610C9" stroke-linejoin="bevel"/>
<path d="M1124 675L1211 707L1131 550L1124 675Z" fill="#3C09A3" stroke="#3C09A3" stroke-linejoin="bevel"/>
<path d="M1054 425L918 423L974 470L1054 425Z" fill="#330587" stroke="#330587" stroke-linejoin="bevel"/>
<path d="M974 470L918 423L850 493L974 470Z" fill="#4610C9" stroke="#4610C9" stroke-linejoin="bevel"/>
<path d="M731 688V749L875 670L731 688Z" fill="#4C16E7" stroke="#4C16E7" stroke-linejoin="bevel"/>
<path d="M918 423L793 465L850 493L918 423Z" fill="#430EC0" stroke="#430EC0" stroke-linejoin="bevel"/>
<path d="M850 493L793 465L806 606L850 493Z" fill="#430EC0" stroke="#430EC0" stroke-linejoin="bevel"/>
<path d="M731 749L803 857L904 707L731 749Z" fill="#360690" stroke="#360690" stroke-linejoin="bevel"/>
<path d="M1048 952L1072 901L1028 963L1048 952Z" fill="#4812D3" stroke="#4812D3" stroke-linejoin="bevel"/>
<path d="M1141 406L1054 425L1107 547L1141 406Z" fill="#360690" stroke="#360690" stroke-linejoin="bevel"/>
<path d="M793 465L715 564L806 606L793 465Z" fill="#4C16E7" stroke="#4C16E7" stroke-linejoin="bevel"/>
<path d="M731 688L647 702L731 749V688Z" fill="#410CB6" stroke="#410CB6" stroke-linejoin="bevel"/>
<path d="M1188 800L1211 707L1124 675L1188 800Z" fill="#390799" stroke="#390799" stroke-linejoin="bevel"/>
<path d="M1072 901L969 804L1028 963L1072 901Z" fill="#390799" stroke="#390799" stroke-linejoin="bevel"/>
<path d="M1117 829L1188 800L1124 675L1117 829Z" fill="#4812D3" stroke="#4812D3" stroke-linejoin="bevel"/>
<path d="M1185 878L1188 800L1117 829L1185 878Z" fill="#4C16E7" stroke="#4C16E7" stroke-linejoin="bevel"/>
<path d="M749 958L823 896L803 857L749 958Z" fill="#4A14DD" stroke="#4A14DD" stroke-linejoin="bevel"/>
<path d="M803 857L823 896L928 815L803 857Z" fill="#4C16E7" stroke="#4C16E7" stroke-linejoin="bevel"/>
<path d="M1297 619L1186 492L1131 550L1297 619Z" fill="#4812D3" stroke="#4812D3" stroke-linejoin="bevel"/>
<path d="M1131 550L1186 492L1107 547L1131 550Z" fill="#390799" stroke="#390799" stroke-linejoin="bevel"/>
<path d="M715 564L672 654L731 688L715 564Z" fill="#360690" stroke="#360690" stroke-linejoin="bevel"/>
<path d="M918 423H773L793 465L918 423Z" fill="#4A14DD" stroke="#4A14DD" stroke-linejoin="bevel"/>
<path d="M793 465L699 498L715 564L793 465Z" fill="#3E0AAC" stroke="#3E0AAC" stroke-linejoin="bevel"/>
<path d="M715 564L572 650L672 654L715 564Z" fill="#3C09A3" stroke="#3C09A3" stroke-linejoin="bevel"/>
<path d="M709 472L699 498L793 465L709 472Z" fill="#4A14DD" stroke="#4A14DD" stroke-linejoin="bevel"/>
<path d="M773 423L709 472L793 465L773 423Z" fill="#4A14DD" stroke="#4A14DD" stroke-linejoin="bevel"/>
<path d="M1028 963L969 804L928 815L1028 963Z" fill="#3E0AAC" stroke="#3E0AAC" stroke-linejoin="bevel"/>
<path d="M1180 902L1185 878L1117 829L1180 902Z" fill="#4A14DD" stroke="#4A14DD" stroke-linejoin="bevel"/>
<path d="M1141 406L1112 387L1054 425L1141 406Z" fill="#360690" stroke="#360690" stroke-linejoin="bevel"/>
<path d="M1026 295L905 344L918 423L1026 295Z" fill="#3E0AAC" stroke="#3E0AAC" stroke-linejoin="bevel"/>
<path d="M918 423L905 344L773 423H918Z" fill="#330587" stroke="#330587" stroke-linejoin="bevel"/>
<path d="M1186 492L1141 406L1107 547L1186 492Z" fill="#3E0AAC" stroke="#3E0AAC" stroke-linejoin="bevel"/>
<path d="M572 650L647 702L672 654L572 650Z" fill="#3E0AAC" stroke="#3E0AAC" stroke-linejoin="bevel"/>
<path d="M672 654L647 702L731 688L672 654Z" fill="#4C16E7" stroke="#4C16E7" stroke-linejoin="bevel"/>
<path d="M731 749L684 849L803 857L731 749Z" fill="#4812D3" stroke="#4812D3" stroke-linejoin="bevel"/>
<path d="M823 896L1028 963L928 815L823 896Z" fill="#410CB6" stroke="#410CB6" stroke-linejoin="bevel"/>
<path d="M1026 295L918 423L1054 425L1026 295Z" fill="#4A14DD" stroke="#4A14DD" stroke-linejoin="bevel"/>
<path d="M1180 902L1117 829L1072 901L1180 902Z" fill="#4812D3" stroke="#4812D3" stroke-linejoin="bevel"/>
<path d="M1299 739L1297 619L1211 707L1299 739Z" fill="#4812D3" stroke="#4812D3" stroke-linejoin="bevel"/>
<path d="M1180 902L1072 901L1199 957L1180 902Z" fill="#3E0AAC" stroke="#3E0AAC" stroke-linejoin="bevel"/>
<path d="M1199 957L1072 901L1194 980L1199 957Z" fill="#00122D" stroke="#330587" stroke-linejoin="bevel"/>
<path d="M603 814L684 849L731 749L603 814Z" fill="#410CB6" stroke="#410CB6" stroke-linejoin="bevel"/>
<path d="M709 472L666 475L699 498L709 472Z" fill="#4610C9" stroke="#4610C9" stroke-linejoin="bevel"/>
<path d="M699 498L666 475L715 564L699 498Z" fill="#3E0AAC" stroke="#3E0AAC" stroke-linejoin="bevel"/>
<path d="M662 309L666 475L709 472L662 309Z" fill="#4C16E7" stroke="#4C16E7" stroke-linejoin="bevel"/>
<path d="M571 461L666 475L639 314L571 461Z" fill="#4C16E7" stroke="#4C16E7" stroke-linejoin="bevel"/>
<path d="M1299 739L1211 707L1188 800L1299 739Z" fill="#360690" stroke="#360690" stroke-linejoin="bevel"/>
<path d="M1211 707L1297 619L1131 550L1211 707Z" fill="#410CB6" stroke="#410CB6" stroke-linejoin="bevel"/>
<path d="M1186 492L1216 401L1141 406L1186 492Z" fill="#3C09A3" stroke="#3C09A3" stroke-linejoin="bevel"/>
<path d="M1299 739L1188 800L1355 834L1299 739Z" fill="#390799" stroke="#390799" stroke-linejoin="bevel"/>
<path d="M1355 834L1188 800L1185 878L1355 834Z" fill="#330587" stroke="#330587" stroke-linejoin="bevel"/>
<path d="M1251 426L1216 401L1186 492L1251 426Z" fill="#410CB6" stroke="#410CB6" stroke-linejoin="bevel"/>
<path d="M1141 406L1110 306L1112 387L1141 406Z" fill="#430EC0" stroke="#430EC0" stroke-linejoin="bevel"/>
<path d="M1112 387L1026 295L1054 425L1112 387Z" fill="#390799" stroke="#390799" stroke-linejoin="bevel"/>
<path d="M684 849L749 958L803 857L684 849Z" fill="#3E0AAC" stroke="#3E0AAC" stroke-linejoin="bevel"/>
<path d="M823 896L909 1031L1028 963L823 896Z" fill="#00122D" stroke="#360690" stroke-linejoin="bevel"/>
<path d="M1110 306L1026 295L1112 387L1110 306Z" fill="#390799" stroke="#390799" stroke-linejoin="bevel"/>
<path d="M1308 445L1251 426L1186 492L1308 445Z" fill="#4610C9" stroke="#4610C9" stroke-linejoin="bevel"/>
<path d="M849 1038L909 1031L823 896L849 1038Z" fill="#00122D" stroke="#4610C9" stroke-linejoin="bevel"/>
<path d="M1194 980L1072 901L1048 952L1194 980Z" fill="#00122D" stroke="#330587" stroke-linejoin="bevel"/>
<path d="M1218 313L1141 406L1216 401L1218 313Z" fill="#3E0AAC" stroke="#3E0AAC" stroke-linejoin="bevel"/>
<path d="M1218 313L1110 306L1141 406L1218 313Z" fill="#3E0AAC" stroke="#3E0AAC" stroke-linejoin="bevel"/>
<path d="M666 475L572 650L715 564L666 475Z" fill="#430EC0" stroke="#430EC0" stroke-linejoin="bevel"/>
<path d="M647 702L603 814L731 749L647 702Z" fill="#4A14DD" stroke="#4A14DD" stroke-linejoin="bevel"/>
<path d="M516 697L603 814L647 702L516 697Z" fill="#330587" stroke="#330587" stroke-linejoin="bevel"/>
<path d="M684 849L548 991L749 958L684 849Z" fill="#00122D" stroke="#4812D3" stroke-linejoin="bevel"/>
<path d="M1313 376L1247 403L1251 426L1313 376Z" fill="#410CB6" stroke="#410CB6" stroke-linejoin="bevel"/>
<path d="M1251 426L1247 403L1216 401L1251 426Z" fill="#330587" stroke="#330587" stroke-linejoin="bevel"/>
<path d="M1194 980L1048 952L1057 1080L1194 980Z" fill="#00122D" stroke="#4C16E7" stroke-linejoin="bevel"/>
<path d="M1180 902L1254 956L1185 878L1180 902Z" fill="#4C16E7" stroke="#4C16E7" stroke-linejoin="bevel"/>
<path d="M749 958L849 1038L823 896L749 958Z" fill="#00122D" stroke="#4C16E7" stroke-linejoin="bevel"/>
<path d="M1057 1080L1048 952L1028 963L1057 1080Z" fill="#00122D" stroke="#4812D3" stroke-linejoin="bevel"/>
<path d="M1199 957L1254 956L1180 902L1199 957Z" fill="#4812D3" stroke="#4812D3" stroke-linejoin="bevel"/>
<path d="M541 853L594 839L603 814L541 853Z" fill="#3C09A3" stroke="#3C09A3" stroke-linejoin="bevel"/>
<path d="M603 814L594 839L684 849L603 814Z" fill="#3C09A3" stroke="#3C09A3" stroke-linejoin="bevel"/>
<path d="M749 958L735 1016L849 1038L749 958Z" fill="#00122D" stroke="#390799" stroke-linejoin="bevel"/>
<path d="M1297 619L1308 445L1186 492L1297 619Z" fill="#4812D3" stroke="#4812D3" stroke-linejoin="bevel"/>
<path d="M1247 403L1218 313L1216 401L1247 403Z" fill="#4812D3" stroke="#4812D3" stroke-linejoin="bevel"/>
<path d="M1370 509L1308 445L1297 619L1370 509Z" fill="#410CB6" stroke="#410CB6" stroke-linejoin="bevel"/>
<path d="M973 202L835 254L905 344L973 202Z" fill="#330587" stroke="#330587" stroke-linejoin="bevel"/>
<path d="M905 344L835 254L773 423L905 344Z" fill="#4812D3" stroke="#4812D3" stroke-linejoin="bevel"/>
<path d="M973 202L905 344L1026 295L973 202Z" fill="#4C16E7" stroke="#4C16E7" stroke-linejoin="bevel"/>
<path d="M548 991L735 1016L749 958L548 991Z" fill="#00122D" stroke="#390799" stroke-linejoin="bevel"/>
<path d="M1194 980L1254 956L1199 957L1194 980Z" fill="#00122D" stroke="#4812D3" stroke-linejoin="bevel"/>
<path d="M833 1080H942L909 1031L833 1080Z" fill="#00122D" stroke="#4C16E7" stroke-linejoin="bevel"/>
<path d="M909 1031L942 1080L1028 963L909 1031Z" fill="#00122D" stroke="#3C09A3" stroke-linejoin="bevel"/>
<path d="M833 1080L909 1031L849 1038L833 1080Z" fill="#00122D" stroke="#4812D3" stroke-linejoin="bevel"/>
<path d="M1397 595L1380 594L1415 678L1397 595Z" fill="#4610C9" stroke="#4610C9" stroke-linejoin="bevel"/>
<path d="M1415 678L1380 594L1297 619L1415 678Z" fill="#4610C9" stroke="#4610C9" stroke-linejoin="bevel"/>
<path d="M662 309L709 472L773 423L662 309Z" fill="#4812D3" stroke="#4812D3" stroke-linejoin="bevel"/>
<path d="M666 475L557 480L572 650L666 475Z" fill="#410CB6" stroke="#410CB6" stroke-linejoin="bevel"/>
<path d="M1313 376L1218 313L1247 403L1313 376Z" fill="#360690" stroke="#360690" stroke-linejoin="bevel"/>
<path d="M1000 149L973 202L1026 295L1000 149Z" fill="#3E0AAC" stroke="#3E0AAC" stroke-linejoin="bevel"/>
<path d="M942 1080H1057L1028 963L942 1080Z" fill="#00122D" stroke="#3E0AAC" stroke-linejoin="bevel"/>
<path d="M1194 980L1217 1080L1254 956L1194 980Z" fill="#00122D" stroke="#3C09A3" stroke-linejoin="bevel"/>
<path d="M571 461L557 480L666 475L571 461Z" fill="#360690" stroke="#360690" stroke-linejoin="bevel"/>
<path d="M1254 956L1355 834L1185 878L1254 956Z" fill="#4C16E7" stroke="#4C16E7" stroke-linejoin="bevel"/>
<path d="M1380 594L1370 509L1297 619L1380 594Z" fill="#4610C9" stroke="#4610C9" stroke-linejoin="bevel"/>
<path d="M1308 445L1313 376L1251 426L1308 445Z" fill="#430EC0" stroke="#430EC0" stroke-linejoin="bevel"/>
<path d="M831 1080H833L849 1038L831 1080Z" fill="#00122D" stroke="#330587" stroke-linejoin="bevel"/>
<path d="M735 1016L831 1080L849 1038L735 1016Z" fill="#00122D" stroke="#4610C9" stroke-linejoin="bevel"/>
<path d="M487 578L516 697L572 650L487 578Z" fill="#330587" stroke="#330587" stroke-linejoin="bevel"/>
<path d="M572 650L516 697L647 702L572 650Z" fill="#410CB6" stroke="#410CB6" stroke-linejoin="bevel"/>
<path d="M1415 678L1297 619L1299 739L1415 678Z" fill="#430EC0" stroke="#430EC0" stroke-linejoin="bevel"/>
<path d="M1380 594L1397 595L1370 509L1380 594Z" fill="#3E0AAC" stroke="#3E0AAC" stroke-linejoin="bevel"/>
<path d="M1397 429L1313 376L1308 445L1397 429Z" fill="#430EC0" stroke="#430EC0" stroke-linejoin="bevel"/>
<path d="M1000 149L1026 295L1110 306L1000 149Z" fill="#390799" stroke="#390799" stroke-linejoin="bevel"/>
<path d="M639 314L662 309L641 308L639 314Z" fill="#4C16E7" stroke="#4C16E7" stroke-linejoin="bevel"/>
<path d="M721 252L662 309L773 423L721 252Z" fill="#330587" stroke="#330587" stroke-linejoin="bevel"/>
<path d="M571 461L538 398L557 480L571 461Z" fill="#360690" stroke="#360690" stroke-linejoin="bevel"/>
<path d="M475 802L541 853L603 814L475 802Z" fill="#360690" stroke="#360690" stroke-linejoin="bevel"/>
<path d="M594 839L534 936L684 849L594 839Z" fill="#410CB6" stroke="#410CB6" stroke-linejoin="bevel"/>
<path d="M1407 782L1415 678L1299 739L1407 782Z" fill="#360690" stroke="#360690" stroke-linejoin="bevel"/>
<path d="M721 252L773 423L835 254L721 252Z" fill="#360690" stroke="#360690" stroke-linejoin="bevel"/>
<path d="M662 309L639 314L666 475L662 309Z" fill="#4610C9" stroke="#4610C9" stroke-linejoin="bevel"/>
<path d="M779 147L721 252L835 254L779 147Z" fill="#4A14DD" stroke="#4A14DD" stroke-linejoin="bevel"/>
<path d="M1441 850L1407 782L1355 834L1441 850Z" fill="#360690" stroke="#360690" stroke-linejoin="bevel"/>
<path d="M1355 834L1407 782L1299 739L1355 834Z" fill="#410CB6" stroke="#410CB6" stroke-linejoin="bevel"/>
<path d="M675 193L641 308L662 309L675 193Z" fill="#4812D3" stroke="#4812D3" stroke-linejoin="bevel"/>
<path d="M639 314L538 398L571 461L639 314Z" fill="#330587" stroke="#330587" stroke-linejoin="bevel"/>
<path d="M472 526L487 578L557 480L472 526Z" fill="#4C16E7" stroke="#4C16E7" stroke-linejoin="bevel"/>
<path d="M557 480L487 578L572 650L557 480Z" fill="#4A14DD" stroke="#4A14DD" stroke-linejoin="bevel"/>
<path d="M516 697L475 802L603 814L516 697Z" fill="#4610C9" stroke="#4610C9" stroke-linejoin="bevel"/>
<path d="M973 202L889 184L835 254L973 202Z" fill="#3C09A3" stroke="#3C09A3" stroke-linejoin="bevel"/>
<path d="M1057 1080H1185L1194 980L1057 1080Z" fill="#00122D" stroke="#4812D3" stroke-linejoin="bevel"/>
<path d="M1399 934L1441 850L1355 834L1399 934Z" fill="#410CB6" stroke="#410CB6" stroke-linejoin="bevel"/>
<path d="M527 382L538 398L639 314L527 382Z" fill="#390799" stroke="#390799" stroke-linejoin="bevel"/>
<path d="M1502 549L1397 429L1370 509L1502 549Z" fill="#390799" stroke="#390799" stroke-linejoin="bevel"/>
<path d="M1370 509L1397 429L1308 445L1370 509Z" fill="#4C16E7" stroke="#4C16E7" stroke-linejoin="bevel"/>
<path d="M1000 149L1110 306L1095 97L1000 149Z" fill="#00122D" stroke="#360690" stroke-linejoin="bevel"/>
<path d="M1502 549L1370 509L1397 595L1502 549Z" fill="#390799" stroke="#390799" stroke-linejoin="bevel"/>
<path d="M1185 1080H1217L1194 980L1185 1080Z" fill="#00122D" stroke="#4610C9" stroke-linejoin="bevel"/>
<path d="M479 405L472 526L557 480L479 405Z" fill="#360690" stroke="#360690" stroke-linejoin="bevel"/>
<path d="M439 775L475 802L516 697L439 775Z" fill="#390799" stroke="#390799" stroke-linejoin="bevel"/>
<path d="M439 775L516 697L414 652L439 775Z" fill="#4812D3" stroke="#4812D3" stroke-linejoin="bevel"/>
<path d="M541 853L534 936L594 839L541 853Z" fill="#430EC0" stroke="#430EC0" stroke-linejoin="bevel"/>
<path d="M442 923L534 936L541 853L442 923Z" fill="#330587" stroke="#330587" stroke-linejoin="bevel"/>
<path d="M735 1016L638 1080H831L735 1016Z" fill="#00122D" stroke="#4C16E7" stroke-linejoin="bevel"/>
<path d="M499 218L527 382L639 314L499 218Z" fill="#430EC0" stroke="#430EC0" stroke-linejoin="bevel"/>
<path d="M538 398L479 405L557 480L538 398Z" fill="#330587" stroke="#330587" stroke-linejoin="bevel"/>
<path d="M479 405L527 382L429 352L479 405Z" fill="#330587" stroke="#330587" stroke-linejoin="bevel"/>
<path d="M1002 128L1000 149L1095 97L1002 128Z" fill="#00122D" stroke="#430EC0" stroke-linejoin="bevel"/>
<path d="M973 202L944 118L889 184L973 202Z" fill="#4812D3" stroke="#4812D3" stroke-linejoin="bevel"/>
<path d="M1110 306L1169 118L1095 97L1110 306Z" fill="#00122D" stroke="#4610C9" stroke-linejoin="bevel"/>
<path d="M944 118L866 150L889 184L944 118Z" fill="#410CB6" stroke="#410CB6" stroke-linejoin="bevel"/>
<path d="M889 184L866 150L835 254L889 184Z" fill="#4812D3" stroke="#4812D3" stroke-linejoin="bevel"/>
<path d="M499 218L639 314L641 308L499 218Z" fill="#4610C9" stroke="#4610C9" stroke-linejoin="bevel"/>
<path d="M1399 934L1355 834L1254 956L1399 934Z" fill="#4A14DD" stroke="#4A14DD" stroke-linejoin="bevel"/>
<path d="M1407 782L1483 672L1415 678L1407 782Z" fill="#360690" stroke="#360690" stroke-linejoin="bevel"/>
<path d="M1415 678L1483 672L1397 595L1415 678Z" fill="#360690" stroke="#360690" stroke-linejoin="bevel"/>
<path d="M1351 1080L1399 934L1254 956L1351 1080Z" fill="#00122D" stroke="#4A14DD" stroke-linejoin="bevel"/>
<path d="M418 960L548 991L534 936L418 960Z" fill="#00122D" stroke="#430EC0" stroke-linejoin="bevel"/>
<path d="M534 936L548 991L684 849L534 936Z" fill="#00122D" stroke="#4812D3" stroke-linejoin="bevel"/>
<path d="M1468 800L1483 672L1407 782L1468 800Z" fill="#360690" stroke="#360690" stroke-linejoin="bevel"/>
<path d="M548 991L638 1080L735 1016L548 991Z" fill="#00122D" stroke="#430EC0" stroke-linejoin="bevel"/>
<path d="M414 652L516 697L487 578L414 652Z" fill="#4C16E7" stroke="#4C16E7" stroke-linejoin="bevel"/>
<path d="M475 802L442 923L541 853L475 802Z" fill="#4C16E7" stroke="#4C16E7" stroke-linejoin="bevel"/>
<path d="M1296 238L1218 313L1313 376L1296 238Z" fill="#4610C9" stroke="#4610C9" stroke-linejoin="bevel"/>
<path d="M1000 149L944 118L973 202L1000 149Z" fill="#4A14DD" stroke="#4A14DD" stroke-linejoin="bevel"/>
<path d="M1480 860L1468 800L1441 850L1480 860Z" fill="#410CB6" stroke="#410CB6" stroke-linejoin="bevel"/>
<path d="M1441 850L1468 800L1407 782L1441 850Z" fill="#4610C9" stroke="#4610C9" stroke-linejoin="bevel"/>
<path d="M1468 800L1488 671L1483 672L1468 800Z" fill="#4C16E7" stroke="#4C16E7" stroke-linejoin="bevel"/>
<path d="M1483 672L1502 549L1397 595L1483 672Z" fill="#430EC0" stroke="#430EC0" stroke-linejoin="bevel"/>
<path d="M1559 411L1419 394L1397 429L1559 411Z" fill="#4812D3" stroke="#4812D3" stroke-linejoin="bevel"/>
<path d="M1397 429L1419 394L1313 376L1397 429Z" fill="#430EC0" stroke="#430EC0" stroke-linejoin="bevel"/>
<path d="M1002 128L944 118L1000 149L1002 128Z" fill="#3C09A3" stroke="#3C09A3" stroke-linejoin="bevel"/>
<path d="M675 193L662 309L721 252L675 193Z" fill="#4A14DD" stroke="#4A14DD" stroke-linejoin="bevel"/>
<path d="M527 382L479 405L538 398L527 382Z" fill="#4812D3" stroke="#4812D3" stroke-linejoin="bevel"/>
<path d="M372 524L414 652L487 578L372 524Z" fill="#3C09A3" stroke="#3C09A3" stroke-linejoin="bevel"/>
<path d="M890 0L779 147L866 150L890 0Z" fill="#00122D" stroke="#3E0AAC" stroke-linejoin="bevel"/>
<path d="M866 150L779 147L835 254L866 150Z" fill="#3E0AAC" stroke="#3E0AAC" stroke-linejoin="bevel"/>
<path d="M1362 287L1296 238L1313 376L1362 287Z" fill="#3E0AAC" stroke="#3E0AAC" stroke-linejoin="bevel"/>
<path d="M371 669L414 652L372 524L371 669Z" fill="#330587" stroke="#330587" stroke-linejoin="bevel"/>
<path d="M740 158L675 193L721 252L740 158Z" fill="#3C09A3" stroke="#3C09A3" stroke-linejoin="bevel"/>
<path d="M779 147L740 158L721 252L779 147Z" fill="#4610C9" stroke="#4610C9" stroke-linejoin="bevel"/>
<path d="M548 991L609 1080H638L548 991Z" fill="#00122D" stroke="#390799" stroke-linejoin="bevel"/>
<path d="M1419 394L1362 287L1313 376L1419 394Z" fill="#3E0AAC" stroke="#3E0AAC" stroke-linejoin="bevel"/>
<path d="M1488 671L1502 549L1483 672L1488 671Z" fill="#4C16E7" stroke="#4C16E7" stroke-linejoin="bevel"/>
<path d="M1526 296L1381 245L1362 287L1526 296Z" fill="#410CB6" stroke="#410CB6" stroke-linejoin="bevel"/>
<path d="M1399 934L1480 860L1441 850L1399 934Z" fill="#390799" stroke="#390799" stroke-linejoin="bevel"/>
<path d="M1604 753L1549 635L1488 671L1604 753Z" fill="#4812D3" stroke="#4812D3" stroke-linejoin="bevel"/>
<path d="M1488 671L1549 635L1502 549L1488 671Z" fill="#390799" stroke="#390799" stroke-linejoin="bevel"/>
<path d="M685 43L675 193L740 158L685 43Z" fill="#00122D" stroke="#3E0AAC" stroke-linejoin="bevel"/>
<path d="M685 43L634 182L675 193L685 43Z" fill="#00122D" stroke="#4610C9" stroke-linejoin="bevel"/>
<path d="M675 193L634 182L641 308L675 193Z" fill="#390799" stroke="#390799" stroke-linejoin="bevel"/>
<path d="M1169 118L1110 306L1218 313L1169 118Z" fill="#360690" stroke="#360690" stroke-linejoin="bevel"/>
<path d="M1002 128L1003 64L944 118L1002 128Z" fill="#00122D" stroke="#4812D3" stroke-linejoin="bevel"/>
<path d="M392 838L442 923L475 802L392 838Z" fill="#3E0AAC" stroke="#3E0AAC" stroke-linejoin="bevel"/>
<path d="M548 991L510 1080H609L548 991Z" fill="#00122D" stroke="#390799" stroke-linejoin="bevel"/>
<path d="M392 838L475 802L439 775L392 838Z" fill="#360690" stroke="#360690" stroke-linejoin="bevel"/>
<path d="M1217 1080H1351L1254 956L1217 1080Z" fill="#00122D" stroke="#390799" stroke-linejoin="bevel"/>
<path d="M1498 1028L1564 887L1480 860L1498 1028Z" fill="#00122D" stroke="#410CB6" stroke-linejoin="bevel"/>
<path d="M1296 238L1169 118L1218 313L1296 238Z" fill="#4610C9" stroke="#4610C9" stroke-linejoin="bevel"/>
<path d="M1300 187L1169 118L1296 238L1300 187Z" fill="#390799" stroke="#390799" stroke-linejoin="bevel"/>
<path d="M1381 245L1300 187L1296 238L1381 245Z" fill="#4610C9" stroke="#4610C9" stroke-linejoin="bevel"/>
<path d="M372 524L487 578L472 526L372 524Z" fill="#360690" stroke="#360690" stroke-linejoin="bevel"/>
<path d="M414 652L371 669L439 775L414 652Z" fill="#390799" stroke="#390799" stroke-linejoin="bevel"/>
<path d="M1392 221L1381 245L1526 296L1392 221Z" fill="#3C09A3" stroke="#3C09A3" stroke-linejoin="bevel"/>
<path d="M1362 287L1381 245L1296 238L1362 287Z" fill="#4A14DD" stroke="#4A14DD" stroke-linejoin="bevel"/>
<path d="M311 786L392 838L439 775L311 786Z" fill="#430EC0" stroke="#430EC0" stroke-linejoin="bevel"/>
<path d="M1604 753L1488 671L1468 800L1604 753Z" fill="#430EC0" stroke="#430EC0" stroke-linejoin="bevel"/>
<path d="M1526 296L1362 287L1419 394L1526 296Z" fill="#4812D3" stroke="#4812D3" stroke-linejoin="bevel"/>
<path d="M1095 97L1003 64L1002 128L1095 97Z" fill="#00122D" stroke="#410CB6" stroke-linejoin="bevel"/>
<path d="M944 118L890 0L866 150L944 118Z" fill="#00122D" stroke="#410CB6" stroke-linejoin="bevel"/>
<path d="M779 147L685 43L740 158L779 147Z" fill="#00122D" stroke="#4812D3" stroke-linejoin="bevel"/>
<path d="M1010 0L1003 64L1095 97L1010 0Z" fill="#00122D" stroke="#4A14DD" stroke-linejoin="bevel"/>
<path d="M366 446L472 526L479 405L366 446Z" fill="#3E0AAC" stroke="#3E0AAC" stroke-linejoin="bevel"/>
<path d="M366 446L372 524L472 526L366 446Z" fill="#330587" stroke="#330587" stroke-linejoin="bevel"/>
<path d="M1351 1080L1413 1052L1399 934L1351 1080Z" fill="#00122D" stroke="#410CB6" stroke-linejoin="bevel"/>
<path d="M499 218L429 352L527 382L499 218Z" fill="#3C09A3" stroke="#3C09A3" stroke-linejoin="bevel"/>
<path d="M1300 187L1219 105L1169 118L1300 187Z" fill="#330587" stroke="#330587" stroke-linejoin="bevel"/>
<path d="M1169 118L1123 0L1095 97L1169 118Z" fill="#00122D" stroke="#4812D3" stroke-linejoin="bevel"/>
<path d="M1344 144L1219 105L1300 187L1344 144Z" fill="#4C16E7" stroke="#4C16E7" stroke-linejoin="bevel"/>
<path d="M448 1080H510L548 991L448 1080Z" fill="#00122D" stroke="#330587" stroke-linejoin="bevel"/>
<path d="M418 960L534 936L442 923L418 960Z" fill="#3C09A3" stroke="#3C09A3" stroke-linejoin="bevel"/>
<path d="M1559 411L1397 429L1502 549L1559 411Z" fill="#3C09A3" stroke="#3C09A3" stroke-linejoin="bevel"/>
<path d="M1381 245L1392 221L1300 187L1381 245Z" fill="#3C09A3" stroke="#3C09A3" stroke-linejoin="bevel"/>
<path d="M353 922L418 960L442 923L353 922Z" fill="#410CB6" stroke="#410CB6" stroke-linejoin="bevel"/>
<path d="M429 352L366 446L479 405L429 352Z" fill="#4C16E7" stroke="#4C16E7" stroke-linejoin="bevel"/>
<path d="M234 591L258 659L371 669L234 591Z" fill="#410CB6" stroke="#410CB6" stroke-linejoin="bevel"/>
<path d="M510 141L499 218L634 182L510 141Z" fill="#330587" stroke="#330587" stroke-linejoin="bevel"/>
<path d="M634 182L499 218L641 308L634 182Z" fill="#3E0AAC" stroke="#3E0AAC" stroke-linejoin="bevel"/>
<path d="M257 438L329 492L366 446L257 438Z" fill="#390799" stroke="#390799" stroke-linejoin="bevel"/>
<path d="M353 922L442 923L392 838L353 922Z" fill="#4610C9" stroke="#4610C9" stroke-linejoin="bevel"/>
<path d="M353 922L409 981L418 960L353 922Z" fill="#00122D" stroke="#390799" stroke-linejoin="bevel"/>
<path d="M418 960L409 981L548 991L418 960Z" fill="#00122D" stroke="#3C09A3" stroke-linejoin="bevel"/>
<path d="M1392 221L1344 144L1300 187L1392 221Z" fill="#3C09A3" stroke="#3C09A3" stroke-linejoin="bevel"/>
<path d="M354 387L366 446L429 352L354 387Z" fill="#430EC0" stroke="#430EC0" stroke-linejoin="bevel"/>
<path d="M366 446L329 492L372 524L366 446Z" fill="#390799" stroke="#390799" stroke-linejoin="bevel"/>
<path d="M311 786L330 850L392 838L311 786Z" fill="#410CB6" stroke="#410CB6" stroke-linejoin="bevel"/>
<path d="M1498 1028L1480 860L1399 934L1498 1028Z" fill="#00122D" stroke="#4812D3" stroke-linejoin="bevel"/>
<path d="M1480 860L1564 887L1468 800L1480 860Z" fill="#3C09A3" stroke="#3C09A3" stroke-linejoin="bevel"/>
<path d="M1599 500L1502 549L1549 635L1599 500Z" fill="#4610C9" stroke="#4610C9" stroke-linejoin="bevel"/>
<path d="M1599 500L1559 411L1502 549L1599 500Z" fill="#3E0AAC" stroke="#3E0AAC" stroke-linejoin="bevel"/>
<path d="M1392 221L1417 79L1344 144L1392 221Z" fill="#00122D" stroke="#4610C9" stroke-linejoin="bevel"/>
<path d="M311 786L439 775L371 669L311 786Z" fill="#390799" stroke="#390799" stroke-linejoin="bevel"/>
<path d="M1564 887L1604 753L1468 800L1564 887Z" fill="#330587" stroke="#330587" stroke-linejoin="bevel"/>
<path d="M1484 1080L1498 1028L1413 1052L1484 1080Z" fill="#00122D" stroke="#4C16E7" stroke-linejoin="bevel"/>
<path d="M1413 1052L1498 1028L1399 934L1413 1052Z" fill="#00122D" stroke="#4812D3" stroke-linejoin="bevel"/>
<path d="M258 659L311 786L371 669L258 659Z" fill="#330587" stroke="#330587" stroke-linejoin="bevel"/>
<path d="M330 850L353 922L392 838L330 850Z" fill="#3C09A3" stroke="#3C09A3" stroke-linejoin="bevel"/>
<path d="M1123 0H1010L1095 97L1123 0Z" fill="#00122D" stroke="#390799" stroke-linejoin="bevel"/>
<path d="M1003 64L890 0L944 118L1003 64Z" fill="#00122D" stroke="#4610C9" stroke-linejoin="bevel"/>
<path d="M1123 0L1169 118L1199 0H1123Z" fill="#00122D" stroke="#4610C9" stroke-linejoin="bevel"/>
<path d="M384 242L354 387L429 352L384 242Z" fill="#430EC0" stroke="#430EC0" stroke-linejoin="bevel"/>
<path d="M1010 0H890L1003 64L1010 0Z" fill="#00122D" stroke="#360690" stroke-linejoin="bevel"/>
<path d="M340 1080H448L409 981L340 1080Z" fill="#00122D" stroke="#390799" stroke-linejoin="bevel"/>
<path d="M409 981L448 1080L548 991L409 981Z" fill="#00122D" stroke="#4812D3" stroke-linejoin="bevel"/>
<path d="M1659 661L1599 500L1549 635L1659 661Z" fill="#4812D3" stroke="#4812D3" stroke-linejoin="bevel"/>
<path d="M711 0L685 43L779 147L711 0Z" fill="#00122D" stroke="#430EC0" stroke-linejoin="bevel"/>
<path d="M1559 411L1526 296L1419 394L1559 411Z" fill="#390799" stroke="#390799" stroke-linejoin="bevel"/>
<path d="M1586 395L1526 296L1559 411L1586 395Z" fill="#4610C9" stroke="#4610C9" stroke-linejoin="bevel"/>
<path d="M1351 1080H1484L1413 1052L1351 1080Z" fill="#00122D" stroke="#330587" stroke-linejoin="bevel"/>
<path d="M1498 1028L1568 1021L1564 887L1498 1028Z" fill="#00122D" stroke="#3C09A3" stroke-linejoin="bevel"/>
<path d="M1199 0L1169 118L1219 105L1199 0Z" fill="#00122D" stroke="#3E0AAC" stroke-linejoin="bevel"/>
<path d="M1659 661L1635 692L1689 678L1659 661Z" fill="#4610C9" stroke="#4610C9" stroke-linejoin="bevel"/>
<path d="M1604 753L1635 692L1549 635L1604 753Z" fill="#4610C9" stroke="#4610C9" stroke-linejoin="bevel"/>
<path d="M627 0L510 141L634 182L627 0Z" fill="#00122D" stroke="#3E0AAC" stroke-linejoin="bevel"/>
<path d="M499 218L393 242L429 352L499 218Z" fill="#4812D3" stroke="#4812D3" stroke-linejoin="bevel"/>
<path d="M1636 456L1559 411L1599 500L1636 456Z" fill="#3E0AAC" stroke="#3E0AAC" stroke-linejoin="bevel"/>
<path d="M1636 456L1586 395L1559 411L1636 456Z" fill="#4610C9" stroke="#4610C9" stroke-linejoin="bevel"/>
<path d="M1484 1080H1494L1498 1028L1484 1080Z" fill="#00122D" stroke="#330587" stroke-linejoin="bevel"/>
<path d="M1689 678L1635 692H1702L1689 678Z" fill="#410CB6" stroke="#410CB6" stroke-linejoin="bevel"/>
<path d="M234 591L371 669L372 524L234 591Z" fill="#4C16E7" stroke="#4C16E7" stroke-linejoin="bevel"/>
<path d="M218 857L243 925L330 850L218 857Z" fill="#410CB6" stroke="#410CB6" stroke-linejoin="bevel"/>
<path d="M243 925L340 1080L353 922L243 925Z" fill="#00122D" stroke="#4812D3" stroke-linejoin="bevel"/>
<path d="M234 591L372 524L329 492L234 591Z" fill="#410CB6" stroke="#410CB6" stroke-linejoin="bevel"/>
<path d="M510 141L415 215L499 218L510 141Z" fill="#3E0AAC" stroke="#3E0AAC" stroke-linejoin="bevel"/>
<path d="M415 215L393 242L499 218L415 215Z" fill="#3E0AAC" stroke="#3E0AAC" stroke-linejoin="bevel"/>
<path d="M257 438L234 591L329 492L257 438Z" fill="#3C09A3" stroke="#3C09A3" stroke-linejoin="bevel"/>
<path d="M1311 0H1199L1219 105L1311 0Z" fill="#00122D" stroke="#4A14DD" stroke-linejoin="bevel"/>
<path d="M1311 0L1219 105L1344 144L1311 0Z" fill="#00122D" stroke="#330587" stroke-linejoin="bevel"/>
<path d="M890 0H711L779 147L890 0Z" fill="#00122D" stroke="#430EC0" stroke-linejoin="bevel"/>
<path d="M685 43L627 0L634 182L685 43Z" fill="#00122D" stroke="#330587" stroke-linejoin="bevel"/>
<path d="M1635 692L1604 753L1702 692H1635Z" fill="#4812D3" stroke="#4812D3" stroke-linejoin="bevel"/>
<path d="M1635 692L1659 661L1549 635L1635 692Z" fill="#4812D3" stroke="#4812D3" stroke-linejoin="bevel"/>
<path d="M415 215L384 242H393L415 215Z" fill="#360690" stroke="#360690" stroke-linejoin="bevel"/>
<path d="M393 242H384L429 352L393 242Z" fill="#4C16E7" stroke="#4C16E7" stroke-linejoin="bevel"/>
<path d="M1754 570L1636 456L1599 500L1754 570Z" fill="#410CB6" stroke="#410CB6" stroke-linejoin="bevel"/>
<path d="M1595 205L1531 241L1649 246L1595 205Z" fill="#4610C9" stroke="#4610C9" stroke-linejoin="bevel"/>
<path d="M1531 241L1526 296L1649 246L1531 241Z" fill="#3C09A3" stroke="#3C09A3" stroke-linejoin="bevel"/>
<path d="M1526 296L1531 241L1392 221L1526 296Z" fill="#330587" stroke="#330587" stroke-linejoin="bevel"/>
<path d="M1494 1080L1568 1021L1498 1028L1494 1080Z" fill="#00122D" stroke="#4610C9" stroke-linejoin="bevel"/>
<path d="M257 438L366 446L354 387L257 438Z" fill="#430EC0" stroke="#430EC0" stroke-linejoin="bevel"/>
<path d="M234 591L227 694L258 659L234 591Z" fill="#390799" stroke="#390799" stroke-linejoin="bevel"/>
<path d="M258 659L227 694L311 786L258 659Z" fill="#330587" stroke="#330587" stroke-linejoin="bevel"/>
<path d="M209 331L257 438L354 387L209 331Z" fill="#3E0AAC" stroke="#3E0AAC" stroke-linejoin="bevel"/>
<path d="M711 0H631L685 43L711 0Z" fill="#00122D" stroke="#410CB6" stroke-linejoin="bevel"/>
<path d="M292 244L384 242L353 157L292 244Z" fill="#410CB6" stroke="#410CB6" stroke-linejoin="bevel"/>
<path d="M292 244L302 260L384 242L292 244Z" fill="#3C09A3" stroke="#3C09A3" stroke-linejoin="bevel"/>
<path d="M1683 851L1604 753L1564 887L1683 851Z" fill="#3C09A3" stroke="#3C09A3" stroke-linejoin="bevel"/>
<path d="M1659 661L1754 570L1599 500L1659 661Z" fill="#4C16E7" stroke="#4C16E7" stroke-linejoin="bevel"/>
<path d="M631 0H627L685 43L631 0Z" fill="#00122D" stroke="#410CB6" stroke-linejoin="bevel"/>
<path d="M1505 142L1417 79L1392 221L1505 142Z" fill="#00122D" stroke="#3C09A3" stroke-linejoin="bevel"/>
<path d="M1672 953L1665 883L1564 887L1672 953Z" fill="#4812D3" stroke="#4812D3" stroke-linejoin="bevel"/>
<path d="M1347 0H1311L1344 144L1347 0Z" fill="#00122D" stroke="#390799" stroke-linejoin="bevel"/>
<path d="M243 925L353 922L330 850L243 925Z" fill="#4812D3" stroke="#4812D3" stroke-linejoin="bevel"/>
<path d="M353 922L340 1080L409 981L353 922Z" fill="#00122D" stroke="#360690" stroke-linejoin="bevel"/>
<path d="M1683 851L1702 692L1604 753L1683 851Z" fill="#330587" stroke="#330587" stroke-linejoin="bevel"/>
<path d="M1689 678L1754 570L1659 661L1689 678Z" fill="#4610C9" stroke="#4610C9" stroke-linejoin="bevel"/>
<path d="M1665 883L1683 851L1564 887L1665 883Z" fill="#390799" stroke="#390799" stroke-linejoin="bevel"/>
<path d="M1531 241L1505 142L1392 221L1531 241Z" fill="#4812D3" stroke="#4812D3" stroke-linejoin="bevel"/>
<path d="M1417 79L1347 0L1344 144L1417 79Z" fill="#00122D" stroke="#390799" stroke-linejoin="bevel"/>
<path d="M1595 205L1505 142L1531 241L1595 205Z" fill="#360690" stroke="#360690" stroke-linejoin="bevel"/>
<path d="M218 857L330 850L311 786L218 857Z" fill="#4812D3" stroke="#4812D3" stroke-linejoin="bevel"/>
<path d="M1494 1080H1590L1568 1021L1494 1080Z" fill="#00122D" stroke="#4C16E7" stroke-linejoin="bevel"/>
<path d="M1568 1021L1672 953L1564 887L1568 1021Z" fill="#00122D" stroke="#3C09A3" stroke-linejoin="bevel"/>
<path d="M1665 883L1786 900L1683 851L1665 883Z" fill="#4812D3" stroke="#4812D3" stroke-linejoin="bevel"/>
<path d="M227 694L218 857L311 786L227 694Z" fill="#3C09A3" stroke="#3C09A3" stroke-linejoin="bevel"/>
<path d="M1475 0H1347L1417 79L1475 0Z" fill="#00122D" stroke="#410CB6" stroke-linejoin="bevel"/>
<path d="M454 62L415 215L510 141L454 62Z" fill="#00122D" stroke="#430EC0" stroke-linejoin="bevel"/>
<path d="M384 242L302 260L354 387L384 242Z" fill="#4610C9" stroke="#4610C9" stroke-linejoin="bevel"/>
<path d="M1590 1080L1672 953L1568 1021L1590 1080Z" fill="#00122D" stroke="#4812D3" stroke-linejoin="bevel"/>
<path d="M1777 715L1754 570L1702 692L1777 715Z" fill="#430EC0" stroke="#430EC0" stroke-linejoin="bevel"/>
<path d="M530 0L454 62L510 141L530 0Z" fill="#00122D" stroke="#4610C9" stroke-linejoin="bevel"/>
<path d="M353 157L384 242L415 215L353 157Z" fill="#330587" stroke="#330587" stroke-linejoin="bevel"/>
<path d="M209 331L205 433L257 438L209 331Z" fill="#4C16E7" stroke="#4C16E7" stroke-linejoin="bevel"/>
<path d="M627 0H530L510 141L627 0Z" fill="#00122D" stroke="#3E0AAC" stroke-linejoin="bevel"/>
<path d="M1649 246L1526 296L1586 395L1649 246Z" fill="#410CB6" stroke="#410CB6" stroke-linejoin="bevel"/>
<path d="M1505 142L1483 72L1417 79L1505 142Z" fill="#00122D" stroke="#390799" stroke-linejoin="bevel"/>
<path d="M1649 246L1586 395L1760 398L1649 246Z" fill="#360690" stroke="#360690" stroke-linejoin="bevel"/>
<path d="M454 62L353 157L415 215L454 62Z" fill="#00122D" stroke="#4C16E7" stroke-linejoin="bevel"/>
<path d="M257 438L205 433L234 591L257 438Z" fill="#390799" stroke="#390799" stroke-linejoin="bevel"/>
<path d="M133 607L151 719L227 694L133 607Z" fill="#4610C9" stroke="#4610C9" stroke-linejoin="bevel"/>
<path d="M227 694L151 719L218 857L227 694Z" fill="#410CB6" stroke="#410CB6" stroke-linejoin="bevel"/>
<path d="M209 331L354 387L302 260L209 331Z" fill="#330587" stroke="#330587" stroke-linejoin="bevel"/>
<path d="M1568 0L1483 72L1505 142L1568 0Z" fill="#00122D" stroke="#4812D3" stroke-linejoin="bevel"/>
<path d="M1777 715L1702 692L1683 851L1777 715Z" fill="#4A14DD" stroke="#4A14DD" stroke-linejoin="bevel"/>
<path d="M1702 692L1754 570L1689 678L1702 692Z" fill="#3C09A3" stroke="#3C09A3" stroke-linejoin="bevel"/>
<path d="M1760 398L1586 395L1636 456L1760 398Z" fill="#330587" stroke="#330587" stroke-linejoin="bevel"/>
<path d="M1568 0H1475L1483 72L1568 0Z" fill="#00122D" stroke="#360690" stroke-linejoin="bevel"/>
<path d="M133 607L227 694L234 591L133 607Z" fill="#330587" stroke="#330587" stroke-linejoin="bevel"/>
<path d="M218 857L105 954L243 925L218 857Z" fill="#360690" stroke="#360690" stroke-linejoin="bevel"/>
<path d="M205 433L147 578L234 591L205 433Z" fill="#430EC0" stroke="#430EC0" stroke-linejoin="bevel"/>
<path d="M207 244L302 260L292 244H207Z" fill="#4610C9" stroke="#4610C9" stroke-linejoin="bevel"/>
<path d="M207 244L209 331L302 260L207 244Z" fill="#4610C9" stroke="#4610C9" stroke-linejoin="bevel"/>
<path d="M205 433L71 547L147 578L205 433Z" fill="#3E0AAC" stroke="#3E0AAC" stroke-linejoin="bevel"/>
<path d="M1821 768L1777 715L1683 851L1821 768Z" fill="#410CB6" stroke="#410CB6" stroke-linejoin="bevel"/>
<path d="M71 547L133 607L147 578L71 547Z" fill="#4610C9" stroke="#4610C9" stroke-linejoin="bevel"/>
<path d="M147 578L133 607L234 591L147 578Z" fill="#3C09A3" stroke="#3C09A3" stroke-linejoin="bevel"/>
<path d="M68 688L142 835L151 719L68 688Z" fill="#4A14DD" stroke="#4A14DD" stroke-linejoin="bevel"/>
<path d="M151 719L142 835L218 857L151 719Z" fill="#4610C9" stroke="#4610C9" stroke-linejoin="bevel"/>
<path d="M243 925L201 1080H340L243 925Z" fill="#00122D" stroke="#4C16E7" stroke-linejoin="bevel"/>
<path d="M1777 715L1788 572L1754 570L1777 715Z" fill="#410CB6" stroke="#410CB6" stroke-linejoin="bevel"/>
<path d="M1754 570L1760 398L1636 456L1754 570Z" fill="#360690" stroke="#360690" stroke-linejoin="bevel"/>
<path d="M1568 0L1505 142L1636 24L1568 0Z" fill="#00122D" stroke="#4610C9" stroke-linejoin="bevel"/>
<path d="M1483 72L1475 0L1417 79L1483 72Z" fill="#00122D" stroke="#4C16E7" stroke-linejoin="bevel"/>
<path d="M1794 412L1760 398L1754 570L1794 412Z" fill="#330587" stroke="#330587" stroke-linejoin="bevel"/>
<path d="M1636 24L1505 142L1595 205L1636 24Z" fill="#00122D" stroke="#3E0AAC" stroke-linejoin="bevel"/>
<path d="M156 312L144 400L209 331L156 312Z" fill="#4C16E7" stroke="#4C16E7" stroke-linejoin="bevel"/>
<path d="M209 331L144 400L205 433L209 331Z" fill="#330587" stroke="#330587" stroke-linejoin="bevel"/>
<path d="M240 73L292 244L353 157L240 73Z" fill="#00122D" stroke="#330587" stroke-linejoin="bevel"/>
<path d="M240 73L207 244H292L240 73Z" fill="#00122D" stroke="#360690" stroke-linejoin="bevel"/>
<path d="M349 0L353 157L454 62L349 0Z" fill="#00122D" stroke="#4610C9" stroke-linejoin="bevel"/>
<path d="M1793 959L1786 900L1672 953L1793 959Z" fill="#3C09A3" stroke="#3C09A3" stroke-linejoin="bevel"/>
<path d="M1672 953L1786 900L1665 883L1672 953Z" fill="#3C09A3" stroke="#3C09A3" stroke-linejoin="bevel"/>
<path d="M1777 715L1860 647L1788 572L1777 715Z" fill="#410CB6" stroke="#410CB6" stroke-linejoin="bevel"/>
<path d="M146 1045L201 1080L243 925L146 1045Z" fill="#00122D" stroke="#360690" stroke-linejoin="bevel"/>
<path d="M207 244L156 312L209 331L207 244Z" fill="#3C09A3" stroke="#3C09A3" stroke-linejoin="bevel"/>
<path d="M1786 900L1821 768L1683 851L1786 900Z" fill="#390799" stroke="#390799" stroke-linejoin="bevel"/>
<path d="M1788 572L1794 412L1754 570L1788 572Z" fill="#360690" stroke="#360690" stroke-linejoin="bevel"/>
<path d="M1842 375L1794 412L1920 451L1842 375Z" fill="#4610C9" stroke="#4610C9" stroke-linejoin="bevel"/>
<path d="M1760 398L1784 285L1649 246L1760 398Z" fill="#3C09A3" stroke="#3C09A3" stroke-linejoin="bevel"/>
<path d="M1794 412L1790 391L1760 398L1794 412Z" fill="#430EC0" stroke="#430EC0" stroke-linejoin="bevel"/>
<path d="M133 607L68 688L151 719L133 607Z" fill="#4610C9" stroke="#4610C9" stroke-linejoin="bevel"/>
<path d="M105 954L146 1045L243 925L105 954Z" fill="#00122D" stroke="#430EC0" stroke-linejoin="bevel"/>
<path d="M71 547L68 688L133 607L71 547Z" fill="#390799" stroke="#390799" stroke-linejoin="bevel"/>
<path d="M71 547L205 433L144 400L71 547Z" fill="#4C16E7" stroke="#4C16E7" stroke-linejoin="bevel"/>
<path d="M1756 1080L1793 959L1672 953L1756 1080Z" fill="#00122D" stroke="#330587" stroke-linejoin="bevel"/>
<path d="M1920 748V727L1821 768L1920 748Z" fill="#4812D3" stroke="#4812D3" stroke-linejoin="bevel"/>
<path d="M0 483L71 547L144 400L0 483Z" fill="#4610C9" stroke="#4610C9" stroke-linejoin="bevel"/>
<path d="M530 0H349L454 62L530 0Z" fill="#00122D" stroke="#4610C9" stroke-linejoin="bevel"/>
<path d="M207 244L127 228L156 312L207 244Z" fill="#360690" stroke="#360690" stroke-linejoin="bevel"/>
<path d="M105 954L218 857L142 835L105 954Z" fill="#410CB6" stroke="#410CB6" stroke-linejoin="bevel"/>
<path d="M1781 132L1595 205L1649 246L1781 132Z" fill="#410CB6" stroke="#410CB6" stroke-linejoin="bevel"/>
<path d="M62 952L105 954L142 835L62 952Z" fill="#430EC0" stroke="#430EC0" stroke-linejoin="bevel"/>
<path d="M1920 693L1860 647L1920 727V693Z" fill="#330587" stroke="#330587" stroke-linejoin="bevel"/>
<path d="M1821 768L1860 647L1777 715L1821 768Z" fill="#410CB6" stroke="#410CB6" stroke-linejoin="bevel"/>
<path d="M1842 375L1784 285L1790 391L1842 375Z" fill="#4C16E7" stroke="#4C16E7" stroke-linejoin="bevel"/>
<path d="M1590 1080H1756L1672 953L1590 1080Z" fill="#00122D" stroke="#4610C9" stroke-linejoin="bevel"/>
<path d="M1842 375L1790 391L1794 412L1842 375Z" fill="#4C16E7" stroke="#4C16E7" stroke-linejoin="bevel"/>
<path d="M1790 391L1784 285L1760 398L1790 391Z" fill="#430EC0" stroke="#430EC0" stroke-linejoin="bevel"/>
<path d="M1857 234L1782 249L1784 285L1857 234Z" fill="#3C09A3" stroke="#3C09A3" stroke-linejoin="bevel"/>
<path d="M1784 285L1782 249L1649 246L1784 285Z" fill="#4610C9" stroke="#4610C9" stroke-linejoin="bevel"/>
<path d="M1756 1080H1775L1793 959L1756 1080Z" fill="#00122D" stroke="#330587" stroke-linejoin="bevel"/>
<path d="M1793 959L1839 995L1786 900L1793 959Z" fill="#00122D" stroke="#4A14DD" stroke-linejoin="bevel"/>
<path d="M349 0L240 73L353 157L349 0Z" fill="#00122D" stroke="#3E0AAC" stroke-linejoin="bevel"/>
<path d="M156 312L61 336L144 400L156 312Z" fill="#390799" stroke="#390799" stroke-linejoin="bevel"/>
<path d="M1782 249L1773 216L1649 246L1782 249Z" fill="#360690" stroke="#360690" stroke-linejoin="bevel"/>
<path d="M1781 132L1636 24L1595 205L1781 132Z" fill="#00122D" stroke="#330587" stroke-linejoin="bevel"/>
<path d="M1857 234L1781 132L1773 216L1857 234Z" fill="#4A14DD" stroke="#4A14DD" stroke-linejoin="bevel"/>
<path d="M1920 451L1794 412L1788 572L1920 451Z" fill="#4812D3" stroke="#4812D3" stroke-linejoin="bevel"/>
<path d="M184 85L127 228L207 244L184 85Z" fill="#00122D" stroke="#4812D3" stroke-linejoin="bevel"/>
<path d="M0 855L62 952L142 835L0 855Z" fill="#360690" stroke="#360690" stroke-linejoin="bevel"/>
<path d="M105 954L47 1080L146 1045L105 954Z" fill="#00122D" stroke="#3E0AAC" stroke-linejoin="bevel"/>
<path d="M0 854L142 835L68 688L0 854Z" fill="#410CB6" stroke="#410CB6" stroke-linejoin="bevel"/>
<path d="M1775 1080L1839 995L1793 959L1775 1080Z" fill="#00122D" stroke="#330587" stroke-linejoin="bevel"/>
<path d="M127 228L61 336L156 312L127 228Z" fill="#4812D3" stroke="#4812D3" stroke-linejoin="bevel"/>
<path d="M0 572V711L68 688L0 572Z" fill="#3C09A3" stroke="#3C09A3" stroke-linejoin="bevel"/>
<path d="M349 0H266L240 73L349 0Z" fill="#00122D" stroke="#410CB6" stroke-linejoin="bevel"/>
<path d="M240 73L184 85L207 244L240 73Z" fill="#00122D" stroke="#410CB6" stroke-linejoin="bevel"/>
<path d="M127 228L0 291L61 336L127 228Z" fill="#4A14DD" stroke="#4A14DD" stroke-linejoin="bevel"/>
<path d="M0 572L68 688L71 547L0 572Z" fill="#330587" stroke="#330587" stroke-linejoin="bevel"/>
<path d="M0 560V572L71 547L0 560Z" fill="#4812D3" stroke="#4812D3" stroke-linejoin="bevel"/>
<path d="M196 0L184 85L240 73L196 0Z" fill="#00122D" stroke="#4610C9" stroke-linejoin="bevel"/>
<path d="M0 483V560L71 547L0 483Z" fill="#430EC0" stroke="#430EC0" stroke-linejoin="bevel"/>
<path d="M1920 727L1860 647L1821 768L1920 727Z" fill="#330587" stroke="#330587" stroke-linejoin="bevel"/>
<path d="M1860 647L1920 576L1788 572L1860 647Z" fill="#4A14DD" stroke="#4A14DD" stroke-linejoin="bevel"/>
<path d="M1920 748L1821 768L1920 863V748Z" fill="#4812D3" stroke="#4812D3" stroke-linejoin="bevel"/>
<path d="M1920 693V576L1860 647L1920 693Z" fill="#330587" stroke="#330587" stroke-linejoin="bevel"/>
<path d="M1920 863L1821 768L1786 900L1920 863Z" fill="#3E0AAC" stroke="#3E0AAC" stroke-linejoin="bevel"/>
<path d="M61 336L0 483L144 400L61 336Z" fill="#410CB6" stroke="#410CB6" stroke-linejoin="bevel"/>
<path d="M0 711V854L68 688L0 711Z" fill="#4A14DD" stroke="#4A14DD" stroke-linejoin="bevel"/>
<path d="M0 854V855L142 835L0 854Z" fill="#4A14DD" stroke="#4A14DD" stroke-linejoin="bevel"/>
<path d="M1720 25L1680 0L1636 24L1720 25Z" fill="#00122D" stroke="#4A14DD" stroke-linejoin="bevel"/>
<path d="M1636 24L1680 0H1568L1636 24Z" fill="#00122D" stroke="#4A14DD" stroke-linejoin="bevel"/>
<path d="M1781 132L1649 246L1773 216L1781 132Z" fill="#360690" stroke="#360690" stroke-linejoin="bevel"/>
<path d="M1857 234L1773 216L1782 249L1857 234Z" fill="#410CB6" stroke="#410CB6" stroke-linejoin="bevel"/>
<path d="M1857 234L1784 285L1920 296L1857 234Z" fill="#4610C9" stroke="#4610C9" stroke-linejoin="bevel"/>
<path d="M1920 576V451L1788 572L1920 576Z" fill="#360690" stroke="#360690" stroke-linejoin="bevel"/>
<path d="M1839 995L1920 863L1786 900L1839 995Z" fill="#00122D" stroke="#430EC0" stroke-linejoin="bevel"/>
<path d="M1781 132L1720 25L1636 24L1781 132Z" fill="#00122D" stroke="#360690" stroke-linejoin="bevel"/>
<path d="M1920 451V416L1842 375L1920 451Z" fill="#3C09A3" stroke="#3C09A3" stroke-linejoin="bevel"/>
<path d="M1920 296L1784 285L1842 375L1920 296Z" fill="#4812D3" stroke="#4812D3" stroke-linejoin="bevel"/>
<path d="M1781 132L1756 0L1720 25L1781 132Z" fill="#00122D" stroke="#4A14DD" stroke-linejoin="bevel"/>
<path d="M1756 0H1707L1720 25L1756 0Z" fill="#00122D" stroke="#430EC0" stroke-linejoin="bevel"/>
<path d="M1720 25L1707 0H1680L1720 25Z" fill="#00122D" stroke="#3C09A3" stroke-linejoin="bevel"/>
<path d="M0 1023L47 1080L62 952L0 1023Z" fill="#00122D" stroke="#4A14DD" stroke-linejoin="bevel"/>
<path d="M62 952L47 1080L105 954L62 952Z" fill="#00122D" stroke="#3E0AAC" stroke-linejoin="bevel"/>
<path d="M146 1045L47 1080H201L146 1045Z" fill="#00122D" stroke="#4812D3" stroke-linejoin="bevel"/>
<path d="M90 106L69 159L127 228L90 106Z" fill="#3E0AAC" stroke="#3E0AAC" stroke-linejoin="bevel"/>
<path d="M61 336L0 291V483L61 336Z" fill="#430EC0" stroke="#430EC0" stroke-linejoin="bevel"/>
<path d="M266 0H196L240 73L266 0Z" fill="#00122D" stroke="#4C16E7" stroke-linejoin="bevel"/>
<path d="M90 106L127 228L184 85L90 106Z" fill="#00122D" stroke="#4812D3" stroke-linejoin="bevel"/>
<path d="M0 227V291L127 228L0 227Z" fill="#330587" stroke="#330587" stroke-linejoin="bevel"/>
<path d="M0 855V1023L62 952L0 855Z" fill="#00122D" stroke="#4A14DD" stroke-linejoin="bevel"/>
<path d="M52 0L90 106L184 85L52 0Z" fill="#00122D" stroke="#330587" stroke-linejoin="bevel"/>
<path d="M69 159L0 227L127 228L69 159Z" fill="#330587" stroke="#330587" stroke-linejoin="bevel"/>
<path d="M1920 416V296L1842 375L1920 416Z" fill="#3E0AAC" stroke="#3E0AAC" stroke-linejoin="bevel"/>
<path d="M1920 62L1756 0L1781 132L1920 62Z" fill="#00122D" stroke="#360690" stroke-linejoin="bevel"/>
<path d="M1920 62L1781 132L1857 234L1920 62Z" fill="#00122D" stroke="#3C09A3" stroke-linejoin="bevel"/>
<path d="M1920 1080V1037L1839 995L1920 1080Z" fill="#00122D" stroke="#330587" stroke-linejoin="bevel"/>
<path d="M1839 995L1920 1037V863L1839 995Z" fill="#00122D" stroke="#390799" stroke-linejoin="bevel"/>
<path d="M0 1023V1080H47L0 1023Z" fill="#00122D" stroke="#410CB6" stroke-linejoin="bevel"/>
<path d="M0 182V227L69 159L0 182Z" fill="#4C16E7" stroke="#4C16E7" stroke-linejoin="bevel"/>
<path d="M1775 1080H1920L1839 995L1775 1080Z" fill="#00122D" stroke="#360690" stroke-linejoin="bevel"/>
<path d="M1920 296V232L1857 234L1920 296Z" fill="#390799" stroke="#390799" stroke-linejoin="bevel"/>
<path d="M0 49L69 159L90 106L0 49Z" fill="#00122D" stroke="#4610C9" stroke-linejoin="bevel"/>
<path d="M0 49V182L69 159L0 49Z" fill="#00122D" stroke="#390799" stroke-linejoin="bevel"/>
<path d="M196 0H52L184 85L196 0Z" fill="#00122D" stroke="#3E0AAC" stroke-linejoin="bevel"/>
<path d="M52 0L0 49L90 106L52 0Z" fill="#00122D" stroke="#330587" stroke-linejoin="bevel"/>
<path d="M1920 232V62L1857 234L1920 232Z" fill="#00122D" stroke="#4A14DD" stroke-linejoin="bevel"/>
<path d="M52 0H0V49L52 0Z" fill="#00122D" stroke="#4C16E7" stroke-linejoin="bevel"/>
<path d="M1920 62V0H1756L1920 62Z" fill="#00122D" stroke="#360690" stroke-linejoin="bevel"/>
</g>
<defs>
<clipPath id="clip0_3_3387">
<rect width="1920" height="1080" fill="white"/>
</clipPath>
</defs>
</svg>
