<svg width="1281" height="724" viewBox="0 0 1281 724" fill="none" xmlns="http://www.w3.org/2000/svg">
<rect width="1281" height="724" fill="#F5F5F5"/>
<rect width="1280" height="720" transform="translate(1 3)" fill="#201900"/>
<path d="M2 88.5L86 4.5M2 48L45.5 4.5" stroke="#3A2900"/>
<path d="M1.5 107.5L105.5 3.5M1.5 122.5L120.5 3.5" stroke="#3A2900"/>
<path d="M1.5 139L136.5 4" stroke="#3A2900"/>
<path d="M776 5.5L64.5 717M92 717L803.5 5.5M833 5.5L121.5 717M158.5 717L870 5.5M909 5.5L197.5 717H250.5L962 5.5M998.5 5.5L287 717M329.5 717L1041 5.5M1081.5 5.5L370 717M422 717L1133.5 5.5M1159.5 5.5L448 717M489 717L1200.5 5.5M1232 5.5L520.5 717" stroke="#3A2900"/>
<path d="M1 30.5L27.5 4" stroke="#3A2900"/>
<path d="M0.5 70.5L67.5 3.5" stroke="#3A2900"/>
<path d="M1 153.5L151 3.5M1 172L169.5 3.5M1 189L186.5 3.5M1 207.5L205 3.5M1 226L223.5 3.5M1 245L242.5 3.5M1 267.5L265 3.5" stroke="#3A2900"/>
<path d="M1 294L291 4M1 317.5L314.5 4M1 345L342 4M1 376L373 4M1 404L401 4M1 438L435 4M1 480.5L477.5 4M1 519L516 4M1 557.5L554.5 4M1 596L593 4M1 628L625 4M1 663.5L660.5 4M1 697L694 4M1 723.5L720.5 4" stroke="#3A2900"/>
<path d="M1 294L291 4M1 317.5L314.5 4M1 345L342 4M1 376L373 4M1 404L401 4M1 438L435 4M1 480.5L477.5 4M1 519L516 4M1 557.5L554.5 4M1 596L593 4M1 628L625 4M1 663.5L660.5 4M1 697L694 4M1 723.5L720.5 4" stroke="#3A2900"/>
<path d="M30.5 723.5L746 8" stroke="#3A2900"/>
<path d="M1277.79 637.696L1193.79 721.696M1277.79 678.196L1234.29 721.696" stroke="#3A2900"/>
<path d="M1278.38 618.605L1174.38 722.605M1278.38 603.605L1159.38 722.605" stroke="#3A2900"/>
<path d="M1278.43 587.062L1143.43 722.062" stroke="#3A2900"/>
<path d="M1279.24 655.749L1212.24 722.749" stroke="#3A2900"/>
<path d="M1279.27 572.219L1129.27 722.219M1279.27 553.719L1110.77 722.219M1279.27 536.719L1093.77 722.219M1279.27 518.219L1075.27 722.219M1279.27 499.719L1056.77 722.219M1279.27 480.719L1037.77 722.219M1279.27 458.219L1015.27 722.219" stroke="#3A2900"/>
<path d="M1280.5 430.5L990.5 720.5M1280.5 407L967 720.5M1280.5 379.5L939.5 720.5M1280.5 348.5L908.5 720.5M1280.5 320.5L880.5 720.5M1280.5 286.5L846.5 720.5M1280.5 244L804 720.5M1280.5 205.5L765.5 720.5M1280.5 167L727 720.5M1280.5 128.5L688.5 720.5M1280.5 96.5L656.5 720.5M1280.5 61L621 720.5M1280.5 27.5L587.5 720.5M1280.5 1L561 720.5" stroke="#3A2900"/>
</svg>
