<svg width="33" height="33" viewBox="0 0 33 33" fill="none" xmlns="http://www.w3.org/2000/svg">
<path fill-rule="evenodd" clip-rule="evenodd" d="M2.87868 0.804669C1.81236 1.06168 0.998223 1.84781 0.732647 2.87691C0.663622 3.14477 0.665877 30.3453 0.735027 30.6432C0.857417 31.1713 1.14867 31.6553 1.56019 32.0145C1.78556 32.2114 1.81662 32.2337 2.048 32.3643C2.32623 32.5215 2.36005 32.5365 2.67135 32.6397L2.94056 32.729H16.6666H30.3926L30.6128 32.6655C31.5403 32.3978 32.3571 31.6684 32.5554 30.931C32.5826 30.8294 32.6219 30.7012 32.6426 30.6458C32.6764 30.5558 32.6803 29.1058 32.6803 16.714V2.88269L32.6092 2.6481C32.3478 1.78692 31.4502 1.00091 30.458 0.764666C30.3168 0.731154 29.0964 0.727968 16.7441 0.729266L3.18522 0.7308L2.87868 0.804669ZM16.8086 2.16252C16.8465 2.18884 16.8505 2.30118 16.8561 3.48202L16.8623 4.77262L19.6868 4.77852C21.9301 4.78312 22.5153 4.7784 22.5307 4.75539C22.5415 4.73958 22.5503 4.33141 22.5506 3.84854C22.551 2.87738 22.5527 2.86652 22.7063 2.90287C22.7926 2.92328 22.7909 2.90452 22.7979 3.8417C22.8014 4.31571 22.8092 4.72164 22.815 4.74382C22.8252 4.78194 22.9672 4.78418 25.3675 4.78418H27.9092L27.9152 4.87056C27.9186 4.91811 27.9214 5.82296 27.9214 6.88144L27.9215 8.80594L29.3388 8.81184C30.8798 8.81833 30.8453 8.81526 30.8453 8.94424C30.8453 9.0731 30.8797 9.07003 29.3402 9.07652L27.9241 9.08254L27.9309 13.0576C27.9345 15.2438 27.9429 17.0407 27.9494 17.0508C27.9561 17.0608 28.5891 17.0679 29.3562 17.0666C30.65 17.0646 30.7545 17.0673 30.7981 17.1045C30.8594 17.1567 30.8577 17.2028 30.7921 17.2686L30.7389 17.3219H29.3363H27.9336V20.6176V23.9134H29.3388H30.7439L30.7922 23.9714C30.842 24.031 30.8392 24.1008 30.7853 24.1429C30.7657 24.1583 30.2641 24.1687 29.3505 24.1726L27.9459 24.1785L27.9336 26.1836L27.9215 28.1888L25.3707 28.1946L22.8201 28.2005V29.3221C22.8201 30.5555 22.8234 30.5281 22.6725 30.5281C22.5366 30.5281 22.5387 30.5471 22.5387 29.3317V28.2118H19.7005H16.8623L16.8588 29.8554C16.8547 31.6429 16.8609 31.5636 16.7277 31.5636C16.5801 31.5636 16.5903 31.7764 16.5818 28.5172L16.5809 28.2002H13.7556H10.9304L10.9236 29.3316L10.9169 30.463L10.8584 30.5075C10.7942 30.5565 10.7177 30.5472 10.6669 30.4844C10.6443 30.4564 10.6368 30.1725 10.6363 29.324L10.6354 28.2005L8.06029 28.1946L5.48508 28.1888L5.47293 26.1836L5.46065 24.1785L4.04145 24.1766C2.50712 24.1745 2.51238 24.1748 2.51238 24.0544C2.51238 23.9091 2.45714 23.9144 4.03105 23.9079L5.46065 23.9019L5.46679 20.612L5.47305 17.3219H4.03744C2.47442 17.3219 2.51238 17.325 2.51238 17.1952C2.51238 17.0542 2.47831 17.0575 4.01351 17.0501C4.78256 17.0463 5.42545 17.0388 5.44224 17.0335C5.46654 17.0257 5.47293 16.2079 5.47293 13.0473V9.07097H4.02592C2.43985 9.07097 2.51526 9.07758 2.51313 8.93893C2.51113 8.81113 2.51276 8.81101 4.05548 8.79898L5.47293 8.788L5.47318 6.8379C5.47343 5.76537 5.48019 4.86454 5.48821 4.8361L5.50299 4.78442L8.06305 4.77852L10.6232 4.77262L10.6354 3.87155C10.6487 2.89555 10.6489 2.89426 10.7822 2.89426C10.9088 2.89426 10.909 2.8952 10.9057 3.83414C10.9042 4.31418 10.9098 4.72435 10.9185 4.74559C10.9389 4.79551 16.5231 4.80625 16.576 4.75645C16.5982 4.73568 16.6055 4.4159 16.6055 3.4589C16.6055 2.5019 16.6126 2.18223 16.6348 2.16134C16.6728 2.12547 16.7563 2.12606 16.8086 2.16252ZM7.83994 5.03199L5.74176 5.03789L5.74803 6.91884L5.75429 8.79968L8.1887 8.79697L10.6232 8.79426V6.91507V5.03588L10.2806 5.03104C10.0923 5.02833 8.99394 5.0288 7.83994 5.03199ZM10.932 5.06078C10.9236 5.07978 10.9169 5.92762 10.9169 6.94481V8.79437L13.7484 8.80063C16.1086 8.80582 16.5822 8.80157 16.5927 8.77561C16.6295 8.68522 16.605 5.05913 16.5674 5.04556C16.4704 5.01051 10.9477 5.02538 10.932 5.06078ZM17.315 5.03635L16.8623 5.04921V6.92463V8.80004L19.6883 8.80299L22.5143 8.80594L22.5296 8.4832C22.5607 7.82864 22.5534 5.06821 22.5203 5.04261C22.4878 5.01735 18.169 5.01216 17.315 5.03635ZM22.8177 5.04331C22.804 5.20616 22.798 7.66804 22.8099 8.16648L22.8257 8.81762L25.2389 8.81184L27.6523 8.80594V6.91601V5.0262L25.2362 5.0203C23.3122 5.01558 22.8196 5.0203 22.8177 5.04331ZM5.7583 9.08631C5.7494 9.09481 5.74201 10.889 5.74201 13.0735V17.0453H8.1887H10.6354V13.0582V9.07097H8.20498C6.86833 9.07097 5.76732 9.07782 5.7583 9.08631ZM10.9248 9.35323C10.9201 9.50852 10.9164 10.7401 10.9165 12.0902L10.9169 14.5447H13.755H16.5932V11.8136V9.08254L13.7632 9.07664L10.9331 9.07074L10.9248 9.35323ZM16.8614 9.09965C16.855 9.11558 16.8526 10.3472 16.856 11.8366L16.8623 14.5447L19.6915 14.5505L22.5208 14.5564L22.5373 13.6978C22.5465 13.2256 22.5505 11.9939 22.5463 10.9609L22.5387 9.08254L19.7059 9.07664C17.4525 9.07192 16.8707 9.07663 16.8614 9.09965ZM22.8177 9.16891C22.8118 9.41802 22.8238 17.0334 22.8301 17.0394C22.8361 17.0451 25.9062 17.0499 27.2547 17.0464L27.6646 17.0453V13.0582V9.07097H25.2423H22.8201L22.8177 9.16891ZM10.9355 14.8415C10.9015 14.8934 10.8979 17.038 10.9319 17.0475C10.9506 17.0527 12.232 17.0517 13.7794 17.0453L16.5932 17.0338L16.5996 15.9519C16.6039 15.2129 16.5977 14.8624 16.58 14.8457C16.5476 14.8152 10.9556 14.811 10.9355 14.8415ZM17.1253 14.8271L16.8501 14.8343V15.9398V17.0453H19.6855H22.5208L22.5376 16.3482C22.5468 15.9647 22.5508 15.4643 22.5466 15.2361L22.5387 14.8212L19.9696 14.8206C18.5567 14.8202 17.2768 14.8231 17.1253 14.8271ZM5.74803 20.612L5.75429 23.9019H8.1887H10.6232L10.6294 20.612L10.6356 17.3219H8.1887H5.74189L5.74803 20.612ZM10.9209 17.339C10.9082 17.3589 10.9201 19.4898 10.9329 19.4959C10.9375 19.4981 12.2129 19.4947 13.7672 19.4883L16.5932 19.4768V18.4051V17.3334L13.7627 17.3276C12.2058 17.3243 10.927 17.3295 10.9209 17.339ZM16.8614 17.3506C16.8549 17.3665 16.8525 17.8546 16.856 18.4353L16.8623 19.4911L19.6869 19.489C21.2405 19.488 22.5135 19.4848 22.516 19.482C22.5185 19.4791 22.5247 18.9946 22.5297 18.4051L22.5387 17.3334L19.7059 17.3276C17.4525 17.3229 16.8707 17.3276 16.8614 17.3506ZM22.8201 20.6176V23.9134H25.2423H27.6646V20.6176V17.3219H25.2423H22.8201V20.6176ZM10.9254 20.946C10.9234 21.5957 10.9206 22.5265 10.9192 23.0146L10.9169 23.9019L13.7461 23.9078L16.5754 23.9137L16.5919 23.3085C16.6009 22.9758 16.605 22.0449 16.6008 21.24L16.5932 19.7765L13.7612 19.7706L10.929 19.7647L10.9254 20.946ZM16.8614 19.7936C16.855 19.8095 16.8525 20.7403 16.856 21.8622L16.8623 23.9019L19.6915 23.9078L22.5208 23.9137L22.5374 23.1011C22.5466 22.6542 22.5506 21.7234 22.5463 21.0325L22.5387 19.7765L19.7059 19.7706C17.4525 19.7659 16.8707 19.7706 16.8614 19.7936ZM5.75254 24.1878C5.74677 24.1932 5.74201 25.036 5.74201 26.0607V27.9237H8.18882H10.6358L10.6295 26.051L10.6232 24.1785L8.19308 24.1782C6.85655 24.178 5.7583 24.1824 5.75254 24.1878ZM11.3514 24.1842L10.9296 24.1911L10.9233 26.0401C10.9197 27.057 10.9202 27.8968 10.9244 27.9064C10.9285 27.916 12.2024 27.9237 13.7553 27.9237H16.5788L16.5859 27.5261C16.5899 27.3074 16.5932 26.47 16.5932 25.6651V24.2016L16.4219 24.1871C16.2541 24.173 12.1821 24.1707 11.3514 24.1842ZM16.9907 24.184L16.8499 24.1923L16.856 26.0584L16.8623 27.9244L19.6864 27.9239C21.2398 27.9235 22.5129 27.9208 22.5156 27.9177C22.5184 27.9147 22.5248 27.0721 22.5297 26.0454L22.5387 24.1785L19.8351 24.177C18.3481 24.1762 17.0681 24.1793 16.9907 24.184ZM22.8201 26.0453V27.9237H25.2424H27.6648L27.6586 26.051L27.6523 24.1785L25.2362 24.1726L22.8201 24.1668V26.0453Z" fill="#C29E58"/>
<path fill-rule="evenodd" clip-rule="evenodd" d="M30.3926 0.750858C30.4195 0.761714 30.4581 0.770682 30.4783 0.770682C30.5014 0.770682 30.4968 0.763366 30.466 0.750858C30.4391 0.740002 30.4006 0.731033 30.3804 0.731033C30.3573 0.731033 30.3618 0.73835 30.3926 0.750858ZM1.42012 1.61169C1.31439 1.71753 1.20691 1.83943 1.18148 1.8825C1.12949 1.97053 1.15116 1.95377 1.24436 1.83412C1.27881 1.78975 1.38116 1.67824 1.47161 1.58632C1.56205 1.49439 1.6307 1.41922 1.62419 1.41922C1.61767 1.41922 1.52585 1.50584 1.42012 1.61169ZM16.6347 2.16134C16.6126 2.18223 16.6054 2.5019 16.6054 3.45889C16.6054 4.41589 16.5982 4.73568 16.576 4.75645C16.5231 4.80625 10.9389 4.79551 10.9185 4.74559C10.9098 4.72435 10.9042 4.31418 10.9057 3.83414C10.909 2.8952 10.9088 2.89425 10.7822 2.89425C10.6489 2.89425 10.6486 2.89555 10.6354 3.87155L10.6232 4.77262L8.06303 4.77852L5.50298 4.78442L5.48819 4.8361C5.48018 4.86454 5.47341 5.76537 5.47316 6.83789L5.47291 8.788L4.05546 8.79897C2.51274 8.81101 2.51111 8.81113 2.51312 8.93892C2.51525 9.07758 2.43983 9.07097 4.0259 9.07097H5.47291V13.0473C5.47291 16.2079 5.46652 17.0257 5.44222 17.0335C5.42543 17.0388 4.78254 17.0463 4.0135 17.0501C2.47829 17.0575 2.51236 17.0542 2.51236 17.1952C2.51236 17.325 2.47441 17.3219 4.03742 17.3219H5.47304L5.46677 20.612L5.46063 23.9019L4.03103 23.9079C2.45712 23.9144 2.51236 23.9091 2.51236 24.0544C2.51236 24.1748 2.5071 24.1745 4.04143 24.1766L5.46063 24.1785L5.47291 26.1836L5.48506 28.1888L8.06027 28.1946L10.6354 28.2005L10.6362 29.324C10.6367 30.1725 10.6443 30.4564 10.6669 30.4844C10.7177 30.5472 10.7942 30.5565 10.8583 30.5075L10.9168 30.463L10.9236 29.3316L10.9304 28.2002H13.7556H16.5809L16.5818 28.5172C16.5903 31.7764 16.5801 31.5636 16.7277 31.5636C16.8609 31.5636 16.8547 31.6429 16.8587 29.8554L16.8622 28.2118H19.7005H22.5387V29.3317C22.5387 30.547 22.5365 30.5281 22.6725 30.5281C22.8234 30.5281 22.82 30.5555 22.82 29.3221V28.2005L25.3707 28.1946L27.9215 28.1888L27.9336 26.1836L27.9459 24.1785L29.3505 24.1726C30.2641 24.1687 30.7656 24.1583 30.7853 24.1429C30.8392 24.1008 30.8419 24.031 30.7922 23.9714L30.7438 23.9134H29.3388H27.9336V20.6176V17.3219H29.3363H30.7388L30.7921 17.2686C30.8577 17.2027 30.8594 17.1567 30.7981 17.1045C30.7545 17.0673 30.65 17.0646 29.3562 17.0666C28.589 17.0679 27.9561 17.0608 27.9494 17.0508C27.9429 17.0407 27.9345 15.2438 27.9309 13.0576L27.9241 9.08253L29.3402 9.07652C30.8796 9.07002 30.8453 9.07309 30.8453 8.94424C30.8453 8.81526 30.8798 8.81833 29.3388 8.81184L27.9215 8.80594L27.9214 6.88144C27.9214 5.82295 27.9186 4.91811 27.9152 4.87056L27.9092 4.78418H25.3674C22.9672 4.78418 22.8252 4.78194 22.815 4.74382C22.8091 4.72164 22.8014 4.31571 22.7979 3.84169C22.7908 2.90452 22.7926 2.92328 22.7063 2.90287C22.5527 2.86652 22.551 2.87738 22.5506 3.84854C22.5503 4.3314 22.5414 4.73957 22.5307 4.75539C22.5153 4.7784 21.9301 4.78312 19.6867 4.77852L16.8622 4.77262L16.8561 3.48202C16.8505 2.30117 16.8465 2.18883 16.8086 2.16252C16.7563 2.12606 16.6728 2.12547 16.6347 2.16134ZM0.74002 2.73849C0.716468 2.80516 0.693294 2.92706 0.688408 3.00954C0.67989 3.15386 0.680265 3.15516 0.699682 3.04412C0.710706 2.98075 0.738016 2.86251 0.760189 2.78133C0.809796 2.59972 0.797895 2.57435 0.74002 2.73849ZM10.6232 6.91507V8.79425L8.18868 8.79697L5.75427 8.79968L5.74801 6.91884L5.74174 5.03788L7.83992 5.03198C8.99392 5.0288 10.0923 5.02833 10.2806 5.03104L10.6232 5.03588V6.91507ZM16.5674 5.04555C16.6049 5.05912 16.6295 8.68522 16.5927 8.77561C16.5821 8.80157 16.1086 8.80582 13.7484 8.80063L10.9168 8.79437V6.9448C10.9168 5.92762 10.9236 5.07978 10.932 5.06078C10.9477 5.02538 16.4704 5.01051 16.5674 5.04555ZM22.5203 5.0426C22.5533 5.06821 22.5607 7.82864 22.5295 8.4832L22.5142 8.80594L19.6882 8.80299L16.8622 8.80004V6.92462V5.04921L17.315 5.03635C18.1689 5.01216 22.4878 5.01735 22.5203 5.0426ZM27.6523 6.91601V8.80594L25.2389 8.81184L22.8257 8.81762L22.8099 8.16648C22.798 7.66804 22.804 5.20616 22.8177 5.04331C22.8195 5.0203 23.3122 5.01558 25.2362 5.0203L27.6523 5.0262V6.91601ZM10.6354 13.0582V17.0453H8.18868H5.74199V13.0735C5.74199 10.889 5.74939 9.09481 5.75828 9.08631C5.7673 9.07781 6.86831 9.07097 8.20496 9.07097H10.6354V13.0582ZM16.5932 11.8136V14.5447H13.755H10.9168L10.9165 12.0902C10.9163 10.7401 10.9201 9.50852 10.9247 9.35323L10.9331 9.07073L13.7631 9.07663L16.5932 9.08253V11.8136ZM22.5463 10.9609C22.5505 11.9939 22.5464 13.2256 22.5373 13.6978L22.5208 14.5564L19.6915 14.5505L16.8622 14.5447L16.856 11.8366C16.8526 10.3472 16.855 9.11557 16.8614 9.09964C16.8706 9.07663 17.4525 9.07191 19.7059 9.07663L22.5387 9.08253L22.5463 10.9609ZM27.6645 13.0582V17.0453L27.2547 17.0464C25.9062 17.0499 22.8361 17.0451 22.8301 17.0394C22.8238 17.0334 22.8118 9.41801 22.8177 9.16891L22.82 9.07097H25.2423H27.6645V13.0582ZM16.58 14.8457C16.5977 14.8624 16.6039 15.2129 16.5995 15.9519L16.5932 17.0338L13.7794 17.0453C12.2319 17.0517 10.9505 17.0527 10.9319 17.0475C10.8979 17.038 10.9014 14.8934 10.9355 14.8415C10.9556 14.811 16.5476 14.8152 16.58 14.8457ZM22.5466 15.2361C22.5508 15.4643 22.5468 15.9647 22.5375 16.3482L22.5208 17.0453H19.6855H16.8501V15.9398V14.8343L17.1253 14.8271C17.2768 14.8231 18.5567 14.8202 19.9696 14.8206L22.5387 14.8212L22.5466 15.2361ZM10.6293 20.612L10.6232 23.9019H8.18868H5.75427L5.74801 20.612L5.74187 17.3219H8.18868H10.6356L10.6293 20.612ZM16.5932 18.4051V19.4768L13.7672 19.4883C12.2129 19.4947 10.9375 19.4981 10.9329 19.4959C10.9201 19.4898 10.9082 17.3589 10.9209 17.339C10.927 17.3295 12.2058 17.3243 13.7626 17.3276L16.5932 17.3334V18.4051ZM22.5297 18.4051C22.5246 18.9946 22.5185 19.4791 22.516 19.482C22.5135 19.4848 21.2405 19.488 19.6869 19.489L16.8622 19.4911L16.856 18.4353C16.8525 17.8546 16.8548 17.3665 16.8614 17.3506C16.8706 17.3276 17.4525 17.3229 19.7059 17.3276L22.5387 17.3334L22.5297 18.4051ZM27.6645 20.6176V23.9134H25.2423H22.82V20.6176V17.3219H25.2423H27.6645V20.6176ZM16.6008 21.24C16.6049 22.0449 16.6009 22.9758 16.5919 23.3085L16.5754 23.9137L13.7461 23.9078L10.9168 23.9019L10.9192 23.0146C10.9206 22.5265 10.9234 21.5957 10.9254 20.946L10.929 19.7647L13.7611 19.7706L16.5932 19.7765L16.6008 21.24ZM22.5463 21.0325C22.5506 21.7234 22.5466 22.6542 22.5374 23.1011L22.5208 23.9137L19.6915 23.9078L16.8622 23.9019L16.856 21.8622C16.8525 20.7403 16.855 19.8095 16.8614 19.7936C16.8706 19.7706 17.4525 19.7659 19.7059 19.7706L22.5387 19.7765L22.5463 21.0325ZM10.6295 26.051L10.6357 27.9237H8.1888H5.74199V26.0607C5.74199 25.036 5.74675 24.1932 5.75252 24.1878C5.75828 24.1824 6.85654 24.178 8.19306 24.1782L10.6232 24.1785L10.6295 26.051ZM16.4219 24.1871L16.5932 24.2016V25.6651C16.5932 26.4699 16.5899 27.3074 16.5859 27.5261L16.5787 27.9237H13.7553C12.2024 27.9237 10.9285 27.9159 10.9244 27.9064C10.9202 27.8968 10.9197 27.057 10.9232 26.0401L10.9296 24.1911L11.3514 24.1842C12.1821 24.1707 16.254 24.173 16.4219 24.1871ZM22.5297 26.0454C22.5248 27.0721 22.5184 27.9147 22.5156 27.9177C22.5129 27.9208 21.2397 27.9235 19.6864 27.9239L16.8622 27.9244L16.856 26.0584L16.8498 24.1923L16.9906 24.184C17.0681 24.1793 18.3481 24.1762 19.8351 24.177L22.5387 24.1785L22.5297 26.0454ZM27.6585 26.051L27.6648 27.9237H25.2424H22.82V26.0453V24.1668L25.2362 24.1726L27.6523 24.1785L27.6585 26.051ZM0.680516 30.477C0.677008 30.6855 0.71509 30.8223 0.851636 31.0915C0.953357 31.2922 0.964131 31.2728 0.870678 31.0568C0.786495 30.8626 0.730499 30.6551 0.702689 30.4359L0.683773 30.286L0.680516 30.477ZM1.49691 31.9801C1.54953 32.0307 1.59801 32.0722 1.60477 32.0722C1.61141 32.0722 1.57395 32.0307 1.52146 31.9801C1.46885 31.9293 1.42037 31.8878 1.41361 31.8878C1.40684 31.8878 1.44442 31.9293 1.49691 31.9801ZM31.7261 32.0991C31.662 32.154 31.6467 32.174 31.6894 32.1468C31.7569 32.104 31.869 32.0018 31.8461 32.004C31.8406 32.0046 31.7866 32.0474 31.7261 32.0991Z" fill="#F8F5EE"/>
</svg>
