<svg width="33" height="33" viewBox="0 0 33 33" fill="none" xmlns="http://www.w3.org/2000/svg">
<path fill-rule="evenodd" clip-rule="evenodd" d="M0.10272 0.945056C0.0831737 0.978682 0.0823586 32.744 0.101905 32.7775C0.13747 32.8384 31.8969 32.8101 31.9279 32.7492C31.9613 32.6831 31.9538 1.01001 31.9204 0.955259C31.8945 0.912867 0.127425 0.902665 0.10272 0.945056ZM30.0727 16.8621V30.8391L16.0279 30.8321L1.98328 30.825L1.9765 16.8901C1.9727 9.22581 1.97528 2.93919 1.9822 2.91993C1.99224 2.89191 4.82693 2.88487 16.0338 2.88487H30.0727V16.8621ZM12.0018 10.7837C11.9938 10.8058 11.9793 11.1563 11.9695 11.5625L11.9517 12.3011L11.342 12.3152L10.7322 12.3292V12.8203V13.3115L11.195 13.3193C11.524 13.3247 11.664 13.3369 11.6792 13.3614C11.7001 13.3951 11.6796 22.5387 11.6584 22.6099C11.6507 22.636 11.6 22.644 11.4815 22.638L11.3155 22.6296L11.3014 21.5491C11.2937 20.9548 11.2847 20.4648 11.2816 20.4603C11.2573 20.426 7.61249 20.4728 7.59226 20.5077C7.57964 20.5293 7.56512 21.005 7.56009 21.5648C7.55494 22.1248 7.54258 22.5916 7.53267 22.602C7.52276 22.6125 7.22223 22.6281 6.86469 22.6365L6.21489 22.652L6.20105 22.5847C6.19345 22.5477 6.18137 22.1132 6.17404 21.6193C6.16671 21.1252 6.16033 20.699 6.15978 20.672C6.15856 20.6035 4.47781 20.5951 4.45297 20.6635C4.44496 20.6859 4.43736 21.1152 4.43627 21.6173C4.43519 22.1194 4.42745 22.5494 4.4189 22.5729C4.40587 22.6089 4.327 22.6157 3.90919 22.616C3.6373 22.6163 3.38807 22.624 3.35523 22.6334L3.29563 22.6502V23.6835V24.7169L3.35414 24.7364C3.38631 24.7473 5.7098 24.7514 8.51734 24.7453L13.622 24.7347L13.6301 24.8083L13.6382 24.882L16.2681 24.8948C19.1391 24.9087 18.9718 24.9138 18.9365 24.8155C18.9002 24.7147 18.6016 24.7209 23.8027 24.7134L28.6279 24.7065L28.636 23.9347C28.6405 23.5102 28.6364 23.0461 28.6269 22.9032L28.6097 22.6437H27.2122C26.1608 22.6437 25.807 22.6354 25.7831 22.6099C25.7595 22.5851 25.7511 22.3135 25.7508 21.5645C25.7507 20.9754 25.74 20.5352 25.7253 20.5106C25.6918 20.4544 22.1165 20.4461 22.0635 20.502C22.0407 20.5261 22.0274 20.8283 22.0159 21.5826L21.9999 22.6296L21.8702 22.6384C21.7988 22.6431 21.7279 22.6337 21.7124 22.6173C21.6928 22.5966 21.6859 21.2714 21.6894 18.2302C21.6923 15.8337 21.6947 13.7501 21.6947 13.5998L21.6949 13.3267L22.2186 13.3191L22.7421 13.3115V12.8203V12.3292L22.0901 12.3217L21.4382 12.3142L21.4207 11.8049C21.4112 11.5249 21.4033 11.1791 21.4033 11.0367C21.4033 10.8262 21.3954 10.7743 21.3614 10.7605C21.2597 10.7193 12.0169 10.7421 12.0018 10.7837ZM21.0056 11.7539V12.3152H16.6841H12.3626V11.7726C12.3626 11.4741 12.3706 11.2215 12.3804 11.2112C12.3901 11.201 14.3347 11.1925 16.7019 11.1925H21.0056V11.7539ZM20.5439 13.3576C20.5669 13.3967 20.5639 22.7383 20.5409 22.8146C20.5252 22.8672 20.4942 22.8688 19.5787 22.8616L18.6328 22.8542L18.6195 18.9108L18.6063 14.9675L16.6279 14.9603L14.6495 14.9531L14.6328 15.0409C14.6237 15.0894 14.6162 16.856 14.6162 18.967C14.6162 22.1821 14.6104 22.8104 14.5798 22.8371C14.554 22.8598 14.2999 22.8669 13.6983 22.8616L12.8532 22.8542L12.8464 18.0898L12.8398 13.3256H16.6825C19.5333 13.3256 20.5301 13.3339 20.5439 13.3576ZM18.2592 15.5041C18.2788 15.5584 18.2678 18.3383 18.2478 18.3594C18.2402 18.3675 17.5124 18.3765 16.6306 18.3795L15.0271 18.385L15.0203 16.9218L15.0134 15.4587H16.628C18.0926 15.4587 18.2442 15.4629 18.2592 15.5041ZM9.80906 15.926C9.79915 15.9365 9.79087 16.2556 9.79074 16.6352C9.7906 17.0145 9.783 17.3725 9.77404 17.4303L9.75761 17.5356H9.49591H9.23433V18.2619C9.23433 18.8444 9.227 18.9944 9.19781 19.0202C9.1723 19.0426 8.99027 19.05 8.59458 19.0447L8.02799 19.0371L8.01469 18.7424L8.00153 18.4478H7.80266H7.6038V18.967V19.4862H9.41989H11.236V17.704V15.9217L10.5316 15.9142C10.1442 15.9102 9.8191 15.9155 9.80906 15.926ZM22.1007 15.9428C22.0513 16.0237 22.06 19.4261 22.1098 19.4646C22.1582 19.502 25.619 19.52 25.7093 19.4832C25.7453 19.4686 25.7512 19.3987 25.7512 18.9943C25.7512 18.4025 25.7632 18.4337 25.5364 18.4337H25.3536V18.6882C25.3536 19.0779 25.4005 19.0512 24.718 19.0512C24.2824 19.0512 24.1318 19.0424 24.1157 19.0161C24.1039 18.9967 24.0883 18.6589 24.0811 18.2653C24.0697 17.6557 24.0618 17.5492 24.028 17.5469C24.0061 17.5454 23.8914 17.5422 23.7731 17.5399L23.5581 17.5356L23.5454 16.7544C23.5386 16.3249 23.5244 15.9586 23.5138 15.9405C23.4854 15.8919 22.1306 15.8941 22.1007 15.9428ZM10.8524 16.3719C10.8859 16.4147 10.8708 17.4517 10.8358 17.5116C10.8078 17.5596 10.1696 17.5405 10.1518 17.4912C10.1199 17.4032 10.1339 16.3979 10.1676 16.3624C10.2186 16.3084 10.8089 16.3166 10.8524 16.3719ZM23.1735 16.9004C23.1823 17.5834 23.2099 17.5356 22.8081 17.5356C22.4296 17.5356 22.4614 17.5944 22.4782 16.9246C22.4856 16.6354 22.4911 16.3827 22.4909 16.363C22.4904 16.3353 22.5673 16.3288 22.8283 16.3348L23.1663 16.3427L23.1735 16.9004ZM10.8383 18.5319V19.0371L10.2584 19.0447C9.8529 19.05 9.66748 19.0426 9.64196 19.0202C9.603 18.986 9.58604 18.0706 9.62364 18.0309C9.63355 18.0203 9.911 18.0151 10.24 18.0191L10.8383 18.0268V18.5319ZM23.7038 18.5001C23.7132 19.1075 23.7781 19.0512 23.0703 19.0512H22.4903V18.5507C22.4903 18.2754 22.4985 18.0414 22.5085 18.0309C22.5184 18.0203 22.7899 18.0151 23.1116 18.0191L23.6966 18.0268L23.7038 18.5001ZM18.2401 19.0301C18.2664 19.073 18.251 22.8176 18.2245 22.8473C18.214 22.8591 17.4904 22.8654 16.6164 22.8614L15.0271 22.8542V20.9456V19.0371L16.5648 19.0227C17.4106 19.0148 18.1287 19.0054 18.1607 19.0018C18.1926 18.998 18.2284 19.0108 18.2401 19.0301ZM10.825 21.8298C10.825 22.521 10.821 22.5878 10.7787 22.6115C10.6736 22.6702 9.71757 22.6522 9.68662 22.591C9.65527 22.5286 9.65119 21.2459 9.68214 21.1281L9.7006 21.058L10.2164 21.0439C10.9003 21.0252 10.825 20.9281 10.825 21.8298ZM25.2683 21.0541C25.3095 21.0811 25.3152 22.5746 25.2742 22.6015C25.2364 22.6263 24.1765 22.6293 24.1389 22.6048C24.0971 22.5775 24.094 21.0976 24.1355 21.0535C24.1678 21.0193 25.2159 21.0199 25.2683 21.0541ZM5.77441 21.8298V22.6016H5.31045H4.84648L4.83942 21.8582C4.83549 21.4494 4.83834 21.0986 4.84553 21.0788C4.85558 21.0506 4.96186 21.0443 5.31656 21.0502L5.77441 21.058V21.8298ZM9.20596 21.0836C9.2403 21.1275 9.23216 22.551 9.19714 22.6111C9.16985 22.6579 8.09084 22.6568 8.04659 22.6099C8.02338 22.5855 8.01469 22.3761 8.01469 21.8437C8.01469 21.3115 8.02338 21.1021 8.04659 21.0775C8.09641 21.0248 9.16415 21.0304 9.20596 21.0836ZM23.6501 21.8016C23.6536 22.2107 23.6467 22.5617 23.6346 22.5815C23.603 22.6337 22.5861 22.665 22.53 22.6155C22.488 22.5786 22.4676 21.1053 22.5085 21.062C22.5184 21.0515 22.778 21.0462 23.0851 21.0504L23.6436 21.058L23.6501 21.8016ZM16.0302 25.7027C14.3945 25.7106 13.0511 25.7232 13.0446 25.731C13.0381 25.7387 12.9999 25.8081 12.9598 25.8853C12.9197 25.9625 12.8643 26.0592 12.8369 26.1001C12.8094 26.1411 12.7868 26.1885 12.7868 26.2055C12.7868 26.2276 13.7711 26.2362 16.2997 26.2362C18.2318 26.2362 19.8125 26.2289 19.8125 26.2199C19.8125 26.2109 19.7709 26.1282 19.7198 26.0359C19.6688 25.9438 19.627 25.8582 19.627 25.8458C19.627 25.7323 19.4954 25.6749 19.2504 25.6815C19.1148 25.6853 17.6658 25.6948 16.0302 25.7027ZM12.2722 27.1645C12.2345 27.2121 12.2037 27.262 12.2037 27.2756C12.2037 27.2891 12.1673 27.3654 12.1229 27.4452C12.0785 27.5248 12.0462 27.6027 12.0511 27.6182C12.0597 27.6454 20.5757 27.655 20.6013 27.6278C20.6073 27.6214 20.5666 27.5343 20.5107 27.4343C20.4549 27.3342 20.3888 27.2131 20.3639 27.1653L20.3187 27.0782H16.3298H12.3409L12.2722 27.1645ZM11.3231 28.6148C11.2376 28.7189 11.0405 29.1138 11.0624 29.137C11.0839 29.1598 21.5093 29.1644 21.5309 29.1417C21.5405 29.1315 21.3984 28.843 21.292 28.6569L21.2399 28.5658H16.3017C11.6317 28.5658 11.3613 28.5684 11.3231 28.6148Z" fill="#FBFAF8"/>
<path fill-rule="evenodd" clip-rule="evenodd" d="M0.0145718 16.3498L0.0212236 31.8636L0.0277387 16.3848C0.0339828 1.87108 0.0371045 0.903969 0.0793202 0.871062C0.120043 0.83916 0.118957 0.835999 0.0661532 0.835999H0.00805664L0.0145718 16.3498ZM1.00969 0.856692C1.08679 0.86244 1.20611 0.862295 1.27493 0.856547C1.34362 0.850799 1.28063 0.846201 1.13485 0.846201C0.988925 0.846345 0.932728 0.851088 1.00969 0.856692ZM2.01798 0.856979C2.22662 0.861721 2.56068 0.861721 2.76022 0.856979C2.95989 0.852237 2.78913 0.848357 2.38082 0.848357C1.97251 0.848357 1.80921 0.852237 2.01798 0.856979ZM29.0056 0.856979C29.3155 0.861434 29.8225 0.861434 30.1324 0.856979C30.4421 0.852525 30.1887 0.848789 29.5689 0.848789C28.9493 0.848789 28.6957 0.852525 29.0056 0.856979ZM31.0215 0.856836C31.1132 0.862296 31.2565 0.862296 31.3397 0.856692C31.4229 0.851088 31.3479 0.846633 31.173 0.846777C30.998 0.846777 30.9299 0.851231 31.0215 0.856836ZM31.8754 0.856547C31.912 0.863589 31.9567 0.882414 31.9749 0.898221C31.999 0.919201 32.0081 0.914603 32.0081 0.881552C32.0081 0.84692 31.9842 0.836861 31.9087 0.839879C31.8354 0.842609 31.8266 0.847063 31.8754 0.856547ZM2.034 2.96665C2.00237 3.00013 2.0245 30.7246 2.05613 30.7463C2.07432 30.7588 4.14125 30.7693 6.64935 30.7696C9.15731 30.7699 10.7143 30.7634 10.1091 30.7551L9.00881 30.74L10.2947 30.7292C11.0019 30.7233 11.6939 30.7154 11.8324 30.7115C12.5973 30.6901 13.158 30.6592 13.158 30.6382C13.158 30.6253 13.0983 30.6147 13.0254 30.6147C12.9525 30.6147 12.8929 30.602 12.8929 30.5865C12.8929 30.5697 12.9989 30.5585 13.158 30.5585C13.3171 30.5585 13.4231 30.5473 13.4231 30.5305C13.4231 30.5135 13.3171 30.5023 13.158 30.5023C12.9989 30.5023 12.8929 30.4911 12.8929 30.4743C12.8929 30.4589 12.9406 30.4462 12.9989 30.4462C13.0573 30.4462 13.1049 30.4336 13.1049 30.4181C13.1049 30.4027 13.1527 30.3901 13.211 30.3901C13.2693 30.3901 13.3171 30.3774 13.3171 30.362C13.3171 30.3465 13.2813 30.3339 13.2376 30.3339C13.1937 30.3339 13.158 30.3212 13.158 30.3058C13.158 30.2905 13.1341 30.2778 13.1049 30.2778C13.0758 30.2778 13.052 30.2652 13.052 30.2497C13.052 30.2343 13.0945 30.2216 13.1466 30.2216C13.2469 30.2216 13.3171 30.1705 13.3171 30.0973C13.3171 30.0409 13.3364 30.0416 13.3916 30.1001C13.4238 30.1343 13.4269 30.1501 13.403 30.1586C13.3506 30.1771 13.3649 30.2216 13.4231 30.2216C13.4523 30.2216 13.4762 30.209 13.4762 30.1936C13.4762 30.1781 13.5411 30.1656 13.6204 30.1656C13.6998 30.1656 13.772 30.153 13.7811 30.1374C13.7906 30.1212 13.7644 30.1094 13.7185 30.1094C13.6752 30.1094 13.6335 30.0936 13.6262 30.0743C13.616 30.0478 13.6053 30.0495 13.5822 30.0814C13.5591 30.1131 13.5483 30.1149 13.5382 30.0883C13.5308 30.069 13.5019 30.0532 13.4739 30.0532C13.4459 30.0532 13.4231 30.0406 13.4231 30.0252C13.4231 29.9847 13.5218 29.9906 13.5403 30.0322C13.5526 30.0603 13.5587 30.0603 13.5711 30.0322C13.5807 30.0104 13.6417 29.9972 13.7321 29.9972C13.8819 29.9972 13.9533 29.9569 13.9533 29.8729C13.9533 29.8377 13.9855 29.8288 14.1124 29.8288C14.2539 29.8288 14.2715 29.8224 14.2715 29.7726C14.2715 29.7359 14.2892 29.7165 14.3223 29.7165C14.3502 29.7164 14.3801 29.7007 14.3887 29.6813C14.401 29.6533 14.4071 29.6533 14.4195 29.6813C14.4435 29.7359 14.4835 29.7227 14.4835 29.6603C14.4835 29.6116 14.5013 29.6042 14.6162 29.6042C14.6891 29.6042 14.7488 29.5915 14.7488 29.5761C14.7488 29.5608 14.7249 29.5481 14.6957 29.5481C14.6665 29.5481 14.6426 29.5355 14.6426 29.52C14.6426 29.5046 14.7024 29.4919 14.7752 29.4919C14.8481 29.4919 14.9077 29.4793 14.9077 29.4639C14.9077 29.4475 14.816 29.435 14.6891 29.4339C14.5422 29.4324 14.4877 29.424 14.5233 29.4077C14.5525 29.3945 14.6867 29.3827 14.8217 29.3816C14.9565 29.3806 15.0668 29.3696 15.0668 29.3574C15.0668 29.3451 15.1469 29.332 15.2448 29.3281C15.5156 29.3175 15.4795 29.2959 15.184 29.2916C15.0394 29.2896 14.8077 29.2849 14.6692 29.2813C14.5306 29.2777 13.6558 29.2669 12.725 29.2573C11.7942 29.2476 11.0217 29.2327 11.0084 29.2239C10.9453 29.1825 11.0164 28.9851 11.2096 28.6654C11.3119 28.4961 11.3728 28.4682 11.5814 28.4946C11.651 28.5036 12.5204 28.4972 13.5134 28.4807C14.5063 28.4642 15.444 28.4517 15.5972 28.453C16.0087 28.4563 16.6045 28.4211 16.6045 28.3933C16.6045 28.3801 16.5396 28.3693 16.4603 28.3693C16.3809 28.3693 16.3083 28.356 16.2988 28.3397C16.2893 28.3235 16.2498 28.3127 16.2111 28.3159C16.0133 28.3318 15.5441 28.3101 15.5441 28.2851C15.5441 28.2677 15.6855 28.257 15.9152 28.257C16.145 28.257 16.2865 28.2463 16.2865 28.2289C16.2865 28.2136 16.2387 28.2009 16.1803 28.2009C16.0651 28.2009 16.0546 28.1897 16.1122 28.1286C16.1589 28.0794 16.3306 28.0756 16.3469 28.1238C16.355 28.1475 16.3759 28.1384 16.4119 28.0956C16.4568 28.0421 16.4918 28.0325 16.6407 28.0325C16.7404 28.0325 16.8167 28.0203 16.8167 28.0043C16.8167 27.9877 16.718 27.9763 16.5737 27.9763C16.44 27.9763 16.3395 27.9668 16.3505 27.9553C16.3766 27.9276 16.3748 27.9277 16.6974 27.9237C16.9569 27.9204 16.9758 27.9164 16.9758 27.8641C16.9758 27.8106 16.9581 27.8079 16.6061 27.8079C16.2671 27.8079 16.0481 27.7622 16.3048 27.745C16.3603 27.7414 15.4096 27.7319 14.192 27.724L11.9782 27.7098L11.9699 27.6472C11.9651 27.6126 11.9955 27.5314 12.0379 27.4649C12.08 27.3988 12.1402 27.2854 12.1719 27.2127C12.2581 27.0144 12.1945 27.0227 13.6798 27.016C14.6067 27.0117 14.8533 27.005 14.4704 26.9948L13.9136 26.98L14.8142 26.9575C15.4238 26.9422 15.7208 26.925 15.733 26.9039C15.7463 26.8813 15.7719 26.8819 15.827 26.906C15.8784 26.9285 15.9923 26.9338 16.1807 26.9221C16.3337 26.9126 16.5274 26.9053 16.6112 26.9057C16.695 26.9063 16.7636 26.8947 16.7636 26.8802C16.7636 26.8652 16.6421 26.8537 16.4853 26.8537C16.3322 26.8537 16.2069 26.8435 16.2069 26.8312C16.2069 26.8188 16.2913 26.8075 16.3945 26.8057C16.4977 26.804 16.5884 26.796 16.5961 26.7878C16.6249 26.7573 16.472 26.6291 16.4069 26.6291C16.3698 26.6291 16.3394 26.6165 16.3394 26.6011C16.3394 26.5856 16.3743 26.5731 16.4168 26.5731C16.4593 26.5729 16.5001 26.5573 16.5076 26.5379C16.5176 26.5116 16.5281 26.5133 16.5495 26.5449C16.5749 26.5824 16.581 26.5824 16.6045 26.5449C16.6281 26.5076 16.634 26.5076 16.6576 26.5449C16.6812 26.5824 16.687 26.5824 16.7107 26.5449C16.7341 26.5076 16.7401 26.5076 16.7636 26.5449C16.7872 26.5824 16.793 26.5824 16.8167 26.5449C16.8399 26.508 16.8463 26.508 16.8683 26.5441C16.8892 26.5785 16.9027 26.5739 16.9513 26.516C16.9899 26.4699 17.0134 26.4584 17.0212 26.4818C17.0353 26.5232 17.1878 26.5297 17.1878 26.4889C17.1878 26.4733 17.164 26.4607 17.1348 26.4607C17.1057 26.4607 17.0818 26.4481 17.0818 26.4327C17.0818 26.4173 17.1176 26.4047 17.1613 26.4047C17.2232 26.4047 17.2409 26.417 17.2409 26.4607C17.2409 26.5073 17.2585 26.5169 17.3447 26.5169C17.4037 26.5169 17.4536 26.532 17.4604 26.552C17.4669 26.5712 17.4813 26.5781 17.4923 26.5673C17.5254 26.5347 17.4351 26.4607 17.3621 26.4607C17.3246 26.4607 17.2939 26.4481 17.2939 26.4327C17.2939 26.416 17.3906 26.4047 17.5309 26.4047C17.6661 26.4047 17.7753 26.3922 17.7849 26.3755C17.7965 26.3558 17.6993 26.3476 17.4883 26.3505C16.9468 26.3575 12.856 26.318 12.7964 26.3051C12.7019 26.2847 12.6987 26.2092 12.7858 26.0609C12.8301 25.9855 12.8663 25.9131 12.8663 25.8998C12.8663 25.8868 12.8753 25.8718 12.8863 25.8666C12.8971 25.8615 12.926 25.8118 12.9503 25.756C13.0101 25.6189 12.8901 25.6254 15.4484 25.6208C17.3355 25.6173 19.4678 25.5976 19.5187 25.5831C19.5273 25.5807 19.5625 25.5953 19.5972 25.6157C19.67 25.6583 19.709 25.6215 19.6869 25.5314C19.6789 25.4991 19.6875 25.4784 19.7092 25.4784C19.7286 25.4784 19.7724 25.444 19.8065 25.4021C19.8569 25.34 19.8729 25.3332 19.892 25.3661C19.9113 25.3992 19.926 25.394 19.9736 25.3371C20.0123 25.2911 20.0358 25.2796 20.0437 25.3031C20.0578 25.3446 20.1571 25.3508 20.1571 25.3099C20.1571 25.2946 20.1334 25.2819 20.1042 25.2819C20.0688 25.2819 20.0511 25.2632 20.0511 25.2259C20.0511 25.1884 20.0688 25.1697 20.1042 25.1697C20.1334 25.1697 20.1571 25.1823 20.1571 25.1977C20.1571 25.2132 20.1691 25.2259 20.1837 25.2259C20.2388 25.2259 20.214 25.0059 20.1578 24.9963C20.1227 24.9902 20.1125 24.9754 20.1269 24.9511C20.1423 24.925 20.2834 24.9103 20.6434 24.8977C20.9158 24.888 21.1356 24.8771 21.1318 24.8734C21.1239 24.8656 20.4921 24.8415 19.6174 24.8156L19.0115 24.7978L19.0303 24.8609C19.0635 24.9711 19.0318 24.9724 16.3085 24.9728C13.4856 24.9733 13.5557 24.9758 13.5557 24.872V24.8048H8.41168H3.26776L3.24156 24.732C3.2064 24.6341 3.20911 22.6817 3.24441 22.6118C3.26898 22.5633 3.3116 22.5595 3.82674 22.5595H4.38247V21.5782C4.38247 20.6367 4.38464 20.5956 4.43378 20.5677C4.51576 20.5213 6.13312 20.5305 6.1919 20.5777C6.23452 20.6121 6.23833 20.6943 6.23833 21.5872V22.5595H6.87468H7.5109V21.5079C7.5109 20.5114 7.51348 20.455 7.56031 20.4286C7.61461 20.3978 11.2109 20.3846 11.2855 20.4149C11.3243 20.4307 11.3286 20.5391 11.3286 21.4974V22.5624L11.461 22.5539C11.547 22.5485 11.5993 22.5308 11.6108 22.5033C11.6206 22.4802 11.6338 20.4247 11.6402 17.9355L11.6518 13.4098H11.2044C10.5951 13.4098 10.6393 13.4558 10.6393 12.8232C10.6393 12.1764 10.5894 12.2267 11.2264 12.231C11.4941 12.2329 11.7578 12.2336 11.8126 12.2328L11.9119 12.231V11.4928C11.9119 10.9561 11.9206 10.7455 11.9438 10.721C11.9779 10.685 19.8357 10.6772 20.9128 10.7123L21.443 10.7295L21.4574 11.4872C21.4653 11.904 21.4742 12.2481 21.4772 12.252C21.4803 12.2559 21.7683 12.2591 22.1171 12.2591C22.9088 12.2591 22.8346 12.1973 22.8159 12.841C22.7988 13.4309 22.8049 13.4176 22.5579 13.4069C22.4551 13.4026 22.2245 13.4015 22.0454 13.4043L21.7199 13.4098L21.7222 17.9881L21.7244 22.5663L21.8201 22.5499C21.9715 22.5239 21.9677 22.549 21.9804 21.473C21.9869 20.9206 22.0025 20.4569 22.0152 20.4428C22.0355 20.4195 22.9396 20.4149 25.1663 20.4266C25.5444 20.4286 25.8618 20.4421 25.8887 20.4573C25.9427 20.4879 25.9533 20.455 25.9055 20.4046C25.8816 20.3791 25.8892 20.3574 25.9386 20.311C25.9817 20.2707 25.992 20.2462 25.97 20.2379C25.9517 20.231 25.9367 20.1895 25.9367 20.1458C25.9367 20.1021 25.9517 20.0588 25.97 20.0499C25.9965 20.0367 25.9965 20.0302 25.97 20.0172C25.8788 19.972 25.9335 19.8371 26.0429 19.8371C26.1011 19.8371 26.1489 19.8245 26.1489 19.8089C26.1489 19.7936 26.137 19.7809 26.1224 19.7809C26.1078 19.7809 26.0958 19.7556 26.0958 19.7247C26.0958 19.6938 26.0839 19.6687 26.0694 19.6687C26.0548 19.6687 26.0429 19.648 26.0429 19.6229C26.0429 19.5007 25.8937 19.4281 25.791 19.5003C25.698 19.5655 22.1751 19.5901 22.0625 19.5263C22.0002 19.4909 22.0108 15.9364 22.0735 15.8562C22.1026 15.8191 23.4975 15.8307 23.5552 15.8685C23.5674 15.8764 23.5773 16.2421 23.5773 16.6812V17.4794L23.6502 17.4843C23.6902 17.4869 23.8015 17.4857 23.8976 17.4816C24.1595 17.4704 24.1593 17.4702 24.166 18.0358C24.1741 18.7469 24.1769 18.8147 24.1983 18.8513C24.2092 18.87 24.2037 18.9036 24.1861 18.926C24.1589 18.9607 24.1705 18.967 24.2617 18.967C24.321 18.967 24.3768 18.9544 24.3859 18.939C24.4069 18.9029 24.4566 18.9033 24.5486 18.9404C24.6824 18.9943 25.0666 18.9907 25.1365 18.935C25.1702 18.9079 25.215 18.8929 25.2359 18.9013C25.2671 18.9141 25.274 18.8742 25.274 18.6787C25.274 18.3826 25.2878 18.3671 25.5432 18.375C25.7221 18.3804 25.8743 18.438 25.8446 18.4889C25.8378 18.5005 25.8489 18.6286 25.8694 18.7736C25.9084 19.0498 25.9086 19.2247 25.8705 19.3162C25.8549 19.3534 25.8586 19.3744 25.8823 19.3827C25.9013 19.3895 25.9393 19.4187 25.9666 19.4477C26.0495 19.5353 26.0958 19.5148 26.0958 19.3903C26.0958 19.3287 26.1105 19.2741 26.1289 19.2662C26.1541 19.2554 26.1524 19.2441 26.1224 19.2196C26.0923 19.1952 26.0907 19.1837 26.1158 19.1731C26.1676 19.1507 26.1546 19.1073 26.0958 19.1073C26.0666 19.1073 26.0429 19.0946 26.0429 19.0792C26.0429 19.0384 26.1953 19.0447 26.2093 19.0863C26.2158 19.1055 26.2314 19.1111 26.2439 19.0988C26.2564 19.0864 26.2491 19.0643 26.2276 19.0496C26.1942 19.0269 26.1941 19.0195 26.2261 18.9976C26.2576 18.9761 26.2564 18.9646 26.2183 18.924C26.1933 18.8977 26.1645 18.8857 26.1542 18.8973C26.144 18.9089 26.1505 18.9242 26.1687 18.9311C26.2211 18.9509 26.2074 18.995 26.1489 18.995C26.0894 18.995 26.0734 18.8972 26.1289 18.8732C26.1541 18.8624 26.1527 18.852 26.1231 18.8303C26.1017 18.8145 26.0927 18.7925 26.1032 18.7816C26.1135 18.7706 26.1444 18.7888 26.1717 18.8222C26.2295 18.8927 26.3712 18.9041 26.4292 18.8427C26.483 18.7858 26.4766 18.7706 26.3988 18.7706C26.3613 18.7706 26.3137 18.7525 26.2928 18.7305C26.2439 18.6786 26.2449 18.6582 26.2966 18.6582C26.3649 18.6582 26.431 18.5744 26.3859 18.545C26.3658 18.5317 26.3585 18.5112 26.3699 18.4993C26.3812 18.4872 26.4017 18.496 26.4155 18.5187C26.4375 18.555 26.444 18.5549 26.4691 18.5179C26.4906 18.4862 26.5009 18.4845 26.5111 18.5109C26.5305 18.5615 26.5731 18.554 26.5731 18.5001C26.5731 18.475 26.5996 18.43 26.6319 18.4004C26.6791 18.357 26.6835 18.3416 26.6541 18.3224C26.6236 18.3024 26.6244 18.2912 26.6597 18.2538C26.7067 18.2041 26.7851 18.1937 26.7851 18.2373C26.7851 18.2527 26.7614 18.2653 26.7322 18.2653C26.6676 18.2653 26.6655 18.283 26.7234 18.3442C26.7555 18.3783 26.7706 18.3816 26.7786 18.3563C26.7847 18.3372 26.8124 18.3215 26.8404 18.3215C26.8971 18.3215 26.9095 18.277 26.8582 18.2574C26.8398 18.2505 26.833 18.2356 26.8431 18.2242C26.853 18.2129 26.9062 18.2512 26.9613 18.3096C27.0212 18.3729 27.0486 18.4202 27.0295 18.427C26.982 18.4438 26.9901 18.546 27.039 18.546C27.1095 18.546 27.1728 18.4625 27.1275 18.429C27.0988 18.4079 27.0977 18.3981 27.1233 18.3872C27.1414 18.3793 27.1564 18.3487 27.1564 18.3191C27.1564 18.2895 27.1683 18.2653 27.1828 18.2653C27.1975 18.2653 27.2093 18.3284 27.2093 18.4057C27.2093 18.5273 27.2165 18.546 27.2624 18.546C27.297 18.546 27.3155 18.5273 27.3155 18.4922C27.3155 18.4626 27.3304 18.4327 27.3486 18.4258C27.3668 18.4189 27.3721 18.4025 27.3604 18.3892C27.3486 18.376 27.3284 18.3834 27.3155 18.4057C27.3024 18.4278 27.284 18.4378 27.2743 18.4275C27.2647 18.4173 27.2899 18.3739 27.3305 18.331C27.3774 18.2814 27.4082 18.2655 27.4151 18.2872C27.4336 18.3459 27.5275 18.3277 27.5275 18.2653C27.5275 18.2216 27.5451 18.2091 27.607 18.2091C27.6507 18.2091 27.6866 18.1965 27.6866 18.1811C27.6866 18.1657 27.6507 18.1531 27.607 18.1531C27.5451 18.1531 27.5275 18.1406 27.5275 18.0969C27.5275 18.0552 27.5451 18.0409 27.5965 18.0409C27.6388 18.0409 27.6939 18.0084 27.7397 17.9566C27.8373 17.8459 27.8987 17.8459 27.8987 17.9566C27.8987 18.0029 27.9106 18.0409 27.9252 18.0409C27.9397 18.0409 27.9517 17.9903 27.9517 17.9285C27.9517 17.8206 27.9858 17.7783 28.0137 17.8513C28.0239 17.8778 28.0342 17.876 28.0558 17.8443C28.0811 17.8069 28.0874 17.8069 28.1128 17.8443C28.1343 17.876 28.1447 17.8778 28.1548 17.8513C28.1622 17.8321 28.1911 17.8162 28.2191 17.8162C28.2469 17.8162 28.2699 17.8036 28.2699 17.7882C28.2699 17.7727 28.2818 17.7601 28.2963 17.7601C28.311 17.7601 28.3229 17.7854 28.3229 17.8162C28.3229 17.8471 28.3348 17.8724 28.3494 17.8724C28.3639 17.8724 28.3759 17.8471 28.3759 17.8162C28.3759 17.7539 28.4159 17.7407 28.4399 17.7953C28.4523 17.8233 28.4585 17.8233 28.4709 17.7953C28.4795 17.7759 28.5082 17.7601 28.535 17.7601C28.5617 17.7601 28.5905 17.7444 28.599 17.725C28.6114 17.697 28.6176 17.697 28.63 17.725C28.654 17.7795 28.6941 17.7664 28.6941 17.704C28.6941 17.6731 28.706 17.6478 28.7205 17.6478C28.7352 17.6478 28.7471 17.6858 28.7471 17.732C28.7471 17.8168 28.7842 17.8463 28.8092 17.7812C28.8192 17.7547 28.8301 17.7563 28.8531 17.7882C28.8762 17.82 28.8869 17.8217 28.8971 17.7953C28.9045 17.7759 28.9283 17.7601 28.9501 17.7601C29.0016 17.7601 29.0652 17.6915 29.0652 17.6358C29.0652 17.6105 29.0877 17.5918 29.1183 17.5918C29.1595 17.5918 29.1713 17.6105 29.1713 17.6759C29.1713 17.7223 29.1781 17.7601 29.1864 17.7601C29.2175 17.7601 29.2773 17.6783 29.2773 17.6358C29.2773 17.6116 29.2841 17.5918 29.2924 17.5918C29.3236 17.5918 29.3834 17.6734 29.3834 17.7159C29.3834 17.7701 29.4933 17.7754 29.5701 17.725C29.6143 17.6961 29.6281 17.6974 29.6493 17.732C29.6721 17.7694 29.6782 17.7694 29.7036 17.732C29.723 17.7033 29.736 17.7001 29.7446 17.7221C29.7537 17.7454 29.7789 17.743 29.8354 17.7131L29.9136 17.6718V17.3511C29.9136 17.1748 29.9242 17.0303 29.937 17.0303C29.9566 17.0303 29.9953 18.4227 30.0056 19.5003C30.0124 20.2096 30.0201 20.6313 30.0262 20.6206C30.0299 20.6141 30.0269 16.6392 30.0197 11.7874L30.0064 2.96607L16.0257 2.96061C8.33635 2.95745 2.04011 2.96033 2.034 2.96665ZM16.4872 11.2767L12.4328 11.2908L12.4112 11.375C12.3992 11.4213 12.3972 11.6317 12.4066 11.8426L12.4237 12.226L12.718 12.2441C12.8798 12.254 14.7957 12.2582 16.9758 12.2536L20.9393 12.245L20.9465 11.7458L20.9538 11.2464L20.7477 11.2546C20.6344 11.259 18.717 11.269 16.4872 11.2767ZM12.9525 13.4016L12.8928 13.4137L12.8994 18.0919L12.9061 22.77L13.7347 22.7774L14.5631 22.7848V18.8707V14.9566L14.622 14.9129C14.6741 14.8744 14.9107 14.8692 16.6496 14.8692H18.6182L18.6557 14.9325C18.6872 14.9856 18.6959 15.5811 18.7103 18.6966C18.7266 22.2313 18.7337 22.6437 18.7791 22.6437C18.7899 22.6437 18.8043 22.6659 18.811 22.6929C18.8246 22.7478 18.7989 22.7473 19.7727 22.7075C20.3857 22.6824 20.3693 22.6884 20.3693 22.4894C20.3693 22.4062 20.3829 22.3295 20.3994 22.3185C20.421 22.3044 20.426 22.3438 20.4169 22.4585C20.4102 22.5462 20.4123 22.6232 20.422 22.6295C20.4813 22.6682 20.5022 21.3108 20.5021 17.4593L20.5018 13.3835L16.7569 13.3865C14.6973 13.3881 12.9854 13.3949 12.9525 13.4016ZM16.5746 15.536L15.0733 15.5433L15.0569 15.6308C15.0351 15.7465 15.0356 17.8316 15.0575 18.1067L15.0747 18.3215H16.6063C17.4487 18.3215 18.1563 18.3139 18.179 18.3048C18.2151 18.29 18.2198 18.1331 18.2192 16.9647C18.2185 15.604 18.214 15.5347 18.1271 15.531C18.099 15.5298 17.4004 15.5321 16.5746 15.536ZM11.1564 15.8516C11.2001 15.8521 11.2506 15.8623 11.2686 15.8746C11.3087 15.9014 11.3261 19.4869 11.2864 19.5271C11.227 19.5874 7.5899 19.5789 7.54986 19.5185C7.50086 19.4444 7.52461 18.5083 7.57782 18.4178C7.60646 18.3689 7.64162 18.3587 7.7984 18.3543C8.04423 18.3474 8.06771 18.3791 8.06771 18.7206V18.967H8.61122H9.15473V18.2557C9.15473 17.4204 9.15175 17.4301 9.39948 17.4609C9.4763 17.4705 9.58368 17.4706 9.63811 17.4612L9.7372 17.4442L9.74412 16.6549L9.75118 15.8657L10.3609 15.8503C10.6963 15.8419 10.9946 15.8385 11.0238 15.8429C11.0529 15.8473 11.1125 15.8511 11.1564 15.8516ZM10.2151 16.9142V17.4436L10.3544 17.4613C10.4308 17.4709 10.5621 17.4791 10.646 17.4793L10.7984 17.4794V16.9322V16.3848H10.5069H10.2151V16.9142ZM22.5334 16.4275C22.5243 16.4528 22.5167 16.6937 22.5167 16.9625V17.4514H22.8056C23.0129 17.4514 23.0976 17.4415 23.1057 17.4163C23.1261 17.3532 23.1316 16.7044 23.1132 16.5498L23.0951 16.3989L22.8227 16.3902C22.5894 16.3825 22.5478 16.388 22.5334 16.4275ZM29.9666 16.7497C29.9666 16.8115 29.9547 16.8619 29.9402 16.8619C29.9255 16.8619 29.9136 16.8115 29.9136 16.7497C29.9136 16.6879 29.9255 16.6375 29.9402 16.6375C29.9547 16.6375 29.9666 16.6879 29.9666 16.7497ZM28.1108 17.6478C28.1108 17.6787 28.0988 17.704 28.0843 17.704C28.0696 17.704 28.0577 17.7293 28.0577 17.7601C28.0577 17.8266 28.041 17.8305 27.9896 17.7762C27.9344 17.7178 27.9427 17.6478 28.0048 17.6478C28.0339 17.6478 28.0577 17.6352 28.0577 17.6198C28.0577 17.6043 28.0696 17.5918 28.0843 17.5918C28.0988 17.5918 28.1108 17.6169 28.1108 17.6478ZM9.68494 18.5174V18.967H10.2423H10.7998L10.7925 18.525L10.7851 18.0828L10.2351 18.0753L9.68494 18.0677V18.5174ZM22.5284 18.1357C22.5162 18.1874 22.527 18.876 22.5416 18.963C22.5425 18.9686 22.7669 18.963 23.0404 18.9506C23.3138 18.9383 23.5644 18.9275 23.5972 18.9265C23.6568 18.9249 23.657 18.9237 23.6503 18.5017L23.6435 18.0785L23.0943 18.0716L22.5452 18.0647L22.5284 18.1357ZM15.0808 19.2265C15.0718 19.3076 15.0679 20.138 15.0723 21.0719L15.0801 22.77H16.6338H18.1875L18.2046 22.377C18.214 22.1609 18.2216 21.3306 18.2217 20.5316L18.2219 19.0792H16.6595H15.0972L15.0808 19.2265ZM25.9367 19.5283C25.9367 19.5437 25.919 19.5563 25.897 19.5563C25.8751 19.5563 25.8573 19.5437 25.8573 19.5283C25.8573 19.5129 25.8751 19.5003 25.897 19.5003C25.919 19.5003 25.9367 19.5129 25.9367 19.5283ZM26.005 19.6526C26.0601 19.7109 26.0518 19.7809 25.9898 19.7809C25.9309 19.7809 25.9184 19.7385 25.97 19.7131C25.9965 19.7 25.9965 19.6934 25.97 19.6803C25.9369 19.664 25.9232 19.6125 25.9519 19.6125C25.9602 19.6125 25.9841 19.6306 26.005 19.6526ZM5.18551 21.1209L4.91484 21.13L4.89652 21.2332C4.87521 21.3536 4.90208 22.5015 4.92679 22.5276C4.97335 22.5769 5.66495 22.5656 5.69984 22.515C5.73812 22.4595 5.74911 21.7105 5.71748 21.3148L5.70038 21.1001L5.57835 21.106C5.51116 21.1091 5.33442 21.1159 5.18551 21.1209ZM8.09418 21.8304V22.5607L8.61788 22.5531L9.14143 22.5454L9.14849 21.8228L9.15555 21.1001H8.62493H8.09418V21.8304ZM9.73802 21.8314V22.5628L10.2135 22.5569C10.4751 22.5536 10.7018 22.5426 10.7173 22.5325C10.7497 22.5114 10.7785 21.5151 10.754 21.2615L10.7386 21.1001H10.2382H9.73802V21.8314ZM22.609 21.2053C22.6199 21.2632 22.6287 21.3381 22.6287 21.3718C22.6287 21.4056 22.6466 21.4405 22.6686 21.4494C22.7 21.4622 22.7057 21.4493 22.695 21.3899C22.6875 21.3483 22.6872 21.2975 22.6946 21.2774C22.7149 21.2212 22.7554 21.2632 22.7554 21.3402C22.7554 21.4227 22.7966 21.4312 22.816 21.3526C22.8289 21.3004 22.9018 21.279 23.0138 21.2944C23.0437 21.2985 23.0586 21.262 23.0502 21.2053C23.0484 21.1936 23.0678 21.1832 23.0934 21.1819C23.122 21.1803 23.1133 21.1709 23.071 21.1573C23.0331 21.1452 22.9586 21.1389 22.9054 21.1433C22.8523 21.1478 22.8021 21.1399 22.7938 21.1258C22.7855 21.1116 22.7361 21.1001 22.6841 21.1001H22.5894L22.609 21.2053ZM24.2135 21.1791C24.2135 21.2939 24.2431 21.4382 24.2637 21.4246C24.2872 21.4093 24.2796 21.9531 24.2557 21.9939C24.2454 22.0117 24.2495 22.0262 24.2649 22.0262C24.2804 22.0262 24.293 22.0389 24.293 22.0543C24.293 22.0698 24.2781 22.0793 24.2599 22.0754C24.2417 22.0715 24.2268 22.0873 24.2268 22.1105C24.2268 22.1336 24.2417 22.1494 24.2599 22.1455C24.2825 22.1408 24.2925 22.1766 24.2911 22.2577C24.2898 22.3501 24.2842 22.3644 24.2666 22.321C24.2461 22.2705 24.2435 22.2724 24.2419 22.3394C24.2404 22.4004 24.2496 22.4112 24.293 22.3993C24.3391 22.3865 24.3461 22.3609 24.3461 22.2054C24.3461 22.1047 24.3577 22.0262 24.3726 22.0262C24.4082 22.0262 24.4067 21.9213 24.3708 21.9087C24.3548 21.9031 24.3358 21.7794 24.3271 21.6245L24.3116 21.3503L24.4094 21.2554C24.5155 21.1525 24.5034 21.1191 24.3649 21.1317C24.3176 21.136 24.2643 21.13 24.2462 21.1182C24.2231 21.103 24.2135 21.1208 24.2135 21.1791ZM23.5414 21.2188C23.5329 21.2533 23.5375 21.2937 23.5516 21.3086C23.568 21.3261 23.5773 21.3039 23.5773 21.246C23.5773 21.1411 23.5633 21.1304 23.5414 21.2188ZM24.8911 21.234C24.8584 21.2687 24.8799 21.2904 24.9426 21.2865C24.9791 21.2843 25.0088 21.2744 25.0088 21.2646C25.0089 21.2405 24.9094 21.2146 24.8911 21.234ZM22.5532 21.5492C22.5532 21.7266 22.5576 21.7992 22.5629 21.7105C22.5682 21.6217 22.5682 21.4764 22.5629 21.3878C22.5576 21.299 22.5532 21.3715 22.5532 21.5492ZM25.0073 21.3838C24.9742 21.4493 24.9961 21.4964 25.0495 21.4747C25.1027 21.453 25.0989 21.5119 25.0451 21.544C25.0062 21.567 25.0076 21.5757 25.0589 21.6302C25.1091 21.6832 25.1182 21.6851 25.1326 21.6452C25.1417 21.62 25.1326 21.5872 25.1121 21.5722C25.0836 21.5512 25.0828 21.5415 25.1083 21.5306C25.1265 21.5227 25.1414 21.481 25.1414 21.4378C25.1414 21.3385 25.049 21.3013 25.0073 21.3838ZM25.0884 21.8134C25.0884 21.8606 25.103 21.8859 25.13 21.8859C25.1577 21.8859 25.1689 21.8654 25.1631 21.8249C25.1507 21.7351 25.0884 21.7255 25.0884 21.8134ZM20.1764 22.8042C20.2235 22.8104 20.307 22.8106 20.3621 22.8045C20.4171 22.7985 20.3785 22.7933 20.2765 22.7932C20.1744 22.7932 20.1294 22.7981 20.1764 22.8042ZM21.5424 24.881C21.5826 24.8875 21.6481 24.8875 21.6883 24.881C21.7283 24.8747 21.6955 24.8694 21.6154 24.8694C21.5352 24.8694 21.5023 24.8747 21.5424 24.881ZM19.7681 25.5462C19.7348 25.5863 19.7692 25.6472 19.8244 25.6464C19.8398 25.6462 19.8343 25.6326 19.8125 25.6162C19.7826 25.5938 19.781 25.5828 19.8058 25.5722C19.8415 25.5568 19.852 25.5058 19.8191 25.5075C19.8083 25.5081 19.7852 25.5255 19.7681 25.5462ZM17.9832 26.3798C17.9832 26.3935 18.0687 26.4047 18.1731 26.4047C18.2777 26.4047 18.3583 26.3999 18.3522 26.3943C18.3268 26.3706 17.9832 26.3571 17.9832 26.3798ZM16.5516 26.4327C16.5516 26.4481 16.5277 26.4607 16.4985 26.4607C16.4693 26.4607 16.4456 26.4481 16.4456 26.4327C16.4456 26.4173 16.4693 26.4047 16.4985 26.4047C16.5277 26.4047 16.5516 26.4173 16.5516 26.4327ZM16.8498 26.884C16.8813 26.9034 16.911 26.9034 16.9426 26.884C16.9805 26.8606 16.972 26.8555 16.8962 26.8555C16.8205 26.8555 16.8119 26.8606 16.8498 26.884ZM17.1821 26.8744C17.2592 26.88 17.3785 26.88 17.4472 26.8743C17.516 26.8685 17.4529 26.8638 17.3071 26.8639C17.1613 26.8639 17.105 26.8687 17.1821 26.8744ZM17.7117 27.7435C17.7447 27.7503 17.7925 27.75 17.8178 27.7431C17.8431 27.736 17.8161 27.7304 17.7579 27.7309C17.6995 27.7312 17.6788 27.7369 17.7117 27.7435ZM15.8158 29.3147C15.8414 29.3219 15.883 29.3219 15.9086 29.3147C15.9341 29.3077 15.9133 29.302 15.8623 29.302C15.8112 29.302 15.7903 29.3077 15.8158 29.3147ZM12.7868 30.362C12.7868 30.3774 12.7272 30.3901 12.6543 30.3901C12.5814 30.3901 12.5217 30.3774 12.5217 30.362C12.5217 30.3465 12.5814 30.3339 12.6543 30.3339C12.7272 30.3339 12.7868 30.3465 12.7868 30.362ZM12.8398 30.5865C12.8398 30.602 12.804 30.6147 12.7603 30.6147C12.7166 30.6147 12.6808 30.602 12.6808 30.5865C12.6808 30.5711 12.7166 30.5585 12.7603 30.5585C12.804 30.5585 12.8398 30.5711 12.8398 30.5865ZM8.83085 30.7474C8.76203 30.7532 8.64271 30.7533 8.56561 30.7476C8.48865 30.7418 8.54485 30.7372 8.69077 30.7371C8.83656 30.7371 8.89954 30.7417 8.83085 30.7474Z" fill="#E7B842"/>
<path fill-rule="evenodd" clip-rule="evenodd" d="M0.069255 0.927249C0.0338264 0.98516 0.0288036 32.7486 0.0642322 32.7937C0.095317 32.8334 31.8422 32.8544 31.9396 32.8149C32.004 32.7887 32.004 0.935296 31.9396 0.909143C31.8487 0.872211 0.0917881 0.890174 0.069255 0.927249ZM31.9203 0.95527C31.9537 1.01002 31.9612 32.6831 31.9278 32.7492C31.8969 32.8101 0.137397 32.8384 0.101833 32.7775C0.0822859 32.744 0.0831009 0.978694 0.102648 0.945068C0.127353 0.902676 31.8944 0.912879 31.9203 0.95527ZM1.98213 2.91995C1.9752 2.9392 1.97262 9.22582 1.97643 16.8901L1.98321 30.825L16.0279 30.8321L30.0726 30.8391V16.8621V2.88488H16.0337C4.82686 2.88488 1.99217 2.89192 1.98213 2.91995ZM30.0395 16.869L30.0462 30.8111L16.028 30.8041L2.00968 30.797L2.00289 16.8901C1.99923 9.24119 2.00181 2.96722 2.00873 2.94797C2.01878 2.91995 4.83636 2.91434 16.027 2.91995L30.0329 2.92699L30.0395 16.869ZM11.9716 10.734C11.9462 10.7449 11.9384 10.9216 11.938 11.4825C11.9378 11.8864 11.9283 12.2325 11.9169 12.2516C11.9017 12.2769 11.7339 12.2881 11.2876 12.2935L10.6791 12.3012L10.6719 12.8127L10.6647 13.3242L10.725 13.3377C10.7581 13.3451 10.9701 13.3553 11.1961 13.3605C11.4223 13.3657 11.6191 13.3776 11.6336 13.3871C11.651 13.3986 11.6578 14.9661 11.6533 17.996L11.6465 22.5875H11.4876H11.3286V21.5515C11.3286 20.9815 11.3214 20.4953 11.3126 20.4708C11.2939 20.4194 7.64106 20.4023 7.56491 20.4533C7.53233 20.4751 7.52446 20.6477 7.51536 21.5339L7.5045 22.5885L6.86475 22.5811L6.22514 22.5735L6.21835 21.6052C6.21224 20.7348 6.20708 20.6334 6.16691 20.6019C6.10392 20.5525 4.48737 20.5512 4.44081 20.6004C4.41747 20.6252 4.40891 20.8561 4.40878 21.4635C4.40864 21.9196 4.40104 22.3592 4.39181 22.4402L4.37511 22.5875H3.8369C3.52334 22.5875 3.29203 22.5987 3.28294 22.6144C3.26231 22.6498 3.2619 24.7139 3.28267 24.7494C3.29298 24.767 5.12807 24.7767 8.45198 24.7768H13.6054L13.6004 24.854L13.5954 24.9312L16.285 24.9382C18.9516 24.9454 19.0773 24.9415 18.996 24.8553C18.9785 24.8367 18.9641 24.8116 18.9641 24.7992C18.9641 24.7869 21.134 24.7768 23.786 24.7768C27.9014 24.7768 28.6126 24.7709 28.6391 24.7372C28.6904 24.6716 28.667 22.6502 28.6145 22.615C28.5907 22.5992 28.0167 22.5883 27.1931 22.588L25.8116 22.5875L25.7949 22.4402C25.7856 22.3592 25.778 21.886 25.7779 21.3886C25.7778 20.5237 25.7755 20.4833 25.7265 20.4555C25.6594 20.4175 22.0963 20.4159 22.0396 20.4539C22.0055 20.4766 21.9986 20.6345 21.9917 21.5341L21.9835 22.5875H21.8524H21.7213L21.7279 17.9776L21.7346 13.3677L22.2516 13.3536L22.7686 13.3397L22.7825 12.8625C22.8011 12.2214 22.8785 12.2871 22.1049 12.2871H21.4563L21.4513 11.6627C21.4446 10.8242 21.4415 10.7686 21.3994 10.7404C21.3621 10.7153 12.0301 10.709 11.9716 10.734ZM21.3613 10.7605C21.3953 10.7743 21.4032 10.8262 21.4032 11.0367C21.4032 11.1791 21.4111 11.5249 21.4206 11.805L21.4381 12.3142L22.0901 12.3217L22.742 12.3292V12.8203V13.3115L22.2185 13.3191L21.6948 13.3267L21.6947 13.5998C21.6947 13.7501 21.6922 15.8338 21.6894 18.2302C21.6858 21.2714 21.6928 22.5966 21.7123 22.6173C21.7278 22.6337 21.7988 22.6432 21.8702 22.6384L21.9998 22.6296L22.0158 21.5826C22.0274 20.8284 22.0407 20.5262 22.0635 20.502C22.1164 20.4461 25.6917 20.4544 25.7252 20.5106C25.7399 20.5352 25.7506 20.9754 25.7508 21.5645C25.751 22.3135 25.7594 22.5851 25.7831 22.61C25.807 22.6354 26.1607 22.6437 27.2121 22.6437H28.6096L28.6268 22.9032C28.6364 23.0461 28.6404 23.5102 28.6359 23.9347L28.6278 24.7066L23.8026 24.7134C18.6015 24.7209 18.9001 24.7147 18.9364 24.8155C18.9717 24.9138 19.1391 24.9087 16.268 24.8948L13.6381 24.882L13.63 24.8083L13.622 24.7347L8.51727 24.7453C5.70973 24.7514 3.38624 24.7474 3.35407 24.7364L3.29556 24.7169V23.6835V22.6502L3.35515 22.6334C3.388 22.624 3.63722 22.6163 3.90911 22.616C4.32693 22.6157 4.40579 22.609 4.41882 22.5729C4.42738 22.5495 4.43511 22.1194 4.4362 21.6173C4.43728 21.1152 4.44489 20.6859 4.45289 20.6635C4.47774 20.5951 6.15849 20.6035 6.15971 20.672C6.16025 20.699 6.16663 21.1252 6.17396 21.6193C6.18129 22.1132 6.19337 22.5477 6.20098 22.5847L6.21482 22.6521L6.86462 22.6365C7.22216 22.6281 7.52269 22.6125 7.5326 22.6021C7.54251 22.5916 7.55486 22.1248 7.56002 21.5648C7.56504 21.005 7.57957 20.5293 7.59219 20.5078C7.61242 20.4728 11.2572 20.426 11.2815 20.4603C11.2846 20.4648 11.2936 20.9548 11.3013 21.5492L11.3154 22.6296L11.4815 22.638C11.6 22.644 11.6506 22.636 11.6583 22.61C11.6795 22.5387 11.7 13.3952 11.6791 13.3614C11.6639 13.337 11.5239 13.3247 11.1949 13.3193L10.7322 13.3115V12.8203V12.3292L11.3419 12.3152L11.9517 12.3012L11.9695 11.5625C11.9792 11.1563 11.9938 10.8058 12.0018 10.7837C12.0168 10.7422 21.2596 10.7193 21.3613 10.7605ZM12.3803 11.2112C12.3706 11.2215 12.3626 11.4742 12.3626 11.7726V12.3152H16.684H21.0055V11.7539V11.1925H16.7018C14.3346 11.1925 12.39 11.201 12.3803 11.2112ZM20.9729 11.7469L20.9657 12.2731H16.684H12.4023L12.3951 11.77C12.3896 11.3862 12.3958 11.2615 12.4216 11.2441C12.4402 11.2317 14.3734 11.2212 16.7178 11.2211L20.9803 11.2207L20.9729 11.7469ZM12.8463 18.0899L12.8531 22.8542L13.6983 22.8616C14.2999 22.8669 14.554 22.8599 14.5798 22.8371C14.6103 22.8104 14.6161 22.1822 14.6161 18.967C14.6161 16.856 14.6236 15.0894 14.6327 15.041L14.6494 14.9532L16.6278 14.9603L18.6063 14.9675L18.6194 18.9108L18.6327 22.8542L19.5786 22.8616C20.4942 22.8688 20.5251 22.8672 20.5409 22.8146C20.5638 22.7383 20.5668 13.3967 20.5438 13.3576C20.53 13.3339 19.5332 13.3256 16.6824 13.3256H12.8397L12.8463 18.0899ZM20.5223 18.0409C20.5263 20.6109 20.5229 22.7432 20.5147 22.7791L20.4999 22.8442L19.598 22.8371C19.102 22.8333 18.6899 22.8192 18.6821 22.8058C18.6743 22.7925 18.6695 21.036 18.6713 18.9025C18.674 15.7735 18.668 15.0139 18.6405 14.9746C18.6031 14.9213 14.6615 14.8942 14.6118 14.9468C14.5997 14.9596 14.5868 16.7315 14.5832 18.8841L14.5764 22.7981L13.7213 22.8055L12.8663 22.8129V18.1019C12.8663 15.511 12.8743 13.3826 12.8841 13.3723C12.8939 13.362 14.6148 13.3566 16.7085 13.3605L20.5151 13.3677L20.5223 18.0409ZM15.0202 16.9219L15.027 18.385L16.6305 18.3796C17.5123 18.3765 18.2402 18.3675 18.2478 18.3594C18.2677 18.3383 18.2787 15.5584 18.2592 15.5041C18.2441 15.4629 18.0925 15.4587 16.628 15.4587H15.0133L15.0202 16.9219ZM18.2218 16.9181V18.3495H16.6311H15.0403V16.9325V15.5155L16.1738 15.5077C16.7971 15.5035 17.5129 15.4971 17.7644 15.4935L18.2218 15.4867V16.9181ZM22.0745 15.9027C22.0168 15.9639 22.0236 19.4878 22.0814 19.5113C22.1495 19.5389 25.7075 19.53 25.7493 19.5021C25.7863 19.4773 25.7974 18.4903 25.7613 18.4284C25.754 18.4159 25.6536 18.4057 25.538 18.4057C25.2928 18.4057 25.3046 18.388 25.2938 18.7706L25.2872 19.0091H24.7172H24.1472L24.1402 18.2956C24.1318 17.4514 24.1542 17.5076 23.8258 17.5076H23.5773V16.7251C23.5773 16.1302 23.5692 15.9356 23.5439 15.9134C23.4898 15.8658 22.1186 15.856 22.0745 15.9027ZM9.78252 15.898C9.77261 15.9085 9.76446 16.1214 9.76446 16.371C9.76446 16.6208 9.75659 16.9786 9.74709 17.1663L9.72971 17.5076H9.48361C9.1801 17.5076 9.20996 17.4285 9.19557 18.266C9.18892 18.6555 9.17603 18.9818 9.16693 18.9914C9.14453 19.0151 8.19027 19.0335 8.10842 19.0118C8.04489 18.995 8.04285 18.9864 8.03539 18.707L8.02792 18.4196H7.80259H7.57726V18.967V19.5142L9.40651 19.521C10.4126 19.5247 11.2491 19.5184 11.2652 19.5069C11.2864 19.4919 11.2901 18.9897 11.2785 17.6899L11.2624 15.8937L10.5315 15.8862C10.1295 15.8822 9.79243 15.8874 9.78252 15.898ZM11.2359 17.704V19.4862H9.41982H7.60373V18.967V18.4478H7.80259H8.00145L8.01462 18.7424L8.02792 19.0371L8.59451 19.0447C8.9902 19.0501 9.17222 19.0426 9.19774 19.0202C9.22693 18.9945 9.23426 18.8444 9.23426 18.2619V17.5356H9.49583H9.75754L9.77397 17.4303C9.78293 17.3725 9.79053 17.0145 9.79066 16.6352C9.7908 16.2557 9.79908 15.9365 9.80899 15.926C9.81903 15.9155 10.1441 15.9102 10.5315 15.9142L11.2359 15.9217V17.704ZM23.5137 15.9405C23.5243 15.9586 23.5386 16.3249 23.5454 16.7544L23.558 17.5356L23.773 17.5399C23.8914 17.5422 24.0061 17.5454 24.0279 17.547C24.0617 17.5493 24.0696 17.6557 24.081 18.2653C24.0882 18.6589 24.1038 18.9967 24.1156 19.0161C24.1318 19.0424 24.2823 19.0512 24.7179 19.0512C25.4004 19.0512 25.3536 19.0779 25.3536 18.6882V18.4337H25.5363C25.7631 18.4337 25.7512 18.4025 25.7512 18.9943C25.7512 19.3987 25.7452 19.4687 25.7092 19.4832C25.6189 19.52 22.1581 19.502 22.1098 19.4646C22.0599 19.4261 22.0513 16.0237 22.1007 15.9428C22.1305 15.8941 23.4854 15.892 23.5137 15.9405ZM10.1675 16.3624C10.1338 16.3979 10.1198 17.4033 10.1517 17.4912C10.1695 17.5405 10.8078 17.5596 10.8357 17.5116C10.8708 17.4517 10.8858 16.4147 10.8523 16.3719C10.8089 16.3166 10.2185 16.3084 10.1675 16.3624ZM22.4908 16.363C22.4911 16.3827 22.4855 16.6355 22.4782 16.9246C22.4613 17.5944 22.4296 17.5356 22.808 17.5356C23.2098 17.5356 23.1823 17.5835 23.1734 16.9004L23.1662 16.3427L22.8282 16.3348C22.5672 16.3288 22.4904 16.3353 22.4908 16.363ZM10.8117 16.9322V17.4935H10.5068H10.2018L10.1946 16.9611C10.1855 16.2913 10.1526 16.3534 10.5129 16.3629L10.8117 16.3708V16.9322ZM23.1243 16.3961C23.1597 16.4413 23.1622 17.3382 23.127 17.4359C23.1075 17.4903 23.0826 17.4957 22.8113 17.5034L22.5167 17.512V16.9344V16.3568H22.8052C23.0199 16.3568 23.1013 16.3667 23.1243 16.3961ZM9.62357 18.0309C9.58596 18.0706 9.60293 18.986 9.64189 19.0202C9.66741 19.0426 9.85283 19.0501 10.2583 19.0447L10.8382 19.0371V18.5319V18.0268L10.24 18.0192C9.91093 18.0151 9.63347 18.0203 9.62357 18.0309ZM22.5084 18.0309C22.4984 18.0414 22.4902 18.2754 22.4902 18.5507V19.0512H23.0703C23.778 19.0512 23.7131 19.1075 23.7038 18.5001L23.6966 18.0268L23.1115 18.0192C22.7898 18.0151 22.5183 18.0203 22.5084 18.0309ZM10.8189 18.5238L10.8262 18.9927L10.6069 19.0009C10.4862 19.0054 10.2234 19.0052 10.0229 19.0006L9.65845 18.9921V18.5352C9.65845 18.2839 9.66659 18.0696 9.67664 18.059C9.68655 18.0483 9.94609 18.0432 10.2533 18.0473L10.8117 18.0548L10.8189 18.5238ZM23.67 18.5179V18.9809L23.0933 18.9886L22.5167 18.9962V18.5179V18.0397L23.0933 18.0473L23.67 18.0548V18.5179ZM16.5647 19.0228L15.027 19.0371V20.9456V22.8542L16.6163 22.8614C17.4903 22.8655 18.214 22.8591 18.2244 22.8474C18.2509 22.8176 18.2664 19.0731 18.24 19.0301C18.2284 19.0108 18.1925 18.998 18.1606 19.0018C18.1286 19.0054 17.4105 19.0149 16.5647 19.0228ZM18.2218 20.9314V22.8126L16.6377 22.8052L15.0536 22.7981L15.0467 20.9475C15.0414 19.4853 15.047 19.0923 15.0733 19.0749C15.0916 19.0629 15.8075 19.0524 16.6642 19.0516L18.2218 19.0503V20.9314ZM10.2163 21.0439L9.70053 21.058L9.68207 21.1281C9.65112 21.246 9.65519 22.5286 9.68655 22.591C9.7175 22.6522 10.6735 22.6702 10.7786 22.6115C10.8209 22.5878 10.8249 22.521 10.8249 21.8298C10.8249 20.9281 10.9002 21.0252 10.2163 21.0439ZM24.1354 21.0535C24.0939 21.0977 24.097 22.5775 24.1388 22.6048C24.1764 22.6294 25.2363 22.6263 25.2742 22.6015C25.3152 22.5746 25.3095 21.0811 25.2682 21.0541C25.2158 21.0199 24.1677 21.0193 24.1354 21.0535ZM4.84546 21.0788C4.83827 21.0987 4.83541 21.4494 4.83935 21.8583L4.84641 22.6016H5.31037H5.77434V21.8298V21.058L5.31648 21.0502C4.96179 21.0443 4.8555 21.0507 4.84546 21.0788ZM8.04652 21.0775C8.02331 21.1021 8.01462 21.3115 8.01462 21.8437C8.01462 22.3762 8.02331 22.5855 8.04652 22.61C8.09077 22.6568 9.16978 22.658 9.19707 22.6111C9.23209 22.551 9.24023 21.1275 9.20589 21.0836C9.16408 21.0304 8.09634 21.0248 8.04652 21.0775ZM22.5084 21.062C22.4676 21.1053 22.4879 22.5786 22.5299 22.6156C22.5861 22.665 23.6029 22.6337 23.6345 22.5815C23.6466 22.5617 23.6535 22.2108 23.65 21.8016L23.6435 21.058L23.0851 21.0504C22.7779 21.0462 22.5183 21.0515 22.5084 21.062ZM5.75493 21.84L5.74787 22.5735L5.36345 22.5816C5.15196 22.586 4.95215 22.5827 4.9193 22.574L4.85971 22.5584V21.83V21.1014L5.27725 21.0938C5.50693 21.0895 5.71 21.0906 5.72846 21.0962C5.75466 21.1041 5.76049 21.2669 5.75493 21.84ZM9.16788 21.8298V22.5735L8.62084 22.5811L8.07367 22.5887L8.05439 22.2233C8.03675 21.8867 8.05738 21.1429 8.08588 21.0925C8.09253 21.0806 8.33877 21.0742 8.63292 21.0784L9.16788 21.086V21.8298ZM10.7851 21.8298V22.5735H10.2549H9.72469L9.71763 21.8583C9.7137 21.465 9.71641 21.1268 9.72361 21.107C9.73379 21.0788 9.85242 21.0725 10.2609 21.0784L10.7851 21.086V21.8298ZM23.5975 21.8368L23.6045 22.5875H23.0779H22.5511L22.5341 22.356C22.508 22.001 22.5136 21.2248 22.5428 21.1433L22.5688 21.0708L23.0796 21.0784L23.5904 21.086L23.5975 21.8368ZM25.2474 21.8304V22.5887L24.6974 22.5811L24.1472 22.5735L24.1402 21.8583C24.1362 21.465 24.1388 21.1271 24.1459 21.1076C24.1558 21.0804 24.2881 21.0719 24.7031 21.0719H25.2474V21.8304ZM13.1872 25.6726C13.0762 25.6833 13.0102 25.7034 12.9961 25.731C12.9841 25.7541 12.9194 25.8717 12.852 25.9922C12.7535 26.1688 12.7358 26.2191 12.7615 26.2518C12.7998 26.3006 19.8231 26.3143 19.8516 26.2656C19.8696 26.2345 19.6395 25.7725 19.5687 25.6974C19.5208 25.6466 13.6957 25.6241 13.1872 25.6726ZM19.5619 25.7491C19.5977 25.7901 19.6269 25.8335 19.6269 25.8458C19.6269 25.8582 19.6687 25.9438 19.7198 26.0359C19.7708 26.1282 19.8125 26.211 19.8125 26.2199C19.8125 26.2289 18.2318 26.2362 16.2996 26.2362C13.771 26.2362 12.7868 26.2276 12.7868 26.2055C12.7868 26.1885 12.8093 26.1411 12.8368 26.1002C12.8643 26.0592 12.9196 25.9625 12.9597 25.8853C12.9999 25.8082 13.038 25.7388 13.0445 25.731C13.051 25.7232 14.3945 25.7106 16.0302 25.7027C17.6657 25.6948 19.1148 25.6853 19.2504 25.6816C19.4867 25.6751 19.4996 25.678 19.5619 25.7491ZM12.2749 27.091C12.2199 27.1492 11.9914 27.6024 11.9914 27.6533C11.9914 27.705 20.6174 27.7192 20.6477 27.6675C20.6566 27.6521 20.623 27.5668 20.5728 27.4781C20.5225 27.3893 20.453 27.26 20.4181 27.1904L20.355 27.0641L16.3342 27.0571C12.837 27.0509 12.3085 27.0553 12.2749 27.091ZM20.3638 27.1653C20.3887 27.2131 20.4548 27.3343 20.5106 27.4343C20.5665 27.5343 20.6072 27.6214 20.6013 27.6278C20.5756 27.655 12.0596 27.6454 12.051 27.6182C12.0461 27.6027 12.0785 27.5248 12.1228 27.4452C12.1672 27.3654 12.2036 27.2891 12.2036 27.2756C12.2036 27.262 12.2344 27.2121 12.2722 27.1645L12.3408 27.0782H16.3297H20.3186L20.3638 27.1653ZM11.4215 28.5332C11.3013 28.5475 11.0106 28.9851 11.0106 29.1515V29.2113H16.2699C20.6725 29.2113 21.5342 29.2051 21.5592 29.1731C21.5857 29.1394 21.359 28.6519 21.273 28.5577C21.2542 28.537 11.5911 28.5129 11.4215 28.5332ZM21.2919 28.6569C21.3983 28.843 21.5405 29.1315 21.5308 29.1417C21.5092 29.1644 11.0839 29.1598 11.0623 29.137C11.0404 29.1139 11.2375 28.719 11.3231 28.6148C11.3612 28.5684 11.6316 28.5658 16.3016 28.5658H21.2398L21.2919 28.6569Z" fill="#E8CC8C"/>
<path fill-rule="evenodd" clip-rule="evenodd" d="M31.9945 10.2243C31.9945 15.3492 31.9976 17.4416 32.0013 14.874C32.0051 12.3065 32.0051 8.11329 32.0013 5.55585C31.9976 2.99855 31.9945 5.09931 31.9945 10.2243ZM22.9077 16.4047C22.9405 16.4113 22.9942 16.4113 23.027 16.4047C23.0599 16.3979 23.033 16.3925 22.9673 16.3925C22.9017 16.3925 22.8748 16.3979 22.9077 16.4047ZM29.9134 16.7497C29.9134 16.8115 29.9254 16.8619 29.94 16.8619C29.9546 16.8619 29.9665 16.8115 29.9665 16.7497C29.9665 16.6879 29.9546 16.6375 29.94 16.6375C29.9254 16.6375 29.9134 16.6879 29.9134 16.7497ZM29.9134 17.3511V17.6718L29.8353 17.7131C29.7788 17.743 29.7535 17.7454 29.7444 17.7221C29.7359 17.7001 29.7229 17.7033 29.7035 17.732C29.6781 17.7694 29.672 17.7694 29.6492 17.732C29.628 17.6974 29.6141 17.6961 29.57 17.725C29.4932 17.7754 29.3832 17.7701 29.3832 17.7159C29.3832 17.6734 29.3235 17.5918 29.2923 17.5918C29.284 17.5918 29.2772 17.6116 29.2772 17.6358C29.2772 17.6783 29.2174 17.7601 29.1863 17.7601C29.178 17.7601 29.1712 17.7223 29.1712 17.6759C29.1712 17.6105 29.1594 17.5918 29.1181 17.5918C29.0876 17.5918 29.0651 17.6105 29.0651 17.6358C29.0651 17.6915 29.0015 17.7601 28.9499 17.7601C28.9282 17.7601 28.9043 17.7759 28.897 17.7953C28.8868 17.8217 28.8761 17.82 28.853 17.7882C28.83 17.7563 28.8191 17.7547 28.8091 17.7812C28.7841 17.8463 28.747 17.8168 28.747 17.732C28.747 17.6858 28.7351 17.6478 28.7204 17.6478C28.7059 17.6478 28.6939 17.6731 28.6939 17.704C28.6939 17.7664 28.6539 17.7795 28.6299 17.725C28.6175 17.697 28.6113 17.697 28.5989 17.725C28.5904 17.7444 28.5616 17.7601 28.5349 17.7601C28.5081 17.7601 28.4793 17.7759 28.4708 17.7953C28.4584 17.8233 28.4522 17.8233 28.4398 17.7953C28.4158 17.7407 28.3758 17.7539 28.3758 17.8162C28.3758 17.8471 28.3638 17.8724 28.3493 17.8724C28.3346 17.8724 28.3228 17.8471 28.3228 17.8162C28.3228 17.7854 28.3109 17.7601 28.2962 17.7601C28.2817 17.7601 28.2698 17.7727 28.2698 17.7882C28.2698 17.8036 28.2468 17.8162 28.219 17.8162C28.191 17.8162 28.1621 17.8321 28.1546 17.8513C28.1446 17.8778 28.1341 17.876 28.1127 17.8443C28.0873 17.8069 28.0809 17.8069 28.0557 17.8443C28.0341 17.876 28.0238 17.8778 28.0136 17.8513C27.9856 17.7783 27.9516 17.8206 27.9516 17.9285C27.9516 17.9903 27.9396 18.0409 27.9251 18.0409C27.9104 18.0409 27.8986 18.0029 27.8986 17.9566C27.8986 17.8982 27.8856 17.8724 27.8561 17.8724C27.8329 17.8724 27.7804 17.9102 27.7395 17.9566C27.6938 18.0084 27.6387 18.0409 27.5963 18.0409C27.545 18.0409 27.5274 18.0552 27.5274 18.0969C27.5274 18.1406 27.545 18.1531 27.6069 18.1531C27.6506 18.1531 27.6865 18.1657 27.6865 18.1811C27.6865 18.1965 27.6506 18.2091 27.6069 18.2091C27.545 18.2091 27.5274 18.2216 27.5274 18.2653C27.5274 18.3277 27.4334 18.3459 27.415 18.2872C27.4082 18.2656 27.3758 18.283 27.3273 18.3341C27.279 18.3854 27.2625 18.4198 27.2829 18.427C27.3384 18.4465 27.3212 18.546 27.2623 18.546C27.2164 18.546 27.2092 18.5273 27.2092 18.4057C27.2092 18.3284 27.1974 18.2653 27.1827 18.2653C27.1682 18.2653 27.1563 18.2895 27.1563 18.3191C27.1563 18.3487 27.1413 18.3793 27.1231 18.3872C27.0976 18.3981 27.0987 18.4079 27.1274 18.429C27.1727 18.4625 27.1094 18.546 27.0388 18.546C26.99 18.546 26.9818 18.4438 27.0293 18.427C27.0485 18.4202 27.0211 18.3729 26.9612 18.3096C26.9061 18.2512 26.8529 18.2129 26.843 18.2242C26.8329 18.2356 26.8397 18.2505 26.858 18.2574C26.9093 18.277 26.897 18.3215 26.8403 18.3215C26.8123 18.3215 26.7846 18.3372 26.7785 18.3563C26.7705 18.3816 26.7554 18.3783 26.7232 18.3442C26.6654 18.283 26.6675 18.2653 26.7321 18.2653C26.7613 18.2653 26.785 18.2527 26.785 18.2373C26.785 18.1937 26.7066 18.2041 26.6596 18.2538C26.6243 18.2912 26.6235 18.3024 26.654 18.3224C26.6833 18.3416 26.679 18.357 26.6318 18.4004C26.5995 18.43 26.573 18.475 26.573 18.5001C26.573 18.554 26.5304 18.5615 26.5109 18.5109C26.5008 18.4845 26.4905 18.4862 26.469 18.5179C26.4439 18.5549 26.4374 18.555 26.4154 18.5187C26.4015 18.496 26.381 18.4872 26.3698 18.4993C26.3584 18.5112 26.3657 18.5317 26.3858 18.545C26.4309 18.5744 26.3648 18.6582 26.2965 18.6582C26.2448 18.6582 26.2438 18.6786 26.2927 18.7305C26.3136 18.7525 26.3612 18.7706 26.3987 18.7706C26.4765 18.7706 26.4828 18.7858 26.4291 18.8427C26.3711 18.9041 26.2294 18.8927 26.1716 18.8222C26.1443 18.7888 26.1134 18.7706 26.103 18.7816C26.0926 18.7926 26.1015 18.8145 26.123 18.8303C26.1526 18.852 26.1539 18.8624 26.1288 18.8732C26.0733 18.8972 26.0893 18.995 26.1488 18.995C26.2073 18.995 26.221 18.9509 26.1686 18.9311C26.1504 18.9242 26.1439 18.9089 26.1541 18.8973C26.1644 18.8857 26.1932 18.8977 26.2182 18.924C26.2563 18.9646 26.2575 18.9761 26.226 18.9976C26.194 19.0195 26.1941 19.0269 26.2275 19.0496C26.249 19.0643 26.2563 19.0864 26.2438 19.0988C26.2313 19.1111 26.2157 19.1055 26.2092 19.0863C26.1952 19.0447 26.0428 19.0384 26.0428 19.0792C26.0428 19.0946 26.0665 19.1073 26.0957 19.1073C26.1545 19.1073 26.1675 19.1507 26.1157 19.1731C26.0906 19.1837 26.0922 19.1952 26.1223 19.2196C26.1523 19.2441 26.1539 19.2554 26.1288 19.2662C26.1104 19.2741 26.0957 19.3287 26.0957 19.3903C26.0957 19.5148 26.0494 19.5353 25.9665 19.4477C25.9392 19.4187 25.9012 19.3895 25.8822 19.3827C25.8584 19.3744 25.8548 19.3534 25.8704 19.3162C25.9085 19.2247 25.9083 19.0498 25.8693 18.7736C25.8488 18.6286 25.8379 18.5 25.8451 18.4878C25.8522 18.4757 25.8459 18.4577 25.831 18.4481C25.8132 18.4363 25.8041 18.6062 25.8041 18.9532C25.8041 19.4391 25.8074 19.4748 25.8507 19.4603C25.9068 19.4415 26.0428 19.5566 26.0428 19.6229C26.0428 19.648 26.0547 19.6687 26.0692 19.6687C26.0838 19.6687 26.0957 19.6938 26.0957 19.7247C26.0957 19.7556 26.1077 19.7809 26.1223 19.7809C26.1368 19.7809 26.1488 19.7936 26.1488 19.8089C26.1488 19.8245 26.101 19.8371 26.0428 19.8371C25.9334 19.8371 25.8787 19.972 25.9699 20.0172C25.9964 20.0302 25.9964 20.0367 25.9699 20.0499C25.9516 20.0588 25.9366 20.1021 25.9366 20.1458C25.9366 20.1895 25.9516 20.231 25.9699 20.2379C25.9919 20.2462 25.9816 20.2707 25.9385 20.311C25.8891 20.3574 25.8815 20.3791 25.9054 20.4046C25.9544 20.4563 25.9421 20.4876 25.8854 20.4555C25.8572 20.4395 25.8274 20.4264 25.8191 20.4264C25.8109 20.4264 25.8041 20.9064 25.8041 21.493V22.5595H27.2061C28.357 22.5595 28.6133 22.5663 28.6379 22.5977C28.6815 22.6532 28.7071 24.712 28.665 24.7658C28.6391 24.7988 27.9428 24.8048 24.1262 24.8048C21.6466 24.8048 19.623 24.8094 19.629 24.815C19.6351 24.8206 19.9727 24.8329 20.3794 24.8422C20.7859 24.8514 21.1231 24.8638 21.1285 24.8697C21.134 24.8754 20.9157 24.888 20.6432 24.8977C20.2833 24.9103 20.1422 24.925 20.1267 24.9511C20.1124 24.9754 20.1225 24.9902 20.1577 24.9963C20.2139 25.0059 20.2387 25.2259 20.1836 25.2259C20.169 25.2259 20.157 25.2132 20.157 25.1977C20.157 25.1823 20.1333 25.1697 20.1041 25.1697C20.0687 25.1697 20.051 25.1884 20.051 25.2259C20.051 25.2632 20.0687 25.2819 20.1041 25.2819C20.1333 25.2819 20.157 25.2946 20.157 25.3099C20.157 25.3508 20.0577 25.3446 20.0435 25.3031C20.0357 25.2796 20.0122 25.2911 19.9735 25.3371C19.9259 25.394 19.9112 25.3992 19.8919 25.3661C19.8728 25.3332 19.8568 25.34 19.8064 25.4021C19.7723 25.444 19.7285 25.4784 19.7091 25.4784C19.6874 25.4784 19.6788 25.4991 19.6868 25.5314C19.7096 25.6241 19.6671 25.6627 19.596 25.614C19.5589 25.5887 19.5074 25.5785 19.4677 25.5889C19.4313 25.5982 18.107 25.6101 16.525 25.6155C14.9428 25.6206 13.6433 25.6298 13.6373 25.6359C13.6312 25.6419 14.9686 25.6468 16.6091 25.6468H19.5919L19.6546 25.7801C19.6891 25.8534 19.7373 25.945 19.7617 25.9836C19.8565 26.1331 19.9188 26.269 19.9041 26.2942C19.8949 26.3098 19.2751 26.3222 18.3593 26.3249C17.5181 26.3275 16.9193 26.3374 17.0286 26.347C17.138 26.3567 17.3569 26.36 17.5152 26.3545C17.7154 26.3475 17.7977 26.3535 17.7855 26.3745C17.775 26.3923 17.6709 26.4047 17.5308 26.4047C17.3905 26.4047 17.2938 26.416 17.2938 26.4327C17.2938 26.4481 17.3245 26.4607 17.362 26.4607C17.435 26.4607 17.5253 26.5347 17.4921 26.5673C17.4811 26.5781 17.4668 26.5712 17.4602 26.552C17.4535 26.532 17.4036 26.5169 17.3446 26.5169C17.2584 26.5169 17.2407 26.5073 17.2407 26.4607C17.2407 26.417 17.2231 26.4047 17.1612 26.4047C17.1175 26.4047 17.0817 26.4173 17.0817 26.4327C17.0817 26.4481 17.1055 26.4607 17.1347 26.4607C17.1639 26.4607 17.1877 26.4733 17.1877 26.4889C17.1877 26.5297 17.0352 26.5232 17.0211 26.4818C17.0132 26.4584 16.9898 26.4699 16.9512 26.516C16.9026 26.5739 16.889 26.5785 16.8681 26.5441C16.8461 26.508 16.8398 26.508 16.8166 26.5449C16.7929 26.5824 16.7871 26.5824 16.7635 26.5449C16.74 26.5076 16.734 26.5076 16.7105 26.5449C16.6869 26.5824 16.6811 26.5824 16.6575 26.5449C16.6338 26.5076 16.628 26.5076 16.6044 26.5449C16.5809 26.5824 16.5748 26.5824 16.5494 26.5449C16.528 26.5133 16.5175 26.5116 16.5075 26.5379C16.5 26.5573 16.4591 26.5731 16.4167 26.5731C16.3742 26.5731 16.3393 26.5856 16.3393 26.6011C16.3393 26.6165 16.3697 26.6291 16.4067 26.6291C16.4719 26.6291 16.6248 26.7573 16.596 26.7878C16.5882 26.796 16.4976 26.804 16.3944 26.8057C16.2912 26.8075 16.2068 26.8188 16.2068 26.8312C16.2068 26.8435 16.3321 26.8537 16.4852 26.8537C16.642 26.8537 16.7635 26.8652 16.7635 26.8802C16.7635 26.8947 16.6949 26.9063 16.611 26.9057C16.5273 26.9053 16.3336 26.9126 16.1806 26.9221C15.9922 26.9338 15.8783 26.9285 15.8269 26.906C15.7718 26.8819 15.7462 26.8813 15.7329 26.9039C15.7207 26.925 15.4237 26.9422 14.8141 26.9575L13.9134 26.98L14.4834 26.9944C14.797 27.0023 16.2398 27.0122 17.6898 27.0164C19.6117 27.022 20.3361 27.0326 20.3625 27.0559C20.3825 27.0734 20.42 27.1331 20.4457 27.1883C20.5124 27.3307 20.6051 27.4999 20.6671 27.5926C20.6978 27.6383 20.7104 27.6824 20.697 27.6967C20.684 27.7105 19.7535 27.7227 18.5926 27.7241C17.4482 27.7257 16.4433 27.7342 16.3598 27.7429C16.0887 27.7714 16.2269 27.8079 16.606 27.8079C16.958 27.8079 16.9756 27.8106 16.9756 27.8641C16.9756 27.9164 16.9568 27.9204 16.6972 27.9237C16.3747 27.9277 16.3765 27.9276 16.3504 27.9553C16.3394 27.9668 16.4399 27.9763 16.5736 27.9763C16.7179 27.9763 16.8166 27.9877 16.8166 28.0043C16.8166 28.0203 16.7403 28.0325 16.6406 28.0325C16.4917 28.0325 16.4567 28.0421 16.4118 28.0956C16.3758 28.1384 16.3549 28.1475 16.3468 28.1238C16.3305 28.0756 16.1587 28.0793 16.1121 28.1286C16.0545 28.1897 16.065 28.2009 16.1802 28.2009C16.2386 28.2009 16.2863 28.2136 16.2863 28.2289C16.2863 28.2463 16.1449 28.257 15.9151 28.257C15.6854 28.257 15.544 28.2677 15.544 28.2851C15.544 28.3101 16.0132 28.3318 16.211 28.3159C16.2497 28.3127 16.2892 28.3235 16.2987 28.3397C16.3082 28.356 16.3808 28.3693 16.4602 28.3693C16.5395 28.3693 16.6044 28.3801 16.6044 28.3932C16.6044 28.4239 16.0481 28.4527 15.3849 28.4564C15.1005 28.4581 14.337 28.4683 13.6881 28.4794C12.8761 28.4931 13.8733 28.501 16.8862 28.5044C20.7943 28.509 21.2677 28.5142 21.2981 28.5528C21.3167 28.5767 21.3579 28.6493 21.3896 28.7142C21.4498 28.8378 21.534 28.9957 21.5905 29.0914C21.6837 29.2495 21.9735 29.2393 17.3962 29.2393C15.0894 29.2393 13.207 29.244 13.2132 29.2499C13.2191 29.2557 13.718 29.2679 14.3215 29.2771C14.925 29.2863 15.4251 29.3005 15.4328 29.3087C15.446 29.3228 15.2122 29.3372 15.1131 29.3283C15.0876 29.3261 15.0667 29.3367 15.0667 29.352C15.0667 29.3681 14.9641 29.3804 14.8216 29.3816C14.6866 29.3827 14.5524 29.3945 14.5232 29.4077C14.4876 29.424 14.5421 29.4324 14.6889 29.4339C14.8159 29.435 14.9076 29.4475 14.9076 29.4639C14.9076 29.4793 14.848 29.4919 14.7751 29.4919C14.7022 29.4919 14.6425 29.5046 14.6425 29.5199C14.6425 29.5355 14.6664 29.5481 14.6956 29.5481C14.7248 29.5481 14.7487 29.5608 14.7487 29.5761C14.7487 29.5915 14.6889 29.6042 14.616 29.6042C14.5012 29.6042 14.4834 29.6116 14.4834 29.6603C14.4834 29.7227 14.4434 29.7359 14.4194 29.6813C14.407 29.6533 14.4009 29.6533 14.3885 29.6813C14.38 29.7007 14.3501 29.7165 14.3222 29.7165C14.289 29.7165 14.2714 29.7359 14.2714 29.7726C14.2714 29.8224 14.2538 29.8288 14.1123 29.8288C13.9854 29.8288 13.9532 29.8377 13.9532 29.8729C13.9532 29.9569 13.8818 29.9972 13.732 29.9972C13.6416 29.9972 13.5806 30.0104 13.571 30.0322C13.5586 30.0603 13.5525 30.0603 13.5402 30.0322C13.5217 29.9906 13.423 29.9847 13.423 30.0252C13.423 30.0406 13.4458 30.0532 13.4738 30.0532C13.5017 30.0532 13.5307 30.069 13.5381 30.0883C13.5482 30.1149 13.559 30.1131 13.5821 30.0814C13.6052 30.0495 13.6159 30.0478 13.6261 30.0743C13.6334 30.0936 13.6751 30.1094 13.7184 30.1094C13.7643 30.1094 13.7905 30.1212 13.781 30.1374C13.7719 30.153 13.6997 30.1656 13.6202 30.1656C13.541 30.1656 13.4761 30.1781 13.4761 30.1936C13.4761 30.209 13.4522 30.2216 13.423 30.2216C13.3648 30.2216 13.3505 30.1771 13.4029 30.1586C13.4268 30.1501 13.4237 30.1343 13.3915 30.1001C13.3363 30.0416 13.317 30.0409 13.317 30.0973C13.317 30.1705 13.2468 30.2216 13.1465 30.2216C13.0944 30.2216 13.0519 30.2343 13.0519 30.2497C13.0519 30.2652 13.0757 30.2778 13.1048 30.2778C13.134 30.2778 13.1579 30.2905 13.1579 30.3058C13.1579 30.3212 13.1936 30.3339 13.2375 30.3339C13.2812 30.3339 13.317 30.3465 13.317 30.362C13.317 30.3774 13.2692 30.3901 13.2108 30.3901C13.1526 30.3901 13.1048 30.4027 13.1048 30.4181C13.1048 30.4336 13.0572 30.4462 12.9988 30.4462C12.9405 30.4462 12.8928 30.4589 12.8928 30.4743C12.8928 30.4911 12.9988 30.5023 13.1579 30.5023C13.317 30.5023 13.423 30.5135 13.423 30.5305C13.423 30.5473 13.317 30.5585 13.1579 30.5585C12.9988 30.5585 12.8928 30.5697 12.8928 30.5865C12.8928 30.602 12.9524 30.6147 13.0253 30.6147C13.0982 30.6147 13.1579 30.6253 13.1579 30.6382C13.1579 30.6592 12.5972 30.6901 11.8323 30.7115C11.6938 30.7154 11.0018 30.7224 10.2946 30.7273L9.0087 30.7362L10.4404 30.7576C11.2278 30.7696 15.9583 30.7832 20.9525 30.7881L30.0328 30.797V25.703C30.0328 22.9012 30.0241 20.2173 30.0134 19.7388C30.0028 19.2603 29.9861 18.4551 29.9763 17.9496C29.9667 17.4441 29.9485 17.0303 29.9361 17.0303C29.9236 17.0303 29.9134 17.1748 29.9134 17.3511ZM28.0576 17.6198C28.0576 17.6352 28.0338 17.6478 28.0046 17.6478C27.9426 17.6478 27.9343 17.7178 27.9894 17.7762C28.0409 17.8305 28.0576 17.8266 28.0576 17.7601C28.0576 17.7293 28.0695 17.704 28.0842 17.704C28.0987 17.704 28.1107 17.6787 28.1107 17.6478C28.1107 17.6169 28.0987 17.5918 28.0842 17.5918C28.0695 17.5918 28.0576 17.6043 28.0576 17.6198ZM24.1676 18.6021C24.1676 18.6716 24.1728 18.7 24.179 18.6652C24.1854 18.6306 24.1854 18.5737 24.179 18.5389C24.1728 18.5043 24.1676 18.5326 24.1676 18.6021ZM24.1621 18.8533C24.1609 18.9197 24.169 18.9411 24.1877 18.9212C24.2058 18.902 24.2063 18.8693 24.1894 18.8245C24.1653 18.7605 24.1637 18.7624 24.1621 18.8533ZM25.1505 18.9259C25.1053 18.9621 25.1082 18.9653 25.1877 18.9661C25.2754 18.967 25.3042 18.9292 25.2367 18.9018C25.2162 18.8934 25.1774 18.9043 25.1505 18.9259ZM23.2855 18.939L23.007 18.9559L23.3335 18.9615C23.5455 18.965 23.654 18.9571 23.6434 18.939C23.6344 18.9235 23.6129 18.9133 23.5955 18.9163C23.5781 18.9193 23.4386 18.9295 23.2855 18.939ZM24.3858 18.939C24.3757 18.9561 24.4137 18.9661 24.4836 18.965C24.5717 18.9634 24.5857 18.9575 24.5449 18.939C24.4714 18.9055 24.4052 18.9055 24.3858 18.939ZM25.8572 19.5283C25.8572 19.5437 25.875 19.5563 25.8969 19.5563C25.9188 19.5563 25.9366 19.5437 25.9366 19.5283C25.9366 19.5129 25.9188 19.5003 25.8969 19.5003C25.875 19.5003 25.8572 19.5129 25.8572 19.5283ZM18.7111 20.8193C18.7111 21.5217 18.7145 21.8091 18.7187 21.4579C18.7229 21.1067 18.7229 20.532 18.7187 20.1808C18.7145 19.8296 18.7111 20.117 18.7111 20.8193ZM25.9366 19.6382C25.9366 19.6525 25.9516 19.6713 25.9699 19.6803C25.9964 19.6934 25.9964 19.7 25.9699 19.7131C25.9183 19.7385 25.9308 19.7809 25.9897 19.7809C26.0517 19.7809 26.06 19.7109 26.0049 19.6526C25.9613 19.6065 25.9366 19.6013 25.9366 19.6382ZM11.6315 20.8334C11.6316 21.1885 11.6354 21.3299 11.64 21.1475C11.6447 20.9653 11.6447 20.6749 11.6399 20.502C11.6353 20.3293 11.6315 20.4783 11.6315 20.8334ZM22.5715 21.8228L22.5697 22.5595H23.0734H23.5772V21.9972C23.5772 21.5234 23.5709 21.4325 23.5374 21.419C23.5155 21.4101 23.4976 21.3899 23.4976 21.3743C23.4976 21.3579 23.5145 21.3606 23.5374 21.3807C23.5698 21.4092 23.5772 21.4076 23.5772 21.3717C23.5772 21.3477 23.5647 21.3198 23.5495 21.3098C23.5249 21.2938 23.5305 21.2474 23.5704 21.1352C23.58 21.108 23.4914 21.1001 23.1807 21.1001C22.9438 21.1001 22.7848 21.1106 22.7937 21.1258C22.8019 21.1399 22.8522 21.1478 22.9052 21.1433C22.9585 21.1389 23.033 21.1452 23.0708 21.1573C23.1132 21.1709 23.1219 21.1803 23.0932 21.1819C23.0677 21.1832 23.0483 21.1936 23.0501 21.2053C23.0585 21.262 23.0436 21.2985 23.0137 21.2944C22.9017 21.279 22.8288 21.3004 22.8159 21.3526C22.7965 21.4312 22.7552 21.4227 22.7552 21.3402C22.7552 21.2632 22.7148 21.2212 22.6944 21.2774C22.6871 21.2975 22.6874 21.3483 22.6948 21.3899C22.7061 21.4522 22.7007 21.4625 22.664 21.4477C22.6396 21.4376 22.6251 21.4147 22.6316 21.3965C22.6382 21.3783 22.6278 21.301 22.6084 21.2247C22.5766 21.0995 22.5731 21.1574 22.5715 21.8228ZM24.1604 21.8298V22.5595H24.6907H25.2209V21.8298V21.1001H24.7259C24.4538 21.1001 24.2397 21.1091 24.2502 21.1202C24.2606 21.1314 24.31 21.1367 24.36 21.1321C24.5035 21.1191 24.5164 21.1515 24.4093 21.2554L24.3115 21.3503L24.327 21.6245C24.3357 21.7794 24.3547 21.9031 24.3707 21.9087C24.4065 21.9213 24.408 22.0262 24.3725 22.0262C24.3575 22.0262 24.346 22.1047 24.346 22.2054C24.346 22.3609 24.3389 22.3865 24.2929 22.3993C24.2495 22.4112 24.2403 22.4004 24.2418 22.3394C24.2434 22.2724 24.246 22.2705 24.2665 22.321C24.2841 22.3644 24.2897 22.3501 24.291 22.2577C24.2924 22.1766 24.2823 22.1408 24.2598 22.1455C24.2416 22.1494 24.2267 22.1336 24.2267 22.1105C24.2267 22.0873 24.2416 22.0715 24.2598 22.0754C24.278 22.0793 24.2929 22.0698 24.2929 22.0543C24.2929 22.0389 24.2803 22.0262 24.2648 22.0262C24.2494 22.0262 24.2453 22.0117 24.2556 21.9939C24.2795 21.9531 24.2871 21.4093 24.2636 21.4246C24.2431 21.4381 24.2134 21.2942 24.2134 21.1807C24.2134 21.1363 24.2014 21.1001 24.1869 21.1001C24.1699 21.1001 24.1604 21.3619 24.1604 21.8298ZM25.0087 21.2646C25.0087 21.2744 24.979 21.2843 24.9425 21.2865C24.8797 21.2904 24.8583 21.2687 24.891 21.234C24.9093 21.2146 25.0088 21.2405 25.0087 21.2646ZM25.1413 21.4378C25.1413 21.481 25.1264 21.5227 25.1082 21.5306C25.0827 21.5415 25.0835 21.5512 25.112 21.5722C25.1325 21.5872 25.1416 21.62 25.1325 21.6452C25.1181 21.6851 25.109 21.6832 25.0588 21.6302C25.0075 21.5757 25.0061 21.567 25.0449 21.544C25.0988 21.5119 25.1026 21.453 25.0494 21.4747C24.9959 21.4964 24.9741 21.4493 25.0072 21.3838C25.0489 21.3013 25.1413 21.3385 25.1413 21.4378ZM25.163 21.8249C25.1687 21.8654 25.1576 21.8859 25.1299 21.8859C25.1029 21.8859 25.0882 21.8606 25.0882 21.8134C25.0882 21.7255 25.1505 21.7351 25.163 21.8249ZM20.4624 22.2085C20.4519 22.4477 20.4345 22.6377 20.4238 22.6307C20.413 22.6238 20.41 22.5462 20.4168 22.4585C20.4259 22.3438 20.4209 22.3044 20.3993 22.3185C20.3828 22.3295 20.3692 22.4062 20.3692 22.4894C20.3692 22.6884 20.3856 22.6824 19.7726 22.7075C18.8249 22.7462 18.8262 22.7463 18.8102 22.6998C18.8022 22.6766 18.7855 22.6505 18.773 22.6416C18.7606 22.6327 18.7406 22.5064 18.7283 22.3609L18.7062 22.0964L18.7025 22.4402L18.6989 22.784H19.6003H20.5017V22.2789C20.5017 21.6587 20.4878 21.6338 20.4624 22.2085ZM21.966 22.1665C21.966 22.2205 21.9715 22.2427 21.9781 22.2156C21.9848 22.1886 21.9848 22.1445 21.9781 22.1175C21.9715 22.0905 21.966 22.1125 21.966 22.1665ZM11.619 22.3631C11.6048 22.5462 11.6077 22.5821 11.6348 22.5533C11.6428 22.5449 11.6457 22.4575 11.6413 22.3592L11.6331 22.1806L11.619 22.3631ZM21.9069 22.5197L21.8406 22.5587L21.9135 22.5591C21.9608 22.5594 21.9864 22.5447 21.9864 22.5174C21.9864 22.4943 21.9834 22.4765 21.9798 22.478C21.9761 22.4796 21.9432 22.4983 21.9069 22.5197ZM16.3875 22.7769C16.713 22.7814 17.2379 22.7814 17.554 22.7769C17.8702 22.7725 17.604 22.7689 16.9623 22.7689C16.3208 22.7689 16.0621 22.7725 16.3875 22.7769ZM31.9876 23.0646C31.9876 23.1187 31.993 23.1408 31.9997 23.1138C32.0063 23.0868 32.0063 23.0426 31.9997 23.0156C31.993 22.9886 31.9876 23.0106 31.9876 23.0646ZM31.9938 25.3802C31.9938 26.3064 31.9972 26.6811 32.0013 26.2131C32.0054 25.7451 32.0054 24.9873 32.0013 24.5291C31.9972 24.071 31.9938 24.4539 31.9938 25.3802ZM21.6882 24.881C21.648 24.8875 21.5824 24.8875 21.5423 24.881C21.5022 24.8747 21.5351 24.8694 21.6153 24.8694C21.6954 24.8694 21.7282 24.8747 21.6882 24.881ZM19.839 25.5323C19.839 25.5463 19.824 25.5643 19.8057 25.5722C19.7809 25.5828 19.7825 25.5938 19.8124 25.6162C19.8342 25.6326 19.8397 25.6462 19.8243 25.6464C19.7691 25.6472 19.7347 25.5863 19.768 25.5462C19.8044 25.5022 19.839 25.4955 19.839 25.5323ZM16.1737 26.3413C16.2793 26.3466 16.4524 26.3466 16.5581 26.3413C16.6637 26.336 16.5772 26.3315 16.3659 26.3315C16.1544 26.3315 16.0679 26.336 16.1737 26.3413ZM18.3521 26.3943C18.3582 26.3999 18.2775 26.4047 18.173 26.4047C18.0686 26.4047 17.9831 26.3935 17.9831 26.3798C17.9831 26.3571 18.3267 26.3706 18.3521 26.3943ZM16.4454 26.4327C16.4454 26.4481 16.4692 26.4607 16.4984 26.4607C16.5276 26.4607 16.5514 26.4481 16.5514 26.4327C16.5514 26.4173 16.5276 26.4047 16.4984 26.4047C16.4692 26.4047 16.4454 26.4173 16.4454 26.4327ZM16.9425 26.884C16.9109 26.9034 16.8812 26.9034 16.8497 26.884C16.8118 26.8606 16.8204 26.8555 16.8961 26.8555C16.9718 26.8555 16.9804 26.8606 16.9425 26.884ZM17.4471 26.8743C17.3784 26.88 17.2591 26.88 17.182 26.8744C17.1049 26.8687 17.1612 26.8639 17.307 26.8639C17.4528 26.8638 17.5159 26.8685 17.4471 26.8743ZM11.4147 28.5008C11.4402 28.508 11.482 28.508 11.5076 28.5008C11.5331 28.4938 11.5122 28.488 11.4611 28.488C11.4101 28.488 11.3892 28.4938 11.4147 28.5008ZM12.3957 29.2597C12.4503 29.2659 12.5399 29.2659 12.5944 29.2597C12.6491 29.2537 12.6045 29.2488 12.4951 29.2488C12.3857 29.2488 12.341 29.2537 12.3957 29.2597ZM15.9084 29.3147C15.8829 29.3219 15.8412 29.3219 15.8157 29.3147C15.7902 29.3077 15.8111 29.302 15.8622 29.302C15.9132 29.302 15.934 29.3077 15.9084 29.3147ZM12.5216 30.362C12.5216 30.3774 12.5813 30.3901 12.6542 30.3901C12.7271 30.3901 12.7867 30.3774 12.7867 30.362C12.7867 30.3465 12.7271 30.3339 12.6542 30.3339C12.5813 30.3339 12.5216 30.3465 12.5216 30.362ZM12.6806 30.5865C12.6806 30.602 12.7165 30.6147 12.7602 30.6147C12.8039 30.6147 12.8397 30.602 12.8397 30.5865C12.8397 30.5711 12.8039 30.5585 12.7602 30.5585C12.7165 30.5585 12.6806 30.5711 12.6806 30.5865ZM8.5655 30.7476C8.6426 30.7533 8.76192 30.7532 8.83074 30.7474C8.89943 30.7417 8.83644 30.7371 8.69065 30.7371C8.54473 30.7372 8.48853 30.7418 8.5655 30.7476Z" fill="#D4A53C"/>
<path fill-rule="evenodd" clip-rule="evenodd" d="M0.0809446 0.86718C0.0532533 0.883706 0.0356071 0.925523 0.037236 0.970645L0.0398147 1.04652L0.0582758 0.976393L0.0767368 0.906122H16.0277C26.6619 0.906122 31.97 0.896782 31.9524 0.878101C31.9159 0.839445 0.145422 0.828381 0.0809446 0.86718ZM2.00875 2.94797C2.00182 2.96722 1.99925 9.24119 2.00291 16.8901L2.0097 30.797L10.2947 30.7972L18.5797 30.7973L10.3292 30.7831C4.61431 30.7733 2.0701 30.7599 2.05069 30.7394C2.03128 30.7188 2.0249 26.5064 2.02952 16.8392L2.03617 2.96837L16.0214 2.96722L30.0064 2.96607L30.0197 11.1419L30.0331 19.3178L30.033 11.1224L30.0329 2.92699L16.0271 2.91994C4.83638 2.91434 2.01879 2.91994 2.00875 2.94797ZM11.9438 10.721C11.9206 10.7455 11.9119 10.9561 11.9119 11.4928V12.231L11.8125 12.2328C11.7578 12.2336 11.4941 12.2329 11.2264 12.231C10.5895 12.2267 10.6393 12.1767 10.6393 12.8214C10.6393 13.2491 10.6454 13.3242 10.683 13.3572C10.7353 13.4033 11.6888 13.4427 11.6455 13.397C11.6315 13.3822 11.4322 13.366 11.2025 13.3607C10.973 13.3555 10.7581 13.3451 10.725 13.3377L10.6647 13.3242L10.6719 12.8127L10.6791 12.3012L11.2876 12.2935C11.734 12.2881 11.9017 12.2769 11.9169 12.2516C11.9283 12.2325 11.9378 11.8854 11.938 11.4802C11.9382 11.075 11.9414 10.7404 11.945 10.7367C11.9487 10.7329 13.8784 10.7233 16.2334 10.7154L20.5151 10.701L16.2453 10.6942C12.9525 10.689 11.9682 10.695 11.9438 10.721ZM21.4359 10.9399C21.4359 10.9939 21.4414 11.016 21.448 10.989C21.4547 10.962 21.4547 10.9179 21.448 10.8909C21.4414 10.8639 21.4359 10.8858 21.4359 10.9399ZM12.4223 11.2392C12.4041 11.247 12.3908 11.2934 12.3927 11.3422C12.3956 11.4112 12.399 11.4165 12.408 11.3662C12.425 11.272 12.1466 11.2783 16.7178 11.2701L20.9537 11.2628L20.9465 11.7539L20.9393 12.245L16.9758 12.2536C14.7957 12.2582 12.8784 12.2539 12.7148 12.2438L12.4175 12.2256L12.4083 11.9686L12.3991 11.7118L12.4007 11.9925L12.4023 12.2731H16.684H20.9657L20.9729 11.7469L20.9803 11.2207L16.7178 11.2228C14.3735 11.224 12.4405 11.2314 12.4223 11.2392ZM21.4583 12.2381C21.4564 12.2835 21.504 12.2871 22.1049 12.2871C22.8785 12.2871 22.8011 12.2214 22.7825 12.8625L22.7687 13.3397L22.2656 13.3473C21.9829 13.3516 21.7511 13.367 21.7366 13.3825C21.7196 13.4005 21.8918 13.4085 22.2329 13.4059C22.579 13.4032 22.763 13.3914 22.7783 13.3707C22.8236 13.3096 22.835 12.3476 22.7909 12.3007C22.7583 12.2662 22.6434 12.2591 22.1194 12.2591C21.6385 12.2591 21.484 12.2507 21.4738 12.224C21.4658 12.203 21.4596 12.2086 21.4583 12.2381ZM12.8841 13.3723C12.8743 13.3826 12.8663 15.511 12.8663 18.1019V22.8129L13.7213 22.8055L14.5764 22.7981L14.5832 18.8841C14.5868 16.7314 14.5997 14.9596 14.6118 14.9468C14.6615 14.8942 18.6032 14.9213 18.6405 14.9746C18.668 15.0139 18.674 15.7735 18.6713 18.9025C18.6695 21.036 18.6743 22.7925 18.6822 22.8058C18.6899 22.8192 19.102 22.8333 19.598 22.8371L20.4999 22.8442L20.5147 22.7791C20.523 22.7432 20.5263 20.6109 20.5223 18.0408L20.5151 13.3677L16.7085 13.3605C14.6148 13.3566 12.8939 13.362 12.8841 13.3723ZM20.5018 18.0808C20.5018 21.813 20.495 22.7807 20.4687 22.7907C20.4505 22.7978 20.0449 22.7975 19.5673 22.79L18.699 22.7766V18.8852C18.699 15.4088 18.6946 14.9874 18.6577 14.9316L18.6165 14.8692H16.6488C14.9107 14.8692 14.6741 14.8744 14.622 14.9129L14.5631 14.9566V18.8707V22.7848L13.7346 22.7774L12.9061 22.77L12.8994 18.0919L12.8928 13.4137L12.9525 13.4016C12.9854 13.3949 14.6973 13.3881 16.7569 13.3865L20.5018 13.3835V18.0808ZM16.1738 15.5077L15.0403 15.5155L15.044 15.5923C15.047 15.6584 15.0492 15.6603 15.0591 15.606L15.0705 15.5429L16.56 15.5405C17.3792 15.5392 18.0774 15.535 18.1115 15.531C18.1537 15.5261 18.1809 15.5426 18.1961 15.5824C18.2163 15.6357 18.2186 15.634 18.2201 15.5639L18.2219 15.4867L17.7644 15.4935C17.5129 15.4971 16.7971 15.5035 16.1738 15.5077ZM10.3609 15.8513L9.75118 15.8657L9.75009 16.4691L9.749 17.0725L9.76339 16.4831L9.77765 15.8937H10.52H11.2624L11.2757 17.3392L11.2889 18.7845L11.3022 17.3672C11.3095 16.5876 11.3111 15.9339 11.3058 15.9145C11.2868 15.8442 11.1238 15.8333 10.3609 15.8513ZM22.0727 15.8552C22.0544 15.8748 22.0397 15.9042 22.0399 15.9204C22.0401 15.9365 22.0509 15.9322 22.0638 15.9106C22.0932 15.8613 23.4873 15.8636 23.5435 15.9131C23.5672 15.9339 23.5773 15.9338 23.5773 15.9128C23.5773 15.8582 23.5376 15.8543 22.8194 15.8368C22.2591 15.8231 22.0986 15.827 22.0727 15.8552ZM10.2008 16.3917C10.1934 16.4121 10.1907 16.6682 10.1946 16.9611L10.2018 17.4935H10.5069H10.8117V16.9322V16.3708L10.513 16.3629C10.2852 16.3568 10.2109 16.3637 10.2008 16.3917ZM22.7988 16.3777L23.0942 16.3866L23.1126 16.5436C23.1315 16.7034 23.1263 17.3524 23.1057 17.4163C23.0976 17.4415 23.0129 17.4514 22.8056 17.4514C22.6165 17.4514 22.5167 17.4619 22.5167 17.4817C22.5167 17.5471 23.1029 17.5031 23.127 17.4359C23.1622 17.3382 23.1597 16.4413 23.1243 16.3961C23.1007 16.366 23.0244 16.3583 22.7985 16.3627L22.5034 16.3687L22.7988 16.3777ZM10.7984 16.9322V17.4794L10.646 17.4793C10.5621 17.4791 10.4308 17.4709 10.3544 17.4613L10.2151 17.4436V16.9142V16.3848H10.5069H10.7984V16.9322ZM22.0202 17.0865C22.0202 17.1559 22.0253 17.1844 22.0317 17.1496C22.0381 17.115 22.0381 17.0581 22.0317 17.0233C22.0253 16.9887 22.0202 17.017 22.0202 17.0865ZM9.19627 17.5053C9.16084 17.5469 9.15473 17.6577 9.15473 18.2606V18.967H8.61217H8.06961L8.06092 18.7073L8.05223 18.4478L8.04667 18.7208C8.04124 18.991 8.04192 18.9942 8.10762 19.0115C8.19001 19.0335 9.14441 19.0153 9.16695 18.9914C9.17604 18.9818 9.18894 18.6555 9.19559 18.266C9.21011 17.428 9.17943 17.5076 9.4877 17.5076C9.62534 17.5076 9.73801 17.4977 9.73801 17.4857C9.73801 17.4363 9.23997 17.4543 9.19627 17.5053ZM23.9396 17.5001C24.1369 17.5148 24.1322 17.4959 24.1402 18.2956L24.1473 19.0091H24.7172H25.2872L25.2939 18.7706C25.3047 18.3833 25.2916 18.402 25.5465 18.4116L25.7645 18.4196L25.7789 18.8407L25.7931 19.2617L25.7987 18.8512C25.8052 18.3702 25.8121 18.3833 25.5458 18.375C25.284 18.3669 25.274 18.379 25.274 18.7037V18.967L25.1745 18.9704C25.1198 18.9725 24.9678 18.9727 24.8365 18.9712C24.7053 18.9694 24.4995 18.9679 24.3792 18.9676L24.1606 18.967V18.2673C24.1606 17.4591 24.1653 17.4761 23.9398 17.4846L23.8026 17.4899L23.9396 17.5001ZM22.0192 18.7484C22.0133 19.4646 22.0153 19.4996 22.0643 19.5273C22.0982 19.5465 22.7233 19.5563 23.9086 19.5563C25.8117 19.5563 25.807 19.5567 25.8006 19.4221C25.7971 19.3464 25.7969 19.3464 25.7847 19.4161C25.7779 19.4546 25.7586 19.4955 25.7419 19.5069C25.7008 19.5346 22.1145 19.5333 22.0731 19.5054C22.0488 19.4892 22.0385 19.2916 22.0329 18.7411L22.0253 17.9987L22.0192 18.7484ZM9.67665 18.059C9.66661 18.0696 9.65847 18.2838 9.65847 18.5352V18.9921L10.0229 19.0006C10.2234 19.0052 10.4862 19.0054 10.6069 19.0009L10.8263 18.9927L10.8189 18.5238L10.8117 18.0548L10.2533 18.0473C9.9461 18.0431 9.68656 18.0483 9.67665 18.059ZM15.0452 18.1881L15.0403 18.3495H16.6311C17.506 18.3495 18.2219 18.34 18.2219 18.3284C18.2219 18.3169 17.5126 18.3109 16.6458 18.315L15.0697 18.3228L15.0599 18.1748L15.0501 18.0268L15.0452 18.1881ZM23.0735 18.0615L23.6435 18.0699L23.6506 18.5185L23.6576 18.967H23.1027C22.6834 18.967 22.5444 18.9584 22.5342 18.9319C22.5264 18.9111 22.5201 18.9171 22.5189 18.9465C22.5169 18.9927 22.5561 18.9956 23.0934 18.9886L23.67 18.9809V18.5179V18.0548L23.0867 18.0539L22.5034 18.0531L23.0735 18.0615ZM10.7984 18.5179V18.967H10.2416H9.68493V18.5179V18.0689H10.2416H10.7984V18.5179ZM7.59207 18.3896C7.57551 18.4106 7.63904 18.4196 7.80261 18.4196C7.98749 18.4196 8.03092 18.4123 8.00907 18.3844C7.975 18.3409 7.62682 18.3454 7.59207 18.3896ZM7.53207 18.9528C7.51701 19.358 7.52053 19.4694 7.54958 19.5164L7.58583 19.5749L9.42404 19.5628C11.4887 19.5493 11.3308 19.5705 11.3235 19.3073L11.3183 19.1213L11.3089 19.3106C11.2971 19.5532 11.4978 19.5312 9.38006 19.522L7.57728 19.5142L7.56397 18.9809L7.55067 18.4478L7.53207 18.9528ZM22.5228 18.7706C22.5228 18.8246 22.5284 18.8466 22.5351 18.8196C22.5417 18.7925 22.5417 18.7484 22.5351 18.7214C22.5284 18.6944 22.5228 18.7165 22.5228 18.7706ZM15.0733 19.0745C15.047 19.0922 15.0414 19.4855 15.0467 20.9475L15.0537 22.7981L16.6378 22.8052L18.2219 22.8126L18.2163 22.5246L18.2107 22.2368L18.202 22.5107L18.1934 22.7844L16.6367 22.7772L15.0801 22.77V20.9376C15.0801 19.3393 15.0851 19.1018 15.1199 19.0787C15.1417 19.064 15.1477 19.0521 15.1332 19.0521C15.1185 19.0521 15.0917 19.0621 15.0733 19.0745ZM15.9371 19.0722C16.3645 19.0765 17.0565 19.0765 17.4747 19.0722C17.893 19.0679 17.5432 19.0643 16.6973 19.0643C15.8517 19.0643 15.5095 19.0679 15.9371 19.0722ZM31.9941 21.2544C31.9941 22.2115 31.9973 22.6071 32.0014 22.1334C32.0055 21.66 32.0055 20.8769 32.0014 20.3934C31.9973 19.9098 31.9941 20.2974 31.9941 21.2544ZM7.55433 20.4342C7.5166 20.4634 7.50981 20.5036 7.51768 20.6517L7.52719 20.8334L7.53234 20.6447C7.53737 20.4576 7.53818 20.4559 7.62356 20.4297C7.68125 20.4122 7.6917 20.4026 7.65519 20.4008C7.62519 20.3996 7.57985 20.4145 7.55433 20.4342ZM8.63294 20.4194C9.12622 20.4237 9.92547 20.4237 10.4093 20.4194C10.893 20.4151 10.4896 20.4116 9.51254 20.4116C8.53561 20.4116 8.13979 20.4151 8.63294 20.4194ZM22.536 20.4187C22.5831 20.4248 22.6666 20.425 22.7216 20.4188C22.7767 20.4128 22.7381 20.4077 22.636 20.4076C22.534 20.4075 22.489 20.4125 22.536 20.4187ZM24.3397 20.4182C24.3727 20.425 24.4205 20.4247 24.4457 20.4177C24.4711 20.4106 24.4441 20.4052 24.3859 20.4054C24.3275 20.4057 24.3067 20.4115 24.3397 20.4182ZM21.9967 20.4669C21.9886 20.4891 21.9876 20.5302 21.9944 20.5581C22.0028 20.5924 22.0078 20.5845 22.01 20.5341C22.0116 20.4928 22.0279 20.4529 22.0461 20.445C22.0722 20.4339 22.0719 20.4304 22.0453 20.4286C22.0267 20.4274 22.0047 20.4447 21.9967 20.4669ZM25.7312 20.459C25.7733 20.4932 25.7781 20.5818 25.7847 21.4509L25.792 22.4052L25.7915 21.4231C25.7909 20.4635 25.7897 20.4409 25.738 20.4313C25.6886 20.4221 25.6881 20.424 25.7312 20.459ZM4.42888 20.569C4.38599 20.5954 4.383 20.6661 4.3887 21.5013L4.39495 22.4052L4.40241 21.5234C4.4073 20.9305 4.41938 20.6295 4.4392 20.6042C4.4806 20.5514 6.09986 20.5493 6.16692 20.6019C6.2071 20.6334 6.21226 20.7348 6.21837 21.6052L6.22515 22.5735L6.86137 22.5743L7.49773 22.575L6.86802 22.5667L6.23832 22.5585V21.5868C6.23832 20.6943 6.23452 20.6121 6.1919 20.5777C6.13366 20.5309 4.50381 20.5228 4.42888 20.569ZM5.71232 21.2645C5.73635 21.4937 5.74015 22.4088 5.71734 22.4989C5.70092 22.5634 4.98515 22.5896 4.92678 22.5276C4.90208 22.5015 4.8752 21.3536 4.89651 21.2332L4.91484 21.13L5.18551 21.1209L5.45631 21.1119L5.15795 21.106L4.85973 21.1001V21.8292V22.5584L4.91932 22.574C4.95217 22.5827 5.15198 22.586 5.36346 22.5816L5.74789 22.5735L5.75494 21.84C5.76051 21.2567 5.75494 21.1035 5.72739 21.0923C5.69983 21.0811 5.69671 21.1165 5.71232 21.2645ZM8.0859 21.0925C8.05739 21.1429 8.03676 21.8867 8.05441 22.2233L8.07368 22.5887L8.62086 22.5811L9.1679 22.5735V21.8298V21.086L8.63294 21.0784C8.33879 21.0742 8.09255 21.0805 8.0859 21.0925ZM9.72362 21.107C9.71643 21.1268 9.71371 21.465 9.71765 21.8583L9.72471 22.5735H10.2549H10.7851V21.8298V21.086L10.2609 21.0784C9.85244 21.0725 9.7338 21.0788 9.72362 21.107ZM22.5428 21.1433C22.5136 21.2248 22.508 22.001 22.5341 22.356L22.5511 22.5875H23.0779H23.6046L23.5975 21.8368L23.5904 21.086L23.0796 21.0784L22.5688 21.0708L22.5428 21.1433ZM24.1459 21.1076C24.1388 21.1271 24.1363 21.465 24.1402 21.8583L24.1473 22.5735L24.6974 22.5811L25.2474 22.5887V21.8304V21.0719H24.7031C24.2882 21.0719 24.1558 21.0804 24.1459 21.1076ZM9.15473 21.8298V22.5595H8.62438H8.09418V21.8298V21.1001H8.62438H9.15473V21.8298ZM10.7539 21.2754C10.7619 21.372 10.7644 21.6213 10.7595 21.8298C10.7546 22.0382 10.7493 22.2876 10.7479 22.3841L10.7453 22.5595H10.2416H9.73801V21.8298V21.1001H10.2386H10.7392L10.7539 21.2754ZM23.5773 21.8298V22.5595H23.0773H22.5775L22.5587 21.957C22.5482 21.6255 22.5478 21.2971 22.5577 21.2273L22.5758 21.1001H23.0765H23.5773V21.8298ZM25.221 21.8298V22.5595H24.6908H24.1606V21.8298V21.1001H24.6908H25.221V21.8298ZM21.729 22.321C21.7292 22.3981 21.7343 22.4263 21.7404 22.3836C21.7465 22.3411 21.7464 22.2779 21.74 22.2434C21.7338 22.2089 21.7287 22.2438 21.729 22.321ZM3.2444 22.6118C3.20911 22.6817 3.2064 24.6341 3.24155 24.732L3.26775 24.8048H8.41168H13.5557V24.8719C13.5557 24.9758 13.4856 24.9733 16.3084 24.9728C19.0157 24.9724 19.0632 24.9705 19.0314 24.8645L19.0136 24.805L23.8318 24.7979C28.0876 24.7916 28.6513 24.7859 28.662 24.7487C28.6718 24.7147 28.6674 24.7133 28.6391 24.7416C28.6113 24.7695 27.6035 24.7768 23.784 24.7768C21.1331 24.7768 18.9641 24.7869 18.9641 24.7992C18.9641 24.8116 18.9785 24.8367 18.996 24.8553C19.0773 24.9415 18.9516 24.9454 16.285 24.9382L13.5954 24.9312L13.6004 24.854L13.6054 24.7768H8.45199C5.12809 24.7768 3.293 24.767 3.28268 24.7494C3.25825 24.7076 3.26422 22.6375 3.28879 22.6115C3.3006 22.599 3.55457 22.5851 3.85307 22.5805L4.39576 22.5723L3.83339 22.5658C3.30834 22.5599 3.26911 22.563 3.2444 22.6118ZM11.4015 22.5798C11.4489 22.586 11.5265 22.586 11.5739 22.5798C11.6213 22.5736 11.5825 22.5684 11.4877 22.5684C11.393 22.5684 11.3541 22.5736 11.4015 22.5798ZM21.781 22.5796C21.8212 22.586 21.8867 22.586 21.9268 22.5796C21.967 22.5732 21.9341 22.5679 21.8539 22.5679C21.7737 22.5679 21.741 22.5732 21.781 22.5796ZM27.2093 22.5877C27.9896 22.596 28.6308 22.6056 28.6343 22.6092C28.638 22.6127 28.6425 22.644 28.6441 22.6788C28.6465 22.7284 28.6498 22.7311 28.6596 22.6914C28.6922 22.5582 28.7023 22.5591 27.1995 22.566L25.7909 22.5726L27.2093 22.5877ZM31.9914 23.4296C31.9914 23.5916 31.9957 23.658 32.0011 23.5769C32.0064 23.4959 32.0064 23.3632 32.0011 23.2822C31.9957 23.2011 31.9914 23.2675 31.9914 23.4296ZM28.6787 24.033C28.6787 24.3572 28.6827 24.486 28.6873 24.3191C28.692 24.1523 28.692 23.8872 28.6873 23.7297C28.6825 23.5723 28.6787 23.7088 28.6787 24.033ZM12.9579 25.7336C12.9346 25.7814 12.9213 25.8266 12.9283 25.834C12.9353 25.8415 12.9571 25.8119 12.9768 25.7682C13.0092 25.6964 13.0287 25.6874 13.1848 25.6726L13.3569 25.6566L13.1785 25.6517C13.0042 25.6469 12.9993 25.6488 12.9579 25.7336ZM19.5823 25.7149C19.6138 25.7524 19.6446 25.7778 19.6508 25.7712C19.6651 25.7561 19.5724 25.6468 19.5453 25.6468C19.5341 25.6468 19.5506 25.6775 19.5823 25.7149ZM19.7853 26.0744C19.8313 26.1631 19.8616 26.2483 19.8525 26.264C19.8414 26.2828 18.6615 26.2923 16.3146 26.2923C12.3737 26.2923 12.6639 26.3085 12.7971 26.0957C12.8356 26.0341 12.8572 25.9836 12.8451 25.9836C12.7741 25.9836 12.6962 26.2206 12.7489 26.2763C12.7969 26.3272 19.7885 26.3446 19.8638 26.294C19.9078 26.2646 19.8546 26.1114 19.7559 25.9836C19.7245 25.9431 19.737 25.9816 19.7853 26.0744ZM12.2422 27.091C12.2063 27.1289 12.177 27.1759 12.177 27.1954C12.177 27.215 12.1972 27.1998 12.2219 27.1617C12.2465 27.1235 12.2794 27.0829 12.2948 27.0716C12.3102 27.0602 14.1275 27.0507 16.3332 27.0506L20.3435 27.0502L20.396 27.1414C20.4249 27.1916 20.4487 27.2184 20.4487 27.2013C20.4487 27.1841 20.4241 27.1367 20.3939 27.096L20.3389 27.0221H16.3231H12.3072L12.2422 27.091ZM31.9943 29.8709C31.9943 31.4299 31.9975 32.0718 32.0014 31.2974C32.0053 30.5228 32.0053 29.2472 32.0014 28.4626C31.9975 27.678 31.9943 28.3117 31.9943 29.8709ZM20.4911 27.3308C20.516 27.3848 20.5656 27.4757 20.6011 27.5327C20.6368 27.5896 20.6582 27.6497 20.6486 27.6659C20.6366 27.6866 19.3199 27.6957 16.3113 27.6957C11.4585 27.6957 11.9267 27.7194 12.0589 27.4805C12.144 27.3269 12.1276 27.322 12.0331 27.4731C11.9939 27.5359 11.9654 27.6149 11.97 27.6485L11.9782 27.7097L16.3204 27.7168C21.1601 27.7247 20.7587 27.7424 20.6242 27.5271C20.5861 27.4662 20.5546 27.4064 20.5543 27.3946C20.5539 27.3827 20.5293 27.3413 20.4996 27.3028L20.4456 27.2325L20.4911 27.3308ZM11.2111 28.6631C11.0671 28.9013 10.98 29.0978 10.9891 29.1644L10.9973 29.2254L16.2548 29.2324C22.0487 29.2402 21.7241 29.2518 21.5585 29.0429L21.503 28.9727L21.5477 29.0518C21.6444 29.2229 22.0278 29.2113 16.2699 29.2113H11.0106V29.1515C11.0106 28.987 11.3003 28.5491 11.4215 28.5303C11.4942 28.5191 11.4926 28.5176 11.4023 28.5138C11.3104 28.5099 11.2975 28.5199 11.2111 28.6631ZM13.031 28.5304C13.1287 28.5357 13.2957 28.5357 13.4021 28.5304C13.5084 28.5251 13.4284 28.5207 13.2243 28.5207C13.0201 28.5207 12.9331 28.525 13.031 28.5304ZM13.9202 28.5304C14.026 28.5357 14.1989 28.5357 14.3046 28.5304C14.4104 28.5251 14.3239 28.5208 14.1124 28.5208C13.9009 28.5208 13.8145 28.5251 13.9202 28.5304ZM16.0524 28.5307C16.8496 28.5347 18.162 28.5347 18.9687 28.5307C19.7754 28.5265 19.1232 28.5231 17.5193 28.5231C15.9152 28.5231 15.2552 28.5265 16.0524 28.5307ZM21.2338 28.537C21.2646 28.5503 21.2978 28.5829 21.3074 28.6095C21.317 28.6362 21.3325 28.65 21.3419 28.6401C21.3671 28.6133 21.2689 28.5093 21.2201 28.5113C21.1908 28.5126 21.195 28.5205 21.2338 28.537ZM21.4271 28.8323C21.4718 28.9239 21.5084 28.9746 21.5083 28.9446C21.5082 28.9292 21.4837 28.8849 21.4539 28.8464C21.4179 28.7997 21.4089 28.7951 21.4271 28.8323ZM0.0141602 31.9337C0.0141602 31.9877 0.0195894 32.0099 0.0262407 31.9828C0.0330278 31.9558 0.0330278 31.9116 0.0262407 31.8845C0.0195894 31.8575 0.0141602 31.8797 0.0141602 31.9337ZM0.0159249 32.2143C0.0159249 32.2993 0.0209474 32.334 0.0270558 32.2915C0.0330284 32.2491 0.0330284 32.1797 0.0270558 32.1372C0.0209474 32.0948 0.0159249 32.1294 0.0159249 32.2143ZM0.0161962 32.5653C0.0163319 32.6578 0.0213546 32.6923 0.0271914 32.6418C0.0331641 32.5914 0.0330285 32.5157 0.0269201 32.4734C0.0209475 32.4313 0.0160605 32.4726 0.0161962 32.5653Z" fill="#E5BF64"/>
</svg>
