<svg width="32" height="32" viewBox="0 0 32 32" fill="none" xmlns="http://www.w3.org/2000/svg">
<path fill-rule="evenodd" clip-rule="evenodd" d="M15.8492 4.31544C15.7547 4.53348 15.3304 6.15308 15.3304 6.29543C15.3304 6.40376 15.3699 6.41391 15.4532 6.32709C15.6423 6.13033 15.7381 6.19377 15.7375 6.51481C15.7368 6.79604 15.7356 6.79988 15.4897 7.37706C15.0912 8.3125 15.1144 8.74919 15.5651 8.79631L15.738 8.81424L15.7444 10.0276L15.7508 11.2408L15.6949 11.254C15.6643 11.2613 15.189 11.2643 14.6389 11.2606L13.6386 11.2539V10.0462V8.83848L13.8463 8.82005C14.1418 8.79383 14.1297 8.8156 14.1125 8.34355C14.0958 7.88188 14.0715 7.78554 13.8478 7.29098C13.5421 6.61512 13.5491 6.12427 13.8615 6.32449C14.0437 6.44136 14.0279 6.2723 13.762 5.26351C13.6989 5.02446 13.6206 4.72653 13.5879 4.60162C13.5551 4.47671 13.5218 4.35441 13.5139 4.32991C13.4921 4.26301 13.4316 4.27624 13.4146 4.35168C13.4062 4.38829 13.3898 4.45074 13.3779 4.49056C13.3661 4.53051 13.3271 4.67174 13.2912 4.80468C12.8546 6.42256 12.8317 6.59051 13.0795 6.35379C13.4046 6.04326 13.4003 6.60349 13.0714 7.40129C12.8762 7.87471 12.8342 8.03103 12.8209 8.33118C12.8022 8.75525 12.8597 8.84293 13.1598 8.84813L13.2985 8.85047L13.3142 8.96265C13.3338 9.10227 13.3297 10.5163 13.3085 10.9399L13.2928 11.2539H10.4525H7.61222L7.46061 11.3224C7.28863 11.4002 7.18557 11.4949 7.10185 11.6525L7.04419 11.7612L7.03762 14.6882L7.03104 17.6154L6.89839 17.6532C6.24449 17.839 6.24209 18.7237 6.8946 19.0059L7.0318 19.0652V21.7079V24.3506L7.08832 24.4327C7.24121 24.6547 7.63663 24.738 8.85945 24.8057C9.65282 24.8496 22.2765 24.8378 22.5793 24.7928C22.6608 24.7807 23.011 24.7645 23.3574 24.7568C24.527 24.7304 24.9361 24.6796 25.1032 24.5398C25.2982 24.3766 25.2838 24.6095 25.2838 21.6072C25.2838 19.1928 25.2879 18.9061 25.325 18.7413C25.3615 18.5783 25.3622 18.5415 25.3311 18.4085C25.3018 18.2833 25.2962 17.7274 25.2962 15.0221C25.2962 11.9141 25.2942 11.7819 25.2502 11.703C25.1824 11.5814 24.9904 11.3896 24.8769 11.3301L24.7775 11.278L21.6038 11.2661L18.43 11.2539L18.4233 10.7196L18.4167 10.1855L18.5098 10.1704C18.561 10.1622 18.6363 10.155 18.677 10.1543C18.9656 10.1504 18.9649 9.45943 18.6759 8.84342C18.4558 8.37434 18.4349 8.31485 18.4232 8.12563C18.4092 7.89771 18.4542 7.77256 18.558 7.75066C18.7624 7.70775 18.7654 7.69946 18.6802 7.40105C18.4903 6.73619 18.3309 6.26599 18.2955 6.26599C18.211 6.26599 17.8337 7.34861 17.7891 7.71901C17.7693 7.88238 17.7905 7.90228 17.9002 7.82314C18.2158 7.59534 18.2247 7.97723 17.9209 8.71951C17.6481 9.38622 17.6078 9.60598 17.7022 9.91575C17.7617 10.1111 17.7668 10.1151 17.9731 10.1307L18.1336 10.1429L18.1403 10.6845C18.1454 11.1018 18.1398 11.2308 18.1157 11.2458C18.0795 11.2681 16.1694 11.2734 16.1105 11.2513C16.0669 11.235 16.049 8.84269 16.0923 8.81659C16.1038 8.80967 16.2047 8.79656 16.3165 8.7874C16.6068 8.76366 16.5989 8.77838 16.583 8.2963C16.5677 7.83402 16.5418 7.73063 16.3253 7.26834C16.0489 6.67831 16.0338 6.2582 16.2906 6.30025C16.4904 6.33302 16.4797 6.33871 16.4712 6.20563C16.461 6.04808 16.3338 5.55525 16.1369 4.91105C16.05 4.62673 15.9718 4.36417 15.9629 4.32756C15.9435 4.2473 15.8816 4.24075 15.8492 4.31544ZM15.9232 4.34426C15.9232 4.3502 15.9615 4.47844 16.0083 4.62945C16.2808 5.50899 16.4588 6.1877 16.4338 6.25165C16.4226 6.28009 16.4062 6.28182 16.3489 6.26067C15.9989 6.13156 15.9726 6.61734 16.2927 7.29865C16.5091 7.7592 16.5489 7.91935 16.5512 8.336C16.5533 8.74783 16.5593 8.73855 16.2864 8.7503C16.1748 8.75512 16.0698 8.77009 16.0528 8.78356C16.0089 8.81844 16.0078 11.2424 16.0516 11.2854C16.0941 11.327 18.1231 11.327 18.1658 11.2854C18.1871 11.2644 18.1955 11.1022 18.1955 10.7073C18.1955 10.099 18.1867 10.0635 18.0457 10.0912C17.8702 10.1255 17.8065 10.0888 17.7493 9.92089C17.6473 9.62095 17.6859 9.41009 17.9696 8.71765L18.1577 8.25871L18.158 8.02138C18.1584 7.72148 18.0624 7.63182 17.897 7.7775C17.7402 7.91576 17.8685 7.36728 18.1758 6.58606C18.2879 6.30087 18.2981 6.29394 18.3523 6.46522C18.7238 7.63912 18.7352 7.69105 18.6217 7.69105C18.2993 7.69105 18.2844 8.11314 18.5846 8.74177C18.8438 9.28468 18.9382 9.88317 18.7923 10.0593C18.7587 10.0998 18.7112 10.1139 18.5652 10.1267L18.3806 10.1429L18.3643 10.2636C18.3204 10.5879 18.3409 11.2614 18.3959 11.2991C18.4407 11.3297 18.6472 11.3354 19.7975 11.3376C20.5397 11.3391 21.4524 11.3503 21.826 11.3627C22.1996 11.3751 22.5247 11.3855 22.5484 11.386C22.5722 11.3864 22.5917 11.4031 22.5917 11.423C22.5917 11.4428 22.6075 11.4592 22.6267 11.4592C22.6459 11.4592 22.6673 11.4728 22.6742 11.4894C22.6837 11.5123 22.6928 11.511 22.7119 11.484C22.7258 11.4646 22.7458 11.457 22.7563 11.4673C22.7669 11.4776 22.7591 11.497 22.7391 11.5106C22.7116 11.5293 22.7103 11.5383 22.7336 11.5477C22.7506 11.5543 22.7645 11.5843 22.7645 11.6144C22.7645 11.6493 22.7872 11.679 22.8275 11.6969C22.9079 11.7328 22.9128 11.7323 22.9128 11.6887C22.9128 11.6687 22.9191 11.6525 22.9269 11.6525C22.9604 11.6525 23.0115 11.7257 23.0115 11.7738C23.0115 11.8057 23.0308 11.831 23.0609 11.8388C23.0882 11.8456 23.1104 11.8622 23.1104 11.8756C23.1104 11.8894 23.1265 11.8869 23.1474 11.8698C23.2021 11.8254 23.1926 11.7974 23.1227 11.7974C23.0774 11.7974 23.0609 11.7845 23.0609 11.7491C23.0609 11.7225 23.0696 11.7008 23.0801 11.7008C23.1195 11.7008 23.2092 11.7772 23.2092 11.8108C23.2092 11.8299 23.2202 11.8456 23.2338 11.8456C23.2475 11.8456 23.2585 11.8616 23.2585 11.881C23.2585 11.9006 23.2796 11.9274 23.3053 11.9409C23.3801 11.9801 23.3879 11.8871 23.3176 11.7939C23.2851 11.7508 23.2585 11.6905 23.2585 11.6598C23.2585 11.6292 23.2475 11.6042 23.2338 11.6042C23.2202 11.6042 23.2092 11.5767 23.2092 11.543C23.2092 11.5095 23.1924 11.4756 23.172 11.4679C23.1299 11.4521 23.127 11.4367 23.157 11.3901C23.1748 11.3628 23.2088 11.3623 23.3543 11.3862C23.5355 11.4162 23.5603 11.4436 23.4311 11.4713C23.364 11.4858 23.3233 11.5558 23.382 11.5558C23.3957 11.5558 23.4067 11.546 23.4067 11.5339C23.4067 11.5219 23.4294 11.5178 23.4573 11.525C23.5225 11.5416 23.5103 11.6065 23.4352 11.6431C23.3931 11.6636 23.3862 11.6762 23.4092 11.6902C23.4276 11.7013 23.445 11.6973 23.4505 11.681C23.4623 11.6462 23.5462 11.6433 23.5673 11.6766C23.5756 11.6898 23.6097 11.7008 23.6427 11.7008C23.676 11.7008 23.7031 11.6898 23.7031 11.6766C23.7031 11.6633 23.7142 11.6525 23.7279 11.6525C23.7414 11.6525 23.7525 11.6741 23.7525 11.7008C23.7525 11.7273 23.7414 11.7491 23.7279 11.7491C23.7142 11.7491 23.7031 11.7599 23.7031 11.7732C23.7031 11.7866 23.7229 11.7974 23.7471 11.7974C23.7712 11.7974 23.807 11.8191 23.8266 11.8456C23.8474 11.8742 23.8905 11.894 23.9308 11.894C23.9687 11.894 23.9995 11.9049 23.9995 11.9182C23.9995 11.9314 24.0167 11.9422 24.0377 11.9422C24.0918 11.9422 24.197 12.052 24.197 12.1083C24.197 12.1814 24.2234 12.2322 24.2615 12.2322C24.3043 12.2322 24.3068 12.1917 24.265 12.1771C24.2479 12.1712 24.2424 12.1577 24.2525 12.147C24.2627 12.1365 24.2918 12.1513 24.3172 12.18C24.3426 12.2087 24.3816 12.2322 24.4038 12.2322C24.4259 12.2322 24.4441 12.2442 24.4441 12.2588C24.4441 12.2736 24.4607 12.2794 24.4811 12.2717C24.5342 12.2519 24.5922 12.2791 24.5922 12.3242C24.5922 12.3541 24.5989 12.3562 24.6219 12.3336C24.655 12.3011 24.6926 12.295 24.6882 12.3228C24.677 12.3916 24.6929 12.4357 24.7166 12.4012C24.7378 12.3702 24.7481 12.3728 24.788 12.4194C24.8137 12.4492 24.857 12.4737 24.884 12.4737C25.0094 12.4737 24.8221 12.6859 24.5992 12.7962C24.3759 12.9068 24.3612 12.9077 22.5176 12.9217C21.5463 12.9292 19.3457 12.9466 17.6273 12.9604C15.9089 12.9745 13.4416 12.9912 12.1444 12.9979C10.7133 13.0052 9.76832 13.0191 9.74136 13.0331C9.69908 13.0551 9.69743 13.1367 9.7081 14.6913C9.7143 15.5906 9.71905 16.3426 9.71896 16.3627C9.70975 17.3222 9.69481 17.6647 9.6608 17.6922C9.61755 17.7272 7.13865 17.6845 7.10147 17.6481C7.08985 17.6367 7.08326 16.3075 7.08694 14.6942L7.09364 11.7612L7.147 11.6645C7.21958 11.5331 7.34073 11.4244 7.48881 11.3578L7.61222 11.3022L10.4525 11.3017C12.0147 11.3015 13.3067 11.2927 13.3237 11.2823C13.3562 11.2621 13.3715 8.92171 13.3396 8.84046C13.3277 8.81041 13.2857 8.80224 13.1426 8.80224C12.8885 8.80224 12.8726 8.77652 12.8739 8.36841C12.875 8.01841 12.888 7.96685 13.1222 7.38757C13.3341 6.86369 13.3647 6.7394 13.3448 6.48526C13.3224 6.19797 13.2621 6.15011 13.0989 6.2901C12.9769 6.39498 12.9503 6.3862 12.9708 6.24781C12.9943 6.09063 13.3442 4.72369 13.4445 4.39757C13.4674 4.32286 13.4976 4.38347 13.5505 4.61139C13.5784 4.73098 13.6345 4.94839 13.6753 5.09445C13.7161 5.24063 13.7725 5.45261 13.8003 5.56552C13.8281 5.67843 13.867 5.83425 13.8868 5.9118C13.9065 5.98933 13.9298 6.11215 13.9385 6.18474L13.9544 6.31682L13.867 6.27601C13.5161 6.11239 13.484 6.60584 13.8014 7.28541C14.0315 7.77775 14.0545 7.86828 14.0657 8.32487L14.0758 8.72915L14.01 8.75351C13.9738 8.767 13.8899 8.77801 13.8238 8.77801C13.7576 8.77801 13.6751 8.78865 13.6402 8.80163L13.5768 8.82513V10.055C13.5768 11.1543 13.581 11.2865 13.6159 11.2997C13.6957 11.3296 15.7387 11.316 15.7701 11.2854C15.7924 11.2635 15.7996 10.9545 15.7996 10.0431C15.7996 8.65508 15.8166 8.75389 15.579 8.75389C15.1942 8.75389 15.1459 8.30719 15.4515 7.57419C15.505 7.44582 15.5938 7.23471 15.6488 7.10511C15.7851 6.78368 15.8295 6.36258 15.7417 6.22357C15.7015 6.16013 15.5495 6.19587 15.438 6.29493C15.3468 6.37606 15.3493 6.30717 15.4531 5.88632C15.651 5.08282 15.9232 4.19004 15.9232 4.34426ZM24.8208 5.92849C24.7374 5.96126 24.6619 6.09483 24.6777 6.1814C24.7255 6.44334 25.1339 6.45323 25.1755 6.19352C25.208 5.98995 25.0206 5.84996 24.8208 5.92849ZM25.0853 6.0048C25.1394 6.06168 25.1524 6.1903 25.1114 6.265C25.0462 6.38422 24.7979 6.36282 24.7373 6.23284C24.6458 6.03621 24.9348 5.84687 25.0853 6.0048ZM19.465 6.73458C19.213 6.98094 19.5625 7.37248 19.8739 7.19266C20.0141 7.11165 20.0636 6.93233 19.9826 6.7984C19.8801 6.6286 19.6076 6.59496 19.465 6.73458ZM19.8728 6.74385C20.031 6.85949 20.0209 7.04153 19.8502 7.15481C19.6373 7.29592 19.3509 7.09298 19.4305 6.85726C19.4885 6.68548 19.7137 6.62773 19.8728 6.74385ZM24.3302 10.0819C24.1539 10.1516 24.1128 10.4154 24.2564 10.5558C24.486 10.7805 24.8354 10.523 24.7164 10.2168C24.669 10.095 24.4715 10.0261 24.3302 10.0819ZM22.8634 11.6177C22.8634 11.6368 22.8522 11.6525 22.8387 11.6525C22.8251 11.6525 22.8139 11.6301 22.8139 11.6026C22.8139 11.5753 22.8251 11.5598 22.8387 11.5679C22.8522 11.5761 22.8634 11.5985 22.8634 11.6177ZM5.33592 12.67C5.22287 12.701 5.13005 12.8188 5.13005 12.9312C5.13005 13.1651 5.44871 13.2819 5.63233 13.1153C5.84376 12.9238 5.62221 12.5911 5.33592 12.67ZM5.60552 12.7881C5.7952 12.9917 5.54115 13.2468 5.28002 13.1147C5.20162 13.0751 5.1795 13.0342 5.1795 12.929C5.1795 12.7092 5.44884 12.6199 5.60552 12.7881ZM16.4923 13.682C16.5714 13.7234 16.5984 13.7966 16.5643 13.8773C16.514 13.9959 16.3185 14.0027 16.265 13.8878C16.1968 13.7416 16.3467 13.6057 16.4923 13.682ZM18.422 15.1223C18.4782 15.1722 18.4805 15.2936 18.4263 15.3523C18.3386 15.4469 18.1214 15.3667 18.1214 15.2397C18.1214 15.1098 18.3202 15.0324 18.422 15.1223ZM10.8607 16.0004C11.0784 16.0407 11.2514 16.2083 11.3549 16.4792C11.5759 17.0571 10.5585 17.3073 10.2662 16.7469C10.1763 16.5745 10.1718 16.3072 10.2576 16.2289C10.3988 16.0997 10.495 16.0398 10.6087 16.0098C10.6722 15.9931 10.7271 15.9778 10.7271 15.9778C10.7271 15.9778 10.7886 15.987 10.8607 16.0004ZM3.61917 16.6037C2.97362 16.7943 3.17898 17.5928 3.86007 17.5399C4.50789 17.4896 4.44694 16.5735 3.79633 16.5825C3.73526 16.5834 3.65546 16.5929 3.61917 16.6037ZM19.4931 16.6634C19.6054 16.7733 19.5359 16.9278 19.374 16.9278C19.2552 16.9278 19.208 16.8833 19.208 16.7716C19.208 16.612 19.3756 16.5484 19.4931 16.6634ZM4.01345 16.6743C4.47438 16.9054 4.31771 17.505 3.79633 17.505C3.37625 17.505 3.12119 17.1017 3.3564 16.8092C3.48576 16.6485 3.82352 16.5789 4.01345 16.6743ZM8.51372 19.0818C9.33416 19.0927 9.66737 19.1051 9.68039 19.1248C9.72361 19.1908 9.70189 24.769 9.65826 24.7853C9.63563 24.7937 9.33277 24.7874 8.98515 24.771C7.69278 24.7106 7.25563 24.6231 7.11602 24.3977C7.06885 24.3216 7.04432 19.1968 7.0906 19.079C7.10274 19.0478 7.13094 19.0428 7.23552 19.0534C7.30684 19.0607 7.88208 19.0734 8.51372 19.0818ZM11.6697 19.7577C11.744 19.8086 11.7447 19.9496 11.6708 20.0265C11.5776 20.1235 11.3995 20.0909 11.3517 19.9678C11.2856 19.7977 11.5109 19.649 11.6697 19.7577ZM20.1309 20.5672C20.2669 20.6718 20.181 20.9036 20.0063 20.9036C19.9735 20.9036 19.9194 20.877 19.8861 20.8443C19.7128 20.6748 19.9385 20.4193 20.1309 20.5672ZM26.5247 21.1755C26.3438 21.3642 26.4406 21.605 26.6969 21.6036C26.9388 21.6023 27.044 21.3516 26.8728 21.1841C26.7855 21.0988 26.6024 21.0942 26.5247 21.1755ZM13.583 21.4062C13.6861 21.4929 13.5834 21.7008 13.4375 21.7008C13.2834 21.7008 13.2012 21.5168 13.3113 21.4174C13.4022 21.3356 13.4944 21.3318 13.583 21.4062ZM11.028 21.6624C11.4541 21.8802 11.3028 22.4979 10.8232 22.4979C10.3403 22.4979 10.1956 21.8906 10.6254 21.6685C10.718 21.6207 10.9396 21.6172 11.028 21.6624ZM17.7599 22.3546C17.9346 22.489 17.7169 22.7305 17.5341 22.6052C17.4409 22.5414 17.4691 22.3595 17.578 22.3214C17.649 22.2966 17.6952 22.3049 17.7599 22.3546ZM12.644 23.55C13.007 23.7829 12.8143 24.3577 12.3731 24.3577C11.9476 24.3577 11.7477 23.9003 12.0458 23.6086C12.2066 23.4515 12.4529 23.4272 12.644 23.55ZM15.8728 24.2899C15.9818 24.4044 15.9017 24.5607 15.7338 24.5607C15.632 24.5607 15.5774 24.5051 15.5774 24.4014C15.5774 24.2547 15.77 24.1819 15.8728 24.2899Z" fill="#CE9B49"/>
<path fill-rule="evenodd" clip-rule="evenodd" d="M15.718 4.9073C15.5106 5.62917 15.3486 6.284 15.3693 6.31678C15.3793 6.33273 15.405 6.32457 15.4383 6.29488C15.5497 6.19583 15.7018 6.16009 15.742 6.22352C15.8297 6.36253 15.7854 6.78364 15.6491 7.10506C15.5941 7.23466 15.5053 7.44577 15.4517 7.57415C15.1462 8.30714 15.1945 8.75384 15.5792 8.75384C15.8168 8.75384 15.8 8.65503 15.8 10.043C15.8 10.9545 15.7926 11.2635 15.7703 11.2853C15.739 11.316 13.696 11.3295 13.6162 11.2997C13.5813 11.2865 13.5771 11.1543 13.5771 10.055V8.82509L13.6404 8.80158C13.6753 8.78859 13.758 8.77796 13.8241 8.77796C13.8902 8.77796 13.974 8.76695 14.0102 8.75347L14.0761 8.72911L14.0659 8.32483C14.0547 7.86824 14.0317 7.77771 13.8017 7.28537C13.4843 6.6058 13.5164 6.11235 13.8673 6.27596L13.9547 6.31678L13.9387 6.1847C13.93 6.1121 13.9067 5.98929 13.887 5.91176C13.8673 5.83421 13.8284 5.67838 13.8005 5.56547C13.7727 5.45256 13.7165 5.24059 13.6756 5.09441C13.6347 4.94835 13.5786 4.73094 13.5507 4.61134C13.4978 4.38342 13.4677 4.32282 13.4448 4.39752C13.3444 4.72364 12.9945 6.09058 12.9712 6.24777C12.9505 6.38615 12.9772 6.39494 13.0992 6.29006C13.4375 5.99968 13.4498 6.57835 13.1225 7.38752C12.8883 7.9668 12.8752 8.01838 12.8741 8.36836C12.8728 8.77647 12.8888 8.8022 13.1429 8.8022C13.286 8.8022 13.328 8.81037 13.3398 8.84042C13.3717 8.92167 13.3564 11.262 13.3239 11.2822C13.307 11.2927 12.015 11.3015 10.4528 11.3017L7.61248 11.3022L7.48906 11.3577C7.34097 11.4244 7.21983 11.5331 7.14725 11.6645L7.09389 11.7611L7.08718 14.6942C7.08352 16.3075 7.09009 17.6366 7.10173 17.6481C7.1389 17.6844 9.61779 17.7272 9.66104 17.6922C9.69506 17.6647 9.70996 17.3222 9.71918 16.3626C9.71937 16.3426 9.71452 15.5905 9.70831 14.6913C9.69774 13.1367 9.69939 13.0551 9.74158 13.0331C9.76853 13.019 10.7135 13.0052 12.1446 12.9979C13.4419 12.9912 15.9091 12.9743 17.6275 12.9604C19.3459 12.9466 21.5467 12.9291 22.5178 12.9217C24.3614 12.9076 24.3762 12.9067 24.5995 12.7962C24.8223 12.6858 25.0097 12.4737 24.8843 12.4737C24.8572 12.4737 24.814 12.4491 24.7883 12.4194C24.7483 12.3727 24.7381 12.3701 24.7169 12.4011C24.6932 12.4357 24.6772 12.3915 24.6884 12.3228C24.6928 12.295 24.6553 12.3011 24.6222 12.3336C24.5992 12.3561 24.5924 12.354 24.5924 12.3241C24.5924 12.2791 24.5344 12.2518 24.4814 12.2717C24.4609 12.2793 24.4443 12.2735 24.4443 12.2588C24.4443 12.2441 24.4262 12.2321 24.404 12.2321C24.3818 12.2321 24.3428 12.2086 24.3174 12.18C24.292 12.1513 24.2629 12.1364 24.2528 12.147C24.2426 12.1577 24.2482 12.1711 24.2653 12.177C24.307 12.1917 24.3045 12.2321 24.2617 12.2321C24.2237 12.2321 24.1972 12.1813 24.1972 12.1083C24.1972 12.052 24.092 11.9422 24.0379 11.9422C24.017 11.9422 23.9997 11.9313 23.9997 11.9181C23.9997 11.9049 23.9689 11.894 23.9311 11.894C23.8907 11.894 23.8478 11.8741 23.8269 11.8456C23.8072 11.819 23.7714 11.7974 23.7473 11.7974C23.7232 11.7974 23.7034 11.7865 23.7034 11.7732C23.7034 11.7599 23.7144 11.749 23.7281 11.749C23.7417 11.749 23.7527 11.7273 23.7527 11.7007C23.7527 11.6741 23.7417 11.6524 23.7281 11.6524C23.7144 11.6524 23.7034 11.6633 23.7034 11.6766C23.7034 11.6898 23.6763 11.7007 23.6431 11.7007C23.6099 11.7007 23.5759 11.6898 23.5675 11.6766C23.5464 11.6431 23.4626 11.6461 23.4508 11.6809C23.4452 11.6972 23.4278 11.7012 23.4095 11.6902C23.3865 11.6762 23.3934 11.6636 23.4355 11.643C23.5105 11.6065 23.5227 11.5416 23.4576 11.5249C23.4297 11.5177 23.4069 11.5218 23.4069 11.5338C23.4069 11.546 23.3959 11.5558 23.3823 11.5558C23.3235 11.5558 23.3643 11.4857 23.4315 11.4713C23.5605 11.4436 23.5358 11.4161 23.3546 11.3862C23.209 11.3622 23.175 11.3628 23.1573 11.39C23.1272 11.4367 23.1301 11.4521 23.1724 11.4679C23.1927 11.4756 23.2094 11.5094 23.2094 11.543C23.2094 11.5766 23.2206 11.6041 23.234 11.6041C23.2477 11.6041 23.2589 11.6292 23.2589 11.6597C23.2589 11.6905 23.2854 11.7508 23.3179 11.7938C23.3882 11.8871 23.3804 11.9801 23.3055 11.9408C23.2798 11.9273 23.2589 11.9006 23.2589 11.881C23.2589 11.8616 23.2477 11.8456 23.234 11.8456C23.2206 11.8456 23.2094 11.8299 23.2094 11.8108C23.2094 11.7771 23.1197 11.7007 23.0804 11.7007C23.0698 11.7007 23.0612 11.7225 23.0612 11.749C23.0612 11.7844 23.0776 11.7974 23.1229 11.7974C23.1928 11.7974 23.2023 11.8253 23.1476 11.8697C23.1267 11.8868 23.1106 11.8892 23.1106 11.8756C23.1106 11.8622 23.0884 11.8456 23.0612 11.8387C23.031 11.831 23.0118 11.8057 23.0118 11.7737C23.0118 11.7257 22.9607 11.6524 22.9271 11.6524C22.9193 11.6524 22.913 11.6686 22.913 11.6887C22.913 11.7322 22.9082 11.7327 22.8277 11.6969C22.7874 11.6789 22.7648 11.6492 22.7648 11.6143C22.7648 11.5843 22.7508 11.5543 22.734 11.5476C22.7105 11.5383 22.712 11.5293 22.7394 11.5106C22.7594 11.497 22.7672 11.4776 22.7566 11.4672C22.7461 11.4569 22.7261 11.4645 22.7121 11.484C22.693 11.511 22.684 11.5122 22.6745 11.4893C22.6675 11.4728 22.6462 11.4592 22.6269 11.4592C22.6077 11.4592 22.5919 11.4428 22.5919 11.4229C22.5919 11.403 22.5724 11.3864 22.5487 11.386C22.5249 11.3855 22.2 11.3751 21.8262 11.3627C21.4527 11.3503 20.5399 11.339 19.7978 11.3376C18.6476 11.3353 18.4409 11.3296 18.3961 11.2991C18.3411 11.2614 18.3207 10.5879 18.3645 10.2635L18.3809 10.1428L18.5654 10.1266C18.7116 10.1138 18.759 10.0998 18.7926 10.0592C18.9384 9.88313 18.844 9.28464 18.5848 8.74172C18.2846 8.1131 18.2995 7.69101 18.622 7.69101C18.7354 7.69101 18.7241 7.63907 18.3525 6.46518C18.3304 6.39543 18.3036 6.33841 18.2928 6.33841C18.253 6.33841 17.9853 7.06598 17.8884 7.43786C17.8018 7.77041 17.8041 7.85958 17.8973 7.77746C18.0627 7.63178 18.1586 7.72143 18.1583 8.02134L18.1581 8.25867L17.9698 8.71761C17.6861 9.41004 17.6475 9.62091 17.7496 9.92085C17.8067 10.0887 17.8704 10.1255 18.046 10.0911C18.187 10.0635 18.1957 10.099 18.1957 10.7073C18.1957 11.1021 18.1873 11.2644 18.166 11.2853C18.1233 11.3269 16.0944 11.3269 16.0518 11.2853C16.008 11.2424 16.0092 8.8184 16.053 8.78352C16.07 8.77005 16.1751 8.75508 16.2866 8.75025C16.5595 8.73851 16.5536 8.74778 16.5515 8.33596C16.5491 7.91931 16.5093 7.75915 16.2929 7.29861C15.9729 6.6173 15.9992 6.13152 16.3491 6.26062C16.4064 6.28177 16.4228 6.28005 16.434 6.25161C16.4592 6.18766 16.2811 5.50895 16.0085 4.6294C15.9618 4.4784 15.9235 4.35016 15.9235 4.34421C15.9235 4.24565 15.8513 4.44303 15.718 4.9073ZM24.7907 5.99968C24.6268 6.15983 24.791 6.41027 25.0107 6.33533C25.1426 6.29031 25.1839 6.10814 25.0855 6.00475C25.019 5.935 24.8596 5.93216 24.7907 5.99968ZM19.538 6.7218C19.3261 6.85191 19.4124 7.16702 19.6689 7.19991C19.7818 7.21438 19.9169 7.13807 19.9702 7.02961C20.0728 6.82111 19.7505 6.59133 19.538 6.7218ZM22.8143 11.6026C22.8143 11.63 22.8253 11.6524 22.8389 11.6524C22.8526 11.6524 22.8637 11.6367 22.8637 11.6175C22.8637 11.5984 22.8526 11.576 22.8389 11.5679C22.8253 11.5597 22.8143 11.5753 22.8143 11.6026ZM5.31138 12.7253C5.14332 12.7987 5.12448 13.0358 5.28027 13.1146C5.5414 13.2467 5.79545 12.9917 5.60577 12.7881C5.52471 12.7011 5.41849 12.6785 5.31138 12.7253ZM16.3254 13.6819C16.2102 13.7273 16.2317 13.9308 16.3548 13.9612C16.5578 14.011 16.6735 13.7767 16.4925 13.6819C16.4368 13.6527 16.3997 13.6527 16.3254 13.6819ZM18.1719 15.1352C18.1058 15.2046 18.1082 15.279 18.1788 15.3438C18.2957 15.4512 18.4673 15.3865 18.4673 15.2352C18.4673 15.091 18.2758 15.0262 18.1719 15.1352ZM10.609 16.0098C10.4952 16.0397 10.399 16.0997 10.2579 16.2288C10.1158 16.3588 10.206 16.749 10.4194 16.9277C10.7272 17.1852 11.3252 17.0419 11.3918 16.6946C11.4217 16.5387 11.2573 16.2227 11.076 16.0874C11.014 16.0412 10.757 15.9604 10.7273 15.9778C10.7273 15.9778 10.6724 15.9931 10.609 16.0098ZM19.2631 16.6417C19.196 16.6877 19.1862 16.846 19.2477 16.8959C19.3128 16.9488 19.4551 16.9357 19.5078 16.872C19.6334 16.7204 19.429 16.5281 19.2631 16.6417ZM3.53532 16.6858C3.06428 16.9003 3.25712 17.5049 3.79658 17.5049C3.97968 17.5049 4.07908 17.465 4.17556 17.353C4.51181 16.9622 4.03039 16.4604 3.53532 16.6858ZM7.09085 19.079C7.04457 19.1968 7.0691 24.3214 7.11627 24.3977C7.25587 24.6231 7.69302 24.7106 8.9854 24.771C9.33302 24.7874 9.63588 24.7937 9.65851 24.7852C9.70211 24.7689 9.72393 19.1908 9.68064 19.1247C9.66762 19.105 9.33441 19.0926 8.51397 19.0818C7.88233 19.0733 7.30708 19.0606 7.23577 19.0534C7.13119 19.0428 7.10299 19.0477 7.09085 19.079ZM11.4363 19.7487C11.3174 19.8049 11.3109 19.9967 11.4256 20.0567C11.5692 20.1319 11.7248 20.0415 11.7248 19.8829C11.7248 19.7446 11.5839 19.679 11.4363 19.7487ZM19.9323 20.5415C19.8154 20.5876 19.7905 20.7506 19.8864 20.8443C20.0075 20.9627 20.1963 20.881 20.1963 20.7104C20.1963 20.5651 20.0728 20.4861 19.9323 20.5415ZM13.4166 21.3574C13.2694 21.3872 13.2103 21.5536 13.3132 21.6482C13.3891 21.7178 13.4904 21.7151 13.5659 21.6414C13.6952 21.515 13.5934 21.3215 13.4166 21.3574ZM10.6256 21.6684C10.1958 21.8906 10.3407 22.4978 10.8236 22.4978C11.3031 22.4978 11.4544 21.8801 11.0283 21.6623C10.9398 21.6171 10.7184 21.6206 10.6256 21.6684ZM17.5783 22.3213C17.4694 22.3594 17.4412 22.5414 17.5344 22.6052C17.7172 22.7305 17.9348 22.489 17.7601 22.3546C17.6954 22.3049 17.6494 22.2965 17.5783 22.3213ZM12.2239 23.49C12.0334 23.5465 11.8744 23.7979 11.9066 23.9919C11.976 24.4093 12.594 24.4935 12.7832 24.1112C12.9621 23.7497 12.6221 23.3721 12.2239 23.49ZM15.6271 24.2853C15.5198 24.3901 15.586 24.5607 15.734 24.5607C15.902 24.5607 15.9822 24.4043 15.8732 24.2898C15.8096 24.2232 15.6928 24.221 15.6271 24.2853Z" fill="#FAE8AD"/>
</svg>
