<svg width="33" height="33" viewBox="0 0 33 33" fill="none" xmlns="http://www.w3.org/2000/svg">
<path fill-rule="evenodd" clip-rule="evenodd" d="M12.8498 0.86305C12.1253 1.03465 11.5865 1.67191 11.3254 2.66557C11.2826 2.82857 11.2703 3.04293 11.2595 3.81806L11.2476 4.67232L10.2745 4.68968C9.73925 4.69926 9.26598 4.71481 9.2228 4.72425C8.85764 4.80339 8.39615 4.97249 8.18085 5.10577C8.14844 5.1259 8.08211 5.16408 8.03339 5.1906C7.92247 5.25114 7.58881 5.48869 7.51926 5.55672C7.49058 5.58476 7.46128 5.60781 7.45424 5.60781C7.2786 5.60781 6.26171 6.87858 5.96921 7.46323C5.93137 7.53889 5.89543 7.60692 5.88929 7.61442C5.81582 7.70397 5.46152 8.56115 5.37939 8.84827C5.37083 8.87812 5.3503 8.94517 5.33379 8.99738C5.29283 9.12705 5.17376 9.63117 5.14497 9.79736C5.13198 9.87191 5.11357 9.97562 5.104 10.0278C5.04452 10.3526 5.02328 10.7526 5.00637 11.8717C4.99097 12.8862 4.9795 13.1038 4.92907 13.3428C4.91729 13.3988 4.89958 13.4842 4.88961 13.5326C4.84271 13.7621 4.81966 13.8413 4.69022 14.2174C4.59289 14.5 4.44453 14.8256 4.2701 15.1393C4.17287 15.3142 3.78666 15.8511 3.6692 15.9745C3.60972 16.0371 3.55667 16.0954 3.55124 16.1043C3.5308 16.1375 3.06015 16.5629 3.04375 16.5629C3.03429 16.5629 3.01053 16.5873 2.99101 16.6172C2.97138 16.647 2.94783 16.6713 2.93867 16.6713C2.92286 16.6713 2.84556 16.7395 2.20964 17.3132C2.07185 17.4374 1.95469 17.5391 1.94925 17.5391C1.94382 17.5391 1.81941 17.6489 1.67276 17.7831C1.52611 17.9174 1.402 18.0272 1.39697 18.0272C1.33074 18.0272 0.852642 18.5338 0.791446 18.6688C0.617921 19.0514 0.699751 19.3528 1.06562 19.6795C1.17312 19.7753 1.36064 19.9432 1.48232 20.0523C1.60411 20.1614 1.70789 20.2508 1.71292 20.2508C1.71805 20.2508 1.87054 20.3855 2.05192 20.5503C2.23319 20.715 2.39484 20.8609 2.41105 20.8746C2.42725 20.8882 2.59977 21.0422 2.79433 21.2166C2.98899 21.3911 3.2211 21.5989 3.31017 21.6786L3.47223 21.8236H7.84316C12.4212 21.8236 16.5297 21.7946 15.9755 21.7662C15.7971 21.7572 15.574 21.748 15.4796 21.746L15.308 21.7422L15.3304 21.6745C15.3549 21.6003 15.3775 21.5877 15.3915 21.6404C15.3987 21.6677 15.4057 21.6677 15.4265 21.6404C15.4409 21.6218 15.4729 21.6066 15.4978 21.6066C15.5226 21.6066 15.5431 21.5943 15.5431 21.5795C15.5431 21.5646 15.5254 21.5524 15.5037 21.5524C15.4577 21.5524 15.456 21.5431 15.4889 21.4698C15.5093 21.4247 15.5084 21.4105 15.4841 21.3889C15.4597 21.3671 15.4592 21.3585 15.4811 21.3389C15.4988 21.3232 15.5076 21.2578 15.5076 21.1423C15.5076 21.044 15.5171 20.9613 15.5296 20.9506C15.5442 20.9381 15.5368 20.914 15.5081 20.8796C15.484 20.8509 15.4644 20.8144 15.4644 20.7985C15.4644 20.7827 15.4468 20.7619 15.4251 20.7524C15.3637 20.7255 15.4102 20.6304 15.4847 20.6304C15.5168 20.6304 15.5431 20.6182 15.5431 20.6033C15.5431 20.5883 15.4988 20.5761 15.4447 20.5761C15.3907 20.5761 15.3464 20.5883 15.3464 20.6033C15.3464 20.6182 15.3553 20.6304 15.3661 20.6304C15.3769 20.6304 15.3858 20.6447 15.3858 20.6622C15.3858 20.6798 15.3636 20.6654 15.3364 20.6301C15.3047 20.5892 15.2911 20.5488 15.2984 20.5172C15.3077 20.4767 15.3002 20.47 15.2543 20.4781C15.2239 20.4834 15.2122 20.4818 15.2285 20.4746C15.2447 20.4674 15.2643 20.4476 15.272 20.4306C15.2945 20.3815 16.8496 20.3656 21.7846 20.3647C26.5362 20.3637 26.296 20.3693 26.6109 20.2555C27.5121 19.9304 27.2467 19.1701 26.2531 19.2306C26.0876 19.2408 25.7754 19.2605 25.5591 19.2747C25.3429 19.2887 24.9713 19.3127 24.7335 19.3281C23.9413 19.3791 23.4793 19.4093 23.0428 19.4383C20.8076 19.5875 20.7943 19.587 20.438 19.3614C20.325 19.2898 20.1285 19.1087 19.8675 18.8357C19.732 18.6939 19.5994 18.5621 19.5726 18.5428C19.5458 18.5235 19.4835 18.4576 19.434 18.3962C19.3364 18.2752 19.2936 18.2266 19.1715 18.0979C19.0233 17.9417 18.7969 17.6904 18.7572 17.638C18.7356 17.6096 18.6029 17.4825 18.4623 17.3558C18.3218 17.2289 18.1818 17.1013 18.1512 17.0721C18.0398 16.9659 17.6924 16.7196 17.5679 16.6585C17.4976 16.6241 17.3649 16.5568 17.273 16.5089C17.0487 16.3921 16.9825 16.3669 16.8896 16.363L16.811 16.3595L16.8084 16.5222C16.8013 16.9507 16.8021 17.0824 16.8132 17.3086C16.8198 17.4428 16.836 17.5771 16.8493 17.6069C16.8755 17.6653 16.9058 18.0576 16.9079 18.3661L16.9093 18.556H12.6812H8.45312L8.38366 18.6291C8.19162 18.8308 8.19716 19.2009 8.39534 19.4222L8.46952 19.5051L11.0473 19.5123C12.5734 19.5167 13.6324 19.5297 13.6431 19.5444C13.6539 19.5594 13.6387 19.6208 13.6044 19.6999C13.5417 19.8446 13.4592 20.1053 13.4592 20.1589C13.4592 20.1778 13.4505 20.2008 13.4397 20.2099C13.4147 20.2312 8.1581 20.2286 7.84668 20.2071C7.41418 20.1771 7.1697 19.9804 6.99094 19.5186L6.92269 19.3424L6.91726 16.7392C6.91112 13.8241 6.9232 13.3265 7.01117 12.8479C7.02355 12.7808 7.03844 12.6861 7.04428 12.6375C7.05002 12.589 7.0627 12.5424 7.07226 12.5343C7.08193 12.5261 7.08978 12.4955 7.08978 12.4664C7.08978 12.4372 7.09763 12.3921 7.10719 12.3663C7.11675 12.3403 7.13336 12.2887 7.14413 12.2513C7.18499 12.11 7.33487 11.6911 7.38177 11.587C7.58539 11.1352 7.67094 10.9877 7.96425 10.5832C8.35035 10.0505 8.73615 9.67935 9.29155 9.30629C9.56543 9.12233 9.70151 9.035 9.7781 8.99391C9.80246 8.98086 9.84222 8.9592 9.86658 8.94573C9.9162 8.91838 10.0844 8.83327 10.2401 8.75691C10.3495 8.70332 10.5408 8.62085 10.6873 8.56421C10.736 8.54546 10.7979 8.52075 10.825 8.50923C10.9068 8.47452 11.153 8.38802 11.2771 8.35012C11.5063 8.28042 11.5502 8.26751 11.6604 8.23794C11.7253 8.22058 11.7961 8.20073 11.8177 8.19379C11.8394 8.18671 11.9101 8.17005 11.9749 8.15658C12.0399 8.14311 12.1505 8.11854 12.2207 8.10216C12.291 8.08563 12.4105 8.06134 12.4861 8.04801C12.5618 8.03468 12.6901 8.0108 12.7712 7.99483C13.0778 7.93458 13.6398 7.86016 13.9999 7.83198C14.2053 7.81601 14.3954 7.79574 14.4225 7.78713C14.5054 7.76062 15.3555 7.71716 16.1524 7.69856L16.9093 7.68092L16.2605 7.66815C15.9038 7.66121 15.5519 7.65538 15.4787 7.65524L15.3456 7.6551L15.3265 7.56014C15.3013 7.43532 15.3015 7.12627 15.3268 7.12627C15.3376 7.12627 15.3464 7.10197 15.3464 7.07212C15.3464 7.04227 15.3376 7.01784 15.3268 7.01784C15.316 7.01784 15.3071 7.03006 15.3071 7.04491C15.3071 7.05991 15.2983 7.07212 15.2875 7.07212C15.2602 7.07212 15.2627 6.9705 15.2901 6.95786C15.3062 6.9505 15.3052 6.93162 15.2867 6.89066C15.2647 6.84207 15.2659 6.8268 15.2946 6.78737C15.3146 6.7596 15.3234 6.72031 15.3163 6.68963C15.3098 6.66103 15.3138 6.63826 15.3255 6.63826C15.3375 6.63826 15.3464 6.58064 15.3464 6.50261C15.3464 6.42806 15.3376 6.36711 15.3268 6.36711C15.3156 6.36711 15.3071 6.28575 15.3071 6.17718C15.3071 6.06875 15.3156 5.98739 15.3268 5.98739C15.3376 5.98739 15.3464 5.95087 15.3464 5.90603C15.3464 5.86132 15.3553 5.82467 15.3661 5.82467C15.3769 5.82467 15.3858 5.80038 15.3858 5.77053C15.3858 5.71069 15.3548 5.69666 15.341 5.75012C15.3361 5.76886 15.3246 5.77427 15.3153 5.76219C15.306 5.75025 15.3098 5.73082 15.3236 5.71902C15.3519 5.69472 15.3517 5.18172 15.3234 5.15742C15.2854 5.12507 15.3064 4.9636 15.3513 4.94208C15.3875 4.92473 15.3793 4.9189 15.3071 4.91001C15.2038 4.89752 15.1505 4.84851 15.2403 4.84851C15.2727 4.84851 15.3082 4.83629 15.319 4.8213C15.3412 4.79075 15.9401 4.74369 16.4178 4.73508C16.5909 4.73202 16.1396 4.72133 15.4152 4.71148C14.6909 4.70148 13.6978 4.69176 13.2085 4.68968L12.319 4.68579L12.3197 3.91983C12.3207 2.81427 12.4112 2.46343 12.7602 2.21046C12.9597 2.0658 13.0291 2.06121 15.1401 2.05247C15.8861 2.04941 16.4656 2.04303 16.4277 2.03831C16.132 2.00193 16.0121 1.96139 16.0282 1.90322C16.0377 1.86934 16.0431 1.86809 16.0562 1.89739C16.0691 1.92626 16.0795 1.92335 16.1075 1.88281C16.1331 1.84588 16.1359 1.82866 16.118 1.8195C16.1045 1.81256 16.0934 1.78354 16.0934 1.75494C16.0934 1.72634 16.0846 1.70301 16.0738 1.70301C16.063 1.70301 16.0542 1.66747 16.0542 1.62388C16.0542 1.58042 16.0431 1.53766 16.0296 1.52905C16.0099 1.51628 16.0099 1.51003 16.0296 1.4974C16.0742 1.46866 16.0602 1.27762 16.0122 1.2604C15.9814 1.24916 15.9732 1.23041 15.9809 1.18932C15.9877 1.15405 15.9795 1.12379 15.959 1.10712C15.9411 1.09282 15.9352 1.08019 15.946 1.07922C15.9894 1.07519 15.8636 0.999804 15.8122 0.998971C15.7058 0.997027 15.7816 0.943714 15.8931 0.941909C15.9546 0.940937 16.1023 0.924137 16.2213 0.904561C16.4169 0.872351 16.3123 0.868603 15.1203 0.865548C14.3959 0.863743 13.6131 0.856663 13.3806 0.84986C13.1482 0.843057 12.9093 0.849027 12.8498 0.86305ZM16.0934 1.45894C16.0934 1.50364 16.1023 1.5403 16.1132 1.5403C16.1239 1.5403 16.1328 1.50364 16.1328 1.45894C16.1328 1.41423 16.1239 1.37758 16.1132 1.37758C16.1023 1.37758 16.0934 1.41423 16.0934 1.45894ZM15.2678 5.02483C15.2678 5.04718 15.2589 5.06551 15.2482 5.06551C15.2373 5.06551 15.2285 5.04718 15.2285 5.02483C15.2285 5.00248 15.2373 4.98415 15.2482 4.98415C15.2589 4.98415 15.2678 5.00248 15.2678 5.02483ZM15.3464 6.74669C15.3464 6.77654 15.3553 6.80097 15.3661 6.80097C15.3769 6.80097 15.3858 6.77654 15.3858 6.74669C15.3858 6.71684 15.3769 6.6924 15.3661 6.6924C15.3553 6.6924 15.3464 6.71684 15.3464 6.74669ZM15.3786 7.49238C15.3718 7.51724 15.3786 7.53306 15.3962 7.53306C15.4121 7.53306 15.4251 7.51474 15.4251 7.49238C15.4251 7.47003 15.4172 7.4517 15.4075 7.4517C15.3978 7.4517 15.3849 7.47003 15.3786 7.49238ZM15.3265 7.6451C15.3267 7.65455 15.3101 7.66843 15.2895 7.67579C15.2513 7.68953 15.246 7.65704 15.2757 7.59124C15.2919 7.55542 15.3256 7.59124 15.3265 7.6451ZM8.44627 11.0112C8.18347 11.1752 8.19001 11.7236 8.45694 11.8966C8.55508 11.9602 10.1186 11.9675 15.0614 11.9275C16.2724 11.9177 17.1032 11.9073 16.9076 11.9042C15.9069 11.8891 15.448 11.8483 15.7937 11.8054C15.8667 11.7962 15.9618 11.7784 16.005 11.7658L16.0837 11.7426L16.0001 11.7394C15.9153 11.7361 15.8899 11.7018 15.949 11.6705C15.9778 11.6553 15.9767 11.6465 15.9391 11.5913C15.8959 11.5278 15.8813 11.4108 15.9166 11.4108C15.9274 11.4108 15.9364 11.3894 15.9366 11.3633C15.9368 11.3372 15.9675 11.2797 16.0047 11.2357L16.0723 11.1555L16.0118 11.1205C15.9786 11.1012 15.8926 11.0833 15.8209 11.0808C15.5855 11.0726 16.0619 11.0386 16.5457 11.0291C16.7889 11.0243 16.3643 11.0123 15.6021 11.0026C13.1558 10.9711 8.50143 10.9768 8.44627 11.0112ZM16.0148 11.4108C16.0148 11.4406 16.0237 11.4649 16.0345 11.4649C16.0453 11.4649 16.0542 11.4406 16.0542 11.4108C16.0542 11.3809 16.0453 11.3565 16.0345 11.3565C16.0237 11.3565 16.0148 11.3809 16.0148 11.4108ZM15.8576 11.709C15.8576 11.724 15.8443 11.7362 15.8281 11.7362C15.8118 11.7362 15.7986 11.724 15.7986 11.709C15.7986 11.6942 15.8118 11.6819 15.8281 11.6819C15.8443 11.6819 15.8576 11.6942 15.8576 11.709ZM8.4052 12.9405C8.19434 13.1381 8.20309 13.5803 8.42171 13.7714L8.5129 13.8513L10.8534 13.8472C14.5231 13.8411 16.6424 13.8163 15.8478 13.7888C15.4848 13.7763 15.2159 13.7562 15.2121 13.7413C15.2085 13.7273 15.1924 13.7156 15.1763 13.7156C15.14 13.7156 15.1787 13.6554 15.2334 13.6269C15.2806 13.6022 15.2765 13.5374 15.2249 13.4874L15.1819 13.446L15.2297 13.3874C15.2617 13.3483 15.2694 13.3247 15.2531 13.3166C15.2142 13.2973 15.2244 13.2547 15.2678 13.2547C15.2894 13.2547 15.3071 13.2425 15.3071 13.2276C15.3071 13.2126 15.2983 13.2004 15.2875 13.2004C15.2767 13.2004 15.2678 13.1761 15.2678 13.1462C15.2678 13.1164 15.2589 13.092 15.2482 13.092C15.2373 13.092 15.2285 13.1042 15.2285 13.119C15.2285 13.134 15.2197 13.1462 15.2088 13.1462C15.198 13.1462 15.1892 13.1279 15.1892 13.1056C15.1892 13.0759 15.2117 13.0648 15.2727 13.0645C15.3187 13.0642 15.3679 13.0539 15.3821 13.0414C15.4138 13.0137 15.2168 12.9858 14.9435 12.9792L14.7468 12.9745L14.9435 12.9551C15.0516 12.9444 15.3612 12.9313 15.6315 12.9261C15.9018 12.9208 15.4285 12.9101 14.5797 12.9023C13.731 12.8945 12.0104 12.885 10.7561 12.8812L8.47576 12.8744L8.4052 12.9405ZM8.39081 14.8283C8.19665 14.9915 8.20873 15.4461 8.41265 15.6467L8.47576 15.7088L12.1618 15.7031C14.189 15.7 15.9407 15.6864 16.0542 15.6731L16.2605 15.6486L16.1033 15.6428C15.9407 15.6367 15.7291 15.597 15.8183 15.5892C15.8643 15.5852 15.9532 15.5155 15.9348 15.498C15.9302 15.4936 15.902 15.4732 15.8723 15.4525C15.8079 15.4076 15.8022 15.3697 15.8598 15.3697C15.8919 15.3697 15.8991 15.3572 15.8911 15.315C15.8854 15.285 15.8932 15.2431 15.9084 15.2221C15.9485 15.1669 15.9426 15.0626 15.8969 15.0172C15.8452 14.966 15.847 14.936 15.9018 14.9354C15.9375 14.9352 15.9404 14.93 15.9166 14.9088C15.9003 14.8943 15.848 14.8823 15.8002 14.8821C15.5674 14.881 15.8295 14.8365 16.1427 14.824C16.5633 14.807 13.7783 14.7805 11.2279 14.7772C8.47777 14.7734 8.45553 14.7738 8.39081 14.8283ZM8.41456 16.723C8.14824 16.9475 8.2194 17.5542 8.51783 17.6031C8.79755 17.6489 15.8705 17.631 16.3146 17.5833C16.4613 17.5677 16.4104 17.5391 16.2356 17.5391C16.137 17.5391 16.051 17.5268 16.0443 17.512C16.0371 17.4957 16.0622 17.4845 16.107 17.4841C16.1686 17.4834 16.1757 17.4782 16.1467 17.4549C16.1235 17.4363 16.1155 17.4087 16.1234 17.3744C16.1302 17.3451 16.1263 17.3222 16.1145 17.3222C16.1029 17.3222 16.0934 17.31 16.0934 17.2951C16.0934 17.2801 16.1107 17.2679 16.1316 17.2679C16.1796 17.2679 16.1946 17.2363 16.1708 17.1853C16.155 17.1516 16.1499 17.1514 16.1346 17.1842C16.1194 17.2165 16.1117 17.2156 16.084 17.1774C16.0443 17.1227 16.0823 17.051 16.151 17.051C16.1735 17.051 16.1918 17.0388 16.1918 17.0238C16.1918 17.009 16.1846 16.9968 16.1758 16.9968C16.167 16.9968 16.1428 16.9748 16.1217 16.9479C16.1008 16.9211 16.0662 16.89 16.0449 16.8787C16.0146 16.8628 16.0119 16.8533 16.0327 16.8357C16.0472 16.8232 16.0539 16.8011 16.0474 16.7867C16.0345 16.7578 16.2049 16.7299 16.4572 16.7195C16.7212 16.7085 13.5141 16.6842 10.9232 16.6776C8.54823 16.6715 8.47395 16.6729 8.41456 16.723ZM16.2184 17.4188C16.2155 17.4856 16.2168 17.4864 16.2532 17.4412C16.2823 17.4049 16.2852 17.3888 16.266 17.372C16.2273 17.3383 16.2215 17.344 16.2184 17.4188ZM15.5823 20.9535C15.5823 20.9821 15.5934 21.0126 15.6069 21.0214C15.6266 21.034 15.6266 21.0403 15.6069 21.053C15.5772 21.0722 15.5726 21.3897 15.6021 21.3897C15.6128 21.3897 15.6217 21.4384 15.6217 21.4981C15.6217 21.5578 15.6305 21.6066 15.6413 21.6066C15.6744 21.6066 15.6666 20.9868 15.6329 20.9403C15.5951 20.8882 15.5823 20.8916 15.5823 20.9535ZM4.03487 22.3343C4.02682 22.3521 4.03185 22.3659 4.04645 22.3659C4.06064 22.3659 4.09869 22.3975 4.1312 22.4363C4.16361 22.4749 4.22994 22.5386 4.27865 22.5779C4.32727 22.617 4.51086 22.7806 4.6867 22.9413C4.86244 23.1021 5.011 23.2336 5.01674 23.2336C5.02258 23.2336 5.03798 23.2461 5.05106 23.2614C5.06414 23.2768 5.119 23.3284 5.17305 23.3762C5.2271 23.4239 5.28025 23.4723 5.29102 23.4835C5.37748 23.5732 6.03293 24.1556 6.04752 24.1556C6.10197 24.1556 6.1069 24.3115 6.1069 26.0631V27.8656L6.0135 27.9312C5.54396 28.2605 5.20234 28.7933 5.03516 29.4568C4.96863 29.721 4.94427 30.3173 4.98785 30.614C5.01895 30.8254 5.04673 30.969 5.06686 31.0225C5.07663 31.0483 5.08458 31.0836 5.08458 31.1007C5.08458 31.3639 5.52946 32.1097 5.84159 32.3699L5.95301 32.4628L6.00535 32.3727C6.03413 32.3231 6.07641 32.2386 6.09936 32.1848C6.1222 32.1311 6.18753 31.9834 6.2445 31.8566C6.30147 31.7299 6.36548 31.5835 6.38682 31.5313C6.40816 31.4791 6.43272 31.4242 6.44137 31.4093C6.45003 31.3943 6.50076 31.2784 6.5542 31.1516C6.60765 31.0249 6.69814 30.8174 6.75531 30.6907C6.81238 30.5639 6.87448 30.4236 6.8932 30.3789C6.91192 30.3341 6.97383 30.1938 7.03079 30.067C7.08776 29.9403 7.14967 29.7999 7.16839 29.7552C7.18721 29.7103 7.24911 29.5701 7.30608 29.4434C7.36295 29.3165 7.42485 29.1762 7.44357 29.1314C7.50034 28.9953 7.59012 28.7907 7.69923 28.5484C7.7563 28.4217 7.82987 28.2509 7.86269 28.1688C7.92368 28.0163 7.9421 27.9727 8.04124 27.7441C8.10123 27.6061 8.29871 27.1731 8.38538 26.9896C8.58648 26.5636 8.96674 26.1309 9.25431 26.0006C9.37409 25.9465 9.41948 25.9452 11.3934 25.9413C12.5026 25.9393 14.1355 25.9301 15.0221 25.9211L16.6341 25.9045L15.8598 25.8809C15.0529 25.8562 14.8607 25.8339 15.1354 25.7968C15.2659 25.7792 15.3719 25.7284 15.2782 25.7284C15.2292 25.7284 15.2055 25.6142 15.245 25.5693C15.2689 25.5422 15.271 25.5289 15.2531 25.5196C15.22 25.5025 15.22 25.249 15.2531 25.2324C15.2727 25.2227 15.2727 25.2087 15.2531 25.1627C15.2213 25.0886 15.2193 24.1359 15.2505 23.9356C15.2751 23.7766 15.3577 23.6319 15.3867 23.6966C15.3958 23.717 15.4104 23.7233 15.4191 23.7104C15.4278 23.6976 15.4238 23.6818 15.4103 23.6751C15.3953 23.6676 15.3858 23.6122 15.3858 23.5318C15.3858 23.4535 15.3759 23.3945 15.3612 23.3849C15.3416 23.3723 15.3416 23.3661 15.3612 23.3534C15.4001 23.3284 15.3903 23.1958 15.3464 23.1522C15.3234 23.1293 15.3071 23.082 15.3071 23.0378C15.3071 22.9963 15.2983 22.9624 15.2875 22.9624C15.2767 22.9624 15.2678 22.938 15.2678 22.9082C15.2678 22.8783 15.2767 22.854 15.2875 22.854C15.2983 22.854 15.3071 22.8662 15.3071 22.8811C15.3071 22.8959 15.316 22.9082 15.3268 22.9082C15.3561 22.9082 15.3514 22.6444 15.3218 22.6279C15.3033 22.6174 15.3043 22.6073 15.3262 22.5863C15.3421 22.5711 15.3475 22.5489 15.3383 22.5368C15.329 22.5248 15.3174 22.5302 15.3126 22.5489C15.3078 22.5676 15.2958 22.5829 15.2858 22.5829C15.2585 22.5829 15.2643 22.4808 15.2924 22.4651C15.3078 22.4567 15.304 22.4494 15.2826 22.446C15.2637 22.4429 15.2393 22.4374 15.2285 22.4336C15.2177 22.4299 15.1911 22.4253 15.1696 22.4235C15.1223 22.4195 15.1162 22.3659 15.163 22.3659C15.181 22.3659 15.1916 22.3602 15.1866 22.3532C15.1639 22.322 4.04876 22.3033 4.03487 22.3343ZM15.3464 23.0709C15.3464 23.1007 15.3553 23.1252 15.3661 23.1252C15.3769 23.1252 15.3858 23.1007 15.3858 23.0709C15.3858 23.041 15.3769 23.0167 15.3661 23.0167C15.3553 23.0167 15.3464 23.041 15.3464 23.0709ZM15.1892 25.6353C15.1892 25.6438 15.177 25.6677 15.162 25.6882C15.1279 25.7353 15.1046 25.7085 15.1363 25.6587C15.1604 25.6208 15.1892 25.6081 15.1892 25.6353ZM25.0333 26.8863C24.9032 26.8986 24.8962 26.9204 24.9788 27.057C25.0104 27.1092 25.0962 27.2557 25.1696 27.3825C25.3573 27.7069 25.357 27.7064 25.4137 27.7998C25.4417 27.8462 25.5519 28.0428 25.6583 28.2366C25.7647 28.4306 25.9585 28.7742 26.0888 29.0003C26.2192 29.2266 26.3773 29.5031 26.4402 29.615C26.6835 30.0472 26.9487 30.1026 27.121 29.757L27.181 29.6369L27.1813 28.2878C27.1816 27.3659 27.1751 26.9296 27.1607 26.9097C27.1403 26.8814 25.2959 26.861 25.0333 26.8863Z" fill="#F9EDBF"/>
<path fill-rule="evenodd" clip-rule="evenodd" d="M12.4951 0.926369C11.9576 1.23417 11.7229 1.52129 11.4334 2.22491C11.242 2.68974 11.2377 2.72375 11.2377 3.75656V4.63165H10.327C9.39647 4.63165 9.11475 4.65914 8.93478 4.76758C8.88445 4.79798 8.94796 4.78965 9.18339 4.73495C9.24821 4.71995 9.73919 4.69968 10.2745 4.68997L11.2476 4.67233L11.2595 3.81807C11.2702 3.04294 11.2825 2.82858 11.3254 2.66558C11.5882 1.6654 12.1526 1.0037 12.8595 0.866808C12.9244 0.854312 13.756 0.850286 14.7075 0.858061C16.2312 0.870556 16.4116 0.876248 16.2212 0.906237C16.1022 0.924841 15.9546 0.940947 15.8931 0.941919C15.7816 0.943724 15.7058 0.997036 15.8122 0.99898C15.8635 0.999813 15.9893 1.0752 15.9459 1.07923C15.9352 1.0802 15.941 1.09283 15.9589 1.10713C15.9794 1.12379 15.9876 1.15406 15.9809 1.18933C15.9731 1.23042 15.9814 1.24917 16.0122 1.26041C16.0602 1.27763 16.0742 1.46867 16.0296 1.49741C16.0098 1.51004 16.0098 1.51629 16.0296 1.52906C16.0431 1.53767 16.0541 1.58043 16.0541 1.62389C16.0541 1.66748 16.063 1.70302 16.0738 1.70302C16.0845 1.70302 16.0934 1.72635 16.0934 1.75495C16.0934 1.78355 16.1045 1.81257 16.1179 1.81951C16.1359 1.82867 16.133 1.84589 16.1075 1.88282C16.0794 1.92336 16.069 1.92627 16.0561 1.8974C16.0431 1.8681 16.0376 1.86935 16.0282 1.90323C16.0121 1.9614 16.1319 2.00194 16.4277 2.03831C16.4655 2.04304 15.886 2.04942 15.14 2.05248C13.029 2.06122 12.9597 2.06581 12.7602 2.21047C12.4111 2.46343 12.3206 2.81428 12.3196 3.91984L12.3189 4.6858L13.2085 4.68969C13.6978 4.69177 14.6908 4.70149 15.4152 4.71149C16.1396 4.72134 16.5908 4.73203 16.4178 4.73509C15.94 4.7437 15.3411 4.79076 15.319 4.82131C15.3081 4.8363 15.2727 4.84852 15.2403 4.84852C15.1505 4.84852 15.2037 4.89753 15.3071 4.91002C15.3793 4.91891 15.3874 4.92474 15.3513 4.94209C15.3064 4.96361 15.2853 5.12508 15.3233 5.15743C15.3517 5.18173 15.3519 5.69473 15.3235 5.71903C15.3097 5.73083 15.306 5.75026 15.3152 5.7622C15.3245 5.77428 15.3361 5.76887 15.3409 5.75013C15.3547 5.69667 15.3857 5.7107 15.3857 5.77054C15.3857 5.80039 15.3768 5.82468 15.3661 5.82468C15.3552 5.82468 15.3463 5.86133 15.3463 5.90604C15.3463 5.95088 15.3376 5.9874 15.3267 5.9874C15.3155 5.9874 15.3071 6.06876 15.3071 6.17719C15.3071 6.28576 15.3155 6.36712 15.3267 6.36712C15.3376 6.36712 15.3463 6.42807 15.3463 6.50262C15.3463 6.58065 15.3375 6.63827 15.3254 6.63827C15.3137 6.63827 15.3097 6.66104 15.3162 6.68964C15.3233 6.72032 15.3145 6.75961 15.2945 6.78738C15.2658 6.82681 15.2646 6.84208 15.2867 6.89067C15.3052 6.93163 15.3062 6.95051 15.2901 6.95787C15.2626 6.9705 15.2602 7.07213 15.2875 7.07213C15.2982 7.07213 15.3071 7.05992 15.3071 7.04492C15.3071 7.03007 15.3159 7.01785 15.3267 7.01785C15.3376 7.01785 15.3463 7.04228 15.3463 7.07213C15.3463 7.10198 15.3376 7.12628 15.3267 7.12628C15.3015 7.12628 15.3013 7.43533 15.3264 7.56015L15.3455 7.65511L15.4786 7.65525C15.5519 7.65539 15.9038 7.66122 16.2605 7.66816L16.9093 7.68093L16.1524 7.69857C15.3554 7.71717 14.5053 7.76063 14.4225 7.78714C14.3954 7.79575 14.2052 7.81602 13.9998 7.83199C13.6398 7.86017 13.0777 7.93459 12.7712 7.99484C12.69 8.01081 12.5617 8.03469 12.486 8.04802C12.4104 8.06135 12.2909 8.08564 12.2207 8.10217C12.1504 8.11855 12.0398 8.14312 11.9749 8.15659C11.9101 8.17006 11.8393 8.18672 11.8177 8.1938C11.796 8.20074 11.7253 8.22059 11.6603 8.23795C11.5501 8.26752 11.5062 8.28043 11.2771 8.35013C11.153 8.38803 10.9068 8.47453 10.8249 8.50924C10.7979 8.52076 10.736 8.54547 10.6872 8.56422C10.5408 8.62086 10.3495 8.70333 10.24 8.75692C10.0843 8.83328 9.91614 8.91839 9.86652 8.94574C9.84216 8.95921 9.8024 8.98087 9.77805 8.99392C9.70145 9.03501 9.56537 9.12234 9.29149 9.3063C8.73609 9.67936 8.35029 10.0505 7.96419 10.5832C7.67089 10.9878 7.58533 11.1352 7.38171 11.587C7.33481 11.6911 7.18494 12.11 7.14407 12.2513C7.1333 12.2887 7.11669 12.3403 7.10713 12.3663C7.09757 12.3921 7.08972 12.4372 7.08972 12.4664C7.08972 12.4955 7.08187 12.5261 7.0722 12.5343C7.06264 12.5425 7.04996 12.589 7.04422 12.6376C7.03838 12.6862 7.02349 12.7808 7.01111 12.8479C6.92314 13.3265 6.91106 13.8241 6.9172 16.7392L6.92263 19.3424L6.99088 19.5186C7.16964 19.9804 7.41412 20.1771 7.84663 20.2071C8.15804 20.2286 13.4146 20.2313 13.4397 20.2099C13.4505 20.2008 13.4591 20.1778 13.4591 20.1589C13.4591 20.1053 13.5416 19.8446 13.6044 19.6999C13.6387 19.6208 13.6539 19.5594 13.643 19.5444C13.6323 19.5297 12.5734 19.5167 11.0473 19.5124L8.46946 19.5051L8.39528 19.4223C8.1971 19.2009 8.19156 18.8308 8.38361 18.6291L8.45306 18.556H12.6812H16.9093L16.9079 18.3661C16.9058 18.0576 16.8755 17.6653 16.8493 17.607C16.8359 17.5771 16.8197 17.4429 16.8132 17.3086C16.8021 17.0824 16.8013 16.9507 16.8083 16.5222L16.8109 16.3595L16.8895 16.363C16.9824 16.3669 17.0487 16.3921 17.2729 16.5089C17.3648 16.5568 17.4976 16.6241 17.5678 16.6586C17.6924 16.7196 18.0397 16.9659 18.1511 17.0722C18.1817 17.1013 18.3217 17.2289 18.4622 17.3558C18.6029 17.4826 18.7355 17.6096 18.7572 17.6381C18.7968 17.6904 19.0233 17.9417 19.1714 18.0979C19.2935 18.2266 19.3363 18.2752 19.4339 18.3962C19.4835 18.4576 19.5458 18.5236 19.5725 18.5429C19.5993 18.5622 19.732 18.6939 19.8675 18.8357C20.3053 19.2938 20.4975 19.4396 20.7662 19.5174C20.8953 19.5547 21.4156 19.546 22.2171 19.4932C22.4334 19.4789 22.8049 19.4542 23.0427 19.4384C23.4793 19.4093 23.9413 19.3791 24.7334 19.3281C24.9712 19.3127 25.3429 19.2887 25.5591 19.2747C25.7754 19.2605 26.0876 19.2408 26.253 19.2307C27.2466 19.1701 27.512 19.9304 26.6109 20.2556C26.2959 20.3693 26.5362 20.3637 21.7846 20.3647C16.8496 20.3656 15.2944 20.3815 15.272 20.4306C15.2642 20.4476 15.2447 20.4674 15.2285 20.4746C15.2122 20.4819 15.2238 20.4834 15.2542 20.4781C15.3001 20.4701 15.3076 20.4767 15.2983 20.5173C15.2911 20.5488 15.3047 20.5892 15.3364 20.6301C15.3636 20.6654 15.3857 20.6798 15.3857 20.6622C15.3857 20.6447 15.3768 20.6304 15.3661 20.6304C15.3552 20.6304 15.3463 20.6182 15.3463 20.6033C15.3463 20.5883 15.3906 20.5761 15.4447 20.5761C15.4987 20.5761 15.543 20.5883 15.543 20.6033C15.543 20.6182 15.5167 20.6304 15.4846 20.6304C15.4102 20.6304 15.3637 20.7255 15.4251 20.7524C15.4467 20.7619 15.4643 20.7827 15.4643 20.7985C15.4643 20.8144 15.4839 20.8509 15.508 20.8796C15.5368 20.9141 15.5441 20.9381 15.5295 20.9506C15.5171 20.9613 15.5076 21.044 15.5076 21.1423C15.5076 21.2578 15.4987 21.3232 15.481 21.3389C15.4592 21.3585 15.4597 21.3671 15.484 21.3889C15.5083 21.4105 15.5092 21.4247 15.4889 21.4698C15.456 21.5431 15.4577 21.5524 15.5037 21.5524C15.5253 21.5524 15.543 21.5646 15.543 21.5795C15.543 21.5944 15.5226 21.6066 15.4977 21.6066C15.4729 21.6066 15.4409 21.6218 15.4265 21.6404C15.4056 21.6677 15.3987 21.6677 15.3914 21.6404C15.3774 21.5877 15.3548 21.6003 15.3303 21.6745L15.3079 21.7422L15.4795 21.746C15.5739 21.748 15.7971 21.7572 15.9754 21.7662C16.5296 21.7946 12.4212 21.8236 7.8431 21.8236H3.47217L3.31012 21.6786C3.22104 21.5989 2.98893 21.3911 2.79427 21.2166C2.59971 21.0422 2.42719 20.8882 2.41099 20.8746C2.39478 20.8609 2.23313 20.715 2.05186 20.5503C1.87048 20.3855 1.71799 20.2508 1.71286 20.2508C1.70783 20.2508 1.60405 20.1614 1.48227 20.0523C1.36058 19.9432 1.17306 19.7753 1.06556 19.6795C0.699692 19.3528 0.617862 19.0514 0.791386 18.6688C0.852583 18.5338 1.33068 18.0272 1.39691 18.0272C1.40194 18.0272 1.52605 17.9174 1.6727 17.7831C1.81935 17.6489 1.94376 17.5391 1.94919 17.5391C1.95463 17.5391 2.07179 17.4374 2.20958 17.3132C2.8455 16.7395 2.9228 16.6713 2.93861 16.6713C2.94777 16.6713 2.97132 16.647 2.99095 16.6172C3.01047 16.5873 3.03423 16.5629 3.04369 16.5629C3.06009 16.5629 3.53075 16.1375 3.55118 16.1043C3.55661 16.0954 3.60966 16.0373 3.66914 15.9748C3.72863 15.9124 3.80824 15.8158 3.84609 15.7603L3.91484 15.6591L3.84609 15.7238C3.80824 15.7593 3.64015 15.9234 3.47257 16.0884C3.30498 16.2533 3.03956 16.4956 2.88274 16.6268C2.72603 16.7578 2.58008 16.8931 2.55844 16.9271C2.5368 16.9612 2.21391 17.2558 1.84089 17.5817C0.688922 18.5881 0.639301 18.6513 0.671811 19.0706C0.694458 19.3613 0.742671 19.4353 1.14236 19.7916C1.3337 19.962 1.78372 20.3711 2.14224 20.7004C2.50087 21.0296 2.94716 21.4354 3.13397 21.602L3.47368 21.9049H16.6615C29.4804 21.9049 29.8505 21.9035 29.8961 21.8545C30.0347 21.7057 30.4978 21.2839 30.808 21.024C32.1643 19.8874 32.5103 19.5555 32.5863 19.3185C32.7561 18.7883 32.6883 18.636 32.0268 18.063C31.7565 17.8288 31.3496 17.4642 31.1225 17.2528C30.8954 17.0412 30.6035 16.7792 30.4737 16.6706C29.6426 15.9744 29.2061 15.4049 28.8093 14.4988C28.4532 13.6858 28.4013 13.3808 28.3782 11.9667C28.3577 10.7038 28.3357 10.2876 28.2695 9.91066C27.811 7.29844 26.1135 5.09537 24.2518 4.69593C24.0889 4.66109 23.8391 4.64901 23.0681 4.63915L22.0909 4.62652L22.0842 3.74101C22.0767 2.72945 22.0845 2.80039 21.9317 2.35986C21.6601 1.5764 21.2314 1.05202 20.6937 0.845288L20.5267 0.781006L16.6342 0.783088L12.7417 0.785171L12.4951 0.926369ZM16.1327 1.45895C16.1327 1.50365 16.1239 1.54031 16.1131 1.54031C16.1022 1.54031 16.0934 1.50365 16.0934 1.45895C16.0934 1.41424 16.1022 1.37759 16.1131 1.37759C16.1239 1.37759 16.1327 1.41424 16.1327 1.45895ZM15.3758 2.14119C15.6786 2.14439 16.9052 2.14425 18.1017 2.14078C19.2983 2.13744 20.3023 2.14217 20.333 2.15147C20.5974 2.23144 20.7888 2.43136 20.9197 2.76402L20.9983 2.96394L21.0029 3.73199C21.0054 4.15433 21.0122 4.51017 21.0177 4.52267C21.0632 4.6243 20.7374 4.64457 19.1503 4.63901C18.8151 4.63776 17.1521 4.63263 15.4545 4.62749L12.3681 4.61805L12.3736 3.83195C12.3766 3.3917 12.3881 2.99907 12.3997 2.93951C12.4432 2.71681 12.5713 2.47038 12.6885 2.38374C12.7107 2.3675 12.7405 2.33834 12.7548 2.31904C12.8717 2.16146 13.7782 2.07219 14.6976 2.12759C14.7679 2.13175 15.0732 2.13786 15.3758 2.14119ZM8.79024 4.82144C8.76548 4.83616 8.76176 4.84477 8.78038 4.84477C8.79658 4.84477 8.82758 4.83422 8.84922 4.82144C8.87399 4.80673 8.87761 4.79812 8.85899 4.79812C8.84278 4.79812 8.81188 4.80853 8.79024 4.82144ZM15.2285 5.02484C15.2285 5.04719 15.2372 5.06552 15.2481 5.06552C15.2589 5.06552 15.2677 5.04719 15.2677 5.02484C15.2677 5.00249 15.2589 4.98416 15.2481 4.98416C15.2372 4.98416 15.2285 5.00249 15.2285 5.02484ZM8.11195 5.11967C8.0741 5.14827 8.04873 5.17215 8.05548 5.17284C8.07591 5.17465 8.21028 5.09287 8.21028 5.07871C8.21028 5.05497 8.182 5.06677 8.11195 5.11967ZM7.60013 5.44066C6.95424 5.87383 6.06971 7.04395 5.67998 7.98054C5.10284 9.3678 5.00228 9.93065 4.96353 11.9938L4.94109 13.1869L4.81628 13.6729C4.74763 13.9401 4.6957 14.1645 4.70073 14.1714C4.70576 14.1785 4.71885 14.152 4.72972 14.1126C4.74059 14.0731 4.76857 13.983 4.79192 13.9122C4.83299 13.7881 4.85231 13.7135 4.88845 13.5394C4.89781 13.4947 4.91552 13.4092 4.9279 13.3497C4.97974 13.1006 4.99081 12.8914 5.00631 11.8717C5.02322 10.7526 5.04446 10.3526 5.10394 10.0278C5.11351 9.97563 5.13193 9.87192 5.14491 9.79737C5.1737 9.63118 5.29277 9.12706 5.33373 8.99739C5.35024 8.94518 5.37077 8.87813 5.37933 8.84828C5.46146 8.56116 5.81576 7.70398 5.88924 7.61443C5.89538 7.60693 5.93131 7.5389 5.96915 7.46324C6.25772 6.88637 7.27824 5.60782 7.45026 5.60782C7.45519 5.60782 7.51749 5.55895 7.58865 5.49939C7.65981 5.43969 7.72655 5.39082 7.73691 5.39082C7.74728 5.39082 7.76127 5.3786 7.76791 5.36374C7.78704 5.32126 7.75906 5.33403 7.60013 5.44066ZM15.3857 6.7467C15.3857 6.77655 15.3768 6.80098 15.3661 6.80098C15.3552 6.80098 15.3463 6.77655 15.3463 6.7467C15.3463 6.71685 15.3552 6.69241 15.3661 6.69241C15.3768 6.69241 15.3857 6.71685 15.3857 6.7467ZM15.4251 7.49239C15.4251 7.51475 15.4121 7.53307 15.3962 7.53307C15.3786 7.53307 15.3717 7.51725 15.3786 7.49239C15.3848 7.47004 15.3978 7.45171 15.4074 7.45171C15.4171 7.45171 15.4251 7.47004 15.4251 7.49239ZM15.2757 7.59124C15.2459 7.65705 15.2512 7.68954 15.2895 7.6758C15.3307 7.66094 15.3343 7.64567 15.3092 7.59124C15.295 7.56028 15.2897 7.56028 15.2757 7.59124ZM18.4034 7.85726C18.6412 7.87142 18.9906 7.88974 19.1798 7.89794C19.369 7.90627 19.5681 7.92473 19.6222 7.93889C19.6762 7.95305 19.778 7.97985 19.8482 7.99818C19.9185 8.01664 20.0733 8.034 20.1923 8.03677C20.3112 8.03969 20.4705 8.05621 20.5462 8.07357C20.6218 8.09092 20.7456 8.11091 20.8213 8.11799C20.9553 8.13049 21.088 8.15895 21.259 8.21212C21.3052 8.22642 21.3855 8.23809 21.4376 8.23809C21.4897 8.23809 21.5387 8.24683 21.5463 8.25752C21.5707 8.29098 21.7416 8.34416 21.8291 8.34541C21.8752 8.3461 21.9283 8.35735 21.947 8.3704C22.0124 8.41594 22.122 8.45509 22.1841 8.45509C22.2185 8.45509 22.2466 8.46731 22.2466 8.48216C22.2466 8.49702 22.2683 8.50924 22.2948 8.50924C22.3214 8.50924 22.3633 8.52034 22.3882 8.53381C22.4131 8.54728 22.4864 8.57366 22.5513 8.5924C22.6162 8.61114 22.6777 8.63669 22.6879 8.64918C22.6982 8.66168 22.7315 8.67195 22.7619 8.67195C22.8152 8.67195 22.8326 8.68001 22.9295 8.74915C22.9537 8.76636 22.9895 8.78038 23.0091 8.78038C23.0286 8.78038 23.0531 8.7901 23.0634 8.80204C23.0736 8.81384 23.1174 8.83911 23.1607 8.858C23.243 8.89409 23.3142 8.93297 23.3718 8.97337C23.3906 8.98656 23.415 8.99739 23.426 8.99739C23.4371 8.99739 23.4881 9.02307 23.5394 9.05431C23.7468 9.18121 23.811 9.22133 23.8438 9.24438C23.8628 9.25771 23.8938 9.27895 23.9127 9.29158C23.9316 9.30422 23.9736 9.33518 24.0061 9.36045C24.0385 9.38558 24.1137 9.43875 24.1732 9.47846C24.2327 9.51816 24.2857 9.55746 24.2911 9.56579C24.2965 9.57425 24.343 9.61035 24.3943 9.64603C24.4456 9.68171 24.4877 9.72128 24.4877 9.73378C24.4877 9.74641 24.4994 9.75669 24.5138 9.75669C24.5281 9.75669 24.5606 9.78709 24.5859 9.82444C24.6114 9.86179 24.6435 9.89219 24.6574 9.89219C24.6713 9.89219 24.7029 9.92107 24.7277 9.9562C24.7524 9.99146 24.8124 10.0495 24.8609 10.085C24.957 10.1556 25.0382 10.2529 25.0382 10.2977C25.0382 10.3133 25.0459 10.3261 25.0554 10.3261C25.0648 10.3261 25.1101 10.3749 25.156 10.4346C25.202 10.4942 25.2451 10.5431 25.252 10.5431C25.2588 10.5431 25.2909 10.5879 25.3233 10.6427C25.3556 10.6976 25.3954 10.762 25.4116 10.7859C25.4279 10.8096 25.4651 10.8689 25.4944 10.9175C25.5237 10.966 25.5509 11.0023 25.5548 10.998C25.5666 10.9854 25.6279 11.0794 25.6279 11.1103C25.6279 11.1262 25.6548 11.1745 25.6876 11.2178C25.7204 11.2611 25.746 11.3069 25.7445 11.3197C25.7381 11.3716 25.7718 11.4649 25.7969 11.4649C25.8117 11.4649 25.8293 11.4955 25.836 11.5328C25.8429 11.57 25.8622 11.6006 25.879 11.6006C25.8958 11.6006 25.9042 11.6081 25.8974 11.6174C25.8908 11.6267 25.914 11.6968 25.949 11.7733C26.0176 11.923 26.139 12.2642 26.139 12.3071C26.139 12.3217 26.1469 12.3546 26.1564 12.3806C26.2096 12.5248 26.2247 12.5988 26.2602 12.8886C26.2712 12.9781 26.292 13.1239 26.3066 13.2126C26.3279 13.3423 26.3336 13.941 26.335 16.2565L26.3368 19.139H26.1188C25.9785 19.139 25.9051 19.1486 25.9129 19.1661C25.9267 19.1971 25.3599 19.2009 25.215 19.1708L25.1265 19.1525L25.1206 18.9763C25.1174 18.8794 25.1063 18.7885 25.096 18.7743C25.0858 18.7601 25.0774 18.7286 25.0774 18.7042C25.0774 18.626 24.9388 18.4987 24.8317 18.4787C24.7777 18.4686 23.5871 18.4605 22.1859 18.4608C19.3223 18.4614 19.5844 18.4812 19.4201 18.2513C19.3738 18.1866 19.3273 18.1409 19.3168 18.1498C19.3063 18.1587 19.2978 18.1527 19.2978 18.1365C19.2978 18.0965 19.1586 17.9314 19.1284 17.9357C19.1152 17.9375 19.1085 17.9241 19.1136 17.9057C19.1188 17.887 19.0961 17.857 19.0621 17.8376C18.8298 17.7048 19.0183 17.695 21.706 17.7C23.0792 17.7026 24.3696 17.6965 24.5738 17.6864L24.945 17.6682L25.0205 17.574C25.0687 17.5139 25.1006 17.4465 25.1086 17.3872C25.1156 17.3362 25.1291 17.2878 25.1386 17.2796C25.2041 17.2239 25.0905 16.738 25.0053 16.7084C24.9801 16.6998 24.9595 16.6837 24.9595 16.6729C24.9595 16.593 24.8252 16.59 21.2142 16.59C17.6055 16.59 17.5683 16.5896 17.499 16.5358C17.4606 16.506 17.4081 16.4815 17.3825 16.4815C17.357 16.4815 17.3308 16.4624 17.3243 16.4391C17.3164 16.4107 17.2992 16.4023 17.273 16.4138C17.2504 16.4236 17.2336 16.4186 17.2336 16.402C17.2336 16.3862 17.208 16.3731 17.1767 16.3731C17.1426 16.3731 17.115 16.3556 17.1077 16.3294C17.1 16.3016 17.0813 16.2908 17.0564 16.2997C17.035 16.3074 17.0174 16.3027 17.0174 16.2893C17.0174 16.2756 16.9654 16.2647 16.9019 16.2647C16.7676 16.2647 16.7101 16.3542 16.7429 16.5122L16.7591 16.59H12.6235C9.88756 16.59 8.48376 16.5993 8.4757 16.6172C8.46896 16.632 8.44188 16.6443 8.41551 16.6443C8.38914 16.6443 8.3676 16.6565 8.3676 16.6713C8.3676 16.6863 8.35432 16.6985 8.33811 16.6985C8.32181 16.6985 8.30862 16.7106 8.30862 16.7253C8.30862 16.7402 8.28245 16.7867 8.25044 16.8288C8.20998 16.8822 8.19559 16.9225 8.20304 16.9616C8.20887 16.9925 8.20404 17.0259 8.19237 17.0361C8.16549 17.0588 8.16418 17.2047 8.19066 17.2272C8.20143 17.2365 8.21028 17.2799 8.21028 17.3237C8.21028 17.3676 8.21914 17.4036 8.22991 17.4036C8.24078 17.4036 8.24964 17.4241 8.24964 17.4492C8.24964 17.5089 8.32613 17.6204 8.367 17.6204C8.38461 17.6204 8.40917 17.6344 8.42155 17.6515C8.43836 17.6748 9.5091 17.683 12.634 17.684L16.8239 17.6854L16.8114 17.7547C16.7919 17.8634 16.7999 17.9797 16.8313 18.046C16.8732 18.1343 16.8726 18.5091 16.8307 18.4611C16.8105 18.438 16.8012 18.4369 16.8012 18.4575C16.8012 18.4795 15.6748 18.4865 12.61 18.4832C9.41821 18.4798 8.41712 18.4863 8.41129 18.5106C8.40706 18.5281 8.39327 18.5424 8.38069 18.5424C8.34385 18.5426 8.24964 18.6667 8.24964 18.715C8.24964 18.7395 8.24289 18.7593 8.23474 18.7593C8.19528 18.7593 8.15512 19.0681 8.19066 19.0983C8.20143 19.1075 8.21028 19.151 8.21028 19.1948C8.21028 19.2387 8.21914 19.2745 8.22991 19.2745C8.24078 19.2745 8.24964 19.2929 8.24964 19.3152C8.24964 19.3376 8.259 19.3559 8.27037 19.3559C8.28185 19.3559 8.28557 19.3687 8.27852 19.3842C8.26101 19.4235 8.30902 19.4971 8.34123 19.48C8.35573 19.4724 8.3676 19.4779 8.3676 19.4924C8.3676 19.5068 8.38522 19.5186 8.40686 19.5186C8.4285 19.5186 8.44621 19.5297 8.44621 19.5433C8.44621 19.5912 8.67771 19.608 9.09492 19.5904C9.19768 19.5859 9.29048 19.5908 9.30136 19.6009C9.33286 19.6305 9.53336 19.6269 9.56023 19.5962C9.58429 19.5686 10.0467 19.5854 10.1221 19.6165C10.141 19.6244 10.1565 19.6177 10.1565 19.6018C10.1565 19.5834 10.2156 19.5739 10.3187 19.5755C10.43 19.5775 10.4655 19.5851 10.4317 19.6C10.3967 19.6155 10.3928 19.6225 10.4183 19.6244C10.4379 19.6259 10.4716 19.614 10.4933 19.5982C10.5225 19.5765 10.5406 19.5783 10.5637 19.6048C10.5948 19.6405 10.8591 19.6415 13.0329 19.6147L13.5208 19.6086L13.5083 19.6772C13.5015 19.7149 13.4782 19.78 13.4566 19.8218C13.4351 19.8636 13.4224 19.9092 13.4285 19.9229C13.4348 19.9366 13.4168 19.9855 13.3888 20.0316L13.3377 20.1152H10.5271C8.65839 20.1152 7.72061 20.1062 7.72866 20.0881C7.74497 20.0517 7.72655 20.0538 7.68035 20.0937C7.64925 20.1205 7.63546 20.1177 7.60425 20.0788C7.57798 20.0459 7.5503 20.0367 7.51467 20.049C7.48236 20.0602 7.46324 20.0556 7.46324 20.0367C7.46324 20.0202 7.44552 20.0068 7.42399 20.0068C7.40235 20.0068 7.38463 19.9945 7.38463 19.9797C7.38463 19.9647 7.37134 19.9525 7.35514 19.9525C7.33893 19.9525 7.32565 19.9403 7.32565 19.9254C7.32565 19.9104 7.31598 19.8983 7.30431 19.8983C7.27391 19.8983 7.07009 19.6001 7.07009 19.5557C7.07009 19.5353 7.06123 19.5186 7.05046 19.5186C7.03959 19.5186 7.03074 19.4967 7.03074 19.4699C7.03074 19.4429 7.01966 19.4057 7.00618 19.3871C6.98685 19.3605 6.98252 18.8638 6.98574 17.0565C6.98796 15.7932 6.99017 14.4397 6.99068 14.0487C6.99128 13.4525 6.99591 13.3401 7.01886 13.3523C7.0412 13.3641 7.04442 13.3315 7.03677 13.1751C7.03043 13.047 7.03436 12.9835 7.04865 12.9835C7.06093 12.9835 7.07009 12.9319 7.07009 12.863C7.07009 12.7968 7.07895 12.7352 7.08972 12.7259C7.10059 12.7167 7.10945 12.6807 7.10945 12.6459C7.10945 12.611 7.12324 12.5752 7.14025 12.5662C7.16018 12.5556 7.16682 12.5315 7.15907 12.4979C7.15253 12.4691 7.15635 12.4379 7.16752 12.4283C7.1788 12.4188 7.18806 12.387 7.18806 12.3579C7.18806 12.3288 7.19651 12.2837 7.20698 12.2578C7.24764 12.1568 7.30602 11.9685 7.30602 11.9384C7.30602 11.921 7.32847 11.8733 7.35604 11.8323C7.38352 11.7913 7.4112 11.7225 7.41744 11.6792C7.42368 11.636 7.43657 11.6006 7.44603 11.6006C7.45549 11.6006 7.46324 11.5846 7.46324 11.565C7.46324 11.5455 7.48095 11.5033 7.50259 11.4712C7.52424 11.4393 7.54185 11.3943 7.54185 11.3712C7.54185 11.3482 7.55514 11.3294 7.57134 11.3294C7.58755 11.3294 7.60083 11.32 7.60083 11.3083C7.60083 11.2968 7.62781 11.2465 7.66082 11.1967C7.69383 11.1469 7.71658 11.1004 7.71145 11.0933C7.69504 11.0706 8.04702 10.5668 8.24732 10.3261C8.30318 10.259 8.36136 10.1887 8.37646 10.1701C8.39166 10.1515 8.41028 10.1363 8.41793 10.1363C8.42548 10.1363 8.44601 10.1149 8.46352 10.0886C8.48104 10.0624 8.51969 10.0238 8.54938 10.0027C8.57917 9.9816 8.60343 9.95425 8.60343 9.9419C8.60343 9.92954 8.61672 9.91941 8.63292 9.91941C8.64913 9.91941 8.66241 9.90719 8.66241 9.89219C8.66241 9.87734 8.6757 9.86512 8.69191 9.86512C8.70811 9.86512 8.7214 9.85429 8.7214 9.8411C8.7214 9.81986 8.77444 9.78626 8.8295 9.77265C8.84037 9.76988 8.84701 9.75308 8.84429 9.73503C8.84158 9.71712 8.85708 9.7024 8.87872 9.7024C8.90026 9.7024 8.91797 9.69018 8.91797 9.67533C8.91797 9.66033 8.93126 9.64812 8.94746 9.64812C8.96367 9.64812 8.97695 9.63604 8.97695 9.62104C8.97695 9.60619 8.99024 9.59397 9.00644 9.59397C9.02265 9.59397 9.03594 9.58175 9.03594 9.5669C9.03594 9.5519 9.05365 9.53969 9.07529 9.53969C9.09693 9.53969 9.11454 9.52747 9.11454 9.51261C9.11454 9.49762 9.13226 9.48554 9.1539 9.48554C9.17554 9.48554 9.19325 9.47332 9.19325 9.45833C9.19325 9.44347 9.21087 9.43125 9.23251 9.43125C9.25415 9.43125 9.27196 9.42209 9.27196 9.41084C9.27217 9.38655 9.36738 9.32282 9.40352 9.32282C9.41761 9.32282 9.42908 9.3106 9.42908 9.29561C9.42908 9.28075 9.4468 9.26854 9.46844 9.26854C9.49008 9.26854 9.50779 9.25632 9.50779 9.24146C9.50779 9.22647 9.52984 9.21425 9.55691 9.21425C9.58389 9.21425 9.60603 9.20217 9.60603 9.18718C9.60603 9.17232 9.62375 9.1601 9.64539 9.1601C9.66703 9.1601 9.68464 9.14789 9.68464 9.13303C9.68464 9.11804 9.70678 9.10582 9.73386 9.10582C9.76083 9.10582 9.78298 9.0936 9.78298 9.07875C9.78298 9.06375 9.80512 9.05167 9.8321 9.05167C9.85917 9.05167 9.88132 9.03946 9.88132 9.02446C9.88132 9.00961 9.89913 8.99739 9.92087 8.99739C9.94261 8.99739 9.97804 8.98517 9.99948 8.97032C10.0209 8.95532 10.0561 8.93088 10.0776 8.91603C10.099 8.90117 10.1389 8.88895 10.1661 8.88895C10.1932 8.88895 10.2155 8.87674 10.2155 8.86174C10.2155 8.84689 10.2326 8.83467 10.2536 8.83467C10.2746 8.83467 10.2972 8.82245 10.304 8.8076C10.3106 8.7926 10.3421 8.78038 10.3739 8.78038C10.4057 8.78038 10.4317 8.76831 10.4317 8.75331C10.4317 8.73846 10.4583 8.72624 10.4907 8.72624C10.5232 8.72624 10.5496 8.71402 10.5496 8.69917C10.5496 8.68417 10.5806 8.67195 10.6185 8.67195C10.6563 8.67195 10.6872 8.65974 10.6872 8.64488C10.6872 8.62989 10.7133 8.61781 10.7451 8.61781C10.7769 8.61781 10.8084 8.60559 10.8151 8.5906C10.8217 8.57574 10.8571 8.56352 10.8937 8.56352C10.9302 8.56352 10.9656 8.5513 10.9723 8.53645C10.979 8.52145 11.0099 8.50924 11.0411 8.50924C11.0723 8.50924 11.1032 8.49702 11.11 8.48216C11.1166 8.46731 11.1608 8.45509 11.2082 8.45509C11.2556 8.45509 11.2992 8.44426 11.3051 8.43093C11.3167 8.40511 11.404 8.3797 11.5621 8.35624C11.6162 8.34819 11.6688 8.33055 11.6791 8.31695C11.6893 8.30348 11.7402 8.29237 11.7921 8.29237C11.844 8.29237 11.8864 8.28016 11.8864 8.2653C11.8864 8.25031 11.9346 8.23809 11.9934 8.23809C12.0523 8.23809 12.1058 8.22587 12.1126 8.21101C12.1192 8.19602 12.1772 8.18394 12.2415 8.18394C12.3057 8.18394 12.3583 8.17269 12.3583 8.15895C12.3583 8.13549 12.4005 8.12841 12.7809 8.08884C12.8675 8.07995 12.9558 8.06135 12.9775 8.0476C12.9991 8.03386 13.0987 8.01623 13.1987 8.00845C13.2987 8.00054 13.4623 7.98762 13.5624 7.97971C13.6623 7.9718 13.7619 7.95389 13.7835 7.93973C13.8228 7.91404 13.9863 7.9046 15.0646 7.86559C15.3801 7.8542 15.6453 7.83504 15.654 7.82283C15.6739 7.79547 17.8142 7.82227 18.4034 7.85726ZM8.46775 10.915C8.45054 10.9332 8.42447 10.9485 8.40988 10.9489C8.39528 10.9494 8.35814 10.9869 8.32734 11.0325C8.29654 11.078 8.26645 11.1145 8.26051 11.1138C8.25447 11.1131 8.25185 11.1167 8.25447 11.1219C8.25719 11.127 8.24712 11.1517 8.23202 11.1769C8.20002 11.23 8.19428 11.6782 8.22528 11.7057C8.23575 11.715 8.25034 11.7496 8.25779 11.7825C8.27792 11.8712 8.38189 11.9802 8.44651 11.9802C8.47751 11.9802 8.50831 11.9924 8.51496 12.0074C8.5368 12.0558 24.7928 12.0429 24.894 11.9942C25.0052 11.9409 25.1168 11.7775 25.1168 11.6683C25.1168 11.6456 25.1276 11.6032 25.1406 11.5742C25.1594 11.5327 25.1594 11.5017 25.1406 11.4302C25.1276 11.3801 25.1168 11.3071 25.1168 11.2681C25.1168 11.2291 25.1069 11.1887 25.095 11.1785C25.0793 11.1652 25.0798 11.1544 25.0966 11.1401C25.1482 11.096 24.9227 10.9128 24.8042 10.9022C24.4616 10.8718 8.49694 10.8843 8.46775 10.915ZM15.602 11.0026C16.3642 11.0123 16.7888 11.0243 16.5456 11.0291C16.0619 11.0386 15.5854 11.0726 15.8208 11.0808C15.8926 11.0833 15.9785 11.1012 16.0118 11.1205L16.0722 11.1555L16.0046 11.2357C15.9675 11.2797 15.9368 11.3372 15.9366 11.3633C15.9364 11.3894 15.9273 11.4108 15.9165 11.4108C15.8812 11.4108 15.8958 11.5278 15.9391 11.5913C15.9766 11.6465 15.9777 11.6553 15.9489 11.6706C15.8899 11.7018 15.9152 11.7361 16.0001 11.7394L16.0836 11.7426L16.0049 11.7658C15.9617 11.7784 15.8666 11.7962 15.7936 11.8054C15.4479 11.8483 15.9069 11.8891 16.9076 11.9042C17.1031 11.9073 16.2723 11.9177 15.0613 11.9275C10.1186 11.9675 8.55502 11.9602 8.45688 11.8966C8.18995 11.7236 8.18341 11.1752 8.44621 11.0112C8.50137 10.9768 13.1557 10.9711 15.602 11.0026ZM16.0541 11.4108C16.0541 11.4406 16.0453 11.4649 16.0344 11.4649C16.0236 11.4649 16.0148 11.4406 16.0148 11.4108C16.0148 11.3809 16.0236 11.3565 16.0344 11.3565C16.0453 11.3565 16.0541 11.3809 16.0541 11.4108ZM15.7986 11.709C15.7986 11.724 15.8118 11.7362 15.8281 11.7362C15.8443 11.7362 15.8576 11.724 15.8576 11.709C15.8576 11.6942 15.8443 11.6819 15.8281 11.6819C15.8118 11.6819 15.7986 11.6942 15.7986 11.709ZM8.45608 12.8207C8.44933 12.8357 8.42669 12.8479 8.40575 12.8479C8.38471 12.8479 8.3676 12.8601 8.3676 12.8751C8.3676 12.89 8.35562 12.9022 8.34113 12.9022C8.3055 12.9022 8.24964 12.9905 8.24964 13.0467C8.24964 13.0716 8.24259 13.092 8.23404 13.092C8.20465 13.092 8.16912 13.3349 8.19045 13.3898C8.20132 13.418 8.21028 13.4643 8.21028 13.4928C8.21028 13.6146 8.31164 13.8242 8.37062 13.8242C8.39055 13.8242 8.40686 13.8363 8.40686 13.8513C8.40686 13.8661 8.42719 13.8783 8.45205 13.8783C8.47691 13.8783 8.5062 13.8906 8.51697 13.9056C8.54093 13.9385 24.7782 13.9268 24.8758 13.8938C24.962 13.8647 25.0941 13.6887 25.1095 13.5826C25.1163 13.5358 25.1296 13.491 25.1389 13.4831C25.185 13.4438 25.0975 12.9565 25.0443 12.9565C25.029 12.9565 24.9957 12.9229 24.97 12.8818L24.9235 12.8072L16.6959 12.8004C11.2073 12.7958 8.46423 12.8026 8.45608 12.8207ZM14.5797 12.9023C15.4285 12.9101 15.9017 12.9208 15.6314 12.9261C15.3611 12.9313 15.0515 12.9444 14.9434 12.9551L14.7468 12.9745L14.9434 12.9792C15.2167 12.9858 15.4138 13.0137 15.3821 13.0414C15.3679 13.0539 15.3187 13.0642 15.2727 13.0645C15.2117 13.0648 15.1891 13.0759 15.1891 13.1056C15.1891 13.1279 15.198 13.1463 15.2088 13.1463C15.2196 13.1463 15.2285 13.134 15.2285 13.119C15.2285 13.1042 15.2372 13.092 15.2481 13.092C15.2589 13.092 15.2677 13.1164 15.2677 13.1463C15.2677 13.1761 15.2766 13.2004 15.2875 13.2004C15.2982 13.2004 15.3071 13.2126 15.3071 13.2276C15.3071 13.2425 15.2894 13.2547 15.2677 13.2547C15.2244 13.2547 15.2142 13.2973 15.253 13.3166C15.2693 13.3247 15.2616 13.3483 15.2297 13.3874L15.1819 13.446L15.2249 13.4874C15.2765 13.5374 15.2805 13.6022 15.2333 13.6269C15.1787 13.6554 15.1399 13.7156 15.1762 13.7156C15.1923 13.7156 15.2084 13.7273 15.2121 13.7413C15.2158 13.7562 15.4847 13.7763 15.8477 13.7888C16.6423 13.8163 14.523 13.8411 10.8533 13.8472L8.51284 13.8513L8.42165 13.7714C8.20304 13.5803 8.19428 13.1381 8.40515 12.9405L8.4757 12.8744L10.7561 12.8812C12.0103 12.885 13.731 12.8945 14.5797 12.9023ZM4.49399 14.616C4.26531 15.12 4.27447 15.0986 4.28675 15.0986C4.30788 15.0986 4.50607 14.6893 4.6194 14.4118C4.75337 14.0838 4.68523 14.1946 4.49399 14.616ZM8.42246 14.7122C8.41119 14.7308 8.39085 14.7461 8.37726 14.7461C8.28456 14.7461 8.14325 15.1423 8.18784 15.2773C8.20022 15.3146 8.21028 15.3728 8.21028 15.4067C8.21028 15.4404 8.2284 15.4948 8.25064 15.5277C8.27279 15.5605 8.28617 15.5981 8.28034 15.6112C8.26564 15.6439 8.32181 15.7039 8.34707 15.6824C8.35834 15.6727 8.3676 15.6748 8.3676 15.687C8.3676 15.7753 8.3983 15.7757 15.3174 15.7771C19.642 15.7779 22.1472 15.7879 22.1286 15.8042C22.1048 15.8251 22.1073 15.83 22.1417 15.8304C22.1651 15.8305 22.1873 15.8196 22.1909 15.806C22.1947 15.7917 22.2712 15.7894 22.3744 15.801C22.7826 15.8465 24.8292 15.821 24.8859 15.7697C24.9148 15.7436 24.9505 15.7222 24.9652 15.7222C24.9989 15.7222 25.0614 15.6249 25.0957 15.519C25.1101 15.4741 25.1308 15.4112 25.1414 15.379C25.176 15.2746 25.1158 14.9231 25.0503 14.8469C25.0273 14.8202 24.9763 14.7748 24.9368 14.7459C24.846 14.6796 8.46222 14.6461 8.42246 14.7122ZM15.1596 14.7988C15.7976 14.8087 16.2398 14.8201 16.1426 14.824C15.8295 14.8365 15.5674 14.881 15.8002 14.8821C15.8479 14.8823 15.9002 14.8944 15.9165 14.9088C15.9403 14.93 15.9375 14.9352 15.9017 14.9355C15.847 14.936 15.8452 14.966 15.8968 15.0172C15.9425 15.0626 15.9484 15.1669 15.9084 15.2222C15.8932 15.2431 15.8853 15.285 15.8911 15.315C15.899 15.3572 15.8919 15.3697 15.8598 15.3697C15.8021 15.3697 15.8078 15.4076 15.8723 15.4525C15.9019 15.4732 15.9301 15.4936 15.9348 15.498C15.9532 15.5155 15.8642 15.5852 15.8182 15.5892C15.729 15.597 15.9406 15.6367 16.1033 15.6428L16.2605 15.6487L16.0541 15.6731C15.9406 15.6864 14.1889 15.7 12.1617 15.7031L8.4757 15.7088L8.41259 15.6467C8.20867 15.4461 8.19659 14.9915 8.39075 14.8283C8.46121 14.769 12.1916 14.7529 15.1596 14.7988ZM4.13204 15.3359C4.03119 15.4975 4.02908 15.503 4.11393 15.3833C4.21699 15.2378 4.26903 15.1529 4.25494 15.1529C4.25011 15.1529 4.19485 15.2352 4.13204 15.3359ZM9.57654 15.8308C9.56919 15.8472 9.59637 15.8579 9.64539 15.8579C9.6943 15.8579 9.72148 15.8472 9.71413 15.8308C9.70749 15.8158 9.67649 15.8036 9.64539 15.8036C9.61418 15.8036 9.58328 15.8158 9.57654 15.8308ZM10.5791 15.8308C10.5723 15.8461 10.5888 15.8579 10.6173 15.8579C10.645 15.8579 10.6676 15.8457 10.6676 15.8308C10.6676 15.8158 10.6504 15.8036 10.6295 15.8036C10.6084 15.8036 10.5859 15.8158 10.5791 15.8308ZM21.8685 15.8233C21.9039 15.8293 21.9569 15.8291 21.9865 15.823C22.016 15.8168 21.9871 15.8119 21.9222 15.8121C21.8574 15.8122 21.8332 15.8172 21.8685 15.8233ZM14.9925 16.6984C15.8845 16.7065 16.5436 16.7159 16.4571 16.7195C16.2048 16.7299 16.0344 16.7578 16.0474 16.7867C16.0538 16.8011 16.0472 16.8232 16.0326 16.8357C16.0119 16.8533 16.0146 16.8628 16.0449 16.8788C16.0661 16.89 16.1007 16.9211 16.1217 16.9479C16.1427 16.9748 16.167 16.9968 16.1757 16.9968C16.1846 16.9968 16.1917 17.009 16.1917 17.0238C16.1917 17.0388 16.1734 17.0511 16.151 17.0511C16.0822 17.0511 16.0443 17.1227 16.0839 17.1774C16.1116 17.2156 16.1194 17.2165 16.1346 17.1842C16.1499 17.1514 16.155 17.1516 16.1708 17.1853C16.1945 17.2363 16.1795 17.2679 16.1315 17.2679C16.1106 17.2679 16.0934 17.2801 16.0934 17.2951C16.0934 17.31 16.1028 17.3222 16.1144 17.3222C16.1262 17.3222 16.1301 17.3451 16.1234 17.3744C16.1154 17.4087 16.1235 17.4363 16.1466 17.4549C16.1756 17.4783 16.1686 17.4834 16.107 17.4841C16.0622 17.4845 16.037 17.4957 16.0443 17.512C16.0509 17.5268 16.137 17.5391 16.2355 17.5391C16.4103 17.5391 16.4613 17.5677 16.3145 17.5834C15.8704 17.631 8.79749 17.6489 8.51778 17.6031C8.21934 17.5542 8.14818 16.9475 8.41451 16.723C8.48023 16.6674 10.6357 16.6594 14.9925 16.6984ZM16.2659 17.372C16.2851 17.3888 16.2822 17.4049 16.2531 17.4412C16.2168 17.4864 16.2155 17.4856 16.2183 17.4188C16.2214 17.344 16.2273 17.3383 16.2659 17.372ZM15.6328 20.9403C15.6665 20.9868 15.6744 21.6066 15.6413 21.6066C15.6305 21.6066 15.6216 21.5578 15.6216 21.4981C15.6216 21.4384 15.6128 21.3897 15.602 21.3897C15.5725 21.3897 15.5771 21.0722 15.6068 21.053C15.6266 21.0403 15.6266 21.034 15.6068 21.0214C15.5829 21.006 15.5712 20.9016 15.5935 20.9016C15.5997 20.9016 15.6174 20.9191 15.6328 20.9403ZM6.86365 22.2048C6.67986 22.2168 6.0075 22.2225 5.36957 22.2175C4.16103 22.2082 3.93456 22.2179 3.93456 22.2797C3.93456 22.3289 5.4677 23.7722 5.85451 24.0869L6.04454 24.2416L6.05541 24.4629C6.06135 24.5848 6.07041 25.3892 6.07544 26.2507L6.0848 27.817L5.98274 27.8883C5.31018 28.3574 4.9271 29.1922 4.9274 30.1877L4.9276 30.6229L5.004 30.9212C5.06741 31.169 5.20782 31.5584 5.23369 31.5584C5.23751 31.5584 5.2056 31.4639 5.16283 31.3482C5.12005 31.2327 5.08492 31.1228 5.08482 31.1039C5.08462 31.085 5.07657 31.0483 5.0668 31.0225C5.04667 30.9691 5.01889 30.8254 4.98779 30.614C4.94421 30.3174 4.96857 29.721 5.0351 29.4568C5.12347 29.1061 5.29307 28.7235 5.46257 28.4929C5.68068 28.1961 5.77952 28.0953 6.01344 27.9312L6.10685 27.8656V26.0631C6.10685 24.3115 6.10191 24.1556 6.04746 24.1556C6.03287 24.1556 5.37742 23.5732 5.29096 23.4835C5.28019 23.4723 5.22704 23.424 5.17299 23.3762C5.11894 23.3284 5.06409 23.2768 5.051 23.2614C5.03792 23.2461 5.02252 23.2336 5.01668 23.2336C5.01094 23.2336 4.86238 23.1021 4.68664 22.9414C4.5108 22.7806 4.32721 22.617 4.27859 22.5779C4.22988 22.5386 4.16355 22.4749 4.13114 22.4363C4.09863 22.3975 4.06058 22.3659 4.04639 22.3659C4.03179 22.3659 4.02676 22.3521 4.03481 22.3344C4.0487 22.3033 15.1639 22.322 15.1865 22.3532C15.1915 22.3602 15.181 22.3659 15.163 22.3659C15.1162 22.3659 15.1222 22.4195 15.1695 22.4235C15.191 22.4253 15.2176 22.4299 15.2285 22.4336C15.2392 22.4374 15.2636 22.4429 15.2825 22.446C15.304 22.4495 15.3077 22.4567 15.2923 22.4651C15.2548 22.4861 15.263 22.5661 15.3071 22.6099C15.3493 22.6519 15.3662 22.9082 15.3267 22.9082C15.3159 22.9082 15.3071 22.896 15.3071 22.8811C15.3071 22.8662 15.2982 22.854 15.2875 22.854C15.2766 22.854 15.2677 22.8783 15.2677 22.9082C15.2677 22.938 15.2766 22.9625 15.2875 22.9625C15.2982 22.9625 15.3071 22.9963 15.3071 23.0378C15.3071 23.082 15.3233 23.1293 15.3463 23.1522C15.3902 23.1958 15.4 23.3284 15.3611 23.3534C15.3415 23.3661 15.3415 23.3723 15.3611 23.3849C15.3758 23.3945 15.3857 23.4535 15.3857 23.5318C15.3857 23.6122 15.3953 23.6676 15.4103 23.6751C15.4237 23.6818 15.4278 23.6976 15.419 23.7104C15.4104 23.7233 15.3958 23.717 15.3866 23.6966C15.3576 23.6319 15.2751 23.7766 15.2504 23.9356C15.2192 24.1359 15.2212 25.0886 15.253 25.1628C15.2727 25.2087 15.2727 25.2227 15.253 25.2324C15.2379 25.2399 15.2285 25.2956 15.2285 25.3759C15.2285 25.4558 15.238 25.5118 15.253 25.5196C15.271 25.5289 15.2688 25.5422 15.245 25.5693C15.2054 25.6142 15.2292 25.7284 15.2781 25.7284C15.3718 25.7284 15.2658 25.7792 15.1354 25.7968C14.8606 25.8339 15.0528 25.8562 15.8598 25.881L16.634 25.9046L15.022 25.9211C14.1354 25.9301 12.5025 25.9393 11.3933 25.9413C9.41942 25.9452 9.37403 25.9465 9.25425 26.0006C8.96669 26.1309 8.58642 26.5636 8.38532 26.9896C8.29866 27.1731 8.10118 27.6061 8.04119 27.7441C7.94204 27.9727 7.92362 28.0163 7.86263 28.1688C7.82982 28.2509 7.75624 28.4217 7.69917 28.5484C7.59006 28.7907 7.50028 28.9953 7.44351 29.1314C7.42479 29.1763 7.36289 29.3165 7.30602 29.4434C7.24905 29.5701 7.18715 29.7104 7.16833 29.7552C7.14961 29.7999 7.0877 29.9403 7.03074 30.067C6.97377 30.1938 6.91186 30.3342 6.89314 30.3789C6.87442 30.4236 6.81232 30.5639 6.75525 30.6907C6.69808 30.8174 6.60759 31.0249 6.55415 31.1516C6.5007 31.2784 6.44997 31.3943 6.44131 31.4093C6.43266 31.4242 6.4081 31.4791 6.38676 31.5313C6.36542 31.5835 6.30141 31.7299 6.24444 31.8566C6.18747 31.9834 6.12215 32.1311 6.0993 32.1849C6.07635 32.2386 6.03407 32.3231 6.00529 32.3727L5.95295 32.4628L5.84153 32.3699C5.68179 32.2366 5.51823 32.0364 5.37802 31.8025C5.22573 31.5481 5.22533 31.5477 5.28482 31.6878C5.46509 32.1131 5.78033 32.4295 6.21495 32.6212L6.50976 32.7513L6.85993 32.7514C8.3366 32.7519 9.23805 30.809 8.58924 29.0245C8.46091 28.6716 8.34314 28.4783 8.10731 28.2337C7.95785 28.0785 7.93822 28.0488 7.95563 28.0038C8.02871 27.8154 8.41632 27.0308 8.53046 26.8402C8.84339 26.3173 9.01319 26.1357 9.28173 26.0364C9.36295 26.0065 10.6456 26.0001 16.7069 25.9998L24.0337 25.9995L24.1865 26.1105C24.4164 26.2776 24.6416 26.5288 24.7675 26.7588C24.8124 26.8407 24.9944 27.1495 25.1719 27.445C25.3495 27.7403 25.4915 27.9854 25.4876 27.9899C25.4837 27.9942 25.423 28.0508 25.3527 28.1158C24.116 29.2586 24.3661 31.7832 25.7969 32.5987C26.478 32.9869 27.31 32.7403 27.8185 31.9994C28.1943 31.4519 28.2694 31.2451 28.3491 30.5382C28.4219 29.8928 28.3924 29.6652 28.149 28.9959C27.9494 28.4471 27.446 27.8434 27.1877 27.8434C27.184 27.8434 27.181 28.247 27.181 28.7402V29.6369L27.121 29.757C26.9487 30.1026 26.6834 30.0472 26.4402 29.615C26.3773 29.5031 26.2191 29.2267 26.0888 29.0003C25.9584 28.7742 25.7647 28.4306 25.6582 28.2366C25.5518 28.0428 25.4417 27.8462 25.4136 27.7998C25.3569 27.7064 25.3572 27.7069 25.1695 27.3825C25.0962 27.2557 25.0103 27.1092 24.9788 27.057C24.894 26.9168 24.9015 26.9045 25.0824 26.885C25.2885 26.8628 26.8961 26.8674 27.0531 26.8906L27.1711 26.9079L27.1817 27.3689C27.1874 27.6224 27.1946 27.0307 27.1975 26.0538L27.2027 24.2777L27.3235 24.1963C27.39 24.1515 27.5354 24.0233 27.6467 23.9115C27.8578 23.6993 28.6338 23.0155 29.132 22.6026C29.4126 22.37 29.4497 22.3228 29.3974 22.263C29.3805 22.2437 25.9133 22.2309 18.3345 22.2219C12.2635 22.2148 7.27401 22.2032 7.24704 22.1961C7.21996 22.189 7.04744 22.1929 6.86365 22.2048ZM15.3857 23.0709C15.3857 23.1007 15.3768 23.1252 15.3661 23.1252C15.3552 23.1252 15.3463 23.1007 15.3463 23.0709C15.3463 23.041 15.3552 23.0167 15.3661 23.0167C15.3768 23.0167 15.3857 23.041 15.3857 23.0709ZM15.1363 25.6587C15.1046 25.7085 15.1278 25.7353 15.1619 25.6882C15.1769 25.6677 15.1891 25.6438 15.1891 25.6354C15.1891 25.6081 15.1603 25.6208 15.1363 25.6587Z" fill="#D5B05E"/>
</svg>
